<?xml version="1.0" encoding="utf-8"?>
<!-- Generator: Adobe Illustrator 25.4.1, SVG Export Plug-In . SVG Version: 6.00 Build 0)  -->
<svg version="1.1" id="Layer_1" xmlns="http://www.w3.org/2000/svg" xmlns:xlink="http://www.w3.org/1999/xlink" x="0px" y="0px"
	 viewBox="0 0 1920 1080" style="enable-background:new 0 0 1920 1080;" xml:space="preserve">
<style type="text/css">
	.st0{fill:#F2F6F9;stroke:url(#SVGID_1_);stroke-miterlimit:10;}
</style>
<linearGradient id="SVGID_1_" gradientUnits="userSpaceOnUse" x1="136.6821" y1="543.4047" x2="1720.8218" y2="543.4047">
	<stop  offset="1.385225e-07" style="stop-color:#FFFFFF"/>
	<stop  offset="1" style="stop-color:#B4DAF9"/>
</linearGradient>
<path class="st0" d="M451.18,1068.05c-1.63-0.92-3.45-1.42-5.29-1.79c-14.42-2.92-28.78-6.11-42.97-10.05
	c-25.14-6.98-48.71-17.68-71.62-29.81c-20.66-10.94-39.99-24.14-58.02-39.08c-31.36-25.96-58.26-55.92-79.82-90.52
	c-18.53-29.71-32.87-61.27-42.45-95.06c-4.5-15.9-6.42-32.39-11.07-48.09c-3.81-12.83-2.23-25.35-2.53-37.99
	c-0.47-20.29-0.11-40.6-0.03-60.88c0-1.85,0.27-3.69,0.87-5.45c1.21-3.6,2.14-7.26,3.32-10.86c0.24-0.74,0.44-1.5,0.58-2.27
	c3.61-20.24,8.75-40.07,15.53-59.49c12.81-36.63,30.97-70.55,54.58-101.11c30.75-39.79,67.62-73.04,111.92-97.56
	c12.41-6.89,24.79-13.81,38.2-18.53c7.66-2.69,6.19-10.07,7.8-15.18c17.18-54.05,43.91-102.91,78.86-147.39
	c26.23-33.39,56.6-62.44,90.57-88.05c40.78-30.75,85.51-53.76,133.38-70.63c24.03-8.48,48.92-14.37,74.2-18.32
	c1.69-0.27,3.37-0.66,5.05-1.06c1.42-0.34,2.74-0.94,4.08-1.5c2.93-1.26,6.47-0.06,9.44-1.13c1.92-0.68,3.93-1.03,5.95-1.03
	c35.47-0.02,70.92,0.03,106.39-0.15c4.42-0.02,8.03,1.74,11.97,2.97c10.26,3.14,21.02,4.08,31.5,6.19
	c30.33,6.11,59.53,15.47,87.96,27.42c31.33,13.18,60.99,29.57,88.6,49.3c30.42,21.74,58,46.78,82.57,75.1
	c14.29,16.45,27.78,33.49,39.37,51.99c1.27,2.03,2.81,3.29,5.85,2.58c36.53-8.47,73.73-6.29,110.57-4.72
	c16.55,0.71,33.39,4.63,50,8.11c52.71,11.04,101.02,32.04,145.48,61.89c46.91,31.5,86.06,70.86,117.53,118.01
	c28.29,42.4,47.57,88.54,60.28,137.59c3.14,12.1,4.69,24.61,6.98,36.92c6.58,35.36,1.84,71.04,2.92,106.56
	c0.06,2.02-0.4,3.97-1.02,5.87c-0.81,2.52,0.26,5.56-1,7.97c-0.6,1.14-1.21,2.27-1.52,3.53c-4.14,16.71-6.93,33.71-11.65,50.34
	c-10.81,38.16-27.07,73.71-47.6,107.49c-19.63,32.29-43.57,61.14-71.21,86.76c-36.6,33.92-77.72,61.04-123.82,80.67
	c-21.73,9.25-43.99,16.5-66.73,22.45c-10.78,2.82-21.89,4.39-32.89,6.34c-1.81,0.32-3.63,0.79-5.22,1.69
	c-2.32,1.31-5.37,0.81-7.79,1.87c-2.34,1.02-4.77,1.76-7.32,1.76c-272.01,0.02-544.01,0.05-816.04,0.06
	c-20.45,0-40.9-0.05-61.35-0.1c-2.47,0-4.85-0.71-7.11-1.71C455.48,1069.07,453.06,1069.12,451.18,1068.05z"/>
</svg>
