<?xml version="1.0" encoding="utf-8"?>
<!-- Generator: Adobe Illustrator 25.4.1, SVG Export Plug-In . SVG Version: 6.00 Build 0)  -->
<svg version="1.1" id="Layer_1" xmlns="http://www.w3.org/2000/svg" xmlns:xlink="http://www.w3.org/1999/xlink" x="0px" y="0px"
	 viewBox="0 0 1920 1080" style="enable-background:new 0 0 1920 1080;" xml:space="preserve">
<style type="text/css">
	.st0{fill:#B4DAF9;}
	.st1{fill:#FFFFFF;}
	.st2{fill:#FFFFFF;stroke:#B4DAF9;stroke-miterlimit:10;}
</style>
<g>
	<g>
		<path class="st0" d="M1503.27,457.2c35.4,38.09,57.84,81.75,62.83,134.53c10.58,111.96-78.54,218.51-190.84,223.93
			c-54.78,2.65-109.77,1.09-164.66,1.1c-101.16,0.02-202.31-0.2-303.47-0.32c-13.25,2.81-15.72-6.48-17.35-15.97
			c-3.37-19.58-8.41-38.42-18.68-55.79c-19.74-33.36-48.79-53.91-86.32-61.17c-19.14-3.7-28.87-12.46-35.59-31.32
			c-25.03-70.22-76.6-109.98-150.38-115.86c-71.93-5.73-141.51,38.97-169.16,111.02c-1.55,4.03-2.84,8.16-4.18,12.26
			c-8.03,24.64-8.95,25.12-33.94,21.61c-32.13-4.51-60.88,5.12-88.12,21.26c-5.9,3.5-10.94,11.08-19.59,5.88
			c-59.47-94.22-17.97-232.11,85.86-285.11c28.99-14.8,59.66-23.41,92.36-22.86c10.76,0.18,15.62-2.34,18.82-14.09
			c29.87-109.54,136.31-174.38,246.98-150.35c12.85,2.79,15.46-0.72,17.95-11.58C774.51,99.08,869.16,18.76,997.84,10.05
			c96.87-6.56,206.49,57.43,244.92,142.96c4.24,8.86-3.06,12.41-8.17,16.12c-20.54,14.9-36.47,33.17-43.88,57.88
			c-3.91,13.05-13.63,15.46-25.63,16.58c-42.65,4-78.44,34.28-89.44,74.67c-18.27,67.07,30.23,132.24,100.05,132.81
			c93.73,0.78,187.47,0.18,281.2,0.21c9.25,0,18.51-0.25,27.75,0.14C1491.29,451.7,1498.43,450.87,1503.27,457.2z"/>
		<path class="st1" d="M283.81,708.39c23.56-12.79,45.66-28.53,73.61-31.68c12.96-1.46,25.64-3.1,38.32,0.54
			c12.62,3.63,19.46,1.46,23.63-13.33c18.02-64.04,59.26-106.4,123.09-126.32c80.04-24.98,177.81,20.78,206.21,99.68
			c9.16,25.46,20.62,38.39,47.93,45.17c58.92,14.63,88.9,57.93,97.53,116.41c1.41,9.53,4.86,14.52,13.01,17.58
			c18.43,21.56,36.12,43.37,43.05,72.02c21.3,88.07-41.02,169.2-135.25,169.99c-192.27,1.62-384.56,1.06-576.84,0.16
			c-61.15-0.29-105.91-29.71-129.75-86.84c-20.98-50.26-8.13-108.41,30.94-146.56c24.74-24.15,54.48-38.06,89.27-38.79
			c10.44-0.22,15.5-3,17.59-13.34C251.34,747.36,269.67,729.04,283.81,708.39z"/>
		<path class="st2" d="M1503.27,457.2c-108.5-0.22-217-0.45-325.5-0.65c-58.67-0.11-99.97-37.96-109.74-95.89
			c-10.96-64.96,44.93-123.11,101.7-122.61c6.28,0.05,12.09,0.35,14.32-7.94c8.24-30.72,27.42-53.15,54.17-69.55
			c2.95-1.81,4.09-4.4,4.55-7.55c4.49,4.3,9.01,1.81,13.64,0.22c16.07-5.51,33-7.38,49.22-3.77c14.83,3.3,17.8-2.56,21.27-15.06
			c16.91-60.88,71.36-102.46,133.33-103.24c62.8-0.79,118.79,40.15,136.77,101.38c3.29,11.19,7.46,15.53,19.34,17.06
			c46.98,6.07,83.5,43.56,91.49,93.35c1.48,9.22,4.74,15.38,11.58,21.54c35.5,31.98,46.84,77.97,30.63,120.95
			c-16.49,43.73-55.82,70.81-104.42,71.26C1598.16,457.14,1550.71,457.06,1503.27,457.2z"/>
	</g>
</g>
</svg>
