<?xml version="1.0" encoding="utf-8"?>
<!-- Generator: Adobe Illustrator 25.4.1, SVG Export Plug-In . SVG Version: 6.00 Build 0)  -->
<svg version="1.1" id="Layer_1" xmlns="http://www.w3.org/2000/svg" xmlns:xlink="http://www.w3.org/1999/xlink" x="0px" y="0px"
	 viewBox="0 0 1920 1080" style="enable-background:new 0 0 1920 1080;" xml:space="preserve">
<style type="text/css">
	.st0{fill:url(#SVGID_1_);stroke:#B4DAF9;stroke-miterlimit:10;}
	.st1{fill:url(#SVGID_00000021111765914830916280000010350620082687570363_);stroke:#B4DAF9;stroke-miterlimit:10;}
	.st2{fill:url(#SVGID_00000139992220573207093830000010780329825353727874_);stroke:#B4DAF9;stroke-miterlimit:10;}
	.st3{fill:url(#SVGID_00000096047312762260067530000017980948871503393938_);stroke:#B4DAF9;stroke-miterlimit:10;}
	.st4{fill:#B4DAF9;}
	.st5{fill:#FFFFFF;}
	.st6{fill:#FFFFFF;stroke:#B4DAF9;stroke-miterlimit:10;}
</style>
<g>
	<g>
		
			<linearGradient id="SVGID_1_" gradientUnits="userSpaceOnUse" x1="68.5579" y1="1093.0775" x2="660.0335" y2="1093.0775" gradientTransform="matrix(0.9813 -0.1926 0.1926 0.9813 -263.5622 -734.5229)">
			<stop  offset="1.385225e-07" style="stop-color:#FFFFFF"/>
			<stop  offset="1" style="stop-color:#B4DAF9"/>
		</linearGradient>
		<path class="st0" d="M167.1,494.6c-0.7-0.2-1.4-0.3-2.1-0.3c-5.5,0-11-0.2-16.5-0.6c-9.7-0.7-19.1-3-28.4-5.8
			c-8.4-2.5-16.4-6-24.1-10.2c-13.4-7.3-25.4-16.3-35.8-27.4c-8.9-9.6-16.5-20.1-22.4-31.8c-2.8-5.5-4.7-11.4-7.5-16.8
			c-2.3-4.4-2.6-9.1-3.7-13.7c-1.6-7.4-3-14.9-4.4-22.3c-0.1-0.7-0.2-1.4-0.1-2.1c0.2-1.4,0.3-2.8,0.4-4.2c0-0.3,0.1-0.6,0-0.9
			c-0.1-7.7,0.3-15.3,1.4-22.9c2.1-14.4,6.3-28.1,12.7-41c8.4-16.8,19.5-31.6,34-43.8c4.1-3.4,8.1-6.8,12.7-9.5
			c2.6-1.5,1.5-4.1,1.8-6.1c2.4-21.1,8.7-40.9,18.3-59.7c7.2-14.1,16.3-27,26.9-38.8c12.7-14.2,27.5-25.9,43.8-35.5
			c8.2-4.8,16.9-8.8,25.9-12.1c0.6-0.2,1.2-0.5,1.8-0.8c0.5-0.2,0.9-0.5,1.4-0.8c1-0.7,2.4-0.5,3.4-1.1c0.7-0.4,1.4-0.7,2.1-0.8
			c13-2.6,26-5.1,39-7.7c1.6-0.3,3.1,0.1,4.6,0.2c4,0.4,8,0,12,0c11.6,0.1,22.9,1.4,34.2,3.7c12.4,2.6,24.5,6.5,36,11.7
			c12.7,5.8,24.6,13,35.7,21.6c6.4,5,12.6,10.3,18.2,16.2c0.6,0.7,1.3,1,2.3,0.5c12.8-5.7,26.6-7.6,40.2-9.7
			c6.1-0.9,12.6-0.7,18.9-0.6c20.1,0.3,39.3,4.5,57.8,12.2c19.5,8.2,36.6,19.8,51.6,34.8c13.4,13.5,23.8,29,32,46.1
			c2,4.2,3.5,8.7,5.2,13c5,12.5,5.8,25.9,8.7,38.9c0.2,0.7,0.1,1.5,0,2.2c-0.1,1,0.5,2,0.2,3c-0.1,0.5-0.3,0.9-0.3,1.4
			c-0.3,6.4-0.1,12.9-0.6,19.3c-1.2,14.8-4.6,29-9.7,42.8c-4.9,13.3-11.6,25.6-19.9,36.9c-11,15.1-24.1,28-39.6,38.5
			c-7.3,5-14.9,9.2-22.8,13c-3.8,1.8-7.7,3.2-11.6,4.7c-0.6,0.2-1.3,0.6-1.8,1c-0.8,0.6-1.9,0.7-2.7,1.2c-0.8,0.5-1.6,1-2.6,1.2
			c-99.7,19.6-199.4,39.2-299.2,58.7c-7.5,1.5-15,2.9-22.5,4.4c-0.9,0.2-1.8,0.1-2.7-0.1C168.8,494.7,167.9,494.9,167.1,494.6z"/>
		
			<linearGradient id="SVGID_00000025417524038279348000000004545897166935372457_" gradientUnits="userSpaceOnUse" x1="552.9831" y1="1532.0791" x2="554.2753" y2="1532.0791" gradientTransform="matrix(0.9813 -0.1926 0.1926 0.9813 -263.5622 -734.5229)">
			<stop  offset="1.385225e-07" style="stop-color:#FFFFFF"/>
			<stop  offset="1" style="stop-color:#B4DAF9"/>
		</linearGradient>
		<path style="fill:url(#SVGID_00000025417524038279348000000004545897166935372457_);stroke:#B4DAF9;stroke-miterlimit:10;" d="
			M574.6,664.1c0.1-1.4-1.6-3,0.3-4.3c0.3,1.3,0.6,2.6,0.8,4C575.9,665.4,575,663.9,574.6,664.1z"/>
	</g>
</g>
<g>
	<g>
		
			<linearGradient id="SVGID_00000107586123817327434070000012384066848013769914_" gradientUnits="userSpaceOnUse" x1="-1202.3711" y1="1367.589" x2="-610.8956" y2="1367.589" gradientTransform="matrix(-0.9813 -0.1926 -0.1926 0.9813 997.0213 -734.5229)">
			<stop  offset="1.385225e-07" style="stop-color:#FFFFFF"/>
			<stop  offset="1" style="stop-color:#B4DAF9"/>
		</linearGradient>
		<path style="fill:url(#SVGID_00000107586123817327434070000012384066848013769914_);stroke:#B4DAF9;stroke-miterlimit:10;" d="
			M1758.2,1009c-0.9,0.2-1.8,0.3-2.7,0.1c-7.5-1.5-15-2.9-22.5-4.4c-99.7-19.6-199.4-39.2-299.2-58.7c-0.9-0.2-1.8-0.6-2.6-1.2
			c-0.8-0.6-2-0.6-2.7-1.2c-0.5-0.4-1.2-0.7-1.8-1c-3.9-1.5-7.9-2.9-11.6-4.7c-7.9-3.8-15.5-8.1-22.8-13
			c-15.5-10.5-28.6-23.4-39.6-38.5c-8.3-11.4-15-23.7-19.9-36.9c-5.1-13.9-8.5-28.1-9.7-42.8c-0.5-6.4-0.3-12.9-0.6-19.3
			c0-0.5-0.2-0.9-0.3-1.4c-0.3-1,0.3-2,0.2-3c-0.1-0.7-0.1-1.5,0-2.2c3-12.9,3.8-26.4,8.7-38.9c1.7-4.3,3.2-8.8,5.2-13
			c8.2-17.1,18.6-32.6,32-46.1c14.9-15,32.1-26.6,51.6-34.8c18.4-7.7,37.7-12,57.8-12.2c6.3-0.1,12.8-0.3,18.9,0.6
			c13.6,2.1,27.4,4,40.2,9.7c1.1,0.5,1.7,0.1,2.3-0.5c5.6-5.9,11.8-11.2,18.2-16.2c11-8.6,23-15.8,35.7-21.6
			c11.5-5.2,23.6-9.1,36-11.7c11.3-2.3,22.7-3.7,34.2-3.7c4,0,8,0.4,12,0c1.5-0.2,3-0.6,4.6-0.2c13,2.6,26,5.2,39,7.7
			c0.7,0.1,1.5,0.4,2.1,0.8c1,0.6,2.4,0.4,3.4,1.1c0.5,0.3,0.9,0.6,1.4,0.8c0.6,0.3,1.2,0.5,1.8,0.8c9,3.3,17.7,7.2,25.9,12.1
			c16.3,9.6,31.1,21.3,43.8,35.5c10.6,11.8,19.7,24.7,26.9,38.8c9.6,18.8,15.9,38.7,18.3,59.7c0.2,2-0.8,4.6,1.8,6.1
			c4.6,2.7,8.6,6.1,12.7,9.5c14.5,12.2,25.6,27,34,43.8c6.5,12.9,10.7,26.6,12.7,41c1.1,7.6,1.5,15.2,1.4,22.9c0,0.3,0,0.6,0,0.9
			c0.2,1.4,0.3,2.8,0.4,4.2c0.1,0.7,0.1,1.4-0.1,2.1c-1.4,7.4-2.8,14.9-4.4,22.3c-1,4.6-1.3,9.3-3.7,13.7
			c-2.8,5.4-4.7,11.3-7.5,16.8c-5.9,11.7-13.5,22.2-22.4,31.8c-10.4,11.1-22.4,20.2-35.8,27.4c-7.7,4.2-15.7,7.6-24.1,10.2
			c-9.3,2.8-18.7,5-28.4,5.8c-5.5,0.4-11,0.6-16.5,0.6c-0.7,0-1.4,0.1-2.1,0.3C1759.8,1009.1,1758.9,1008.9,1758.2,1009z"/>
		
			<linearGradient id="SVGID_00000046302417583185408720000011130549900229643424_" gradientUnits="userSpaceOnUse" x1="-654.7789" y1="1429.9451" x2="-653.4868" y2="1429.9451" gradientTransform="matrix(-0.9813 -0.1926 -0.1926 0.9813 997.0213 -734.5229)">
			<stop  offset="1.385225e-07" style="stop-color:#FFFFFF"/>
			<stop  offset="1" style="stop-color:#B4DAF9"/>
		</linearGradient>
		<path style="fill:url(#SVGID_00000046302417583185408720000011130549900229643424_);stroke:#B4DAF9;stroke-miterlimit:10;" d="
			M1362.6,796.2c0.1-1.3,0.5-2.7,0.8-4c1.9,1.3,0.2,2.9,0.3,4.3C1363.3,796.4,1362.4,797.8,1362.6,796.2z"/>
	</g>
</g>
<g>
	<g>
		<path class="st4" d="M1560.7,462.7c35.4,38.1,57.8,81.8,62.8,134.5c10.6,112-78.5,218.5-190.8,223.9
			c-54.8,2.7-109.8,1.1-164.7,1.1c-101.2,0-202.3-0.2-303.5-0.3c-13.2,2.8-15.7-6.5-17.3-16c-3.4-19.6-8.4-38.4-18.7-55.8
			c-19.7-33.4-48.8-53.9-86.3-61.2c-19.1-3.7-28.9-12.5-35.6-31.3c-25-70.2-76.6-110-150.4-115.9c-71.9-5.7-141.5,39-169.2,111
			c-1.5,4-2.8,8.2-4.2,12.3c-8,24.6-9,25.1-33.9,21.6c-32.1-4.5-60.9,5.1-88.1,21.3c-5.9,3.5-10.9,11.1-19.6,5.9
			c-59.5-94.2-18-232.1,85.9-285.1c29-14.8,59.7-23.4,92.4-22.9c10.8,0.2,15.6-2.3,18.8-14.1c29.9-109.5,136.3-174.4,247-150.4
			c12.8,2.8,15.5-0.7,18-11.6C832,104.5,926.6,24.2,1055.3,15.5c96.9-6.6,206.5,57.4,244.9,143c4.2,8.9-3.1,12.4-8.2,16.1
			c-20.5,14.9-36.5,33.2-43.9,57.9c-3.9,13.1-13.6,15.5-25.6,16.6c-42.7,4-78.4,34.3-89.4,74.7c-18.3,67.1,30.2,132.2,100.1,132.8
			c93.7,0.8,187.5,0.2,281.2,0.2c9.2,0,18.5-0.2,27.8,0.1C1548.8,457.2,1555.9,456.3,1560.7,462.7z"/>
		<path class="st5" d="M341.3,713.9c23.6-12.8,45.7-28.5,73.6-31.7c13-1.5,25.6-3.1,38.3,0.5c12.6,3.6,19.5,1.5,23.6-13.3
			c18-64,59.3-106.4,123.1-126.3c80-25,177.8,20.8,206.2,99.7c9.2,25.5,20.6,38.4,47.9,45.2c58.9,14.6,88.9,57.9,97.5,116.4
			c1.4,9.5,4.9,14.5,13,17.6c18.4,21.6,36.1,43.4,43,72c21.3,88.1-41,169.2-135.2,170c-192.3,1.6-384.6,1.1-576.8,0.2
			c-61.1-0.3-105.9-29.7-129.8-86.8c-21-50.3-8.1-108.4,30.9-146.6c24.7-24.2,54.5-38.1,89.3-38.8c10.4-0.2,15.5-3,17.6-13.3
			C308.8,752.8,327.1,734.5,341.3,713.9z"/>
		<path class="st6" d="M1560.7,462.7c-108.5-0.2-217-0.5-325.5-0.6c-58.7-0.1-100-38-109.7-95.9c-11-65,44.9-123.1,101.7-122.6
			c6.3,0.1,12.1,0.4,14.3-7.9c8.2-30.7,27.4-53.2,54.2-69.6c2.9-1.8,4.1-4.4,4.6-7.6c4.5,4.3,9,1.8,13.6,0.2
			c16.1-5.5,33-7.4,49.2-3.8c14.8,3.3,17.8-2.6,21.3-15.1c16.9-60.9,71.4-102.5,133.3-103.2c62.8-0.8,118.8,40.2,136.8,101.4
			c3.3,11.2,7.5,15.5,19.3,17.1c47,6.1,83.5,43.6,91.5,93.3c1.5,9.2,4.7,15.4,11.6,21.5c35.5,32,46.8,78,30.6,120.9
			c-16.5,43.7-55.8,70.8-104.4,71.3C1655.6,462.6,1608.2,462.5,1560.7,462.7z"/>
	</g>
</g>
</svg>
