<?xml version="1.0" encoding="utf-8"?>
<!-- Generator: Adobe Illustrator 25.4.1, SVG Export Plug-In . SVG Version: 6.00 Build 0)  -->
<svg version="1.1" id="Layer_1" xmlns="http://www.w3.org/2000/svg" xmlns:xlink="http://www.w3.org/1999/xlink" x="0px" y="0px"
	 viewBox="0 0 1920 1080" style="enable-background:new 0 0 1920 1080;" xml:space="preserve">
<style type="text/css">
	.st0{fill:url(#SVGID_1_);stroke:#B4DAF9;stroke-miterlimit:10;}
	.st1{fill:url(#SVGID_00000090995428722732196710000000436578700265972891_);stroke:#B4DAF9;stroke-miterlimit:10;}
</style>
<g>
	<g>
		
			<linearGradient id="SVGID_1_" gradientUnits="userSpaceOnUse" x1="204.6727" y1="542" x2="1788.7699" y2="542" gradientTransform="matrix(1 0 0 -1 0 1080)">
			<stop  offset="1.385225e-07" style="stop-color:#FFFFFF"/>
			<stop  offset="1" style="stop-color:#B4DAF9"/>
		</linearGradient>
		<path class="st0" d="M518.86,1062.94c-1.63-0.92-3.45-1.42-5.29-1.79c-14.43-2.92-28.8-6.11-43-10.06
			c-25.15-6.98-48.74-17.69-71.66-29.83c-20.67-10.95-40.01-24.15-58.05-39.1c-31.38-25.98-58.29-55.95-79.87-90.57
			c-18.54-29.73-32.89-61.31-42.47-95.12c-4.5-15.91-6.42-32.41-11.08-48.12c-3.81-12.84-2.23-25.36-2.53-38.01
			c-0.47-20.3-0.11-40.62-0.03-60.92c0-1.85,0.27-3.69,0.87-5.45c1.21-3.6,2.14-7.26,3.32-10.87c0.24-0.74,0.44-1.5,0.58-2.27
			c3.61-20.25,8.76-40.09,15.54-59.52c12.82-36.65,30.99-70.59,54.61-101.17c30.77-39.81,67.66-73.08,111.99-97.62
			c12.42-6.89,24.8-13.82,38.22-18.54c7.66-2.69,6.19-10.08,7.8-15.19c17.19-54.08,43.94-102.97,78.91-147.48
			c26.25-33.41,56.63-62.48,90.62-88.1c40.8-30.77,85.56-53.79,133.46-70.67c24.04-8.48,48.95-14.38,74.24-18.33
			c1.69-0.27,3.37-0.66,5.05-1.06c1.42-0.34,2.74-0.94,4.08-1.5c2.93-1.26,6.47-0.06,9.45-1.13c1.92-0.68,3.93-1.03,5.95-1.03
			c35.49-0.02,70.96,0.03,106.45-0.15c4.42-0.02,8.03,1.74,11.98,2.97c10.27,3.14,21.03,4.08,31.52,6.19
			c30.35,6.11,59.56,15.48,88.01,27.44c31.35,13.19,61.03,29.59,88.65,49.33c30.44,21.75,58.03,46.81,82.62,75.14
			c14.3,16.46,27.8,33.51,39.39,52.02c1.27,2.03,2.81,3.29,5.85,2.58c36.55-8.47,73.77-6.29,110.63-4.72
			c16.56,0.71,33.41,4.63,50.03,8.11c52.74,11.05,101.08,32.06,145.57,61.93c46.94,31.52,86.11,70.9,117.6,118.08
			c28.31,42.42,47.6,88.59,60.32,137.67c3.14,12.11,4.69,24.62,6.98,36.94c6.58,35.38,1.84,71.08,2.92,106.62
			c0.06,2.02-0.4,3.97-1.02,5.87c-0.81,2.52,0.26,5.56-1,7.97c-0.6,1.14-1.21,2.27-1.52,3.53c-4.14,16.72-6.93,33.73-11.66,50.37
			c-10.82,38.18-27.09,73.75-47.63,107.55c-19.64,32.31-43.6,61.18-71.25,86.81c-36.62,33.94-77.77,61.08-123.89,80.72
			c-21.74,9.26-44.02,16.51-66.77,22.46c-10.79,2.82-21.9,4.39-32.91,6.34c-1.81,0.32-3.63,0.79-5.22,1.69
			c-2.32,1.31-5.37,0.81-7.79,1.87c-2.34,1.02-4.77,1.76-7.32,1.76c-272.17,0.02-544.33,0.05-816.52,0.06
			c-20.46,0-40.92-0.05-61.39-0.1c-2.47,0-4.85-0.71-7.11-1.71C523.16,1063.96,520.74,1064.01,518.86,1062.94z"/>
		
			<linearGradient id="SVGID_00000091711127160711827540000015194100302271377802_" gradientUnits="userSpaceOnUse" x1="1671.2147" y1="375.0067" x2="1674.6753" y2="375.0067" gradientTransform="matrix(1 0 0 -1 0 1080)">
			<stop  offset="1.385225e-07" style="stop-color:#FFFFFF"/>
			<stop  offset="1" style="stop-color:#B4DAF9"/>
		</linearGradient>
		<path style="fill:url(#SVGID_00000091711127160711827540000015194100302271377802_);stroke:#B4DAF9;stroke-miterlimit:10;" d="
			M1671.42,709.7c1-3.71-2.56-8.71,3.11-11.13c0.02,3.61,0.32,7.27,0,10.85C1674.12,713.8,1672.47,709.56,1671.42,709.7z"/>
	</g>
</g>
</svg>
