<?xml version="1.0" encoding="utf-8"?>
<!-- Generator: Adobe Illustrator 25.4.1, SVG Export Plug-In . SVG Version: 6.00 Build 0)  -->
<svg version="1.1" id="Layer_1" xmlns="http://www.w3.org/2000/svg" xmlns:xlink="http://www.w3.org/1999/xlink" x="0px" y="0px"
	 viewBox="0 0 1920 1080" style="enable-background:new 0 0 1920 1080;" xml:space="preserve">
<style type="text/css">
	.st0{fill:#DCF1FF;}
	.st1{fill:#83D3FF;}
</style>
<g>
	<g>
		<path class="st0" d="M958.5,880.3c-2.8-4.2-7.1-3.4-11.1-3.4c-97.1,0.1-194.1,0.3-291.2,0.4c-4.9-9.3,1.2-17.7,2.7-26.4
			c1.6-9.4,4.7-18.6,7.4-30.4c-19.8,14.8-36.1,29.3-51.4,44.9c-4.8,4.9-8.7,11.7-17.1,11.6c-36.6-0.1-73.2-0.1-109.8-0.2
			c-95.9-0.2-170.6-39.5-217-124.3c-33.8-61.8-37.1-127.8-10-193.4c29.8-72.2,83.4-118.5,159.2-138.1c14.8-3.8,30.2-6.7,45.4-7.2
			c11.8-0.4,11.3-5.5,10.6-14c-2.9-37.3,2.9-73,23.5-104.9c28.6-44.3,68.3-70.9,121.8-77.3c26.9-3.2,52.1,0.4,76.7,9.9
			c7.7,3,10.1,0.1,12.7-5.7c15.8-35.8,38.8-67,65.8-94.4c34.1-34.6,73.7-62.7,118.9-81.3c45.6-18.8,93.4-29.3,142.5-28.2
			c87.5,2,165.9,29.9,233.1,87.6c66.7,57.2,107.7,129.4,121.6,215.4c4,24.5,12.8,29.8,34.3,35.5c108.7,28.5,177.4,99.5,198,209.3
			c27.3,144.8-69.4,283.4-220.5,307.7c-16.5,2.7-33.5,3.9-50.6,3.9c-111.3-0.5-222.6-0.3-334-0.3c-5.5-6.9-1.2-13.8,0.2-20.6
			c2.1-10.5,5.6-20.6,7.8-34.6c-21.8,16.2-39.5,32.1-56.4,49.1C967.7,874.5,965.5,880.8,958.5,880.3z"/>
		<path class="st1" d="M958.5,880.3c21-24.7,45.2-45.8,73.6-67c-0.3,24-10.5,43-12.2,63.5c-3.3,12.3-6.8,24.6-10,37
			c-3.7,14.7-11.9,25.2-27.4,27.7c-12.6,2-23.4-2.5-30.8-13.2c-9-13.1-7.1-26.1,0.8-39C954.4,886.2,956.5,883.3,958.5,880.3z"/>
		<path class="st1" d="M836.8,913.2c-9.9,38.4-18,73.8-28.3,108.6c-4.8,16.1-23.9,22.8-39.5,17c-16.5-6.1-25-23.3-19.4-40
			c1.6-4.8,4.2-9.4,7.1-13.6C770.5,964.6,814.3,924.5,836.8,913.2z"/>
		<path class="st1" d="M597.6,877.1c18.4-18.6,36.9-37,57.4-53.3c4.4-3.5,9-6.6,17.1-12.6c-5.9,24.5-10.9,45.3-16,66.1
			c-3.3,12.9-6.7,25.7-10,38.6c-3.6,14.4-12.7,23.4-27.3,25.6c-12,1.8-22.5-2.6-29.6-12.6c-8.6-12.1-7.8-25-0.8-37.6
			C591.3,886.4,594.6,881.8,597.6,877.1z"/>
		<path class="st1" d="M1163,924.3c-7.5,30.9-14.4,62-22.7,92.7c-5.4,19.8-24.5,28.6-42.4,21.4c-18.4-7.4-25.4-27.7-15.5-46.3
			c8.8-16.6,22.7-29.1,36.2-41.8c12.7-12,25.5-23.9,40.2-33.6C1164.9,916.6,1164.1,920.3,1163,924.3z"/>
		<path class="st1" d="M1233.5,645.8c-10.1,39.8-18.4,75.6-28.6,111c-4.9,17.1-24.7,24.4-41.7,17.8c-15.6-6-23.6-24.5-17.2-40.9
			c6.3-16.3,18.8-28,30.8-39.9C1193.2,677.4,1210.5,662.3,1233.5,645.8z"/>
		<path class="st1" d="M902.6,649.8c-9.1,35.6-17.5,71.4-27.6,106.7c-4.8,16.8-23.6,24.2-40,18.4c-16.4-5.8-24.9-23.2-19.2-39.8
			c1.6-4.8,4-9.5,7-13.6C843.7,691.9,872.1,670.3,902.6,649.8z"/>
	</g>
</g>
</svg>
