<?xml version="1.0" encoding="utf-8"?>
<!-- Generator: Adobe Illustrator 25.4.1, SVG Export Plug-In . SVG Version: 6.00 Build 0)  -->
<svg version="1.1" id="Layer_1" xmlns="http://www.w3.org/2000/svg" xmlns:xlink="http://www.w3.org/1999/xlink" x="0px" y="0px"
	 viewBox="0 0 1920 1080" style="enable-background:new 0 0 1920 1080;" xml:space="preserve">
<style type="text/css">
	.st0{fill:#80D3F9;}
	.st1{fill:#E0F4FD;}
	.st2{fill:#EDF8FD;}
	.st3{fill:#8FC9F8;}
</style>
<g>
	<g>
		<path class="st0" d="M561.3,610.2c-1.1-4.6-2.1-9.2-3.5-15.1c-16.1,11.5-31.9,20.8-49.9,26.5c-81,25.8-167.1-28.9-180.2-112.8
			c-11.8-76.1,42.1-155.6,132.8-162.3c12.2-0.9,24.3,1.4,36.2,4c7,1.5,10.8,0.8,13.6-6.9c20.3-55.1,58.9-89.2,117.2-99.4
			c10.2-1.8,4.7-7.8,3.7-11.5c-8.9-32.4-9-64.7,3-96c23.5-61.7,68.4-97.3,134.3-104.5C845.8,23.8,913.3,74.4,933,141
			c2.8,9.5,4.7,10.8,14.1,5c68.8-42.7,150.8-33.5,207.5,22.4c39.8,39.2,56.2,88.2,46.6,144.3c-1.4,7.9,0.7,10.6,7.6,12.9
			c15.4,5.2,28.3,15.1,42.1,23.3c29,17.8,45.2,45.3,56.3,76.1c32.1,88.8-19.5,191-110,218.5c-7.1,2.1-14.2,4.1-21.7,4.2
			c-6.1-0.3-12,0.5-17.9,1.9c-43.9,4.6-82.6-8.4-116.9-35.2c-7.5-5.8-11.4-6.3-17.4,2.2c-51.9,73.2-142.8,89-216.2,37.7
			c-8.7-6.1-13.1-5.6-20.3,2.2c-64.9,70.7-174.6,55.6-219.8-26.7C563.8,623.8,559.8,617.8,561.3,610.2z"/>
		<path class="st1" d="M561.3,610.2c17.6,41.5,46.6,70.3,90.6,83.4c46.6,13.9,106.6-4.6,136-43.6c5.9-7.9,9-8.5,16.8-2
			c55.8,46.6,142.1,42.6,194.1-8.6c9-8.9,18.8-17.3,24.4-28.8c4.5-9.3,8.8-8.5,15.4-2.6c17.1,15.3,37.2,25.3,58.9,32.5
			c19.4,6.5,39.3,6.6,59.3,6.4c1.9,6.6-3,10.5-6.2,14.9c-16.3,22.6-32.1,45.4-45.9,69.7c-7.1,12.5-12.5,25.7-18.1,38.9
			c-17.7,41.6,19.3,100.8,71.7,100.5c6.7,0,14-2.1,19.9,3.4c-26.4,21.7-57.4,32.9-90.9,33.3c-34.4,0.5-66.4-9.9-94.1-31.5
			c-1.7-1.3-3-5-6.1-1.7c-5.5,0.7-7.4-3.8-9.8-7.2c-4.6-6.3-8.7-13-13.5-19.2c-9.9-12.9-11.2-13-20.6-0.4
			c-15.6,20.9-30.5,42.3-43.7,64.9c-2.7,4.6-4.3,10.7-11.2,11.3c-29.7,1.8-57.8-2.4-83.6-18.8c-30.6-19.4-49.2-46.9-59.4-82.2
			c-13.2,7.5-25.2,16.6-39.3,22.4c-80.1,32.9-174.1-17.3-189.3-103.9C507.5,689.7,521.4,645.5,561.3,610.2z"/>
		<path class="st2" d="M1175.6,644.4c47.1-7.3,83.6-31.9,109.3-70.9c40.6-61.7,38.2-132.7-4.9-192.8c-8.3-11.6-19.3-21.2-29-31.7
			c70,8.9,129.8,68.7,139.3,137.5c2.6,18.9,2.3,37.2-1.1,55.5c-1.2,6.4,0.6,8.4,5.7,10.5c57.7,24.3,94.1,67.3,103.7,128.8
			c7.3,46.9-2.9,92.2-34.1,129.9c-40.1,48.3-92.7,69.4-154.7,62.6c-28.2-3.1-56-11.9-76.9-33.8c-3.3-5,0.1-9.2,2-13.4
			c9.6-21.4,10.1-42.5,0.6-64.4c-15.5-35.8-37.8-67.4-60.3-98.9c-1.8-2.5-3.5-4.9-5.3-7.4C1164.4,648.3,1168.4,645.6,1175.6,644.4z"
			/>
		<path class="st3" d="M1175.6,644.4c-9.7,3.5-4.4,8.5-1.1,12.9c17.9,23.6,34.2,48.2,49.3,73.6c20.9,35.1,31.9,70.6,9,109.1
			c-15.4,16-31.9,30.3-54.7,34.6c-15-0.7-30.1,1.5-45-4.2c-38.7-14.8-71.5-61.9-43.7-117c16.7-33,36.9-63.7,58.6-93.5
			c3.1-4.2,5.8-8.6,8.7-12.9C1162.7,643.3,1169.2,644.3,1175.6,644.4z"/>
		<path class="st3" d="M888.2,924.1c17.8-27.3,34.6-55.2,54.6-81c10.1-13.1,11.1-13.3,21.1,0.3c7.7,10.5,15.5,20.9,23.2,31.3
			c16.5,27.5,35.5,53.6,45.6,84.6c15.9,49-22,101.2-73.6,104.1c-53.3,3-90.7-41.1-89.4-84.2c0.4-13.8,6.3-26,11.3-38.5
			C883.2,935.1,885.8,929.6,888.2,924.1z"/>
	</g>
</g>
</svg>
