<?xml version="1.0" encoding="utf-8"?>
<!-- Generator: Adobe Illustrator 25.4.1, SVG Export Plug-In . SVG Version: 6.00 Build 0)  -->
<svg version="1.1" id="Layer_1" xmlns="http://www.w3.org/2000/svg" xmlns:xlink="http://www.w3.org/1999/xlink" x="0px" y="0px"
	 viewBox="0 0 1920 1080" style="enable-background:new 0 0 1920 1080;" xml:space="preserve">
<style type="text/css">
	.st0{fill:#80D3F9;}
	.st1{fill:#E0F4FD;}
	.st2{fill:#EDF8FD;}
	.st3{fill:#8FC9F8;}
	.st4{fill:#DCF1FF;}
	.st5{fill:#83D3FF;}
</style>
<g>
	<g>
		<path class="st0" d="M1492.2,287.4c-0.7-2-1.4-4-2.3-6.5c-6.5,5.9-13,10.7-20.7,14.2c-34.4,15.4-75.1-4.4-85-40.7
			c-9-33,10.8-70.7,50.4-78.1c5.3-1,10.8-0.6,16.1,0c3.1,0.3,4.8-0.2,5.7-3.7c6.2-25.3,21.5-42.2,46.7-49.7c4.4-1.3,1.7-3.7,1.1-5.2
			c-5.5-13.8-7.2-28-3.5-42.5c7.3-28.4,25.3-46.3,54-52.8c33.7-7.6,65.9,11.4,78,39.7c1.7,4.1,2.6,4.5,6.5,1.5
			c28.2-22.2,64.8-22.3,92.6-0.5c19.5,15.3,29.2,36.1,27.7,61.3c-0.2,3.5,0.8,4.6,4,5.3c7,1.5,13.2,5.2,19.7,8.2
			c13.7,6.4,22.2,17.7,28.6,30.7c18.6,37.6,0.9,85.2-37.6,101.8c-3,1.3-6.1,2.5-9.4,2.9c-2.7,0.2-5.3,0.8-7.8,1.7
			c-19.1,4.2-36.8,0.4-53.3-9.7c-3.6-2.2-5.3-2.2-7.6,1.8c-19.2,34.8-58.5,46.4-93.4,27.4c-4.1-2.2-6-1.8-8.8,2
			c-25.1,34.4-74.2,33.2-98.2-0.8C1493.9,293.3,1491.9,290.8,1492.2,287.4z"/>
		<path class="st1" d="M1492.2,287.4c9.8,17.4,24.1,28.7,44.1,32.3c21.2,3.8,46.8-7.3,57.8-26c2.2-3.8,3.5-4.2,7.3-1.7
			c26.9,17.8,64.8,11.7,85.1-13.4c3.5-4.4,7.4-8.6,9.3-13.9c1.5-4.3,3.5-4.2,6.7-1.9c8.3,5.9,17.7,9.3,27.6,11.4
			c8.9,1.9,17.6,0.9,26.5-0.1c1.2,2.8-0.8,4.8-2,6.9c-6.1,10.8-11.9,21.6-16.8,33c-2.5,5.9-4.2,12-6,18.1
			c-5.7,19.2,13.5,43.5,36.6,40.7c2.9-0.3,6.1-1.6,8.9,0.5c-10.6,10.9-23.6,17.3-38.4,19.2c-15.1,1.9-29.8-1-43.1-9.2
			c-0.8-0.5-1.6-2-2.8-0.5c-2.4,0.6-3.4-1.3-4.7-2.7c-2.3-2.6-4.5-5.3-6.9-7.8c-5-5.2-5.6-5.2-9.1,0.9c-5.8,10-11.3,20.2-16,30.8
			c-1,2.2-1.4,4.9-4.4,5.5c-13,2.3-25.6,1.8-37.8-4.1c-14.5-7-24-18.2-30.3-33.3c-5.5,4-10.3,8.6-16.2,11.8
			c-33.7,18.5-77.6,1.1-88.6-36.4C1472.4,325.2,1476.3,305,1492.2,287.4z"/>
		<path class="st2" d="M1764.6,271.9c20.4-5.5,35.3-18.2,44.6-36.7c14.8-29.2,10.2-60.4-11.8-84.7c-4.2-4.7-9.6-8.4-14.4-12.5
			c31.3,0.4,60.6,23.8,68.3,53.6c2.1,8.2,2.9,16.3,2.3,24.5c-0.2,2.9,0.7,3.7,3,4.4c26.6,7.8,44.8,25,52.1,51.6
			c5.6,20.3,3.3,40.8-8.5,58.9c-15.3,23.3-37.4,35.2-65.1,35.3c-12.6,0-25.3-2.4-35.6-11.1c-1.7-2.1-0.4-4.1,0.2-6
			c3.2-9.9,2.3-19.3-3-28.4c-8.6-15-20-27.8-31.5-40.6c-0.9-1-1.8-2-2.7-3C1759.9,274.1,1761.5,272.7,1764.6,271.9z"/>
		<path class="st3" d="M1764.6,271.9c-4.1,2-1.5,4,0.2,5.7c9,9.5,17.5,19.5,25.4,30c10.9,14.4,17.6,29.5,9.4,47.6
			c-6,7.8-12.6,14.9-22.4,18c-6.7,0.4-13.2,2.2-20,0.4c-17.8-4.6-34.6-23.7-25.1-49.4c5.7-15.4,13.1-29.9,21.2-44.1
			c1.1-2,2.1-4.1,3.2-6.1C1758.9,272,1761.8,272.2,1764.6,271.9z"/>
		<path class="st3" d="M1651.9,409.5c6.5-12.9,12.5-26.1,20-38.4c3.8-6.3,4.2-6.4,9.3-0.9c3.9,4.2,7.9,8.4,11.8,12.6
			c8.7,11.3,18.3,21.8,24.3,35c9.5,20.8-4.7,45.7-27.2,49.5c-23.4,4-42-13.6-43.6-32.6c-0.5-6.1,1.5-11.8,3.1-17.5
			C1650.3,414.6,1651.1,412,1651.9,409.5z"/>
	</g>
</g>
<g>
	<g>
		<path class="st0" d="M442.7,295.2c0.7-2,1.4-4,2.3-6.5c6.5,5.9,13,10.7,20.7,14.2c34.4,15.4,75.1-4.4,85-40.7
			c9-33-10.8-70.7-50.4-78.1c-5.3-1-10.8-0.6-16.1,0c-3.1,0.3-4.8-0.2-5.7-3.7c-6.2-25.3-21.5-42.2-46.7-49.7
			c-4.4-1.3-1.7-3.7-1.1-5.2c5.5-13.8,7.2-28,3.5-42.5c-7.3-28.4-25.3-46.3-54-52.8c-33.7-7.6-65.9,11.4-78,39.7
			c-1.7,4.1-2.6,4.5-6.5,1.5c-28.2-22.2-64.8-22.3-92.6-0.5c-19.5,15.3-29.2,36.1-27.7,61.3c0.2,3.5-0.8,4.6-4,5.3
			c-7,1.5-13.2,5.2-19.7,8.2c-13.7,6.4-22.2,17.7-28.6,30.7c-18.6,37.6-0.9,85.2,37.6,101.8c3,1.3,6.1,2.5,9.4,2.9
			c2.7,0.2,5.3,0.8,7.8,1.7c19.1,4.2,36.8,0.4,53.3-9.7c3.6-2.2,5.3-2.2,7.6,1.8c19.2,34.8,58.5,46.4,93.4,27.4c4.1-2.2,6-1.8,8.8,2
			c25.1,34.4,74.2,33.2,98.2-0.8C441,301.1,443,298.6,442.7,295.2z"/>
		<path class="st1" d="M442.7,295.2c-9.8,17.4-24.1,28.7-44.1,32.3c-21.2,3.8-46.8-7.3-57.8-26c-2.2-3.8-3.5-4.2-7.3-1.7
			c-26.9,17.8-64.8,11.7-85.1-13.4c-3.5-4.4-7.4-8.6-9.3-13.9c-1.5-4.3-3.5-4.2-6.7-1.9c-8.3,5.9-17.7,9.3-27.6,11.4
			c-8.9,1.9-17.6,0.9-26.5-0.1c-1.2,2.8,0.8,4.8,2,6.9c6.1,10.8,11.9,21.6,16.8,33c2.5,5.9,4.2,12,6,18.1
			c5.7,19.2-13.5,43.5-36.6,40.7c-2.9-0.3-6.1-1.6-8.9,0.5c10.6,10.9,23.6,17.3,38.4,19.2c15.1,1.9,29.8-1,43.1-9.2
			c0.8-0.5,1.6-2,2.8-0.5c2.4,0.6,3.4-1.3,4.7-2.7c2.3-2.6,4.5-5.3,6.9-7.8c5-5.2,5.6-5.2,9.1,0.9c5.8,10,11.3,20.2,16,30.8
			c1,2.2,1.4,4.9,4.4,5.5c13,2.3,25.6,1.8,37.8-4.1c14.5-7,24-18.2,30.3-33.3c5.5,4,10.3,8.6,16.2,11.8
			c33.7,18.5,77.6,1.1,88.6-36.4C462.5,332.9,458.6,312.7,442.7,295.2z"/>
		<path class="st2" d="M170.3,279.6c-20.4-5.5-35.3-18.2-44.6-36.7c-14.8-29.2-10.2-60.4,11.8-84.7c4.2-4.7,9.6-8.4,14.4-12.5
			c-31.3,0.4-60.6,23.8-68.3,53.6c-2.1,8.2-2.9,16.3-2.3,24.5c0.2,2.9-0.7,3.7-3,4.4c-26.6,7.8-44.8,25-52.1,51.6
			c-5.6,20.3-3.3,40.8,8.5,58.9C49.9,362,72,373.9,99.7,374c12.6,0,25.3-2.4,35.6-11.1c1.7-2.1,0.4-4.1-0.2-6
			c-3.2-9.9-2.3-19.3,3-28.4c8.6-15,20-27.8,31.5-40.6c0.9-1,1.8-2,2.7-3C175.1,281.9,173.4,280.5,170.3,279.6z"/>
		<path class="st3" d="M170.3,279.6c4.1,2,1.5,4-0.2,5.7c-9,9.5-17.5,19.5-25.4,30c-10.9,14.4-17.6,29.5-9.4,47.6
			c6,7.8,12.6,14.9,22.4,18c6.7,0.4,13.2,2.2,20,0.4c17.8-4.6,34.6-23.7,25.1-49.4c-5.7-15.4-13.1-29.9-21.2-44.1
			c-1.1-2-2.1-4.1-3.2-6.1C176,279.8,173.1,279.9,170.3,279.6z"/>
		<path class="st3" d="M283,417.3c-6.5-12.9-12.5-26.1-20-38.4c-3.8-6.3-4.2-6.4-9.3-0.9c-3.9,4.2-7.9,8.4-11.8,12.6
			c-8.7,11.3-18.3,21.8-24.3,35c-9.5,20.8,4.7,45.7,27.2,49.5c23.4,4,42-13.6,43.6-32.6c0.5-6.1-1.5-11.8-3.1-17.5
			C284.6,422.4,283.8,419.8,283,417.3z"/>
	</g>
</g>
<g>
	<g>
		<path class="st4" d="M955.5,891c-2.8-4.2-7.1-3.4-11.1-3.4c-97.1,0.1-194.1,0.3-291.2,0.4c-4.9-9.3,1.2-17.7,2.7-26.4
			c1.6-9.4,4.7-18.6,7.4-30.4c-19.8,14.8-36.1,29.3-51.4,44.9c-4.8,4.9-8.7,11.7-17.1,11.6c-36.6-0.1-73.2-0.1-109.8-0.2
			c-95.9-0.2-170.6-39.5-217-124.3c-33.8-61.8-37.1-127.8-10-193.4c29.8-72.2,83.4-118.5,159.2-138.1c14.8-3.8,30.2-6.7,45.4-7.2
			c11.8-0.4,11.3-5.5,10.6-14c-2.9-37.3,2.9-73,23.5-104.9c28.6-44.3,68.3-70.9,121.8-77.3c26.9-3.2,52.1,0.4,76.7,9.9
			c7.7,3,10.1,0.1,12.7-5.7c15.8-35.8,38.8-67,65.8-94.4c34.1-34.6,73.7-62.7,118.9-81.3C938,38,985.8,27.4,1035,28.5
			c87.5,2,165.9,29.9,233.1,87.6c66.7,57.2,107.7,129.4,121.6,215.4c4,24.5,12.8,29.8,34.3,35.5c108.7,28.5,177.4,99.5,198,209.3
			c27.3,144.8-69.4,283.4-220.5,307.7c-16.5,2.7-33.5,3.9-50.6,3.9c-111.3-0.5-222.6-0.3-334-0.3c-5.5-6.9-1.2-13.8,0.2-20.6
			c2.1-10.5,5.6-20.6,7.8-34.6c-21.8,16.2-39.5,32.1-56.4,49.1C964.7,885.2,962.5,891.4,955.5,891z"/>
		<path class="st5" d="M955.5,891c21-24.7,45.2-45.8,73.6-67c-0.3,24-10.5,43-12.2,63.5c-3.3,12.3-6.8,24.6-10,37
			c-3.7,14.7-11.9,25.2-27.4,27.7c-12.6,2-23.4-2.5-30.8-13.2c-9-13.1-7.1-26.1,0.8-39C951.4,896.9,953.5,894,955.5,891z"/>
		<path class="st5" d="M833.9,923.8c-9.9,38.4-18,73.8-28.3,108.6c-4.8,16.1-23.9,22.8-39.5,17c-16.5-6.1-25-23.3-19.4-40
			c1.6-4.8,4.2-9.4,7.1-13.6C767.5,975.2,811.3,935.1,833.9,923.8z"/>
		<path class="st5" d="M594.6,887.8c18.4-18.6,36.9-37,57.4-53.3c4.4-3.5,9-6.6,17.1-12.6c-5.9,24.5-10.9,45.3-16,66.1
			c-3.3,12.9-6.7,25.7-10,38.6c-3.6,14.4-12.7,23.4-27.3,25.6c-12,1.8-22.5-2.6-29.6-12.6c-8.6-12.1-7.8-25-0.8-37.6
			C588.3,897.1,591.6,892.5,594.6,887.8z"/>
		<path class="st5" d="M1160,935c-7.5,30.9-14.4,62-22.7,92.7c-5.4,19.8-24.5,28.6-42.4,21.4c-18.4-7.4-25.4-27.7-15.5-46.3
			c8.8-16.6,22.7-29.1,36.2-41.8c12.7-12,25.5-23.9,40.2-33.6C1161.9,927.2,1161.1,931,1160,935z"/>
		<path class="st5" d="M1230.5,656.4c-10.1,39.8-18.4,75.6-28.6,110.9c-4.9,17.1-24.7,24.4-41.7,17.8c-15.6-6-23.6-24.5-17.2-40.9
			c6.3-16.3,18.8-28,30.8-39.9C1190.2,688,1207.5,672.9,1230.5,656.4z"/>
		<path class="st5" d="M899.6,660.5c-9.1,35.6-17.5,71.4-27.6,106.7c-4.8,16.8-23.6,24.2-40,18.4c-16.4-5.8-24.9-23.2-19.2-39.8
			c1.6-4.8,4-9.5,7-13.6C840.7,702.6,869.1,680.9,899.6,660.5z"/>
	</g>
</g>
</svg>
