<?xml version="1.0" encoding="utf-8"?>
<!-- Generator: Adobe Illustrator 25.4.1, SVG Export Plug-In . SVG Version: 6.00 Build 0)  -->
<svg version="1.1" id="Layer_1" xmlns="http://www.w3.org/2000/svg" xmlns:xlink="http://www.w3.org/1999/xlink" x="0px" y="0px"
	 viewBox="0 0 1920 1080" style="enable-background:new 0 0 1920 1080;" xml:space="preserve">
<style type="text/css">
	.st0{fill:#CADFE5;}
	.st1{fill:#E2F1F7;}
	.st2{fill:#BEDEE5;}
	.st3{fill:#F0F9FC;}
	.st4{fill:#FEFDFE;}
</style>
<g>
	<g>
		<path class="st0" d="M1540.48,407.9c0,81.01,0,162.01,0,243.02c-5.06,2.39-8.65-1.08-12.31-3.39
			c-20.22-12.75-41.61-17.64-65.24-11.37c-12.52,3.32-18.39-0.71-20.24-13.49c-5.26-36.31-19.62-68.38-45.24-94.72
			c-27.01-27.77-60.23-43.4-98.86-47.39c-50.68-5.23-93.85,11.48-130.36,45.85c-11.52,10.84-20.5,24.19-28.31,38.18
			c-8.05,14.43-14.74,15.4-26.29,3.24c-22.39-23.56-48.83-39.84-81.27-44.19c-56.26-7.55-102.8,10.22-137.87,55.65
			c-4.21,5.46-8.34,11.15-11.23,17.41c-5.13,11.12-13.15,14.76-25.15,12.79c-30.34-4.99-55.56,5.43-76.78,26.92
			c-4.68,4.73-7.93,10.43-11.47,15.96c-7.53,11.77-14.99,11.88-22.97,0.43c-12.77-18.32-28.21-33.24-50.63-38.91
			c-41.93-10.61-82.09,9.26-99.64,49.13c-6.95,15.8-10.6,17.66-26.01,11.62c-28.18-11.04-54.79-7.73-80.21,7.99
			c-2.95,1.82-5.76,3.88-9.27,4.46c-3.24,0.54-5.52-0.27-5.25-4.22c0-103.61,0-207.19,0-310.75c0.14-7.99,5.43-12.21,11.57-15.91
			c19.78-11.93,41.34-12.65,63.3-9.69c11.83,1.59,11.46,1.91,13.5-10.04c10.05-58.88,40.66-103.56,95.25-128.6
			c63.98-29.34,125.3-22.23,181.15,21.32c16.37,12.76,30.16,28.44,40.03,47.17c6.04,11.48,8.07,11.84,17.07,2.34
			c54.11-57.15,145.25-61.7,206.99-10.15c14.26,11.91,25.44,26.47,33.98,42.8c4,7.64,8.59,10.49,17.09,9.29
			c28.13-4,53.36,2.8,75.55,20.95c6.82,5.58,12.14,12.27,17.24,19.23c8.36,11.42,7.96,11.25,16.4,0.58
			c14.04-17.75,30.96-31.31,53.7-36.75c42.13-10.08,85.15,9.62,104.56,48.4c8.04,16.06,7.97,15.86,25.37,10.47
			c26.12-8.09,51.16-4.9,75.15,7.93C1530.99,395.34,1536.62,400.69,1540.48,407.9z"/>
		<path class="st1" d="M477.06,686.06c10.99-7.16,21.68-14.72,34.57-18.51c21.85-6.42,43.14-5.17,63.72,4.22
			c8.46,3.86,12.45,2.94,15.97-6.61c11.98-32.49,35.41-52.77,69.86-57.55c38.4-5.33,68.19,9.97,89.16,42.37
			c7.34,11.34,9.33,11.41,16.12-0.69c18.21-32.45,54.81-50.38,92.02-44.15c10.34,1.73,15.65-0.46,20.94-10.34
			c46.91-87.76,163.39-104.45,233.56-33.97c14.89,14.96,14.79,14.9,25.4-2.6c33.19-54.77,82.34-83.99,145.9-83.2
			c86.87,1.07,152.13,64.3,162.63,146.93c1.51,11.91,3.04,13.1,14.36,10.02c29.84-8.11,55.85-0.05,79.22,18.95
			c0,73.39,0,146.78,0,220.17c-5.06,2.39-8.64-1.09-12.32-3.37c-32.09-19.9-63.42-18.31-94.09,3.11
			c-13.01,9.09-18.23,7.74-25.87-6.4c-20.19-37.34-51.61-57.77-94.03-57.06c-38.55,0.65-67.34,20.3-87.17,53.19
			c-9.61,15.94-13.72,17-29.89,7.98c-42.78-23.86-92.68-10.38-117.76,31.82c-1.06,1.79-1.94,3.67-2.97,5.48
			c-7.51,13.17-14.18,14.37-25.37,4.56c-22.61-19.83-49.59-22.66-75.66-7.95c-14.27,8.05-18.15,7.21-27.39-5.94
			c-25.84-36.8-65.77-48.8-107.86-32.42c-17.81,6.93-21.47,5.28-27.38-12.39c-16.09-48.11-63.23-82.08-113.34-79.84
			c-58.95,2.63-102.72,43.56-112.03,97.44c-2.78,16.08-7.73,19.48-23.47,14.41c-25.87-8.35-49.8-3.6-72.64,9.75
			c-2.98,1.74-5.76,3.92-9.07,4.97c-3.21,1.02-6.41,1.39-6.29-3.66c0-65.89-0.02-131.75,0.06-197.61
			C475.96,693.47,474.86,689.57,477.06,686.06z"/>
		<path class="st2" d="M1540.48,407.9c-2.98-0.25-4.88-2.31-7.07-4.01c-28.42-22.09-59.39-26.12-92.59-12.55
			c-12.47,5.1-12.34,5.41-17.13-6.72c-19.13-48.46-68.89-70.42-117.34-51.15c-17.49,6.96-30.76,19.74-40.97,35.46
			c-8.38,12.89-8.7,13.02-17.08-0.48c-17.34-27.94-42.7-42.6-75.23-44.81c-6.8-0.46-14.07-0.05-20.54,1.89
			c-8.94,2.69-12.31-1.39-15.85-8.43c-16.72-33.25-42.41-57.3-77.44-69.85c-58.43-20.94-110.86-10.11-156.21,32.68
			c-16.44,15.52-12.7,20.91-28.12-4c-30.6-49.42-74.87-77.15-133.85-80.07c-49.61-2.46-92.01,14.13-126.55,49.05
			c-26.74,27.03-42.93,59.99-46.18,98.49c-0.63,7.48-2.72,11.6-11.7,9.26c-28.85-7.52-55.53-2.81-79.38,15.63
			c-2.73-3.37-1.25-7.31-1.26-10.94c-0.1-88.94-0.08-177.88-0.08-266.81c0-17.92,2.94-21.5,20.45-24.93
			c1.71-0.33,3.47-0.69,5.15-0.47c11.45,1.5,18.08-3.9,24.17-13.46c21.86-34.26,54.59-45.33,93.81-42.51
			c24.55,1.76,44.46,12.13,60.68,29.87c5.57,6.09,9.93,6.38,16.83,2.4c20.13-11.62,40.34-10.11,60.02,1.55
			c11.44,6.78,11.36,6.9,21.15-1.69c18.58-16.31,48.67-19.19,68.51-5.39c7.79,5.42,12.57,5.29,19.49-1.27
			c31.73-30.07,69.2-31.09,108.28-19c13.74,4.25,24.31,14.45,33.79,25.14c5.44,6.14,9.93,6.14,15.33,0.13
			c7.43-8.28,16.11-15.06,25.66-20.86c22.31-13.55,46.92-12.02,71.47-11.65c29,0.43,51.48,13.9,70.37,34.57
			c4.87,5.33,7.74,5.95,12.53-0.55c25.3-34.37,80.09-30.87,99.21,8.63c4.46,9.21,4.99,9.11,12.57,1.24
			c13.84-14.36,29.7-25.67,48.01-33.76c23.62-10.44,48.32-9.42,73.27-8.75c35.6,0.95,62.96,18.03,87.45,41.82
			c8.7,8.45,14.33,18.31,16.41,30.22C1540.48,190.5,1540.48,299.2,1540.48,407.9z"/>
		<path class="st3" d="M476.97,898.05c28.09-22.14,58.91-29.65,93.24-16.87c8.56,3.19,11.78-0.75,12.45-8.19
			c5.2-57.52,58.06-107.1,124.43-105.82c48.13,0.93,97.41,38.42,110.45,84.92c4.06,14.47,4.99,14.93,18.23,8.9
			c43.15-19.64,91.21-5.42,117.36,34.73c7.06,10.84,7.51,10.93,18.29,3.7c25.13-16.87,60.36-13.79,82.17,7.18
			c10.75,10.34,12.2,10.1,18.9-3.1c24.81-48.93,80.66-65.39,128.73-37.96c13.45,7.68,13.45,7.68,20.87-5.68
			c34.59-62.31,113.35-76.31,166.49-29.23c11.15,9.88,19.88,22.05,25.46,36.11c3.01,7.59,8.2,8.52,13.71,3.57
			c32.45-29.12,81.15-27.02,112.74,0.78c0,63.7,0,127.39,0,191.09c-1.17,5.75-4.64,9.21-10.39,10.39c-347.59,0-695.18,0-1042.77,0
			c-8.02-1.58-11.43-6.69-11.43-14.61c0.05-52.35-0.08-104.7,0.05-157.05C475.95,899.79,476.54,898.97,476.97,898.05z"/>
		<path class="st4" d="M1530.09,1072.57c3.46-3.46,6.92-6.92,10.39-10.39C1542.34,1070.97,1538.88,1074.43,1530.09,1072.57z"/>
	</g>
</g>
</svg>
