<?xml version="1.0" encoding="utf-8"?>
<!-- Generator: Adobe Illustrator 25.4.1, SVG Export Plug-In . SVG Version: 6.00 Build 0)  -->
<svg version="1.1" id="Layer_1" xmlns="http://www.w3.org/2000/svg" xmlns:xlink="http://www.w3.org/1999/xlink" x="0px" y="0px"
	 viewBox="0 0 1920 1080" style="enable-background:new 0 0 1920 1080;" xml:space="preserve">
<style type="text/css">
	.st0{fill:#D7E8F7;}
	.st1{fill:#FEFEFE;}
	.st2{fill:#E8F3FC;}
</style>
<g>
	<g>
		<path class="st0" d="M701.23,154.05c19.35,7.89,26.05-4.43,34.42-22.51C768.64,60.23,826,19.7,904.03,13.47
			c76.62-6.12,138.35,24.41,182.96,87.41c5.72,8.08,9.01,8.3,17.2,3.93c76.13-40.74,169.72-9.09,205.75,69.51
			c3.02,6.58,6.53,9.23,13.38,10.79c83.38,19,140.26,89.84,139.8,173.54c-0.45,82.9-58.2,153.46-140.77,171.72
			c-19.12,4.23-38.52,5.53-57.89,2.01c-7.83-1.42-12.56-0.01-17.47,7.25c-61.41,90.83-179.8,116.54-274.06,59.71
			c-5.97-3.6-9.56-3.76-15.46,0.57c-69.1,50.65-162.5,35.11-211.78-35.3c-4.53-6.47-8.8-7.3-15.67-6.25
			c-109.58,16.75-212.82-58.12-230.95-167.31c-18.31-110.26,56.08-214.57,166.53-233.85C676.64,155.27,687.7,155.08,701.23,154.05z"
			/>
		<path class="st0" d="M1154.34,739.06c-88.85,0-177.7,0-266.55-0.01c-3.57,0-7.22,0.3-10.68-0.36
			c-6.61-1.28-10.44-5.94-11.01-12.37c-0.58-6.51,2.69-11.33,8.89-13.96c4.58-1.94,9.37-1.35,14.1-1.35
			c177.3-0.03,354.61-0.02,531.91-0.02c1.98,0,3.97-0.02,5.95,0.01c9.54,0.14,16.91,3.96,16.83,14.25
			c-0.08,10.21-7.12,13.92-16.94,13.88c-40.46-0.16-80.92-0.07-121.38-0.06C1255.09,739.06,1204.72,739.06,1154.34,739.06z"/>
		<path class="st0" d="M1025.5,922.09c82.89,0,165.78,0,248.68,0c3.57,0,7.14-0.06,10.71,0.12c8.05,0.41,12.63,5.34,13.14,12.75
			c0.56,8.16-4.19,13.39-12.45,14.68c-3.11,0.48-6.33,0.3-9.5,0.3c-167.77,0.01-335.53,0.02-503.3-0.03
			c-3.94,0-8.02-0.02-11.77-1.01c-6.5-1.72-9.94-6.59-9.74-13.23c0.21-7.14,4.17-11.95,11.32-13.2c3.86-0.68,7.91-0.37,11.87-0.37
			C858.13,922.09,941.82,922.09,1025.5,922.09z"/>
		<path class="st0" d="M683.29,848.74c-48.39,0-96.79,0-145.18-0.01c-3.57,0-7.2,0.27-10.69-0.28c-7.18-1.13-11.37-5.84-11.77-12.9
			c-0.41-7.13,3.43-12.17,10.44-13.95c3.39-0.86,7.06-0.82,10.61-0.82c97.18-0.04,194.37-0.04,291.55,0c3.55,0,7.2-0.04,10.62,0.74
			c7.15,1.62,10.76,6.56,10.52,13.81c-0.23,7.27-4.32,11.82-11.43,13.09c-3.47,0.62-7.12,0.32-10.68,0.32
			C779.28,848.74,731.29,848.74,683.29,848.74z"/>
		<path class="st0" d="M909.52,1051.03c-16.25,0-32.49-0.05-48.74,0.02c-9.64,0.04-16.68-3.55-16.72-14.05
			c-0.03-10.58,7.26-14.1,16.73-14.11c32.49-0.04,64.99-0.15,97.48,0.06c10.41,0.07,17.3,6.34,16.39,14.67
			c-1.04,9.44-7.11,13.49-16.4,13.44C942.02,1050.96,925.77,1051.03,909.52,1051.03z"/>
		<path class="st0" d="M682.01,1051.03c-15.84,0-31.69-0.07-47.53,0.03c-9.57,0.06-16.72-3.24-16.91-13.82
			c-0.19-10.63,6.92-14.32,16.45-14.34c32.48-0.06,64.96-0.03,97.44-0.02c9.75,0,16.75,4.47,16.49,14.51
			c-0.26,10.04-7.47,13.84-17.21,13.7C714.49,1050.86,698.25,1051.03,682.01,1051.03z"/>
		<path class="st0" d="M960.23,848.73c-16.23,0-32.46-0.07-48.68,0.03c-9.34,0.06-15.65-3.93-15.92-13.58
			c-0.28-9.73,6.06-14.3,15.24-14.35c33.25-0.17,66.49-0.15,99.74-0.01c9.23,0.04,15.55,4.66,15.35,14.29
			c-0.2,9.56-6.46,13.71-15.85,13.65C993.48,848.66,976.85,848.73,960.23,848.73z"/>
		<path class="st1" d="M972.79,565c-8.09-4.23-14.67-2.34-21.5,3.64c-62.16,54.38-147.5,40.29-189.65-31.36
			c-5.28-8.98-11.54-11.5-21.61-9.27c-118.11,26.16-224.29-65.82-214.95-185.99c7.77-99.96,101.1-172.67,202.45-157.71
			c15.77,2.33,19.14,0.06,23.66-15.39c11.12-38,31.15-69.88,64.04-92.89c15.88,9.4,26.28,23.97,35.43,39.24
			c4.8,8.01,8.38,9.34,16.65,4.41c56.8-33.88,117.99-28.72,167.54,14.55c14.39,12.56,25.7,28.24,32.89,46.16
			c3.53,8.8,9.16,12.77,18.14,14.8c71.15,16.04,119.83,66.43,131.39,138.51c11.12,69.29-25.88,138.23-84.17,169.03
			c-33.92,17.92-69.35,24.32-107.03,17.9c-8.28-1.41-13.4,1.11-17.72,8.15c-6.85,11.17-14.71,21.69-24.48,30.57
			C980.72,562.23,977.99,566.11,972.79,565z"/>
		<path class="st2" d="M972.79,565c15.21-11.33,25.99-26.5,35.86-42.3c3.41-5.46,6.41-6.95,13.19-5.7
			c44.38,8.22,85.8,0.14,123.38-25.14c63.34-42.61,88.24-126.26,58.17-196.45c-22.86-53.34-63.16-85.84-120.1-97.26
			c-9.42-1.89-14.13-6.64-18.18-15.59c-19.96-44.13-53.95-71.04-102.02-79.65c-36.27-6.5-68.85,2.88-99.21,22.38
			c-3.42,2.2-7.45,7.12-10.56,0.46c-9.07-19.43-24.77-33.63-38.1-49.7c49.76-43.02,135.6-47.33,196.16-9.84
			c26.53,16.43,47.22,38.37,62.21,65.77c8.52,15.58,14.54,16.79,29.1,6.39c65.93-47.13,155.82-20.39,184.81,55.27
			c3.95,10.32,9.42,15.53,20.99,17.4c75.09,12.12,126.52,72.87,126.39,148.08c-0.13,72.32-53.4,133.59-127.07,145.53
			c-17.72,2.87-35.76,2.41-53.16-2.23c-11.19-2.99-17.75,0.14-23.43,9.93c-28.42,48.92-70.71,78.54-126.67,86.96
			C1056.09,606.56,1011.76,595.43,972.79,565z"/>
	</g>
</g>
</svg>
