<?xml version="1.0" encoding="utf-8"?>
<!-- Generator: Adobe Illustrator 25.4.1, SVG Export Plug-In . SVG Version: 6.00 Build 0)  -->
<svg version="1.1" id="Layer_1" xmlns="http://www.w3.org/2000/svg" xmlns:xlink="http://www.w3.org/1999/xlink" x="0px" y="0px"
	 viewBox="0 0 1920 1080" style="enable-background:new 0 0 1920 1080;" xml:space="preserve">
<style type="text/css">
	.st0{fill:#CADFE5;}
	.st1{fill:#E2F1F7;}
	.st2{fill:#BEDEE5;}
	.st3{fill:#F0F9FC;}
	.st4{fill:#FEFDFE;}
	.st5{fill:#D7E8F7;}
	.st6{fill:#FEFEFE;}
	.st7{fill:#E8F3FC;}
</style>
<g>
	<g>
		<path class="st0" d="M1425.3,424c0,70.8,0,141.7,0,212.5c-4.4,2.1-7.6-0.9-10.8-3c-17.7-11.1-36.4-15.4-57-9.9
			c-10.9,2.9-16.1-0.6-17.7-11.8c-4.6-31.7-17.2-59.8-39.6-82.8c-23.6-24.3-52.7-37.9-86.4-41.4c-44.3-4.6-82.1,10-114,40.1
			c-10.1,9.5-17.9,21.2-24.8,33.4c-7,12.6-12.9,13.5-23,2.8c-19.6-20.6-42.7-34.8-71.1-38.6c-49.2-6.6-89.9,8.9-120.5,48.7
			c-3.7,4.8-7.3,9.7-9.8,15.2c-4.5,9.7-11.5,12.9-22,11.2c-26.5-4.4-48.6,4.7-67.1,23.5c-4.1,4.1-6.9,9.1-10,14
			c-6.6,10.3-13.1,10.4-20.1,0.4c-11.2-16-24.7-29.1-44.3-34c-36.7-9.3-71.8,8.1-87.1,43c-6.1,13.8-9.3,15.4-22.7,10.2
			c-24.6-9.7-47.9-6.8-70.1,7c-2.6,1.6-5,3.4-8.1,3.9c-2.8,0.5-4.8-0.2-4.6-3.7c0-90.6,0-181.2,0-271.7c0.1-7,4.7-10.7,10.1-13.9
			c17.3-10.4,36.1-11.1,55.3-8.5c10.3,1.4,10,1.7,11.8-8.8c8.8-51.5,35.6-90.5,83.3-112.4c55.9-25.7,109.6-19.4,158.4,18.6
			c14.3,11.2,26.4,24.9,35,41.2c5.3,10,7.1,10.4,14.9,2c47.3-50,127-53.9,181-8.9c12.5,10.4,22.2,23.1,29.7,37.4
			c3.5,6.7,7.5,9.2,14.9,8.1c24.6-3.5,46.7,2.4,66.1,18.3c6,4.9,10.6,10.7,15.1,16.8c7.3,10,7,9.8,14.3,0.5
			c12.3-15.5,27.1-27.4,47-32.1c36.8-8.8,74.5,8.4,91.4,42.3c7,14,7,13.9,22.2,9.2c22.8-7.1,44.7-4.3,65.7,6.9
			C1417,413,1421.9,417.7,1425.3,424z"/>
		<path class="st1" d="M495.5,667.2c9.6-6.3,19-12.9,30.2-16.2c19.1-5.6,37.7-4.5,55.7,3.7c7.4,3.4,10.9,2.6,14-5.8
			c10.5-28.4,31-46.1,61.1-50.3c33.6-4.7,59.6,8.7,78,37c6.4,9.9,8.2,10,14.1-0.6c15.9-28.4,47.9-44,80.5-38.6
			c9,1.5,13.7-0.4,18.3-9c41-76.7,142.9-91.3,204.2-29.7c13,13.1,12.9,13,22.2-2.3c29-47.9,72-73.4,127.6-72.7
			c76,0.9,133,56.2,142.2,128.5c1.3,10.4,2.7,11.5,12.6,8.8c26.1-7.1,48.8,0,69.3,16.6c0,64.2,0,128.3,0,192.5
			c-4.4,2.1-7.6-1-10.8-2.9c-28.1-17.4-55.5-16-82.3,2.7c-11.4,7.9-15.9,6.8-22.6-5.6c-17.7-32.6-45.1-50.5-82.2-49.9
			c-33.7,0.6-58.9,17.7-76.2,46.5c-8.4,13.9-12,14.9-26.1,7c-37.4-20.9-81-9.1-103,27.8c-0.9,1.6-1.7,3.2-2.6,4.8
			c-6.6,11.5-12.4,12.6-22.2,4c-19.8-17.3-43.4-19.8-66.2-7c-12.5,7-15.9,6.3-23.9-5.2c-22.6-32.2-57.5-42.7-94.3-28.3
			c-15.6,6.1-18.8,4.6-23.9-10.8c-14.1-42.1-55.3-71.8-99.1-69.8c-51.5,2.3-89.8,38.1-98,85.2c-2.4,14.1-6.8,17-20.5,12.6
			c-22.6-7.3-43.5-3.1-63.5,8.5c-2.6,1.5-5,3.4-7.9,4.3c-2.8,0.9-5.6,1.2-5.5-3.2c0-57.6,0-115.2,0.1-172.8
			C494.6,673.7,493.6,670.2,495.5,667.2z"/>
		<path class="st2" d="M1425.3,424c-2.6-0.2-4.3-2-6.2-3.5c-24.8-19.3-51.9-22.8-81-11c-10.9,4.5-10.8,4.7-15-5.9
			c-16.7-42.4-60.2-61.6-102.6-44.7c-15.3,6.1-26.9,17.3-35.8,31c-7.3,11.3-7.6,11.4-14.9-0.4c-15.2-24.4-37.3-37.2-65.8-39.2
			c-5.9-0.4-12.3,0-18,1.7c-7.8,2.4-10.8-1.2-13.9-7.4c-14.6-29.1-37.1-50.1-67.7-61.1c-51.1-18.3-96.9-8.8-136.6,28.6
			c-14.4,13.6-11.1,18.3-24.6-3.5c-26.8-43.2-65.5-67.5-117-70c-43.4-2.2-80.4,12.4-110.6,42.9c-23.4,23.6-37.5,52.5-40.4,86.1
			c-0.6,6.5-2.4,10.1-10.2,8.1c-25.2-6.6-48.6-2.5-69.4,13.7c-2.4-2.9-1.1-6.4-1.1-9.6c-0.1-77.8-0.1-155.5-0.1-233.3
			c0-15.7,2.6-18.8,17.9-21.8c1.5-0.3,3-0.6,4.5-0.4c10,1.3,15.8-3.4,21.1-11.8c19.1-30,47.7-39.6,82-37.2
			c21.5,1.5,38.9,10.6,53.1,26.1c4.9,5.3,8.7,5.6,14.7,2.1c17.6-10.2,35.3-8.8,52.5,1.4c10,5.9,9.9,6,18.5-1.5
			c16.2-14.3,42.6-16.8,59.9-4.7c6.8,4.7,11,4.6,17-1.1c27.7-26.3,60.5-27.2,94.7-16.6c12,3.7,21.3,12.6,29.5,22
			c4.8,5.4,8.7,5.4,13.4,0.1c6.5-7.2,14.1-13.2,22.4-18.2c19.5-11.8,41-10.5,62.5-10.2c25.4,0.4,45,12.2,61.5,30.2
			c4.3,4.7,6.8,5.2,11-0.5c22.1-30.1,70-27,86.7,7.5c3.9,8.1,4.4,8,11,1.1c12.1-12.6,26-22.4,42-29.5c20.7-9.1,42.2-8.2,64.1-7.7
			c31.1,0.8,55,15.8,76.5,36.6c7.6,7.4,12.5,16,14.3,26.4C1425.3,233.9,1425.3,328.9,1425.3,424z"/>
		<path class="st3" d="M495.5,852.5c24.6-19.4,51.5-25.9,81.5-14.8c7.5,2.8,10.3-0.7,10.9-7.2c4.5-50.3,50.8-93.6,108.8-92.5
			c42.1,0.8,85.2,33.6,96.6,74.2c3.5,12.7,4.4,13.1,15.9,7.8c37.7-17.2,79.7-4.7,102.6,30.4c6.2,9.5,6.6,9.6,16,3.2
			c22-14.8,52.8-12.1,71.8,6.3c9.4,9,10.7,8.8,16.5-2.7c21.7-42.8,70.5-57.2,112.6-33.2c11.8,6.7,11.8,6.7,18.2-5
			c30.2-54.5,99.1-66.7,145.6-25.6c9.7,8.6,17.4,19.3,22.3,31.6c2.6,6.6,7.2,7.4,12,3.1c28.4-25.5,71-23.6,98.6,0.7
			c0,55.7,0,111.4,0,167.1c-1,5-4.1,8.1-9.1,9.1c-303.9,0-607.8,0-911.7,0c-7-1.4-10-5.8-10-12.8c0-45.8-0.1-91.5,0-137.3
			C494.6,854,495.1,853.3,495.5,852.5z"/>
		<path class="st4" d="M1416.2,1005.1c3-3,6.1-6.1,9.1-9.1C1426.9,1003.7,1423.9,1006.7,1416.2,1005.1z"/>
	</g>
</g>
<g>
	<g>
		<path class="st5" d="M1431,447.8c11.7,4.8,15.7-2.7,20.8-13.6c19.9-43,54.5-67.5,101.6-71.3c46.2-3.7,83.5,14.7,110.4,52.8
			c3.5,4.9,5.4,5,10.4,2.4c46-24.6,102.4-5.5,124.2,42c1.8,4,3.9,5.6,8.1,6.5c50.3,11.5,84.7,54.2,84.4,104.7
			c-0.3,50-35.1,92.6-85,103.6c-11.5,2.6-23.3,3.3-34.9,1.2c-4.7-0.9-7.6,0-10.5,4.4c-37.1,54.8-108.5,70.3-165.4,36
			c-3.6-2.2-5.8-2.3-9.3,0.3c-41.7,30.6-98.1,21.2-127.8-21.3c-2.7-3.9-5.3-4.4-9.5-3.8c-66.1,10.1-128.5-35.1-139.4-101
			c-11.1-66.6,33.8-129.5,100.5-141.1C1416.2,448.5,1422.9,448.4,1431,447.8z"/>
		<path class="st5" d="M1704.5,800.9c-53.6,0-107.3,0-160.9,0c-2.2,0-4.4,0.2-6.4-0.2c-4-0.8-6.3-3.6-6.6-7.5
			c-0.4-3.9,1.6-6.8,5.4-8.4c2.8-1.2,5.7-0.8,8.5-0.8c107,0,214,0,321.1,0c1.2,0,2.4,0,3.6,0c5.8,0.1,10.2,2.4,10.2,8.6
			c0,6.2-4.3,8.4-10.2,8.4c-24.4-0.1-48.8,0-73.3,0C1765.3,800.9,1734.9,800.9,1704.5,800.9z"/>
		<path class="st5" d="M1626.8,911.3c50,0,100.1,0,150.1,0c2.2,0,4.3,0,6.5,0.1c4.9,0.2,7.6,3.2,7.9,7.7c0.3,4.9-2.5,8.1-7.5,8.9
			c-1.9,0.3-3.8,0.2-5.7,0.2c-101.3,0-202.5,0-303.8,0c-2.4,0-4.8,0-7.1-0.6c-3.9-1-6-4-5.9-8c0.1-4.3,2.5-7.2,6.8-8
			c2.3-0.4,4.8-0.2,7.2-0.2C1525.7,911.3,1576.3,911.3,1626.8,911.3z"/>
		<path class="st5" d="M1420.2,867.1c-29.2,0-58.4,0-87.6,0c-2.2,0-4.3,0.2-6.5-0.2c-4.3-0.7-6.9-3.5-7.1-7.8
			c-0.2-4.3,2.1-7.3,6.3-8.4c2-0.5,4.3-0.5,6.4-0.5c58.7,0,117.3,0,176,0c2.1,0,4.3,0,6.4,0.4c4.3,1,6.5,4,6.3,8.3
			c-0.1,4.4-2.6,7.1-6.9,7.9c-2.1,0.4-4.3,0.2-6.4,0.2C1478.2,867.1,1449.2,867.1,1420.2,867.1z"/>
		<path class="st5" d="M1556.8,989.2c-9.8,0-19.6,0-29.4,0c-5.8,0-10.1-2.1-10.1-8.5c0-6.4,4.4-8.5,10.1-8.5c19.6,0,39.2-0.1,58.8,0
			c6.3,0,10.4,3.8,9.9,8.9c-0.6,5.7-4.3,8.1-9.9,8.1C1576.4,989.1,1566.6,989.2,1556.8,989.2z"/>
		<path class="st5" d="M1419.4,989.2c-9.6,0-19.1,0-28.7,0c-5.8,0-10.1-2-10.2-8.3c-0.1-6.4,4.2-8.6,9.9-8.7c19.6,0,39.2,0,58.8,0
			c5.9,0,10.1,2.7,10,8.8c-0.2,6.1-4.5,8.4-10.4,8.3C1439,989.1,1429.2,989.2,1419.4,989.2z"/>
		<path class="st5" d="M1587.4,867.1c-9.8,0-19.6,0-29.4,0c-5.6,0-9.4-2.4-9.6-8.2c-0.2-5.9,3.7-8.6,9.2-8.7
			c20.1-0.1,40.1-0.1,60.2,0c5.6,0,9.4,2.8,9.3,8.6c-0.1,5.8-3.9,8.3-9.6,8.2C1607.4,867,1597.4,867.1,1587.4,867.1z"/>
		<path class="st6" d="M1595,695.8c-4.9-2.6-8.9-1.4-13,2.2c-37.5,32.8-89,24.3-114.5-18.9c-3.2-5.4-7-6.9-13-5.6
			c-71.3,15.8-135.4-39.7-129.7-112.3c4.7-60.3,61-104.2,122.2-95.2c9.5,1.4,11.6,0,14.3-9.3c6.7-22.9,18.8-42.2,38.7-56.1
			c9.6,5.7,15.9,14.5,21.4,23.7c2.9,4.8,5.1,5.6,10,2.7c34.3-20.4,71.2-17.3,101.1,8.8c8.7,7.6,15.5,17,19.9,27.9
			c2.1,5.3,5.5,7.7,10.9,8.9c42.9,9.7,72.3,40.1,79.3,83.6c6.7,41.8-15.6,83.4-50.8,102c-20.5,10.8-41.9,14.7-64.6,10.8
			c-5-0.9-8.1,0.7-10.7,4.9c-4.1,6.7-8.9,13.1-14.8,18.5C1599.7,694.1,1598.1,696.5,1595,695.8z"/>
		<path class="st7" d="M1595,695.8c9.2-6.8,15.7-16,21.6-25.5c2.1-3.3,3.9-4.2,8-3.4c26.8,5,51.8,0.1,74.5-15.2
			c38.2-25.7,53.3-76.2,35.1-118.6c-13.8-32.2-38.1-51.8-72.5-58.7c-5.7-1.1-8.5-4-11-9.4c-12-26.6-32.6-42.9-61.6-48.1
			c-21.9-3.9-41.6,1.7-59.9,13.5c-2.1,1.3-4.5,4.3-6.4,0.3c-5.5-11.7-15-20.3-23-30c30-26,81.8-28.6,118.4-5.9
			c16,9.9,28.5,23.2,37.5,39.7c5.1,9.4,8.8,10.1,17.6,3.9c39.8-28.4,94.1-12.3,111.5,33.4c2.4,6.2,5.7,9.4,12.7,10.5
			c45.3,7.3,76.4,44,76.3,89.4c-0.1,43.7-32.2,80.6-76.7,87.8c-10.7,1.7-21.6,1.5-32.1-1.3c-6.8-1.8-10.7,0.1-14.1,6
			c-17.2,29.5-42.7,47.4-76.5,52.5C1645.2,720.9,1618.5,714.2,1595,695.8z"/>
	</g>
</g>
<g>
	<g>
		<path class="st5" d="M175.3,440.1c11.7,4.8,15.7-2.7,20.8-13.6c19.9-43,54.5-67.5,101.6-71.3c46.2-3.7,83.5,14.7,110.4,52.8
			c3.5,4.9,5.4,5,10.4,2.4c46-24.6,102.4-5.5,124.2,42c1.8,4,3.9,5.6,8.1,6.5c50.3,11.5,84.7,54.2,84.4,104.7
			c-0.3,50-35.1,92.6-85,103.6c-11.5,2.6-23.3,3.3-34.9,1.2c-4.7-0.9-7.6,0-10.5,4.4c-37.1,54.8-108.5,70.3-165.4,36
			c-3.6-2.2-5.8-2.3-9.3,0.3c-41.7,30.6-98.1,21.2-127.8-21.3c-2.7-3.9-5.3-4.4-9.5-3.8c-66.1,10.1-128.5-35.1-139.4-101
			C42.3,516.6,87.2,453.7,153.8,442C160.5,440.9,167.2,440.8,175.3,440.1z"/>
		<path class="st5" d="M448.8,793.2c-53.6,0-107.3,0-160.9,0c-2.2,0-4.4,0.2-6.4-0.2c-4-0.8-6.3-3.6-6.6-7.5
			c-0.4-3.9,1.6-6.8,5.4-8.4c2.8-1.2,5.7-0.8,8.5-0.8c107,0,214,0,321.1,0c1.2,0,2.4,0,3.6,0c5.8,0.1,10.2,2.4,10.2,8.6
			c0,6.2-4.3,8.4-10.2,8.4c-24.4-0.1-48.8,0-73.3,0C509.6,793.2,479.2,793.2,448.8,793.2z"/>
		<path class="st5" d="M371.1,903.7c50,0,100.1,0,150.1,0c2.2,0,4.3,0,6.5,0.1c4.9,0.2,7.6,3.2,7.9,7.7c0.3,4.9-2.5,8.1-7.5,8.9
			c-1.9,0.3-3.8,0.2-5.7,0.2c-101.3,0-202.5,0-303.8,0c-2.4,0-4.8,0-7.1-0.6c-3.9-1-6-4-5.9-8c0.1-4.3,2.5-7.2,6.8-8
			c2.3-0.4,4.8-0.2,7.2-0.2C270,903.7,320.5,903.7,371.1,903.7z"/>
		<path class="st5" d="M164.5,859.4c-29.2,0-58.4,0-87.6,0c-2.2,0-4.3,0.2-6.5-0.2c-4.3-0.7-6.9-3.5-7.1-7.8
			c-0.2-4.3,2.1-7.3,6.3-8.4c2-0.5,4.3-0.5,6.4-0.5c58.7,0,117.3,0,176,0c2.1,0,4.3,0,6.4,0.4c4.3,1,6.5,4,6.3,8.3
			c-0.1,4.4-2.6,7.1-6.9,7.9c-2.1,0.4-4.3,0.2-6.4,0.2C222.4,859.4,193.5,859.4,164.5,859.4z"/>
		<path class="st5" d="M301,981.5c-9.8,0-19.6,0-29.4,0c-5.8,0-10.1-2.1-10.1-8.5c0-6.4,4.4-8.5,10.1-8.5c19.6,0,39.2-0.1,58.8,0
			c6.3,0,10.4,3.8,9.9,8.9c-0.6,5.7-4.3,8.1-9.9,8.1C320.7,981.5,310.9,981.5,301,981.5z"/>
		<path class="st5" d="M163.7,981.5c-9.6,0-19.1,0-28.7,0c-5.8,0-10.1-2-10.2-8.3c-0.1-6.4,4.2-8.6,9.9-8.7c19.6,0,39.2,0,58.8,0
			c5.9,0,10.1,2.7,10,8.8c-0.2,6.1-4.5,8.4-10.4,8.3C183.3,981.4,173.5,981.5,163.7,981.5z"/>
		<path class="st5" d="M331.7,859.4c-9.8,0-19.6,0-29.4,0c-5.6,0-9.4-2.4-9.6-8.2c-0.2-5.9,3.7-8.6,9.2-8.7
			c20.1-0.1,40.1-0.1,60.2,0c5.6,0,9.4,2.8,9.3,8.6c-0.1,5.8-3.9,8.3-9.6,8.2C351.7,859.4,341.7,859.4,331.7,859.4z"/>
		<path class="st6" d="M339.2,688.2c-4.9-2.6-8.9-1.4-13,2.2c-37.5,32.8-89,24.3-114.5-18.9c-3.2-5.4-7-6.9-13-5.6
			C127.5,681.6,63.4,626.1,69,553.6c4.7-60.3,61-104.2,122.2-95.2c9.5,1.4,11.6,0,14.3-9.3c6.7-22.9,18.8-42.2,38.7-56.1
			c9.6,5.7,15.9,14.5,21.4,23.7c2.9,4.8,5.1,5.6,10,2.7c34.3-20.4,71.2-17.3,101.1,8.8c8.7,7.6,15.5,17,19.9,27.9
			c2.1,5.3,5.5,7.7,10.9,8.9c42.9,9.7,72.3,40.1,79.3,83.6c6.7,41.8-15.6,83.4-50.8,102c-20.5,10.8-41.9,14.7-64.6,10.8
			c-5-0.9-8.1,0.7-10.7,4.9c-4.1,6.7-8.9,13.1-14.8,18.5C344,686.5,342.4,688.9,339.2,688.2z"/>
		<path class="st7" d="M339.2,688.2c9.2-6.8,15.7-16,21.6-25.5c2.1-3.3,3.9-4.2,8-3.4c26.8,5,51.8,0.1,74.5-15.2
			c38.2-25.7,53.3-76.2,35.1-118.6c-13.8-32.2-38.1-51.8-72.5-58.7c-5.7-1.1-8.5-4-11-9.4c-12-26.6-32.6-42.9-61.6-48.1
			c-21.9-3.9-41.6,1.7-59.9,13.5c-2.1,1.3-4.5,4.3-6.4,0.3c-5.5-11.7-15-20.3-23-30c30-26,81.8-28.6,118.4-5.9
			c16,9.9,28.5,23.2,37.5,39.7c5.1,9.4,8.8,10.1,17.6,3.9c39.8-28.4,94.1-12.3,111.5,33.4c2.4,6.2,5.7,9.4,12.7,10.5
			c45.3,7.3,76.4,44,76.3,89.4c-0.1,43.7-32.2,80.6-76.7,87.8c-10.7,1.7-21.6,1.5-32.1-1.3c-6.8-1.8-10.7,0.1-14.1,6
			c-17.2,29.5-42.7,47.4-76.5,52.5C389.5,713.3,362.8,706.6,339.2,688.2z"/>
	</g>
</g>
</svg>
