<?xml version="1.0" encoding="utf-8"?>
<!-- Generator: Adobe Illustrator 25.4.1, SVG Export Plug-In . SVG Version: 6.00 Build 0)  -->
<svg version="1.1" id="Layer_1" xmlns="http://www.w3.org/2000/svg" xmlns:xlink="http://www.w3.org/1999/xlink" x="0px" y="0px"
	 viewBox="0 0 1920 1080" style="enable-background:new 0 0 1920 1080;" xml:space="preserve">
<style type="text/css">
	.st0{fill:#B4DAF9;}
	.st1{fill:#79B7E2;}
</style>
<g>
	<g>
		<path class="st0" d="M492.24,483.53c0-8.83,0-17.65,0-26.48c2.16-3.89,0.51-8.09,1.03-12.12c-0.48-46.54,19.51-85.3,47.03-120.74
			c30.1-38.77,69.88-63.81,116.8-77.24c10.42-2.98,11.67-9.85,12.5-18.12c3.23-32.17,12.61-62.47,28.27-90.7
			c36.81-66.32,92.39-107.95,166.31-124.79c10.8-2.46,21.98-3.78,33.2-2.85c1.44,0.94-0.97,2.99,0.36,3.15
			c45.06,5.63,82.69,27.04,116.42,55.87c22.33,19.08,40.36,42.05,53.98,68.18c3.57,6.84,7.58,9.16,15.32,7.41
			c15.87-3.59,32-5.75,48.38-5c5.98,6.27,12.88,7.14,20.88,4.22c3.74-1.37,7.89-1.76,11.99-1.03c40.57,8.47,75.75,26.76,104.8,56.65
			c34.54,35.53,53.2,78.12,56.69,127.29c0.61,8.53,3.28,12.28,11.6,14.58c83.86,23.12,138.67,98.58,135.25,185.54
			c-2.93,74.47-57.05,144.18-128.52,165.35c-11.67,3.46-23.86,4.73-35.67,7.76c-5.73,1.01-11.51,0.84-17.28,0.84
			c-190.74,0.01-381.48,0.08-572.23-0.02c-102.14-0.06-194.24-69.86-221.85-167.84c-3.33-11.83-3.41-24.08-4.26-36.22
			C492.79,492.68,494.31,487.97,492.24,483.53z"/>
		<path class="st0" d="M492.24,866.41c12.97-27.46,27.66-25.55,56.09-23.65c28.08,1.88,53.85,12,79.99,21.52
			c42.38,15.43,84.97,14.28,126.82-3c63.15-26.08,126.41-26.66,189.54-0.47c36.99,15.35,74.7,17.3,113.39,8.75
			c21.42-4.73,36.81,5,41.64,26.18c3.16,13.84-5.96,30.87-20.8,35.27c-29.16,8.64-59.12,10.23-89.4,7.87
			c-27.73-2.16-53.21-11.87-79-21.35c-44.2-16.25-88.22-13.53-131.68,4.29c-63.07,25.86-125.93,24.09-188.48-2.25
			c-18.25-7.68-37.46-12.66-57.19-12.09c-19.74,0.56-33.29-6.55-40.9-24.77C492.24,877.27,492.24,871.84,492.24,866.41z"/>
		<path class="st0" d="M1019.63,1051.77c-17.26-2.84-26.13-22.72-24.28-35.08c2.38-15.86,14.99-26.57,32.25-28.25
			c18.9-1.84,37.18-6.27,54.89-13.59c62.39-25.78,125.03-25.9,187.49-0.21c48.31,19.87,96.15,18.49,143.9-1.9
			c28.08-11.99,57.54-17.19,88.02-16.7c18.65,0.3,33.09,14.74,32.97,32.81c-0.12,17.98-13.92,32.31-32.35,32.21
			c-26.56-0.15-51.44,6.32-75.77,16.39c-18.16,7.52-36.89,13.34-56.77,14.38c-3.81,2.44-8.49-0.65-12.28,1.95
			c-12.22,0-24.44,0-36.66,0c-4.15-2.17-8.61-0.5-12.9-1.03c-20.26,0.27-39.61-3.99-58.12-12.04
			c-48.19-20.96-96.48-21.47-144.86-0.82c-20.49,8.75-41.71,13.59-64.08,12.86C1033.94,1052.23,1026.7,1053.83,1019.63,1051.77z"/>
		<path class="st1" d="M492.24,980.46c12.97-27.48,27.67-25.56,56.06-23.65c28.06,1.89,53.84,11.95,79.96,21.52
			c44.95,16.46,89.56,13.28,133.49-5.31c36.94-15.64,75.43-20.03,115.27-15.38c10.44,1.22,20.83,2.42,30.95,5.02
			c18.3,4.69,28.07,21.44,23.81,39.94c-3.65,15.83-21.51,26.68-38.62,23c-40.66-8.75-79.85-4.76-118.06,11.83
			c-18.02,7.82-36.88,13.38-56.76,14.42c-3.81,2.44-8.49-0.65-12.27,1.95c-12.22,0-24.44,0-36.66,0c-4.1-2.17-8.51-0.5-12.74-1.03
			c-20.22,0.3-39.51-3.96-57.98-11.99c-23.51-10.21-47.92-15.76-73.66-16.22c-18.8-0.34-28.41-9.14-32.78-27.79
			C492.24,991.32,492.24,985.89,492.24,980.46z"/>
		<path class="st0" d="M492.24,752.36c12.97-27.46,27.67-25.53,56.11-23.66c29.84,1.97,57.37,12.41,84.73,23.42
			c8.2,3.3,16.89,4.84,25.56,6.39c19.91,3.57,32.38,20.39,28.7,38.61c-3.83,18.94-20.62,28.75-40.8,25.56
			c-22.02-3.48-42.29-11.9-62.83-19.75c-16.29-6.23-33.29-10.09-50.55-9.52c-19.75,0.66-33.31-6.53-40.92-24.76
			C492.24,763.22,492.24,757.79,492.24,752.36z"/>
		<path class="st0" d="M1042.12,1051.78c-0.03,0.66-0.05,1.33-0.05,1.99c-7.47,0-14.93,0-22.4,0c0-0.67-0.01-1.34-0.04-2
			C1027.13,1051.77,1034.62,1051.78,1042.12,1051.78z"/>
		<path class="st0" d="M492.24,444.83c0.66-0.02,1.32-0.04,1.98-0.07c-0.4,4.14,1.46,8.64-1.98,12.29
			C492.24,452.98,492.24,448.9,492.24,444.83z"/>
		<path class="st0" d="M494.23,495.8c-0.66-0.03-1.33-0.04-1.99-0.05c0-4.07,0-8.15,0-12.22
			C495.67,487.17,493.81,491.67,494.23,495.8z"/>
		<path class="st0" d="M657.19,1053.77c-0.01-0.65-0.02-1.3-0.06-1.95c4.14,0.37,8.62-1.45,12.27,1.95
			C665.34,1053.77,661.26,1053.77,657.19,1053.77z"/>
		<path class="st0" d="M706.06,1053.77c3.65-3.4,8.14-1.58,12.27-1.95c-0.03,0.65-0.05,1.3-0.06,1.95
			C714.21,1053.77,710.14,1053.77,706.06,1053.77z"/>
		<path class="st0" d="M1308.84,1053.77c-0.01-0.65-0.02-1.3-0.06-1.95c4.14,0.37,8.62-1.45,12.27,1.95
			C1316.99,1053.77,1312.92,1053.77,1308.84,1053.77z"/>
		<path class="st0" d="M1357.72,1053.77c3.65-3.4,8.14-1.58,12.27-1.95c-0.03,0.65-0.05,1.3-0.06,1.95
			C1365.86,1053.77,1361.79,1053.77,1357.72,1053.77z"/>
		<path class="st1" d="M1164.41,145.58c60.75-8.51,114.04,7.85,159.59,48.72c32.3,28.98,52.9,64.93,61.01,107.72
			c1.89,9.95,3.99,19.99,3.16,30.19c-0.58,7.09,2.14,9.86,9.16,11.61c54.96,13.66,96.05,45.88,119.83,97.04
			c30.45,65.51,23.83,129.01-19.88,186.71c-35.33,46.63-83.78,69.36-142.42,69.78c-14.59,0.1-29.17-0.09-43.76-0.15
			c16.21-4.38,32.9-6.7,48.52-13.6c43.36-19.16,74.94-49.78,94.61-93.09c11.76-25.89,16.69-52.93,15.32-80.97
			c-1.87-38.23-14.7-72.63-38.77-102.69c-26.6-33.22-60.56-54.61-102.1-63.68c-5.1-1.11-5.49-3.86-5.6-7.87
			c-1.62-56.4-23.58-103.58-64.94-141.68c-23.33-21.49-50.63-35.99-81.33-44.07C1172.61,148.44,1168.07,148.36,1164.41,145.58z"/>
		<path class="st1" d="M897.52,11.22c39.54-2.41,77.75,3.44,114.16,19.22c52.89,22.93,92.99,59.9,120.06,110.88
			c-8.41,4.56-17.84,1.7-26.77,3.56c-8.5,1.77-17.39,2.39-25.86,4.68c-5.35,1.45-8.31,0.75-11.08-4.79
			c-17.27-34.5-41.56-63.2-72.69-86.08c-31.07-22.84-65.54-37.66-104.16-44.26C893.58,13.22,895.55,12.22,897.52,11.22z"/>
		<path class="st0" d="M1340.52,825.73c-32.84,0.27-62.83-5.36-91.64-17.6c-47.92-20.37-95.94-20.21-144.12-0.38
			c-62.73,25.81-125.23,23.88-187.68-1.74c-39.67-16.28-80.23-17.63-121.17-4.54c-22.37,7.15-40.99-2.73-45.94-24.32
			c-3.23-14.09,6.15-29.91,21.66-36.07c12.32-4.89,25.15-8.02,38.23-10.05c35.89-5.55,71.45-4.42,106.55,5.51
			c17.95,5.08,34.57,13.86,52.74,18.43c38.03,9.57,75.16,7.39,111.41-7.57c62.41-25.76,125-27.12,187.69-1.36
			c49.34,20.27,98.11,19.23,146.95-1.9c27.72-11.99,57.04-16.75,87.2-16.18c18.08,0.34,32.38,14.71,32.48,32.34
			c0.1,18.05-13.61,32.73-31.94,32.65c-25.52-0.11-49.75,5.26-73.03,15.2C1400.79,820.56,1370.44,826.15,1340.52,825.73z"/>
		<path class="st1" d="M1331.84,939.72c-30.86-0.31-60.24-7.38-88.44-19.59c-16.94-7.34-34.77-10.95-52.96-12.87
			c-19-2-32.84-18.86-30.07-37.38c2.6-17.39,21.24-28.99,39.06-27.67c34.1,2.52,64.31,17.67,96.32,26.93
			c13.36,3.86,27.07,5.51,41.02,5.46c22.52-0.08,37.17,12.83,37.21,32.47c0.04,19.68-14.66,32.64-37.06,32.66
			C1335.23,939.72,1333.53,939.72,1331.84,939.72z"/>
		<path class="st0" d="M1473.94,909.16c-23.14,0.1-37.85-12.99-38.74-31.57c-0.83-17.39,14.38-32.17,33.85-33.7
			c11.12-0.88,22.16-2.33,33.37-1.95c18.05,0.62,32.35,14.75,32.47,32.35c0.12,18.02-13.57,32.58-31.84,32.68
			C1492.16,907.02,1481.47,908.45,1473.94,909.16z"/>
	</g>
</g>
</svg>
