<?xml version="1.0" encoding="utf-8"?>
<!-- Generator: Adobe Illustrator 25.4.1, SVG Export Plug-In . SVG Version: 6.00 Build 0)  -->
<svg version="1.1" id="Layer_1" xmlns="http://www.w3.org/2000/svg" xmlns:xlink="http://www.w3.org/1999/xlink" x="0px" y="0px"
	 viewBox="0 0 1920 1080" style="enable-background:new 0 0 1920 1080;" xml:space="preserve">
<style type="text/css">
	.st0{fill:#DEFAFF;}
	.st1{fill:#B4DAF9;}
	.st2{fill:#79B7E2;}
</style>
<g>
	<g>
		<path class="st0" d="M56.8,684.7"/>
		<path class="st0" d="M102.8,889.7c-15-17.1-9.3-26.6,0.4-45.5c9.6-18.7,24.2-33.4,38.5-48.5c23.2-24.5,35-54.1,35.6-88
			c0.8-51.1,19.2-94.7,55.9-130.3c21.5-20.9,34.1-46.2,39.7-75.3c3.1-16.1,14.4-23.8,30.3-20.8c10.4,1.9,19.4,13.3,18,24.8
			c-2.7,22.6-10.5,43.6-21.1,63.7c-9.7,18.4-23.9,33-38.1,47.9c-24.3,25.5-35.5,56.6-36.1,91.7c-1,51-20.8,93.6-57.5,128.8
			c-10.7,10.3-19.8,22-25.3,35.7c-5.5,13.7-14.4,20.9-29.2,20.7C110.3,892.9,106.5,891.3,102.8,889.7z"/>
		<path class="st0" d="M386.7,582.5c-7.1,11-23.4,11.2-31.3,6.3c-10.2-6.3-13.8-18.2-9.8-30.5c4.3-13.5,6.7-27.4,7-41.7
			c0.8-50.5,19.3-93.6,55.5-128.8c28-27.3,41.2-60.5,41.4-99.4c0.1-22.8,5.3-44.6,14.7-65.4c5.7-12.7,19.9-18.3,32.3-12.9
			c12.3,5.4,18.1,19.1,12.5,31.8c-8,18.2-10.9,37.2-11.2,56.9c-0.2,14.7-1.8,29.3-7,43.3c0.5,3.3-3,5.6-2.3,9
			c-3.6,8.4-7.3,16.8-10.9,25.2c-2.7,2.2-2.9,5.8-4.5,8.6c-5.8,14-14.5,26-25.5,36.3c-28.7,26.9-43.4,59.9-43.6,99.3
			c-0.1,16.7-3,32.7-10.2,47.8C391.2,572.8,390.2,578.2,386.7,582.5z"/>
		<path class="st0" d="M181.1,923.5c-15-17.1-9.3-26.6,0.4-45.5c9.6-18.7,24.2-33.4,38.5-48.5c24.6-26,35.7-57.6,36-93.3
			c0.2-30,8.6-57.8,23.6-83.7c3.9-6.8,7.8-13.6,12.6-19.8c8.7-11.2,23.1-12.9,34.5-4.5c9.8,7.2,11.9,22.7,4.3,33.4
			c-18.1,25.3-27,53.4-26.9,84.6c0,14.7-1.8,29.3-6.9,43.3c0.5,3.3-3,5.6-2.3,9c-3.6,8.4-7.3,16.8-10.9,25.2
			c-2.7,2.2-2.9,5.7-4.5,8.4c-5.8,14-14.4,26-25.4,36.3c-14,13.1-25,28.2-33,45.8c-5.8,12.8-14.7,16.8-28.8,14.3
			C188.6,926.7,184.9,925.1,181.1,923.5z"/>
		<path class="st0" d="M24.5,855.8c-15-17.1-9.3-26.6,0.4-45.6c10.2-19.9,25.6-35.7,41.2-51.2c4.7-4.7,8.3-10.2,12-15.7
			c8.4-12.6,23.6-16.2,35-8.3c11.9,8.3,13.6,22.7,5.4,35.6c-8.9,14.1-20.7,25.5-32.2,37.3c-9.1,9.3-16.8,19.9-21.5,31.9
			c-5.4,13.8-14.4,20.9-29.2,20.8C31.9,859,28.2,857.4,24.5,855.8z"/>
		<path class="st0" d="M393.3,567c0.4,0.2,0.9,0.4,1.4,0.6c-2.2,5.1-4.4,10.3-6.6,15.4c-0.5-0.2-0.9-0.4-1.4-0.6
			C388.9,577.3,391.1,572.2,393.3,567z"/>
		<path class="st1" d="M280.5,832c-0.4-0.2-0.9-0.4-1.4-0.5c1.5-2.7,1.6-6.3,5-7.9C282.9,826.4,281.7,829.2,280.5,832z"/>
		<path class="st1" d="M295,798.4c-1.3-3.5,1.3-6.1,2.3-9c0.4,0.2,0.9,0.4,1.3,0.6C297.4,792.8,296.2,795.6,295,798.4z"/>
		<path class="st1" d="M473.9,384.4c-0.4-0.2-0.9-0.4-1.4-0.5c1.5-2.7,1.6-6.3,5-7.9C476.3,378.8,475.1,381.6,473.9,384.4z"/>
		<path class="st1" d="M488.4,350.9c-1.3-3.5,1.3-6.1,2.3-9c0.4,0.2,0.9,0.4,1.3,0.6C490.8,345.3,489.6,348.1,488.4,350.9z"/>
		<path class="st2" d="M237.1,128.5"/>
		<path class="st0" d="M326.6,295c-9.6,22.6-22.3,41.6-39.3,57.7c-28.2,26.9-42.4,59.9-43,98.9c-0.9,50.7-20.8,93.1-56.9,128.4
			c-23,22.4-35.9,49.9-39.1,81.9c-1.7,17.5-14,27.3-30.3,24.3c-10.6-2-18.7-13.1-18.3-25.6c0.3-9.9,2-19.7,4.4-29.2
			c6.8-26.3,18.2-50.4,35.4-71.5c8.8-10.8,19.8-19.6,28.3-30.8c17.9-23.3,27.4-49.4,27.9-78.8c0.8-50.5,18.5-93.9,54.8-129.3
			c28.6-27.9,42.3-61.7,42.3-101.5c0-22.6,5.4-44.2,14.8-64.7c5.6-12.3,19.7-17.9,31.8-12.7c12.4,5.3,18.4,19.1,12.9,31.6
			c-7.7,17.5-11.2,35.7-11.2,54.7C341,252.1,335.8,274.6,326.6,295z"/>
		<path class="st0" d="M402.4,334.8c-9.4,21.1-22.9,39.2-39.7,54.9c-10.1,9.5-17.8,20.6-24.6,32.6c-7,12.5-22.7,17-34.6,9.6
			c-11.2-6.9-13.6-23.2-7.4-35c11.9-22.7,31.2-38.9,47.1-58.2c6.6-8,11.8-17,15.9-26.6c6.6-15.5,19.8-21.7,33.3-15.9
			c13.5,5.8,18.1,19.8,11.4,35.1C403.4,332.5,402.9,333.6,402.4,334.8z"/>
		<path class="st0" d="M423.5,228.1c-6.8,15.9-20.2,22.1-33.2,17.2c-12.2-4.6-17.8-19.4-13.1-33.3c2.7-7.9,5-15.9,8.6-23.5
			c5.8-12.2,19.7-17.8,31.9-12.7c12.4,5.3,18.3,19,13,31.6C427.5,215,425.3,222.7,423.5,228.1z"/>
	</g>
</g>
<g>
	<g>
		<path class="st0" d="M1865,684.7"/>
		<path class="st0" d="M1807.8,894.5c-14.8,0.2-23.7-7-29.2-20.7c-5.5-13.7-14.6-25.4-25.3-35.7c-36.7-35.1-56.5-77.8-57.5-128.8
			c-0.7-35.1-11.9-66.2-36.1-91.7c-14.2-14.9-28.4-29.5-38.1-47.9c-10.6-20.1-18.4-41.2-21.1-63.7c-1.4-11.5,7.6-22.8,18-24.8
			c16-3,27.2,4.7,30.3,20.8c5.6,29.1,18.1,54.4,39.7,75.3c36.7,35.6,55.1,79.2,55.9,130.3c0.5,33.9,12.4,63.5,35.6,88
			c14.3,15.1,28.9,29.8,38.5,48.5c9.7,19,15.4,28.5,0.4,45.5C1815.3,891.3,1811.5,892.9,1807.8,894.5z"/>
		<path class="st0" d="M1528.1,568c-7.1-15.2-10.1-31.2-10.2-47.8c-0.2-39.4-14.9-72.4-43.6-99.3c-11-10.3-19.7-22.4-25.5-36.3
			c-1.6-2.8-1.8-6.3-4.5-8.6c-3.6-8.4-7.3-16.8-10.9-25.2c0.7-3.4-2.8-5.7-2.3-9c-5.2-14-6.7-28.6-7-43.3
			c-0.3-19.7-3.2-38.7-11.2-56.9c-5.5-12.6,0.2-26.4,12.5-31.8c12.4-5.4,26.6,0.2,32.3,12.9c9.4,20.8,14.6,42.6,14.7,65.4
			c0.2,38.8,13.4,72.1,41.4,99.4c36.2,35.3,54.7,78.3,55.5,128.8c0.2,14.3,2.6,28.2,7,41.7c4,12.4,0.4,24.2-9.8,30.5
			c-7.9,4.9-24.2,4.8-31.3-6.3C1531.6,578.2,1530.6,572.8,1528.1,568z"/>
		<path class="st0" d="M1729.5,928.4c-14.1,2.5-23-1.5-28.8-14.3c-8-17.5-19-32.7-33-45.8c-11-10.3-19.6-22.3-25.4-36.3
			c-1.6-2.8-1.8-6.3-4.5-8.4c-3.6-8.4-7.3-16.8-10.9-25.2c0.7-3.4-2.8-5.7-2.3-9c-5.2-14-7-28.6-6.9-43.3c0-31.2-8.8-59.3-26.9-84.6
			c-7.6-10.7-5.5-26.2,4.3-33.4c11.4-8.4,25.8-6.7,34.5,4.5c4.8,6.2,8.7,13,12.6,19.8c15,26,23.4,53.7,23.6,83.7
			c0.3,35.7,11.3,67.3,36,93.3c14.3,15.1,28.9,29.8,38.5,48.5c9.7,18.9,15.4,28.5,0.4,45.5C1736.9,925.1,1733.2,926.7,1729.5,928.4z
			"/>
		<path class="st0" d="M1886.1,860.7c-14.8,0.2-23.7-7-29.2-20.8c-4.7-12-12.4-22.6-21.5-31.9c-11.5-11.8-23.3-23.2-32.2-37.3
			c-8.2-12.9-6.4-27.4,5.4-35.6c11.4-7.9,26.7-4.4,35,8.3c3.6,5.5,7.3,11,12,15.7c15.7,15.5,31,31.3,41.2,51.2
			c9.7,19,15.4,28.5,0.4,45.6C1893.6,857.4,1889.9,859,1886.1,860.7z"/>
		<path class="st0" d="M1535.1,582.5c-0.5,0.2-0.9,0.4-1.4,0.6c-2.2-5.1-4.4-10.3-6.6-15.4c0.5-0.2,0.9-0.4,1.4-0.6
			C1530.7,572.2,1532.9,577.3,1535.1,582.5z"/>
		<path class="st1" d="M1637.7,823.6c3.4,1.5,3.5,5.1,5,7.9c-0.5,0.2-0.9,0.4-1.4,0.5C1640.1,829.2,1638.9,826.4,1637.7,823.6z"/>
		<path class="st1" d="M1623.2,790c0.4-0.2,0.9-0.4,1.3-0.6c1,3,3.6,5.5,2.3,9C1625.6,795.6,1624.4,792.8,1623.2,790z"/>
		<path class="st1" d="M1444.3,376c3.4,1.5,3.5,5.1,5,7.9c-0.5,0.2-0.9,0.4-1.4,0.5C1446.7,381.6,1445.5,378.8,1444.3,376z"/>
		<path class="st1" d="M1429.8,342.5c0.4-0.2,0.9-0.4,1.3-0.6c1,3,3.6,5.5,2.3,9C1432.2,348.1,1431,345.3,1429.8,342.5z"/>
		<path class="st2" d="M1684.7,128.5"/>
		<path class="st0" d="M1580.7,228.4c-0.1-18.9-3.6-37.2-11.2-54.7c-5.5-12.6,0.5-26.3,12.9-31.6c12.1-5.2,26.2,0.4,31.8,12.7
			c9.3,20.5,14.8,42.1,14.8,64.7c0,39.8,13.7,73.6,42.3,101.5c36.3,35.4,53.9,78.8,54.8,129.3c0.5,29.3,10,55.5,27.9,78.8
			c8.5,11.1,19.5,19.9,28.3,30.8c17.2,21.2,28.6,45.2,35.4,71.5c2.5,9.6,4.1,19.3,4.4,29.2c0.4,12.5-7.7,23.6-18.3,25.6
			c-16.3,3-28.6-6.8-30.3-24.3c-3.2-32-16.1-59.5-39.1-81.9c-36.1-35.3-56-77.6-56.9-128.4c-0.7-39-14.8-72-43-98.9
			c-17-16.2-29.7-35.1-39.3-57.7C1586,274.6,1580.8,252.1,1580.7,228.4z"/>
		<path class="st0" d="M1517.9,331.3c-6.6-15.4-2.1-29.3,11.4-35.1c13.5-5.8,26.7,0.4,33.3,15.9c4.1,9.6,9.3,18.5,15.9,26.6
			c15.9,19.2,35.2,35.5,47.1,58.2c6.2,11.9,3.8,28.1-7.4,35c-11.9,7.4-27.6,2.9-34.6-9.6c-6.7-11.9-14.5-23.1-24.6-32.6
			c-16.8-15.7-30.3-33.8-39.7-54.9C1518.9,333.6,1518.4,332.5,1517.9,331.3z"/>
		<path class="st0" d="M1491.1,207.5c-5.4-12.6,0.6-26.3,13-31.6c12.1-5.1,26.1,0.5,31.9,12.7c3.6,7.6,5.9,15.6,8.6,23.5
			c4.7,13.8-0.9,28.7-13.1,33.3c-13,4.9-26.4-1.3-33.2-17.2C1496.5,222.7,1494.3,215,1491.1,207.5z"/>
	</g>
</g>
<g>
	<g>
		<path class="st1" d="M450.3,489.5c0-8.8,0-17.6,0-26.5c2.2-3.9,0.5-8.1,1-12.1c-0.5-46.5,19.5-85.3,47-120.7
			c30.1-38.8,69.9-63.8,116.8-77.2c10.4-3,11.7-9.9,12.5-18.1c3.2-32.2,12.6-62.5,28.3-90.7c36.8-66.3,92.4-108,166.3-124.8
			c10.8-2.5,22-3.8,33.2-2.9c1.4,0.9-1,3,0.4,3.1c45.1,5.6,82.7,27,116.4,55.9c22.3,19.1,40.4,42,54,68.2c3.6,6.8,7.6,9.2,15.3,7.4
			c15.9-3.6,32-5.8,48.4-5c6,6.3,12.9,7.1,20.9,4.2c3.7-1.4,7.9-1.8,12-1c40.6,8.5,75.8,26.8,104.8,56.7
			c34.5,35.5,53.2,78.1,56.7,127.3c0.6,8.5,3.3,12.3,11.6,14.6c83.9,23.1,138.7,98.6,135.2,185.5c-2.9,74.5-57.1,144.2-128.5,165.4
			c-11.7,3.5-23.9,4.7-35.7,7.8c-5.7,1-11.5,0.8-17.3,0.8c-190.7,0-381.5,0.1-572.2,0c-102.1-0.1-194.2-69.9-221.9-167.8
			c-3.3-11.8-3.4-24.1-4.3-36.2C450.8,498.7,452.3,494,450.3,489.5z"/>
		<path class="st1" d="M450.3,872.4c13-27.5,27.7-25.5,56.1-23.7c28.1,1.9,53.9,12,80,21.5c42.4,15.4,85,14.3,126.8-3
			c63.2-26.1,126.4-26.7,189.5-0.5c37,15.3,74.7,17.3,113.4,8.8c21.4-4.7,36.8,5,41.6,26.2c3.2,13.8-6,30.9-20.8,35.3
			c-29.2,8.6-59.1,10.2-89.4,7.9c-27.7-2.2-53.2-11.9-79-21.3c-44.2-16.2-88.2-13.5-131.7,4.3c-63.1,25.9-125.9,24.1-188.5-2.2
			c-18.2-7.7-37.5-12.7-57.2-12.1c-19.7,0.6-33.3-6.5-40.9-24.8C450.3,883.3,450.3,877.8,450.3,872.4z"/>
		<path class="st1" d="M977.7,1057.8c-17.3-2.8-26.1-22.7-24.3-35.1c2.4-15.9,15-26.6,32.2-28.2c18.9-1.8,37.2-6.3,54.9-13.6
			c62.4-25.8,125-25.9,187.5-0.2c48.3,19.9,96.2,18.5,143.9-1.9c28.1-12,57.5-17.2,88-16.7c18.7,0.3,33.1,14.7,33,32.8
			c-0.1,18-13.9,32.3-32.3,32.2c-26.6-0.2-51.4,6.3-75.8,16.4c-18.2,7.5-36.9,13.3-56.8,14.4c-3.8,2.4-8.5-0.7-12.3,1.9
			c-12.2,0-24.4,0-36.7,0c-4.2-2.2-8.6-0.5-12.9-1c-20.3,0.3-39.6-4-58.1-12c-48.2-21-96.5-21.5-144.9-0.8
			c-20.5,8.8-41.7,13.6-64.1,12.9C992,1058.2,984.7,1059.8,977.7,1057.8z"/>
		<path class="st2" d="M450.3,986.5c13-27.5,27.7-25.6,56.1-23.7c28.1,1.9,53.8,12,80,21.5c45,16.5,89.6,13.3,133.5-5.3
			c36.9-15.6,75.4-20,115.3-15.4c10.4,1.2,20.8,2.4,31,5c18.3,4.7,28.1,21.4,23.8,39.9c-3.7,15.8-21.5,26.7-38.6,23
			c-40.7-8.7-79.8-4.8-118.1,11.8c-18,7.8-36.9,13.4-56.8,14.4c-3.8,2.4-8.5-0.7-12.3,1.9c-12.2,0-24.4,0-36.7,0
			c-4.1-2.2-8.5-0.5-12.7-1c-20.2,0.3-39.5-4-58-12c-23.5-10.2-47.9-15.8-73.7-16.2c-18.8-0.3-28.4-9.1-32.8-27.8
			C450.3,997.3,450.3,991.9,450.3,986.5z"/>
		<path class="st1" d="M450.3,758.4c13-27.5,27.7-25.5,56.1-23.7c29.8,2,57.4,12.4,84.7,23.4c8.2,3.3,16.9,4.8,25.6,6.4
			c19.9,3.6,32.4,20.4,28.7,38.6c-3.8,18.9-20.6,28.8-40.8,25.6c-22-3.5-42.3-11.9-62.8-19.8c-16.3-6.2-33.3-10.1-50.6-9.5
			c-19.8,0.7-33.3-6.5-40.9-24.8C450.3,769.2,450.3,763.8,450.3,758.4z"/>
		<path class="st1" d="M1000.2,1057.8c0,0.7-0.1,1.3-0.1,2c-7.5,0-14.9,0-22.4,0c0-0.7,0-1.3,0-2
			C985.2,1057.8,992.7,1057.8,1000.2,1057.8z"/>
		<path class="st1" d="M450.3,450.8c0.7,0,1.3,0,2-0.1c-0.4,4.1,1.5,8.6-2,12.3C450.3,459,450.3,454.9,450.3,450.8z"/>
		<path class="st1" d="M452.3,501.8c-0.7,0-1.3,0-2,0c0-4.1,0-8.1,0-12.2C453.7,493.2,451.8,497.7,452.3,501.8z"/>
		<path class="st1" d="M615.2,1059.8c0-0.7,0-1.3-0.1-1.9c4.1,0.4,8.6-1.4,12.3,1.9C623.4,1059.8,619.3,1059.8,615.2,1059.8z"/>
		<path class="st1" d="M664.1,1059.8c3.7-3.4,8.1-1.6,12.3-1.9c0,0.7,0,1.3-0.1,1.9C672.2,1059.8,668.2,1059.8,664.1,1059.8z"/>
		<path class="st1" d="M1266.9,1059.8c0-0.7,0-1.3-0.1-1.9c4.1,0.4,8.6-1.4,12.3,1.9C1275,1059.8,1271,1059.8,1266.9,1059.8z"/>
		<path class="st1" d="M1315.8,1059.8c3.7-3.4,8.1-1.6,12.3-1.9c0,0.7-0.1,1.3-0.1,1.9C1323.9,1059.8,1319.8,1059.8,1315.8,1059.8z"
			/>
		<path class="st2" d="M1122.4,151.6c60.8-8.5,114,7.9,159.6,48.7c32.3,29,52.9,64.9,61,107.7c1.9,10,4,20,3.2,30.2
			c-0.6,7.1,2.1,9.9,9.2,11.6c55,13.7,96.1,45.9,119.8,97c30.4,65.5,23.8,129-19.9,186.7c-35.3,46.6-83.8,69.4-142.4,69.8
			c-14.6,0.1-29.2-0.1-43.8-0.2c16.2-4.4,32.9-6.7,48.5-13.6c43.4-19.2,74.9-49.8,94.6-93.1c11.8-25.9,16.7-52.9,15.3-81
			c-1.9-38.2-14.7-72.6-38.8-102.7c-26.6-33.2-60.6-54.6-102.1-63.7c-5.1-1.1-5.5-3.9-5.6-7.9c-1.6-56.4-23.6-103.6-64.9-141.7
			c-23.3-21.5-50.6-36-81.3-44.1C1130.6,154.4,1126.1,154.4,1122.4,151.6z"/>
		<path class="st2" d="M855.6,17.2c39.5-2.4,77.8,3.4,114.2,19.2c52.9,22.9,93,59.9,120.1,110.9c-8.4,4.6-17.8,1.7-26.8,3.6
			c-8.5,1.8-17.4,2.4-25.9,4.7c-5.3,1.4-8.3,0.8-11.1-4.8c-17.3-34.5-41.6-63.2-72.7-86.1C922.3,41.9,887.8,27,849.2,20.4
			C851.6,19.2,853.6,18.2,855.6,17.2z"/>
		<path class="st1" d="M1298.6,831.7c-32.8,0.3-62.8-5.4-91.6-17.6c-47.9-20.4-95.9-20.2-144.1-0.4c-62.7,25.8-125.2,23.9-187.7-1.7
			c-39.7-16.3-80.2-17.6-121.2-4.5c-22.4,7.2-41-2.7-45.9-24.3c-3.2-14.1,6.2-29.9,21.7-36.1c12.3-4.9,25.2-8,38.2-10
			c35.9-5.5,71.5-4.4,106.5,5.5c18,5.1,34.6,13.9,52.7,18.4c38,9.6,75.2,7.4,111.4-7.6c62.4-25.8,125-27.1,187.7-1.4
			c49.3,20.3,98.1,19.2,146.9-1.9c27.7-12,57-16.8,87.2-16.2c18.1,0.3,32.4,14.7,32.5,32.3c0.1,18-13.6,32.7-31.9,32.7
			c-25.5-0.1-49.8,5.3-73,15.2C1358.8,826.6,1328.5,832.2,1298.6,831.7z"/>
		<path class="st2" d="M1289.9,945.7c-30.9-0.3-60.2-7.4-88.4-19.6c-16.9-7.3-34.8-11-53-12.9c-19-2-32.8-18.9-30.1-37.4
			c2.6-17.4,21.2-29,39.1-27.7c34.1,2.5,64.3,17.7,96.3,26.9c13.4,3.9,27.1,5.5,41,5.5c22.5-0.1,37.2,12.8,37.2,32.5
			c0,19.7-14.7,32.6-37.1,32.7C1293.3,945.7,1291.6,945.7,1289.9,945.7z"/>
		<path class="st1" d="M1432,915.2c-23.1,0.1-37.8-13-38.7-31.6c-0.8-17.4,14.4-32.2,33.8-33.7c11.1-0.9,22.2-2.3,33.4-2
			c18.1,0.6,32.3,14.8,32.5,32.3c0.1,18-13.6,32.6-31.8,32.7C1450.2,913,1439.5,914.5,1432,915.2z"/>
	</g>
</g>
</svg>
