<?xml version="1.0" encoding="utf-8"?>
<!-- Generator: Adobe Illustrator 25.4.1, SVG Export Plug-In . SVG Version: 6.00 Build 0)  -->
<svg version="1.1" id="Layer_1" xmlns="http://www.w3.org/2000/svg" xmlns:xlink="http://www.w3.org/1999/xlink" x="0px" y="0px"
	 viewBox="0 0 1920 1080" style="enable-background:new 0 0 1920 1080;" xml:space="preserve">
<style type="text/css">
	.st0{fill:#B4DAF9;}
	.st1{fill:#79B7E2;}
</style>
<g>
	<g>
		<path class="st0" d="M445.97,204.05"/>
		<path class="st0" d="M43.75,496.44c22.97-48.63,48.98-45.25,99.32-41.88c49.72,3.32,95.36,21.26,141.64,38.11
			c75.04,27.33,150.47,25.28,224.56-5.32c111.82-46.18,223.85-47.2,335.64-0.83c65.51,27.18,132.27,30.64,200.79,15.5
			c37.94-8.38,65.18,8.85,73.73,46.35c5.59,24.5-10.56,54.66-36.83,62.45c-51.63,15.3-104.69,18.12-158.32,13.94
			c-49.11-3.83-94.22-21.01-139.89-37.8c-78.28-28.77-156.23-23.96-233.17,7.6c-111.69,45.8-222.99,42.66-333.77-3.98
			c-32.32-13.61-66.33-22.41-101.28-21.42c-34.95,1-58.96-11.6-72.43-43.87C43.75,515.67,43.75,506.05,43.75,496.44z"/>
		<path class="st0" d="M977.65,824.68c-30.57-5.04-46.27-40.24-42.99-62.12c4.21-28.09,26.54-47.05,57.11-50.02
			c33.47-3.26,65.84-11.11,97.2-24.06c110.48-45.65,221.4-45.86,332.02-0.38c85.55,35.18,170.26,32.74,254.81-3.36
			c49.73-21.23,101.9-30.44,155.87-29.58c33.03,0.53,58.59,26.1,58.38,58.1c-0.21,31.83-24.65,57.21-57.28,57.03
			c-47.04-0.26-91.09,11.18-134.17,29.02c-32.15,13.31-65.33,23.62-100.52,25.46c-6.74,4.31-15.04-1.14-21.74,3.46
			c-21.64,0-43.27,0-64.91,0c-7.35-3.84-15.25-0.88-22.84-1.82c-35.88,0.48-70.14-7.07-102.93-21.33
			c-85.33-37.12-170.85-38.02-256.53-1.44c-36.28,15.49-73.86,24.06-113.48,22.77C1002.99,825.49,990.17,828.32,977.65,824.68z"/>
		<path class="st1" d="M43.75,698.4c22.97-48.66,49-45.27,99.27-41.89c49.68,3.34,95.35,21.16,141.59,38.1
			c79.59,29.15,158.6,23.52,236.38-9.41c65.41-27.7,133.58-35.47,204.13-27.24c18.49,2.16,36.88,4.29,54.81,8.89
			c32.41,8.3,49.71,37.97,42.16,70.72c-6.46,28.03-38.1,47.25-68.39,40.74c-72-15.49-141.4-8.43-209.07,20.94
			c-31.91,13.85-65.31,23.7-100.51,25.53c-6.74,4.31-15.04-1.14-21.74,3.46c-21.64,0-43.27,0-64.91,0
			c-7.26-3.84-15.06-0.89-22.56-1.82c-35.8,0.53-69.96-7.02-102.68-21.23c-41.63-18.08-84.86-27.9-130.44-28.73
			c-33.3-0.61-50.31-16.18-58.05-49.2C43.75,717.63,43.75,708.01,43.75,698.4z"/>
		<path class="st1" d="M43.75,294.48c22.96-48.63,49-45.21,99.35-41.9c52.85,3.48,101.59,21.98,150.05,41.48
			c14.53,5.84,29.9,8.57,45.25,11.32c35.25,6.32,57.34,36.11,50.82,68.36c-6.78,33.54-36.52,50.91-72.25,45.26
			c-39-6.17-74.89-21.07-111.25-34.97c-28.85-11.03-58.94-17.87-89.51-16.85c-34.97,1.17-58.99-11.56-72.46-43.85
			C43.75,313.71,43.75,304.09,43.75,294.48z"/>
		<path class="st0" d="M1017.48,824.69c-0.06,1.18-0.09,2.35-0.09,3.53c-13.22,0-26.44,0-39.67,0c0.01-1.18-0.02-2.36-0.07-3.55
			C990.92,824.69,1004.2,824.69,1017.48,824.69z"/>
		<path class="st0" d="M335.84,828.23c-0.01-1.15-0.04-2.31-0.1-3.46c7.32,0.65,15.26-2.56,21.74,3.46
			C350.26,828.23,343.05,828.23,335.84,828.23z"/>
		<path class="st0" d="M422.38,828.23c6.47-6.02,14.41-2.81,21.74-3.46c-0.05,1.15-0.09,2.3-0.1,3.46
			C436.81,828.23,429.6,828.23,422.38,828.23z"/>
		<path class="st0" d="M1489.79,828.23c-0.01-1.15-0.04-2.31-0.1-3.46c7.32,0.65,15.26-2.56,21.74,3.46
			C1504.21,828.23,1497,828.23,1489.79,828.23z"/>
		<path class="st0" d="M1576.33,828.23c6.47-6.02,14.41-2.81,21.74-3.46c-0.05,1.15-0.09,2.3-0.1,3.46
			C1590.76,828.23,1583.54,828.23,1576.33,828.23z"/>
		<path class="st1" d="M1823.47,73.5"/>
		<path class="st0" d="M1545.87,424.4c-58.15,0.48-111.26-9.49-162.27-31.17c-84.86-36.07-169.89-35.78-255.21-0.67
			c-111.09,45.71-221.76,42.29-332.34-3.08c-70.25-28.82-142.07-31.21-214.57-8.04c-39.62,12.66-72.59-4.84-81.35-43.07
			c-5.72-24.96,10.9-52.97,38.36-63.87c21.82-8.66,44.54-14.21,67.7-17.79c63.55-9.83,126.53-7.82,188.68,9.77
			c31.78,8.99,61.22,24.54,93.4,32.63c67.34,16.94,133.09,13.09,197.28-13.4c110.51-45.61,221.36-48.02,332.35-2.42
			c87.38,35.9,173.74,34.05,260.22-3.37c49.09-21.24,101.01-29.67,154.41-28.65c32.01,0.61,57.33,26.05,57.51,57.26
			c0.18,31.96-24.11,57.96-56.56,57.81c-45.19-0.2-88.09,9.31-129.32,26.91C1652.61,415.25,1598.86,425.15,1545.87,424.4z"/>
		<path class="st1" d="M1530.51,626.26c-54.64-0.55-106.67-13.07-156.61-34.7c-30-12.99-61.57-19.4-93.78-22.78
			c-33.64-3.54-58.15-33.4-53.25-66.19c4.6-30.79,37.61-51.33,69.17-49c60.38,4.46,113.88,31.28,170.56,47.68
			c23.66,6.84,47.93,9.76,72.64,9.66c39.88-0.15,65.82,22.72,65.89,57.49c0.08,34.85-25.96,57.8-65.63,57.83
			C1536.51,626.26,1533.51,626.26,1530.51,626.26z"/>
		<path class="st0" d="M1782.13,572.15c-40.97,0.18-67.03-23-68.61-55.91c-1.48-30.79,25.47-56.96,59.94-59.68
			c19.69-1.56,39.25-4.13,59.08-3.45c31.97,1.1,57.28,26.11,57.49,57.29c0.22,31.91-24.03,57.69-56.38,57.86
			C1814.41,568.36,1795.48,570.89,1782.13,572.15z"/>
	</g>
</g>
</svg>
