<?xml version="1.0" encoding="utf-8"?>
<!-- Generator: Adobe Illustrator 25.4.1, SVG Export Plug-In . SVG Version: 6.00 Build 0)  -->
<svg version="1.1" id="Layer_1" xmlns="http://www.w3.org/2000/svg" xmlns:xlink="http://www.w3.org/1999/xlink" x="0px" y="0px"
	 viewBox="0 0 1920 1080" style="enable-background:new 0 0 1920 1080;" xml:space="preserve">
<style type="text/css">
	.st0{fill:#A1CEF0;}
	.st1{fill:#A8D1F1;}
	.st2{fill:#9ACAEF;}
	.st3{fill:#A7D1F1;}
	.st4{fill:#96C8EE;}
	.st5{fill:#AED4F2;}
	.st6{fill:#8FC4EE;}
	.st7{fill:#B3D7F3;}
	.st8{fill:#88C1ED;}
	.st9{fill:#91C6EE;}
	.st10{fill:#91C5EE;}
	.st11{fill:#8DC3ED;}
	.st12{fill:#83BEEC;}
	.st13{fill:#B9DAF4;}
	.st14{fill:#A3CFF1;}
	.st15{fill:#9FCDF0;}
	.st16{fill:#96C8EF;}
	.st17{fill:#7EBCEB;}
	.st18{fill:#A0CDF0;}
	.st19{fill:#7EBBEB;}
	.st20{fill:#BEDCF5;}
	.st21{fill:#9BCAEF;}
	.st22{fill:#92C6EE;}
	.st23{fill:#B8DAF4;}
	.st24{fill:#99C9EF;}
	.st25{fill:#BCDBF4;}
	.st26{fill:#B4D7F3;}
	.st27{fill:#93C7EE;}
	.st28{fill:#81BDEC;}
	.st29{fill:#ADD4F2;}
	.st30{fill:#87C0EC;}
	.st31{fill:#BADAF4;}
	.st32{fill:#C0DEF5;}
	.st33{fill:#F2F6F9;stroke:url(#SVGID_1_);stroke-miterlimit:10;}
	.st34{fill:#F2F6F9;stroke:url(#SVGID_00000145038854334249893190000003137280426277000342_);stroke-miterlimit:10;}
	.st35{fill:#2276B6;}
	.st36{fill:#52A2DF;}
	.st37{fill:#4E9FDC;}
	.st38{fill:#1F74B4;}
	.st39{fill:#1D72B2;}
	.st40{fill:#AFD5F2;}
	.st41{fill:#ACD3F2;}
	.st42{fill:#9ECCF0;}
	.st43{fill:#A2CEF0;}
	.st44{fill:#B6D8F3;}
	.st45{fill:#8AC2ED;}
	.st46{fill:#94C7EE;}
	.st47{fill:#8DC4ED;}
	.st48{fill:#A5D0F1;}
	.st49{fill:#7FBCEB;}
	.st50{fill:#BDDCF4;}
	.st51{fill:#7CBAEB;}
	.st52{fill:#55A5E2;}
	.st53{fill:#79B9EA;}
	.st54{fill:#1B70B0;}
	.st55{fill:#B1D5F2;}
	.st56{fill:#76B5E4;}
	.st57{fill:#B0D5F2;}
	.st58{fill:#99C8EC;}
	.st59{fill:#ACD3F1;}
	.st60{fill:#2679B9;}
	.st61{fill:#4394D2;}
	.st62{fill:#3083C2;}
	.st63{fill:#3F91CF;}
	.st64{fill:#3386C5;}
	.st65{fill:#287BBB;}
	.st66{fill:#2A7EBD;}
	.st67{fill:#3D8FCD;}
	.st68{fill:#2D80C0;}
	.st69{fill:#4596D4;}
	.st70{fill:#4C9CDA;}
	.st71{fill:#3688C7;}
	.st72{fill:#4798D6;}
	.st73{fill:#3A8CCB;}
	.st74{fill:#499AD8;}
	.st75{fill:#388BC9;}
</style>
<g>
	<path class="st0" d="M459.1,814.9c-1.2,1-0.3,3-1.9,3.8c-1.8-0.2-3.2-1.2-4.6-2.3c-13.2-10.1-26.4-20.2-39.6-30.3
		c-1.2-0.9-2.5-1.8-3-3.4c0.6-1.6,1.2-3.3,1.8-4.9c2.3-2,4,0,5.6,1.2c13,9.8,25.9,19.7,38.8,29.7
		C458.4,810.2,460.3,811.9,459.1,814.9z"/>
	<path class="st1" d="M459.1,814.9c0-2.2-1.3-3.5-2.9-4.7c-13.6-10.3-27.1-20.7-40.6-31c-1.1-0.8-2.2-1.6-3.7-1.4
		c0.9-1.7,1.8-3.4,2.7-5.1c2-1.9,3.7-0.4,5.1,0.7c12.8,9.6,25.5,19.4,38.2,29.2c1.6,1.3,3.5,2.6,2.6,5.2
		C460.8,810.4,460.6,812.8,459.1,814.9z"/>
	<path class="st2" d="M189.8,845c0.2-1.8,0.6-3.5,1.8-4.9c2.3-2,4.1-0.1,5.6,1.1c13,9.8,26,19.8,38.9,29.8c1.6,1.2,3.7,2.5,2.6,5.2
		c-0.9,1.4-1.9,2.8-2.8,4.2C219.7,869.7,204.3,858,189.8,845z"/>
	<path class="st3" d="M193.5,835.2c0.9-1.7,1.8-3.4,2.7-5.1c2-1.9,3.7-0.4,5.1,0.7c12.8,9.6,25.5,19.4,38.2,29.2
		c1.6,1.3,3.5,2.6,2.6,5.2c0.2,1.3,0.5,2.5-0.6,3.6c-2,1.8-3.7,0.4-5.2-0.7C222.1,857.2,207.5,846.6,193.5,835.2z"/>
	<path class="st0" d="M193.5,835.2c2.4-0.3,3.9,1.6,5.5,2.8c12.2,9.3,24.3,18.6,36.5,27.8c1.8,1.4,3.4,3.3,6.1,3
		c0.2,2.9-0.9,5.2-2.7,7.3c-0.2-1.7-1.5-2.6-2.7-3.6c-13.4-10.3-26.8-20.5-40.2-30.8c-1.2-1-2.5-1.9-4.2-1.7
		C192.3,838.5,192.9,836.8,193.5,835.2z"/>
	<path class="st2" d="M410.1,782.7c16.1,11.4,31.8,23.5,47.1,36c-1.1,1.3-1.1,3.3-2.8,4.3c-16.3-10.6-31.7-22.3-46.2-35.4
		C408.4,785.8,408.8,784.1,410.1,782.7z"/>
	<path class="st2" d="M297.1,783.6c-1.2,1.3-1.1,3.3-2.8,4.2c-16.2-10.6-31.7-22.2-46-35.3c0-1.8,0.3-3.5,1.6-5c2.5-1.1,4,0.8,5.6,2
		c12.8,9.7,25.5,19.4,38.1,29.2C295.2,779.9,297.3,781,297.1,783.6z"/>
	<path class="st1" d="M300.5,772.7c0.2,1.3,0.5,2.6-0.6,3.7c-2.4,0.3-4.1-1-5.8-2.3c-13-9.8-25.9-19.8-38.9-29.7
		c-1.1-0.8-2.1-1.7-2.5-3.1c0.6-1.3,1.3-2.5,1.9-3.8c1.7-1.7,3.3-0.6,4.7,0.4c13.6,10.3,27.5,20.4,40.6,31.3c0.3,0.2,0.4,0.6,0.6,1
		C300.8,771.1,300.9,771.9,300.5,772.7z"/>
	<path class="st4" d="M408.2,787.6c15.9,11.2,31.3,22.9,46.2,35.4c-0.7,1.5-1.7,2.8-3.2,3.6c-1.6-0.2-2.9-1-4.1-1.9
		c-12.4-9.5-24.9-19-37.3-28.5c-1.2-1-2.4-2-2.9-3.5C407.4,791,407,789.1,408.2,787.6z"/>
	<path class="st5" d="M242.1,865.2c-0.2-1.7-1.4-2.7-2.6-3.6c-13-10-26.1-19.9-39.1-29.9c-1.2-0.9-2.5-1.9-4.2-1.6
		c1-1.7,2-3.4,2.9-5.1c2.2-0.9,3.7,0.7,5.2,1.8c11.1,8.4,22.2,16.9,33.3,25.4c2.1,1.6,3.5,3.5,4.6,5.9
		C242.4,860.5,243.7,862.9,242.1,865.2z"/>
	<path class="st5" d="M460.6,807.9c-0.2-1.7-1.4-2.7-2.6-3.6c-13-10-26.1-19.9-39.1-29.9c-1.2-0.9-2.5-1.9-4.2-1.6
		c1-1.7,2-3.4,2.9-5.1c2.2-0.9,3.7,0.7,5.2,1.8c11.1,8.4,22.2,16.9,33.3,25.4c2.1,1.6,3.5,3.5,4.6,5.9
		C460.8,803.1,462.1,805.5,460.6,807.9z"/>
	<path class="st6" d="M406.9,792.6c15.1,10.9,29.9,22.1,44.3,34c-1.3,1.2-2.3,2.7-4.3,3c-3.1-0.9-5.4-2.9-7.9-4.8
		c-8.6-6.6-17.3-13.1-25.8-19.8c-2.3-1.8-4.8-3.3-7.6-4C405.1,798.1,405.9,795.3,406.9,792.6z"/>
	<path class="st5" d="M300.1,770.3c-13.2-9.9-26.3-19.8-39.5-29.7c-1.8-1.4-3.3-3.4-6-3.1c1-1.7,2-3.4,2.9-5.1
		c2.5-0.9,4,0.9,5.7,2.1c10.8,8.2,21.6,16.5,32.4,24.7C299.4,762.2,301.1,765.6,300.1,770.3z"/>
	<path class="st7" d="M300.1,770.3c0.2-4.7-2.2-7.7-6-10.4c-12.3-9-24.4-18.3-36.6-27.4c0.5-2.2,2.5-3,4-4.3c3.1,0.4,5,2.8,7.3,4.5
		c9.3,7.2,18.9,14.1,27.9,21.6c2.3,5.9,5.8,11.6,3.8,18.4C300.3,771.9,300.2,771.1,300.1,770.3z"/>
	<path class="st7" d="M460.6,800.7c-13.9-11.6-28.3-22.5-43-33c0.5-2.2,2.5-3,4-4.3c3.1,0.4,5,2.8,7.3,4.5
		c9.3,7.2,18.9,14.1,27.9,21.6C458.2,793.1,460.4,796.6,460.6,800.7z"/>
	<path class="st7" d="M242.2,858.1c-13.9-11.6-28.3-22.5-43-33c0.5-2.2,2.5-3,4-4.3c3.1,0.4,5,2.8,7.3,4.5
		c9.3,7.2,18.9,14.1,27.9,21.6C239.8,850.5,242,853.9,242.2,858.1z"/>
	<path class="st8" d="M405.5,801c1.5-1.4,2.9-1.4,4.6,0c12.2,9.6,24.5,19.1,36.7,28.6c-2.9,1.2-5.4,3.7-8.9,3.4
		c0.4-1.9-0.3-3.1-1.9-4.3c-8.8-6.6-17.5-13.2-26.1-20c-1.5-1.2-2.9-1.6-4.6-0.7C404.5,805.7,405.2,803.3,405.5,801z"/>
	<path class="st9" d="M187.7,853.6c0.2-1.2,0.5-2.4,0.7-3.6c2-2,4-1,5.7,0.3c12.8,9.6,25.5,19.3,38.1,29.2c1,0.8,2.1,1.8,1.6,3.4
		c-0.6,1.4-1.6,2.5-3.3,2.6c-1.2-0.2-2.3-0.5-3.2-1.2C214.2,874,200.7,864.1,187.7,853.6z"/>
	<path class="st10" d="M292.1,790.1c-1.1,0.8-1.2,2.9-3.2,2.8c-1.2-0.2-2.3-0.5-3.2-1.2c-13.2-10.2-26.7-20-39.6-30.5
		c0.2-1.2,0.5-2.4,0.7-3.6c2-2,4-1,5.7,0.3c12.7,9.5,25.3,19.2,37.9,28.9C291.4,787.5,292.4,788.5,292.1,790.1z"/>
	<path class="st11" d="M187.7,853.6c0.9,0.2,2,0.2,2.7,0.7c13.4,10.3,26.8,20.7,40.2,31c-1.4,1-2.9,1.9-4.3,2.9
		c-13.3-9.6-26.3-19.7-39.2-29.9C186.7,856.7,187.1,855.1,187.7,853.6z"/>
	<path class="st12" d="M219.6,890.4c-2.4,0.4-4.8,1.4-7.3,0c-0.1-1.7-1.1-2.8-2.3-3.8c-5.6-4.4-11.2-8.7-16.9-12.9
		c-1.3-0.9-2.6-1.6-4.3-1.2c-2-2-1.6-4.6-1.9-7c0.9-5.2,3.8-3.1,6.1-1.4c8.1,5.9,16,12.2,24,18.3c1.4,1.1,2.8,2.1,4,3.4
		C223.1,888,222.1,889.4,219.6,890.4z"/>
	<path class="st12" d="M405.4,808c0.8-1.8,1-3.9,4-1.5c9.5,7.6,19.2,15,29,22.2c3.1,2.3,1.1,3-0.4,4.3c-2.4,0.4-4.8,1.4-7.3,0
		c0.3-1.3-0.2-2.2-1.2-3c-6.4-4.9-12.8-9.8-19.1-14.6c-1-0.8-2.1-0.9-3.2-0.3C405.3,813.1,405.6,810.5,405.4,808z"/>
	<path class="st12" d="M247.1,779.9c-2-2-1.6-4.6-1.9-7c0.9-5.2,3.8-3.2,6.1-1.4c8.1,5.9,16,12.2,24,18.3c1.4,1.1,2.8,2.1,4,3.4
		c2,2.4,1,3.8-1.5,4.7c-2.4,0.4-4.8,1.4-7.3,0c-0.1-1.7-1.1-2.9-2.3-3.8c-5.6-4.4-11.2-8.7-16.9-12.9
		C250.2,780.2,248.8,779.5,247.1,779.9z"/>
	<path class="st8" d="M277.9,797.8c1.5-1.6,2.3-2.8-0.1-4.6c-9.4-7.1-18.8-14.2-28.1-21.5c-2.3-1.8-3.3-0.7-4.4,1.1
		c-0.8-2.4-0.2-4.7,0.2-7c2.9-2.2,5.2-0.1,7.3,1.4c9.7,7.1,19.2,14.4,28.6,21.8c2,1.6,4.6,3.2,3.3,6.6
		C282.5,796.7,280.4,798,277.9,797.8z"/>
	<path class="st13" d="M296.7,754.3c-5.6-1.6-9.5-5.8-13.9-9.2c-7.2-5.5-14.8-10.5-21.3-16.8c0.6-1.5,1.6-2.4,3.2-2.7
		c2.7-1,4.3,1.1,6,2.4c6.3,4.7,12.5,9.5,18.6,14.4C292.5,745.8,294.7,750,296.7,754.3z"/>
	<path class="st14" d="M252.7,741.3c12.4,9.3,24.8,18.7,37.3,28c3.3,2.4,6.6,4.7,9.9,7.1c0.3,1.9-0.1,3.7-1.7,5
		c-15.8-12.1-31.7-23.9-47.3-36.3C251.5,743.8,252.1,742.6,252.7,741.3z"/>
	<path class="st15" d="M250.9,745.1c1.7-0.3,2.9,0.7,4.2,1.7c13.3,10.2,26.7,20.4,40,30.6c1.4,1.1,2.8,2.1,3.1,4
		c0,0.9-0.1,1.7-1.1,2.1c-15.4-12.5-31.1-24.6-47.3-36.1C250.2,746.7,250.5,745.9,250.9,745.1z"/>
	<path class="st4" d="M233.9,882.8c-13.2-11.3-27.5-21.2-41.1-32c-1.3-1.1-2.8-1.2-4.4-0.9c0.5-1.6,0.1-3.5,1.4-5
		c15.9,11.2,31.3,22.9,46.2,35.4C235.3,881.2,234.6,882,233.9,882.8z"/>
	<path class="st16" d="M292.1,790.1c-13.5-10.5-27-20.9-40.5-31.4c-1.5-1.2-3-1.7-4.9-1.2c0.5-1.7,0.3-3.5,1.5-4.9
		c15.7,11.3,31.2,22.9,46,35.3C293.9,788.8,293.3,789.8,292.1,790.1z"/>
	<path class="st17" d="M407.2,815.1c0.3-1.2-1.2-4.7,2.2-2.1c7.6,5.7,15.2,11.5,22.7,17.3c3.4,2.6-0.2,2.2-1.4,2.7
		C419.8,832.6,410.6,825.5,407.2,815.1z"/>
	<path class="st18" d="M339.1,840.5c0.6-1.3,1.2-2.5,1.8-3.8c1.7-1.7,3.3-0.5,4.6,0.5c8.4,6.2,16.7,12.5,24.9,19
		c1,0.8,2,1.8,1.7,3.4c-0.8,1.8-0.9,4-2.8,5.2c-8.9-6.5-17.5-13.3-26.3-20C341.4,843.6,340.1,842.2,339.1,840.5z"/>
	<path class="st18" d="M124,836.2c-0.8,1.8-0.9,4-2.8,5.2c-8.9-6.5-17.5-13.3-26.3-20c-1.5-1.2-2.9-2.6-3.9-4.3
		c0.6-1.3,1.2-2.5,1.8-3.8c1.7-1.7,3.3-0.5,4.6,0.5c8.4,6.2,16.7,12.5,24.9,19C123.4,833.6,124.4,834.6,124,836.2z"/>
	<path class="st18" d="M172.2,773.2c-0.8,1.8-0.9,4-2.8,5.2c-8.9-6.5-17.5-13.3-26.3-20c-1.5-1.2-2.9-2.6-3.9-4.3
		c0.6-1.3,1.2-2.5,1.8-3.8c1.7-1.7,3.3-0.5,4.6,0.5c8.4,6.2,16.7,12.5,24.9,19C171.5,770.7,172.6,771.7,172.2,773.2z"/>
	<path class="st19" d="M247.1,779.9c0.1-3,1.5-2.7,3.3-1.3c6.9,5.2,13.8,10.5,20.6,15.8c1.7,1.3,2.5,2.7-0.4,3.5
		C259.7,797.4,250.5,790.4,247.1,779.9z"/>
	<path class="st19" d="M188.8,872.4c0.1-3,1.5-2.7,3.3-1.3c6.9,5.2,13.8,10.5,20.6,15.8c1.7,1.3,2.5,2.6-0.4,3.5
		C201.4,889.9,192.2,882.9,188.8,872.4z"/>
	<path class="st11" d="M284.6,795.7c-0.7-2.6-2.5-4.3-4.5-5.9c-9.3-7.1-18.5-14.1-27.8-21.3c-2-1.6-4.2-2.8-6.9-2.7
		c-0.5-1.7-0.1-3.2,0.6-4.8c0.9,0.2,2,0.2,2.7,0.7c13.4,10.3,26.8,20.7,40.2,31C287.5,793.8,286.1,794.7,284.6,795.7z"/>
	<path class="st13" d="M456.8,789.4c-5.6-1.6-9.5-5.8-13.9-9.2c-7.2-5.5-14.8-10.5-21.3-16.8c0.6-1.5,1.6-2.4,3.2-2.7
		c1-0.7,1.9-0.3,2.6,0.3c7.4,6.8,16,12,23.5,18.6C452.2,783.3,456,785.4,456.8,789.4z"/>
	<path class="st13" d="M238.4,846.8c-5.6-1.6-9.5-5.8-13.9-9.2c-7.2-5.5-14.8-10.5-21.3-16.8c0.6-1.5,1.6-2.4,3.2-2.7
		c1-0.7,1.9-0.3,2.6,0.3c7.4,6.8,16,12,23.5,18.6C233.8,840.6,237.6,842.8,238.4,846.8z"/>
	<path class="st8" d="M219.6,890.4c1.5-1.6,2.3-2.8-0.1-4.6c-9.4-7.1-18.8-14.2-28.1-21.5c-2.3-1.8-3.3-0.8-4.4,1.1
		c-0.8-2.4-0.2-4.7,0.2-7c0.4,0,0.9-0.1,1.1,0.1c13.1,8.9,25.6,18.6,37.7,28.7c0.3,0.2,0.3,0.7,0.4,1.1
		C224.2,889.3,222.1,890.5,219.6,890.4z"/>
	<path class="st18" d="M495.2,732.5c-0.6,0.9-1.3,1.9-1.9,2.8c-9.2-6.8-18.1-13.9-27.2-20.7c-1.3-0.9-2.4-2-2.9-3.5
		c0.6-1.3,1.2-2.5,1.8-3.8c2-0.9,3.3,0.4,4.7,1.4c7.7,5.8,15.4,11.6,23,17.6C494.6,727.8,496.5,729.5,495.2,732.5z"/>
	<path class="st3" d="M385.8,741.3c0.3,2.2,0,4.3-1.6,5.9c-7.7-7.5-16.7-13.3-25-20c-1.9-1.6-4.3-2.8-5.2-5.3
		c0.2-1.2,0.7-2.1,1.7-2.7c1.4-1.4,3-0.9,4.2,0.1c8.8,6.6,18,12.7,25.9,20.4C386.1,740.3,386.1,740.8,385.8,741.3z"/>
	<path class="st3" d="M495.2,732.5c-0.1-1.9-0.9-3.3-2.4-4.4c-9.3-6.9-18.6-13.9-27.9-20.9c0.2-1.2,0.7-2.1,1.7-2.7
		c1.4-1.4,3-0.9,4.2,0.1c8.8,6.6,18,12.7,25.9,20.4c0.3,0.5,0.3,1,0,1.6C497.1,728.7,496.8,730.8,495.2,732.5z"/>
	<path class="st18" d="M353.9,722c9.3,7,18.5,13.9,27.9,20.9c1.5,1.1,2.3,2.5,2.4,4.4c-0.2,1.2-0.9,2.1-1.9,2.8
		c-9.2-6.8-18.1-13.9-27.2-20.7c-1.2-0.9-2.4-2-2.9-3.5C352.7,724.5,353.3,723.3,353.9,722z"/>
	<path class="st20" d="M450.8,779.6c-9.9-4.7-17.6-12.3-26.1-18.9c4.6-3.7,8.4,0,11.3,2.3C441.9,767.5,447.3,772.8,450.8,779.6z"/>
	<g>
		<path class="st21" d="M35.9,714.8c0.2-1.8,0.6-3.5,1.8-4.9c2.3-2,4-0.1,5.6,1.1c13.1,9.9,26.1,19.8,39.1,29.9
			c1.6,1.3,3.5,2.6,2.5,5.2c-0.5,1.7-1.6,3-2.9,4.1C65.8,739.5,50.4,727.8,35.9,714.8z"/>
		<path class="st3" d="M88.2,735.1c0.2,1.3,0.5,2.5-0.6,3.6c-2.8,1.1-4.9-0.7-6.8-2.1C67,726.3,53,715.9,39.6,705
			c0.9-1.7,1.8-3.4,2.7-5.1c2-1.9,3.7-0.4,5.1,0.7c12.8,9.6,25.5,19.4,38.2,29.2C87.3,731.1,89.1,732.5,88.2,735.1z"/>
		<path class="st0" d="M39.6,705c2.4-0.3,3.9,1.6,5.5,2.8c10.6,8.1,21.2,16.1,31.7,24.3c3.4,2.6,6.8,5,10.8,6.6
			c0.3,2.9-1.1,5.2-2.7,7.4c-0.2-1.9-1.7-2.9-3.1-4C68.7,732,55.5,722,42.4,711.9c-1.4-1-2.7-2.3-4.6-2
			C38.4,708.3,39,706.6,39.6,705z"/>
		<path class="st5" d="M88.2,735.1c-0.2-1.7-1.4-2.7-2.6-3.6c-13-10-26.1-19.9-39.1-29.9c-1.2-0.9-2.5-1.9-4.2-1.6
			c1-1.7,2-3.4,2.9-5.1c2.2-0.9,3.7,0.7,5.2,1.8c11.1,8.4,22.2,17,33.3,25.4c2.1,1.6,3.5,3.5,4.6,5.9
			C88.5,730.3,89.8,732.7,88.2,735.1z"/>
		<path class="st7" d="M88.3,727.9c-13.9-11.6-28.3-22.5-43-33c0.5-2.2,2.5-3,4-4.3c3.1,0.4,5,2.8,7.3,4.5
			c9.3,7.2,18.9,14.1,27.9,21.6C85.9,720.3,88,723.8,88.3,727.9z"/>
		<path class="st22" d="M33.8,723.4c0.2-1.2,0.5-2.4,0.7-3.6c2-2,4-1,5.7,0.3c12.8,9.6,25.5,19.3,38.1,29.2c1,0.8,2.1,1.8,1.6,3.4
			c-0.6,1.5-1.6,2.5-3.3,2.6c-1.2-0.2-2.3-0.5-3.2-1.2C60.2,743.8,46.8,734,33.8,723.4z"/>
		<path class="st11" d="M33.8,723.4c0.9,0.2,2,0.2,2.7,0.7c13.4,10.3,26.8,20.7,40.2,31c-1.4,1-2.9,1.9-4.3,2.9
			c-13.3-9.6-26.3-19.7-39.2-29.9C32.7,726.5,33.2,724.9,33.8,723.4z"/>
		<path class="st12" d="M34.9,742.2c-2-2-1.6-4.6-1.9-7c0.9-5.2,3.8-3.1,6.1-1.4c8.1,5.9,16,12.2,24,18.3c1.4,1.1,2.8,2.1,4,3.4
			c2,2.4,1,3.8-1.5,4.7c-2.4,0.4-4.8,1.4-7.3,0c-0.1-1.7-1.1-2.9-2.3-3.8c-5.6-4.4-11.2-8.7-16.9-12.9
			C37.9,742.5,36.6,741.9,34.9,742.2z"/>
		<path class="st16" d="M80,752.6c-13.2-11.3-27.5-21.2-41.1-32c-1.3-1.1-2.8-1.2-4.4-0.9c0.5-1.6,0.1-3.5,1.4-5
			c15.9,11.2,31.3,22.9,46.2,35.4C81.4,751,80.7,751.8,80,752.6z"/>
		<path class="st19" d="M34.9,742.2c0.1-3,1.5-2.7,3.3-1.3c6.9,5.2,13.8,10.5,20.6,15.8c1.7,1.3,2.5,2.6-0.4,3.5
			C47.4,759.7,38.3,752.7,34.9,742.2z"/>
		<path class="st23" d="M84.4,716.6c-0.8-0.1-1.7,0-2.2-0.4c-11.1-8.5-22.6-16.4-33-25.7c0.6-1.5,1.6-2.4,3.2-2.7
			c1-0.7,1.9-0.3,2.6,0.3c7.4,6.8,16,12,23.5,18.6C79.9,710.4,83.7,712.6,84.4,716.6z"/>
		<path class="st8" d="M65.7,760.2c1.5-1.6,2.3-2.8-0.1-4.6c-9.4-7.1-18.8-14.2-28.1-21.5c-2.3-1.8-3.3-0.8-4.4,1.1
			c-0.8-2.4-0.2-4.7,0.2-7c0.4,0,0.9-0.1,1.1,0.1c13.1,8.9,25.6,18.6,37.7,28.7c0.3,0.2,0.3,0.7,0.4,1.1
			C70.3,759.1,68.2,760.4,65.7,760.2z"/>
		<path class="st20" d="M78.5,706.8c-9.9-4.7-17.6-12.3-26.1-18.9c4.6-3.7,8.4,0,11.3,2.3C69.6,694.7,75,700,78.5,706.8z"/>
	</g>
	<path class="st20" d="M232.4,837c-9.9-4.7-17.6-12.3-26.1-18.9c4.6-3.7,8.4,0,11.3,2.3C223.5,824.9,228.9,830.2,232.4,837z"/>
	<path class="st24" d="M91.1,817c9.7,7.4,19.5,14.8,29.2,22.3c0.5,0.4,0.6,1.4,0.9,2.1c-0.7,0.8-1.4,1.6-2.1,2.4
		c-9.2-6.5-18-13.6-26.9-20.4c-0.9-0.7-1.8-1.5-2.1-2.7C90.4,819.4,90.8,818.2,91.1,817z"/>
	<path class="st24" d="M339.1,840.5c9.7,7.4,19.5,14.8,29.2,22.3c0.5,0.4,0.6,1.4,0.9,2.1c-0.7,0.8-1.4,1.6-2.1,2.4
		c-9.2-6.5-18-13.6-26.9-20.4c-0.9-0.7-1.8-1.5-2.1-2.7C338.5,842.9,338.8,841.7,339.1,840.5z"/>
	<path class="st24" d="M139.2,754.1c9.7,7.4,19.5,14.8,29.2,22.3c0.5,0.4,0.6,1.4,0.9,2.1c-0.7,0.8-1.4,1.6-2.1,2.4
		c-9.2-6.5-18-13.6-26.9-20.4c-0.9-0.7-1.8-1.5-2.1-2.7C138.6,756.5,138.9,755.3,139.2,754.1z"/>
	<path class="st3" d="M172.2,773.2c-9.5-7.4-18.9-14.8-28.4-22.2c-0.7-0.5-1.8-0.5-2.7-0.7c0.2-1.1,0.8-2,1.7-2.7
		c1.4-1.4,3-0.9,4.2,0.1c8.8,6.6,18,12.7,25.9,20.4c0.3,0.5,0.3,1,0,1.6C173.1,771,173.3,772.3,172.2,773.2z"/>
	<path class="st3" d="M124,836.2c-9.5-7.4-18.9-14.8-28.4-22.2c-0.7-0.5-1.8-0.5-2.7-0.7c0.2-1.1,0.8-2,1.7-2.7
		c1.4-1.4,3-0.9,4.2,0.1c8.8,6.6,18,12.7,25.9,20.4c0.3,0.5,0.3,1,0,1.6C124.9,833.9,125.2,835.2,124,836.2z"/>
	<path class="st3" d="M372.1,859.6c-9.5-7.4-18.9-14.8-28.4-22.2c-0.7-0.5-1.8-0.5-2.7-0.7c0.2-1.1,0.8-2,1.7-2.7
		c1.4-1.4,3-0.9,4.2,0.1c8.8,6.6,18,12.7,25.9,20.4c0.3,0.5,0.3,1,0,1.6C373,857.3,373.2,858.6,372.1,859.6z"/>
	<path class="st24" d="M352.1,725.8c9.3,7,18.6,14,27.9,21c1.1,0.8,2,1.9,2.2,3.3c-0.7,0.8-1.4,1.6-2.1,2.4
		c-9.2-6.5-18-13.6-26.9-20.4c-0.9-0.7-1.8-1.5-2.1-2.7C351.4,728.2,351.8,727,352.1,725.8z"/>
	<path class="st24" d="M463.1,711c9.3,7,18.6,14,27.9,21c1.1,0.8,2,1.9,2.2,3.3c-0.7,0.8-1.4,1.6-2.1,2.4
		c-9.2-6.5-18-13.6-26.9-20.4c-0.9-0.7-1.8-1.5-2.1-2.7C462.5,713.3,462.8,712.2,463.1,711z"/>
	<path class="st25" d="M348.9,827.3c2.7-2.9,5.4-1.1,7.7,0.4c6.4,4.1,11.5,9.5,14.5,16.7c-1.8,0.9-3.4-0.1-4.8-0.9
		c-5.6-3.3-10.6-7.5-15.5-11.7C349.5,830.7,348.2,829.3,348.9,827.3z"/>
	<path class="st25" d="M149,741c2.7-2.9,5.4-1.1,7.7,0.4c6.4,4.1,11.5,9.5,14.5,16.7c-1.8,0.9-3.4-0.1-4.8-0.9
		c-5.6-3.3-10.6-7.5-15.5-11.7C149.6,744.3,148.3,743,149,741z"/>
	<path class="st25" d="M361.8,712.6c2.7-2.9,5.4-1.1,7.7,0.4c6.4,4.1,11.5,9.5,14.5,16.7c-1.8,0.9-3.4-0.1-4.8-0.9
		c-5.6-3.3-10.6-7.5-15.5-11.7C362.4,715.9,361.2,714.6,361.8,712.6z"/>
	<path class="st25" d="M472.9,697.8c2.7-2.9,5.4-1.1,7.7,0.4c6.4,4.1,11.5,9.5,14.5,16.7c-1.8,0.9-3.4-0.1-4.8-0.9
		c-5.6-3.3-10.6-7.5-15.5-11.7C473.5,701.1,472.2,699.8,472.9,697.8z"/>
	<path class="st26" d="M149,741c6.1,7.4,13.8,12.7,22.2,17.1c1.6,3.7,3.5,7.4,1.7,11.6c-0.1-0.4-0.2-0.8-0.2-1.2
		c-3.3-5.6-9-8.5-13.7-12.4c-4.6-3.8-9.7-7.1-14.2-11C145.6,743.2,146.7,741.4,149,741z"/>
	<path class="st27" d="M90.1,820.6c9.7,6.2,18.5,13.8,27.7,20.7c0.7,0.5,0.9,1.6,1.4,2.4c-0.4,1-1.1,1.4-2.1,1.6
		c-4.9-1.3-8-5.3-11.9-8c-5.6-3.8-10.5-8.6-16.5-11.8C88.5,823.7,88.9,822.1,90.1,820.6z"/>
	<path class="st26" d="M361.8,712.6c6.1,7.4,13.8,12.7,22.2,17.1c1.6,3.7,3.5,7.4,1.7,11.6c-0.1-0.4-0.2-0.8-0.2-1.2
		c-3.3-5.6-9-8.5-13.7-12.4c-4.6-3.8-9.7-7.1-14.2-11C358.5,714.8,359.5,713,361.8,712.6z"/>
	<path class="st27" d="M462.1,714.5c9.7,6.2,18.4,13.8,27.7,20.7c0.7,0.5,0.9,1.6,1.4,2.4c-0.4,1-1.1,1.4-2.1,1.6
		c-4.9-1.3-8-5.3-11.9-8c-5.6-3.8-10.5-8.6-16.5-11.8C460.5,717.6,461,716,462.1,714.5z"/>
	<path class="st27" d="M351.1,729.3c9.7,6.2,18.4,13.8,27.7,20.7c0.7,0.5,0.9,1.6,1.4,2.4c-0.4,1-1.1,1.4-2.1,1.6
		c-4.9-1.3-8-5.3-11.9-8c-5.6-3.8-10.5-8.6-16.5-11.8C349.4,732.4,349.9,730.8,351.1,729.3z"/>
	<path class="st27" d="M138.2,757.7c9.7,6.2,18.5,13.8,27.7,20.7c0.7,0.5,0.9,1.6,1.4,2.4c-0.4,1-1.1,1.4-2.1,1.6
		c-4.9-1.3-8-5.3-11.9-8c-5.6-3.8-10.5-8.6-16.5-11.8C136.6,760.8,137.1,759.2,138.2,757.7z"/>
	<path class="st26" d="M348.9,827.3c6.1,7.4,13.8,12.7,22.2,17.1c1.6,3.7,3.5,7.4,1.7,11.6c-0.1-0.4-0.2-0.8-0.2-1.2
		c-3.3-5.6-9-8.5-13.7-12.4c-4.6-3.8-9.7-7.1-14.2-11C345.5,829.5,346.5,827.8,348.9,827.3z"/>
	<path class="st26" d="M472.9,697.8c6.1,7.4,13.8,12.7,22.2,17.1c1.6,3.7,3.5,7.4,1.7,11.6c-0.1-0.4-0.2-0.8-0.2-1.2
		c-3.3-5.6-9-8.5-13.7-12.4c-4.6-3.8-9.7-7.1-14.2-11C469.6,700,470.6,698.2,472.9,697.8z"/>
	<path class="st27" d="M338.1,844.1c9.7,6.2,18.5,13.8,27.7,20.7c0.7,0.5,0.9,1.6,1.4,2.4c-0.4,1-1.1,1.4-2.1,1.6
		c-4.9-1.3-8-5.3-11.9-8c-5.6-3.8-10.5-8.6-16.5-11.8C336.5,847.2,337,845.5,338.1,844.1z"/>
	<path class="st28" d="M352.3,871.8c-7.1-0.5-11.9-4.1-14.3-10.9c-0.8-1.6-1.8-3.6-0.3-4.7c1.6-1.3,3.3,0.4,4.6,1.4
		c4.1,2.9,8.1,6,12,9.2c1.3,1.1,3.3,2.3,2.5,4.1C356.2,872.5,354,872.1,352.3,871.8z"/>
	<path class="st28" d="M104.3,848.3c-7.1-0.5-11.9-4.1-14.3-10.9c-0.8-1.6-1.8-3.6-0.3-4.7c1.6-1.3,3.3,0.4,4.6,1.4
		c4.1,2.9,8.1,6,12,9.2c1.3,1.1,3.3,2.3,2.5,4.1C108.1,849.1,106,848.7,104.3,848.3z"/>
	<path class="st28" d="M476.3,742.2c-7.1-0.5-11.9-4.1-14.3-10.9c-0.8-1.6-1.8-3.6-0.3-4.7c1.6-1.3,3.3,0.4,4.6,1.4
		c4.1,2.9,8.1,6,12,9.2c1.3,1.1,3.3,2.3,2.5,4.1C480.2,743,478,742.5,476.3,742.2z"/>
	<path class="st28" d="M152.4,785.4c-7.1-0.5-11.9-4.1-14.3-10.9c-0.8-1.6-1.8-3.6-0.3-4.7c1.6-1.3,3.3,0.4,4.6,1.4
		c4.1,2.9,8.1,6,12,9.2c1.3,1.1,3.3,2.3,2.5,4.1C156.3,786.1,154.1,785.7,152.4,785.4z"/>
	<path class="st28" d="M365.2,757c-7.1-0.5-11.9-4.1-14.3-10.9c-0.8-1.6-1.8-3.6-0.3-4.7c1.6-1.3,3.3,0.4,4.6,1.4
		c4.1,2.9,8.1,6,12,9.2c1.3,1.1,3.3,2.3,2.5,4.1C369.1,757.8,367,757.4,365.2,757z"/>
	<path class="st29" d="M144.8,745.1c3.3-0.2,5.1,2.4,7.4,4.1c5.6,4.1,11,8.5,16.7,12.6c2.4,1.7,3.9,3.7,3.9,6.7
		c-8-5.9-15.9-11.9-23.9-17.8c-1.8-1.3-3.3-3.3-6-3C143.4,746.8,144.1,745.9,144.8,745.1z"/>
	<path class="st29" d="M468.7,701.9c3.3-0.2,5.1,2.4,7.4,4.1c5.6,4.1,11,8.5,16.7,12.6c2.4,1.7,3.9,3.7,3.9,6.7
		c-8-5.9-15.9-11.9-23.9-17.8c-1.8-1.3-3.3-3.3-6-3C467.3,703.6,468,702.8,468.7,701.9z"/>
	<path class="st26" d="M124.8,832.6c-0.1-0.4-0.2-0.8-0.2-1.2c-3.3-5.6-9-8.5-13.7-12.4c-4.6-3.8-9.7-7.1-14.2-11
		c0.7-0.9,1.4-1.7,2.1-2.6c2-1.5,3.7-0.3,5.2,0.8c6.6,5.2,13.9,9.5,19.4,16C125.3,825.4,126.2,828.9,124.8,832.6z"/>
	<path class="st29" d="M96.6,808c3.3-0.2,5.1,2.4,7.4,4.1c5.6,4.1,11,8.5,16.7,12.6c2.4,1.7,3.9,3.7,3.9,6.7
		c-8-5.9-15.9-11.9-23.9-17.8c-1.8-1.3-3.3-3.3-6-3C95.3,809.7,96,808.9,96.6,808z"/>
	<path class="st29" d="M357.6,716.7c3.3-0.2,5.1,2.4,7.4,4.1c5.6,4.1,11,8.5,16.7,12.6c2.4,1.7,3.9,3.7,3.9,6.7
		c-8-5.9-15.9-11.9-23.9-17.8c-1.8-1.3-3.3-3.3-6-3C356.3,718.4,356.9,717.6,357.6,716.7z"/>
	<path class="st29" d="M344.6,831.4c3.3-0.2,5.1,2.4,7.4,4.1c5.6,4.1,11,8.5,16.7,12.6c2.4,1.7,3.9,3.7,3.9,6.7
		c-8-5.9-15.9-11.9-23.9-17.8c-1.8-1.3-3.3-3.3-6-3C343.3,833.2,344,832.3,344.6,831.4z"/>
	<path class="st30" d="M152.4,785.4c1.3-0.3,2.6-0.5,4.3-0.9c-6.5-4.6-12.7-8.8-19.1-13.3c-0.4,0.4,0.7,1.9,0.5,3.3
		c-2.1-2.9-2.4-6.1-1.4-9.5c5.1,0.6,23,14.2,25.1,19.1C158.9,786.1,155.8,786.7,152.4,785.4z"/>
	<path class="st30" d="M365.2,757c1.3-0.3,2.6-0.5,5.8-1.2c-4.3-3-7.5-5.1-10.5-7.4c-2.9-2.2-5.6-4.7-8.5-7.2c-2,2-0.9,3.5-1.1,4.9
		c-2.1-2.9-2.4-6.1-1.4-9.5c5.1,0.6,23,14.2,25.1,19.1C371.8,757.7,368.6,758.3,365.2,757z"/>
	<path class="st30" d="M104.3,848.3c1.3-0.3,2.6-0.5,3.7-0.8c-6.1-4.5-12.1-8.9-18.4-13.6c-0.5,0.5,0.5,2.1,0.4,3.4
		c-2.1-2.9-2.4-6.1-1.4-9.5c5.1,0.6,23,14.2,25.1,19.1C110.8,849,107.7,849.6,104.3,848.3z"/>
	<path class="st30" d="M352.3,871.8c1.3-0.3,2.6-0.5,3.7-0.8c-6.1-4.5-12.1-8.9-18.4-13.6c-0.5,0.5,0.5,2.1,0.4,3.4
		c-2.1-2.9-2.4-6.1-1.4-9.5c5.1,0.6,23,14.2,25.1,19.1C358.8,872.5,355.7,873,352.3,871.8z"/>
	<path class="st30" d="M476.3,742.2c1.3-0.3,2.6-0.5,5.8-1.2c-4.3-3-7.5-5.1-10.5-7.4c-2.9-2.2-5.6-4.7-8.5-7.2
		c-2,2-0.9,3.5-1.1,4.9c-2.1-2.9-2.4-6.1-1.4-9.5c5.1,0.6,23,14.2,25.1,19.1C482.8,742.9,479.7,743.5,476.3,742.2z"/>
	<path class="st11" d="M485.7,740.9c-8-6.9-16.3-13.4-25.1-19.1c0-0.8,0-1.5,0-2.3c1-0.7,1.9-1,3.1-0.1c8.4,6.7,16.9,13.3,25.3,19.9
		C488.3,740.6,487.1,740.8,485.7,740.9z"/>
	<path class="st11" d="M113.7,847c-8-6.9-16.3-13.4-25.1-19.1c0-0.8,0-1.5,0-2.3c1-0.7,1.9-1,3.1-0.1c8.4,6.7,16.9,13.3,25.3,19.9
		C116.3,846.7,115,846.9,113.7,847z"/>
	<path class="st11" d="M361.7,870.4c-8-6.9-16.3-13.4-25.1-19.1c0-0.8,0-1.5,0-2.3c1-0.7,1.9-1,3.1-0.1c8.4,6.7,16.9,13.3,25.3,19.9
		C364.3,870.1,363,870.3,361.7,870.4z"/>
	<path class="st11" d="M374.7,755.7c-8-6.9-16.3-13.4-25.1-19.1c0-0.8,0-1.5,0-2.3c1-0.7,1.9-1,3.1-0.1c8.4,6.7,16.9,13.3,25.3,19.9
		C377.3,755.4,376,755.6,374.7,755.7z"/>
	<path class="st11" d="M161.8,784c-8-6.9-16.3-13.4-25.1-19.1c0-0.8,0-1.5,0-2.3c1-0.7,1.9-1,3.1-0.1c8.4,6.7,16.9,13.3,25.3,19.9
		C164.4,783.8,163.1,784,161.8,784z"/>
	<path class="st20" d="M289.3,742.3c-4.8-0.6-7.4-4.6-11-7c-4.6-3.1-9.1-6.5-13.6-9.8c4.9-3.7,8.7,0.3,11.8,2.7
		C281.4,732.1,286.2,736.6,289.3,742.3z"/>
	<path class="st31" d="M123.3,822.1c-6.4-4.7-12.7-9.4-19.1-14c-1.7-1.2-3.1-3-5.5-2.7c1.8-2.4,4.5-1.4,6.8-2
		c3.9,2.1,7.3,4.8,10.5,8C119.9,814,121.8,817.9,123.3,822.1z"/>
	<path class="st32" d="M116,811.3c-3.9-2.1-7.3-4.8-10.5-8C110.3,804.4,113.7,807.1,116,811.3z"/>
</g>
<linearGradient id="SVGID_1_" gradientUnits="userSpaceOnUse" x1="86.2047" y1="505.8285" x2="452.4648" y2="505.8285" gradientTransform="matrix(0.9912 -0.1321 -0.1321 -0.9912 56.8237 1112.3667)">
	<stop  offset="1.385225e-07" style="stop-color:#FFFFFF"/>
	<stop  offset="1" style="stop-color:#B4DAF9"/>
</linearGradient>
<path class="st33" d="M163.7,709.9c-0.4-0.2-0.8-0.2-1.3-0.2c-3.4-0.2-6.8-0.5-10.1-1c-6-0.8-11.7-2.6-17.3-4.6
	c-5.1-1.9-9.9-4.3-14.5-7.2c-8-5-15-11-21-18.3c-5.1-6.2-9.4-13-12.6-20.4c-1.5-3.5-2.5-7.2-4-10.7c-1.3-2.8-1.3-5.7-1.7-8.6
	c-0.7-4.6-1.3-9.3-1.9-13.9c-0.1-0.4-0.1-0.9,0-1.3c0.2-0.9,0.3-1.7,0.4-2.6c0-0.2,0.1-0.4,0.1-0.5c0.2-4.7,0.8-9.4,1.7-14.1
	c1.8-8.8,4.9-17.1,9.4-24.8c5.8-10,13.2-18.8,22.6-25.7c2.6-2,5.2-3.9,8.2-5.4c1.7-0.8,1.1-2.5,1.3-3.7c2.3-12.9,6.9-24.9,13.5-36.1
	c5-8.4,11-16,18-22.9c8.4-8.3,17.9-14.9,28.4-20.2c5.2-2.7,10.7-4.8,16.4-6.4c0.4-0.1,0.8-0.3,1.1-0.4c0.3-0.1,0.6-0.3,0.9-0.5
	c0.6-0.4,1.5-0.2,2.1-0.5c0.4-0.2,0.9-0.4,1.3-0.4c8.1-1.1,16.2-2.2,24.3-3.3c1-0.1,1.9,0.2,2.8,0.3c2.4,0.4,4.9,0.3,7.4,0.5
	c7.1,0.5,14.1,1.7,21,3.6c7.6,2.1,14.9,4.9,21.8,8.6c7.6,4,14.7,8.9,21.2,14.7c3.8,3.3,7.4,6.8,10.6,10.7c0.4,0.4,0.7,0.7,1.4,0.4
	c8.1-3,16.7-3.7,25.1-4.4c3.8-0.3,7.8,0,11.7,0.3c12.4,0.9,24.1,4.2,35.2,9.7c11.7,5.8,21.8,13.6,30.5,23.4
	c7.8,8.8,13.6,18.8,18,29.6c1.1,2.7,1.8,5.5,2.7,8.2c2.6,7.9,2.6,16.2,3.9,24.3c0.1,0.5,0,0.9-0.1,1.4c-0.1,0.6,0.2,1.3,0,1.9
	c-0.1,0.3-0.2,0.6-0.2,0.9c-0.4,3.9-0.6,7.9-1.1,11.9c-1.3,9.1-3.9,17.7-7.6,26c-3.5,8-8.1,15.3-13.6,22
	c-7.3,8.9-15.9,16.3-25.9,22.2c-4.7,2.8-9.6,5.1-14.6,7.2c-2.4,1-4.9,1.7-7.3,2.4c-0.4,0.1-0.8,0.3-1.1,0.5
	c-0.5,0.4-1.2,0.3-1.7,0.7c-0.5,0.3-1,0.5-1.6,0.6c-62.2,8.3-124.4,16.6-186.6,24.9c-4.7,0.6-9.4,1.2-14,1.8c-0.6,0.1-1.1,0-1.7-0.2
	C164.7,710,164.2,710.1,163.7,709.9z"/>
<g>
	<path class="st0" d="M1476.1,807.5c12.9-10,25.8-19.9,38.8-29.7c1.6-1.2,3.3-3.1,5.6-1.2c0.6,1.6,1.2,3.3,1.8,4.9
		c-0.4,1.6-1.7,2.5-3,3.4c-13.2,10.1-26.4,20.2-39.6,30.3c-1.4,1.1-2.8,2.1-4.6,2.3c-1.6-0.8-0.7-2.8-1.9-3.8
		C1472.2,810.8,1474.1,809.1,1476.1,807.5z"/>
	<path class="st1" d="M1471.9,806.7c-0.9-2.6,0.9-4,2.6-5.2c12.7-9.8,25.4-19.6,38.2-29.2c1.5-1.1,3.1-2.6,5.1-0.7
		c0.9,1.7,1.8,3.4,2.7,5.1c-1.5-0.2-2.6,0.5-3.7,1.4c-13.5,10.4-27.1,20.7-40.6,31c-1.6,1.2-2.9,2.6-2.9,4.7
		C1471.9,811.7,1471.7,809.2,1471.9,806.7z"/>
	<path class="st2" d="M1696.4,879.2c-0.9-1.4-1.9-2.8-2.8-4.2c-1.1-2.7,1-3.9,2.6-5.2c12.9-10,25.9-19.9,38.9-29.8
		c1.6-1.2,3.3-3.1,5.6-1.1c1.3,1.4,1.7,3.1,1.8,4.9C1728.2,856.9,1712.7,868.6,1696.4,879.2z"/>
	<path class="st3" d="M1696.1,867c-1.5,1.1-3.2,2.5-5.2,0.7c-1.1-1.1-0.7-2.3-0.6-3.6c-0.9-2.6,1-4,2.6-5.2
		c12.7-9.8,25.4-19.6,38.2-29.2c1.5-1.1,3.1-2.6,5.1-0.7c0.9,1.7,1.8,3.4,2.7,5.1C1725,845.4,1710.4,856.1,1696.1,867z"/>
	<path class="st0" d="M1740.8,839c-1.7-0.3-2.9,0.7-4.2,1.7c-13.4,10.3-26.8,20.5-40.2,30.8c-1.2,0.9-2.5,1.8-2.7,3.6
		c-1.8-2.1-3-4.4-2.7-7.3c2.7,0.3,4.2-1.6,6.1-3c12.2-9.3,24.3-18.6,36.5-27.8c1.6-1.3,3.1-3.1,5.5-2.8
		C1739.5,835.7,1740.2,837.3,1740.8,839z"/>
	<path class="st2" d="M1524.2,786.5c-14.5,13-29.9,24.7-46.2,35.4c-1.7-0.9-1.7-3-2.8-4.3c15.3-12.5,31-24.5,47.1-36
		C1523.6,783,1524,784.7,1524.2,786.5z"/>
	<path class="st2" d="M1638.9,777.6c12.7-9.8,25.4-19.5,38.1-29.2c1.6-1.2,3.1-3.1,5.6-2c1.2,1.4,1.6,3.2,1.6,5
		c-14.3,13.1-29.8,24.7-46,35.3c-1.7-0.9-1.6-3-2.8-4.2C1635.1,779.8,1637.3,778.8,1638.9,777.6z"/>
	<path class="st1" d="M1632,769.1c0.2-0.3,0.3-0.7,0.6-1c13.2-10.9,27-21,40.6-31.3c1.3-1,3-2.1,4.7-0.4c0.6,1.3,1.3,2.5,1.9,3.8
		c-0.4,1.4-1.4,2.3-2.5,3.1c-12.9,9.9-25.9,19.9-38.9,29.7c-1.7,1.3-3.4,2.6-5.8,2.3c-1.1-1.1-0.8-2.4-0.6-3.7
		C1631.5,770.8,1631.7,770,1632,769.1z"/>
	<path class="st4" d="M1525.6,791.5c-0.5,1.5-1.7,2.6-2.9,3.5c-12.4,9.5-24.8,19-37.3,28.5c-1.2,1-2.6,1.7-4.1,1.9
		c-1.6-0.8-2.5-2.1-3.2-3.6c14.9-12.4,30.3-24.2,46.2-35.4C1525.5,787.9,1525.1,789.9,1525.6,791.5z"/>
	<path class="st5" d="M1690.3,856.9c1.1-2.3,2.5-4.3,4.6-5.9c11.1-8.4,22.2-17,33.3-25.4c1.5-1.1,2.9-2.7,5.2-1.8
		c1,1.7,2,3.4,2.9,5.1c-1.7-0.3-2.9,0.7-4.2,1.6c-13,10-26.1,19.9-39.1,29.9c-1.3,1-2.4,1.9-2.6,3.6
		C1688.7,861.7,1690.1,859.3,1690.3,856.9z"/>
	<path class="st5" d="M1471.9,799.6c1-2.3,2.5-4.3,4.6-5.9c11.1-8.4,22.2-17,33.3-25.4c1.5-1.1,2.9-2.7,5.2-1.8c1,1.7,2,3.4,2.9,5.1
		c-1.7-0.3-2.9,0.7-4.2,1.6c-13,10-26.1,19.9-39.1,29.9c-1.3,1-2.4,1.9-2.6,3.6C1470.3,804.4,1471.6,802,1471.9,799.6z"/>
	<path class="st6" d="M1526.9,799.9c-2.9,0.7-5.3,2.2-7.6,4c-8.6,6.7-17.2,13.2-25.8,19.8c-2.5,1.9-4.8,3.9-7.9,4.8
		c-2-0.2-3-1.8-4.3-3c14.4-11.8,29.2-23.1,44.3-34C1526.6,794.2,1527.3,796.9,1526.9,799.9z"/>
	<path class="st5" d="M1636.9,758.2c10.9-8.2,21.6-16.5,32.4-24.7c1.6-1.2,3.2-3.1,5.7-2.1c1,1.7,2,3.4,2.9,5.1
		c-2.7-0.3-4.2,1.7-6,3.1c-13.2,9.9-26.4,19.8-39.5,29.7C1631.4,764.5,1633.1,761,1636.9,758.2z"/>
	<path class="st7" d="M1632,771.6c-2-6.8,1.5-12.5,3.8-18.4c9.1-7.5,18.6-14.4,27.9-21.6c2.2-1.7,4.2-4.1,7.3-4.5
		c1.5,1.3,3.5,2.1,4,4.3c-12.2,9.2-24.3,18.5-36.6,27.4c-3.7,2.7-6.1,5.7-6,10.4C1632.3,770,1632.1,770.8,1632,771.6z"/>
	<path class="st7" d="M1475.7,788.3c9.1-7.5,18.6-14.4,27.9-21.6c2.2-1.7,4.2-4.1,7.3-4.5c1.5,1.3,3.5,2.1,4,4.3
		c-14.7,10.5-29.2,21.4-43,33C1472.1,795.4,1474.3,792,1475.7,788.3z"/>
	<path class="st7" d="M1694.1,845.7c9.1-7.5,18.6-14.4,27.9-21.6c2.2-1.7,4.2-4.1,7.3-4.5c1.5,1.3,3.5,2.1,4,4.3
		c-14.7,10.5-29.2,21.4-43,33C1690.5,852.8,1692.7,849.4,1694.1,845.7z"/>
	<path class="st8" d="M1527.1,806.9c-1.7-0.9-3.1-0.5-4.6,0.7c-8.6,6.8-17.3,13.4-26.1,20c-1.6,1.2-2.3,2.4-1.9,4.3
		c-3.5,0.3-5.9-2.2-8.9-3.4c12.3-9.5,24.5-19,36.7-28.6c1.7-1.3,3.1-1.3,4.6,0C1527.2,802.2,1527.9,804.5,1527.1,806.9z"/>
	<path class="st9" d="M1705.1,883c-0.9,0.7-2.1,1.1-3.2,1.2c-1.7-0.1-2.7-1.1-3.3-2.6c-0.4-1.6,0.6-2.6,1.6-3.4
		c12.6-9.9,25.3-19.6,38.1-29.2c1.7-1.3,3.7-2.3,5.7-0.3c0.2,1.2,0.5,2.4,0.7,3.6C1731.8,863,1718.3,872.9,1705.1,883z"/>
	<path class="st10" d="M1642.1,785.5c12.5-9.8,25.1-19.4,37.9-28.9c1.7-1.3,3.7-2.3,5.7-0.3c0.2,1.2,0.5,2.4,0.7,3.6
		c-12.9,10.5-26.4,20.4-39.6,30.5c-0.9,0.7-2.1,1.1-3.2,1.2c-2,0.2-2-1.9-3.2-2.8C1640,787.3,1641.1,786.4,1642.1,785.5z"/>
	<path class="st11" d="M1745.3,857.2c-12.9,10.2-25.8,20.3-39.2,29.9c-1.4-1-2.9-1.9-4.3-2.9c13.4-10.4,26.8-20.7,40.2-31
		c0.7-0.5,1.8-0.5,2.7-0.7C1745.4,854,1745.8,855.6,1745.3,857.2z"/>
	<path class="st12" d="M1711.4,884.5c1.1-1.3,2.6-2.3,4-3.4c8-6.1,15.9-12.3,24-18.3c2.3-1.7,5.2-3.8,6.1,1.4
		c-0.3,2.4,0.1,5.1-1.9,7c-1.7-0.4-3,0.3-4.3,1.2c-5.7,4.3-11.3,8.6-16.9,12.9c-1.2,1-2.2,2.1-2.3,3.8c-2.4,1.4-4.8,0.3-7.3,0
		C1710.3,888.3,1709.4,886.9,1711.4,884.5z"/>
	<path class="st12" d="M1525.2,813.9c-1.1-0.6-2.2-0.4-3.2,0.3c-6.4,4.9-12.8,9.8-19.1,14.6c-1,0.8-1.5,1.7-1.2,3
		c-2.4,1.4-4.9,0.3-7.3,0c-1.5-1.3-3.5-2-0.4-4.3c9.8-7.2,19.5-14.6,29-22.2c3-2.4,3.2-0.3,4,1.5
		C1526.8,809.3,1527.2,811.9,1525.2,813.9z"/>
	<path class="st12" d="M1681,780c-5.7,4.3-11.3,8.6-16.9,12.9c-1.2,1-2.2,2.1-2.3,3.8c-2.4,1.4-4.8,0.3-7.3,0
		c-2.5-0.9-3.5-2.4-1.5-4.7c1.1-1.3,2.6-2.3,4-3.4c8-6.1,15.9-12.3,24-18.3c2.3-1.7,5.2-3.8,6.1,1.4c-0.3,2.4,0.1,5.1-1.9,7
		C1683.7,778.4,1682.3,779,1681,780z"/>
	<path class="st8" d="M1647.8,794.6c-1.3-3.4,1.4-5,3.3-6.6c9.4-7.5,18.9-14.8,28.6-21.8c2-1.5,4.3-3.6,7.3-1.4c0.3,2.3,1,4.7,0.2,7
		c-1.1-1.9-2.1-2.9-4.4-1.1c-9.3,7.3-18.7,14.4-28.1,21.5c-2.3,1.7-1.6,3-0.1,4.6C1652,796.9,1650,795.6,1647.8,794.6z"/>
	<path class="st13" d="M1643.2,741.2c6.1-4.9,12.3-9.7,18.6-14.4c1.7-1.3,3.3-3.4,6-2.4c1.6,0.2,2.6,1.2,3.2,2.7
		c-6.5,6.4-14.2,11.3-21.3,16.8c-4.4,3.4-8.3,7.6-13.9,9.2C1637.8,748.9,1639.9,744.7,1643.2,741.2z"/>
	<path class="st14" d="M1681.6,744c-15.6,12.4-31.5,24.3-47.3,36.3c-1.6-1.3-1.9-3.1-1.7-5c3.3-2.4,6.6-4.7,9.9-7.1
		c12.4-9.3,24.9-18.6,37.3-28C1680.4,741.4,1681,742.7,1681.6,744z"/>
	<path class="st15" d="M1682.6,746.4c-16.2,11.4-31.9,23.6-47.3,36.1c-0.9-0.4-1-1.3-1.1-2.1c0.3-1.9,1.7-3,3.1-4
		c13.4-10.2,26.7-20.4,40-30.6c1.2-0.9,2.4-1.9,4.2-1.7C1681.9,744.8,1682.3,745.6,1682.6,746.4z"/>
	<path class="st4" d="M1696.4,879.2c14.9-12.4,30.3-24.2,46.2-35.4c1.3,1.4,0.9,3.3,1.4,5c-1.6-0.3-3-0.2-4.4,0.9
		c-13.6,10.7-27.9,20.6-41.1,32C1697.9,880.9,1697.1,880,1696.4,879.2z"/>
	<path class="st16" d="M1638.1,786.7c14.8-12.4,30.3-24,46-35.3c1.3,1.4,1.1,3.3,1.5,4.9c-1.8-0.4-3.4,0.1-4.9,1.2
		c-13.5,10.5-27,20.9-40.5,31.4C1639.1,788.7,1638.6,787.7,1638.1,786.7z"/>
	<path class="st17" d="M1501.7,831.9c-1.2-0.5-4.8-0.1-1.4-2.7c7.5-5.9,15-11.7,22.7-17.3c3.5-2.6,2,0.9,2.2,2.1
		C1521.9,824.4,1512.7,831.4,1501.7,831.9z"/>
	<path class="st18" d="M1589.5,843.6c-8.7,6.7-17.4,13.5-26.3,20c-1.9-1.2-2-3.4-2.8-5.2c-0.4-1.6,0.6-2.6,1.7-3.4
		c8.2-6.5,16.5-12.8,24.9-19c1.3-1,2.9-2.2,4.6-0.5c0.6,1.3,1.2,2.5,1.8,3.8C1592.4,841.1,1591,842.5,1589.5,843.6z"/>
	<path class="st18" d="M1810.1,831.6c8.2-6.5,16.5-12.8,24.9-19c1.3-1,2.9-2.2,4.6-0.5c0.6,1.3,1.2,2.5,1.8,3.8
		c-1,1.7-2.3,3.1-3.9,4.3c-8.7,6.7-17.4,13.5-26.3,20c-1.9-1.2-2-3.4-2.8-5.2C1808,833.5,1809.1,832.5,1810.1,831.6z"/>
	<path class="st18" d="M1762,768.7c8.2-6.5,16.5-12.8,24.9-19c1.3-1,2.9-2.2,4.6-0.5c0.6,1.3,1.2,2.5,1.8,3.8
		c-1,1.7-2.3,3.1-3.9,4.3c-8.7,6.7-17.4,13.5-26.3,20c-1.9-1.2-2-3.4-2.8-5.2C1759.9,770.5,1760.9,769.5,1762,768.7z"/>
	<path class="st19" d="M1661.8,796.7c-2.9-0.9-2.1-2.2-0.4-3.5c6.9-5.3,13.8-10.5,20.6-15.8c1.8-1.3,3.2-1.6,3.3,1.3
		C1682,789.2,1672.8,796.2,1661.8,796.7z"/>
	<path class="st19" d="M1720.1,889.3c-2.9-0.9-2.1-2.2-0.4-3.5c6.9-5.3,13.7-10.5,20.6-15.8c1.8-1.3,3.2-1.7,3.3,1.3
		C1740.3,881.8,1731.1,888.8,1720.1,889.3z"/>
	<path class="st11" d="M1643.5,791.7c13.4-10.4,26.8-20.7,40.2-31c0.7-0.5,1.8-0.5,2.7-0.7c0.7,1.5,1.1,3.1,0.6,4.8
		c-2.7,0-4.8,1.2-6.9,2.7c-9.2,7.1-18.5,14.2-27.8,21.3c-2.1,1.6-3.8,3.3-4.5,5.9C1646.4,793.6,1645,792.7,1643.5,791.7z"/>
	<path class="st13" d="M1481.7,778.5c7.5-6.6,16.1-11.8,23.5-18.6c0.7-0.6,1.6-1,2.6-0.3c1.6,0.3,2.6,1.2,3.2,2.7
		c-6.5,6.4-14.2,11.3-21.3,16.8c-4.4,3.4-8.3,7.6-13.9,9.2C1476.4,784.3,1480.2,782.1,1481.7,778.5z"/>
	<path class="st13" d="M1700.1,835.9c7.5-6.6,16.1-11.8,23.5-18.6c0.7-0.6,1.6-1,2.6-0.3c1.6,0.2,2.6,1.2,3.2,2.7
		c-6.5,6.4-14.2,11.3-21.3,16.8c-4.4,3.4-8.3,7.6-13.9,9.2C1694.8,841.7,1698.7,839.5,1700.1,835.9z"/>
	<path class="st8" d="M1706.1,887.1c0.1-0.4,0.1-0.9,0.4-1.1c12.1-10.2,24.6-19.8,37.7-28.7c0.3-0.2,0.8,0,1.1-0.1
		c0.3,2.3,1,4.7,0.2,7c-1.1-1.9-2.2-2.9-4.4-1.1c-9.3,7.3-18.7,14.4-28.1,21.5c-2.3,1.7-1.6,3-0.1,4.6
		C1710.3,889.4,1708.3,888.1,1706.1,887.1z"/>
	<path class="st18" d="M1439.9,725.1c7.6-5.9,15.3-11.8,23-17.6c1.3-1,2.7-2.3,4.7-1.4c0.6,1.3,1.2,2.5,1.8,3.8
		c-0.5,1.5-1.7,2.6-2.9,3.5c-9.1,6.9-18,14-27.2,20.7c-0.6-0.9-1.3-1.9-1.9-2.8C1435.9,728.3,1437.9,726.6,1439.9,725.1z"/>
	<path class="st3" d="M1546.7,738.6c8-7.7,17.2-13.7,25.9-20.4c1.3-0.9,2.8-1.5,4.2-0.1c1,0.6,1.5,1.5,1.7,2.7
		c-1,2.5-3.3,3.7-5.2,5.3c-8.3,6.7-17.3,12.5-25,20c-1.6-1.7-1.9-3.7-1.6-5.9C1546.4,739.7,1546.4,739.1,1546.7,738.6z"/>
	<path class="st3" d="M1435.6,725.4c-0.3-0.5-0.3-1,0-1.6c8-7.7,17.2-13.7,25.9-20.4c1.3-0.9,2.8-1.5,4.2-0.1c1,0.6,1.6,1.5,1.7,2.7
		c-9.3,7-18.6,13.9-27.9,20.9c-1.5,1.1-2.3,2.5-2.4,4.4C1435.7,729.6,1435.4,727.6,1435.6,725.4z"/>
	<path class="st18" d="M1580.4,724.7c-0.5,1.5-1.7,2.6-2.9,3.5c-9.1,6.9-18,14-27.2,20.7c-1-0.7-1.7-1.6-1.9-2.8
		c0.1-1.9,0.9-3.3,2.4-4.4c9.3-6.9,18.6-13.9,27.9-20.9C1579.2,722.1,1579.8,723.4,1580.4,724.7z"/>
	<path class="st20" d="M1496.4,761.9c2.9-2.2,6.7-6,11.3-2.3c-8.4,6.7-16.2,14.2-26.1,18.9C1485.1,771.7,1490.6,766.4,1496.4,761.9z
		"/>
	<g>
		<path class="st21" d="M1850.4,749c-1.3-1.1-2.4-2.4-2.9-4.1c-1-2.6,0.9-4,2.5-5.2c13-10,26-20,39.1-29.9c1.6-1.2,3.3-3,5.6-1.1
			c1.3,1.4,1.6,3.1,1.8,4.9C1882.1,726.7,1866.7,738.4,1850.4,749z"/>
		<path class="st3" d="M1846.8,728.7c12.7-9.8,25.4-19.6,38.2-29.2c1.5-1.1,3.1-2.6,5.1-0.7c0.9,1.7,1.8,3.4,2.7,5.1
			c-13.4,10.9-27.4,21.3-41.3,31.6c-1.9,1.4-4,3.2-6.8,2.1c-1.1-1.1-0.7-2.4-0.6-3.6C1843.3,731.3,1845.2,729.9,1846.8,728.7z"/>
		<path class="st0" d="M1894.7,708.8c-2-0.3-3.2,0.9-4.6,2c-13.2,10.1-26.3,20.1-39.5,30.2c-1.4,1.1-2.9,2-3.1,4
			c-1.6-2.2-3-4.5-2.7-7.4c4-1.6,7.4-4,10.8-6.6c10.5-8.2,21.1-16.2,31.7-24.3c1.6-1.2,3.1-3.1,5.5-2.8
			C1893.5,705.5,1894.1,707.1,1894.7,708.8z"/>
		<path class="st5" d="M1844.2,726.7c1-2.3,2.5-4.3,4.6-5.9c11.1-8.4,22.2-17,33.3-25.4c1.5-1.1,2.9-2.7,5.2-1.8
			c1,1.7,2,3.4,2.9,5.1c-1.7-0.3-2.9,0.7-4.2,1.6c-13,10-26.1,19.9-39.1,29.9c-1.3,1-2.4,1.9-2.6,3.6
			C1842.7,731.5,1844,729.1,1844.2,726.7z"/>
		<path class="st7" d="M1848,715.5c9.1-7.5,18.6-14.4,27.9-21.6c2.3-1.7,4.2-4.1,7.3-4.5c1.5,1.3,3.5,2.1,4,4.3
			c-14.7,10.5-29.2,21.4-43,33C1844.4,722.6,1846.6,719.2,1848,715.5z"/>
		<path class="st22" d="M1859,752.8c-1,0.7-2.1,1.1-3.2,1.2c-1.7-0.1-2.7-1.1-3.3-2.6c-0.4-1.6,0.6-2.6,1.6-3.4
			c12.6-9.9,25.3-19.6,38.1-29.2c1.7-1.3,3.7-2.3,5.7-0.3c0.2,1.2,0.5,2.4,0.7,3.6C1885.7,732.8,1872.2,742.7,1859,752.8z"/>
		<path class="st11" d="M1899.2,727.1c-12.9,10.2-25.8,20.3-39.2,29.9c-1.4-1-2.9-1.9-4.3-2.9c13.4-10.4,26.8-20.7,40.2-31
			c0.7-0.5,1.8-0.5,2.7-0.7C1899.3,723.8,1899.7,725.4,1899.2,727.1z"/>
		<path class="st12" d="M1893.3,742.3c-5.7,4.3-11.3,8.6-16.9,12.9c-1.2,1-2.2,2.1-2.3,3.8c-2.4,1.4-4.8,0.3-7.3,0
			c-2.5-0.9-3.5-2.4-1.5-4.7c1.1-1.3,2.6-2.3,4-3.4c8-6.1,15.9-12.3,24-18.3c2.3-1.7,5.2-3.8,6.1,1.4c-0.3,2.4,0.1,5.1-1.9,7
			C1895.9,740.7,1894.5,741.4,1893.3,742.3z"/>
		<path class="st16" d="M1850.4,749c14.9-12.4,30.3-24.2,46.2-35.4c1.3,1.4,0.9,3.3,1.4,5c-1.6-0.3-3-0.2-4.4,0.9
			c-13.6,10.7-27.9,20.6-41.1,32C1851.8,750.7,1851.1,749.9,1850.4,749z"/>
		<path class="st19" d="M1874,759.1c-2.9-0.8-2.1-2.2-0.4-3.5c6.9-5.3,13.7-10.5,20.6-15.8c1.8-1.3,3.2-1.7,3.3,1.3
			C1894.2,751.6,1885,758.6,1874,759.1z"/>
		<path class="st23" d="M1854,705.7c7.5-6.6,16.1-11.8,23.5-18.6c0.7-0.6,1.6-1,2.6-0.3c1.6,0.2,2.6,1.2,3.2,2.7
			c-10.4,9.3-21.9,17.2-33,25.7c-0.5,0.4-1.5,0.3-2.2,0.4C1848.8,711.5,1852.5,709.3,1854,705.7z"/>
		<path class="st8" d="M1860.1,756.9c0.1-0.4,0.1-0.9,0.4-1.1c12.1-10.2,24.6-19.8,37.7-28.7c0.3-0.2,0.8,0,1.1-0.1
			c0.3,2.3,1,4.7,0.2,7c-1.1-1.9-2.2-2.9-4.4-1.1c-9.3,7.3-18.7,14.4-28.1,21.5c-2.3,1.7-1.6,3-0.1,4.6
			C1864.3,759.2,1862.2,758,1860.1,756.9z"/>
		<path class="st20" d="M1868.8,689.1c2.9-2.2,6.7-6,11.3-2.3c-8.4,6.7-16.2,14.2-26.1,18.9C1857.5,698.9,1862.9,693.6,1868.8,689.1
			z"/>
	</g>
	<path class="st20" d="M1714.9,819.2c2.9-2.2,6.7-6,11.3-2.3c-8.4,6.7-16.2,14.2-26.1,18.9C1703.5,829,1709,823.8,1714.9,819.2z"/>
	<path class="st24" d="M1842.4,819.5c-0.3,1.2-1.2,2-2.1,2.7c-9,6.8-17.7,13.9-26.9,20.4c-0.7-0.8-1.4-1.6-2.1-2.4
		c0.3-0.7,0.4-1.7,0.9-2.1c9.7-7.5,19.5-14.9,29.2-22.3C1841.7,817.1,1842,818.3,1842.4,819.5z"/>
	<path class="st24" d="M1594.3,843c-0.3,1.2-1.2,2-2.1,2.7c-9,6.8-17.7,13.9-26.9,20.4c-0.7-0.8-1.4-1.6-2.1-2.4
		c0.3-0.7,0.4-1.7,0.9-2.1c9.7-7.5,19.5-14.9,29.2-22.3C1593.7,840.6,1594,841.8,1594.3,843z"/>
	<path class="st24" d="M1794.2,756.6c-0.3,1.2-1.2,2-2.1,2.7c-9,6.8-17.7,13.9-26.9,20.4c-0.7-0.8-1.4-1.6-2.1-2.4
		c0.3-0.7,0.4-1.7,0.9-2.1c9.7-7.5,19.5-14.9,29.2-22.3C1793.6,754.2,1793.9,755.4,1794.2,756.6z"/>
	<path class="st3" d="M1759.6,768.6c-0.3-0.5-0.3-1,0-1.6c8-7.7,17.2-13.7,25.9-20.4c1.3-0.9,2.8-1.5,4.2-0.1c1,0.6,1.6,1.5,1.7,2.7
		c-0.9,0.2-2,0.2-2.7,0.7c-9.5,7.3-19,14.8-28.4,22.2C1759.1,771.1,1759.4,769.8,1759.6,768.6z"/>
	<path class="st3" d="M1807.7,831.5c-0.3-0.5-0.3-1,0-1.6c8-7.7,17.2-13.7,25.9-20.4c1.3-0.9,2.8-1.5,4.2-0.1c1,0.6,1.6,1.5,1.7,2.7
		c-0.9,0.2-2,0.2-2.7,0.7c-9.5,7.3-19,14.8-28.4,22.2C1807.3,834.1,1807.5,832.8,1807.7,831.5z"/>
	<path class="st3" d="M1559.7,854.9c-0.3-0.5-0.3-1,0-1.6c8-7.7,17.2-13.7,25.9-20.4c1.3-0.9,2.8-1.5,4.2-0.1c1,0.6,1.6,1.5,1.7,2.7
		c-0.9,0.2-2,0.2-2.7,0.7c-9.5,7.3-19,14.8-28.4,22.2C1559.2,857.5,1559.5,856.2,1559.7,854.9z"/>
	<path class="st24" d="M1581.4,728.2c-0.3,1.2-1.2,2-2.1,2.7c-9,6.8-17.7,13.9-26.9,20.4c-0.7-0.8-1.4-1.6-2.1-2.4
		c0.2-1.4,1.1-2.4,2.2-3.3c9.3-7,18.6-14,27.9-21C1580.7,725.8,1581,727,1581.4,728.2z"/>
	<path class="st24" d="M1470.3,713.4c-0.3,1.2-1.2,2-2.1,2.7c-9,6.8-17.7,13.9-26.9,20.4c-0.7-0.8-1.4-1.6-2.1-2.4
		c0.2-1.4,1.1-2.4,2.2-3.3c9.3-7,18.6-14,27.9-21C1469.7,711,1470,712.2,1470.3,713.4z"/>
	<path class="st25" d="M1581.7,830.7c-4.9,4.2-10,8.3-15.5,11.7c-1.4,0.8-3,1.8-4.8,0.9c3-7.2,8.1-12.6,14.5-16.7
		c2.3-1.5,5-3.3,7.7-0.4C1584.2,828.2,1583,829.6,1581.7,830.7z"/>
	<path class="st25" d="M1781.6,744.3c-4.9,4.2-10,8.3-15.5,11.7c-1.4,0.8-3,1.8-4.8,0.9c3-7.2,8.1-12.6,14.5-16.7
		c2.3-1.5,5-3.3,7.7-0.4C1784.1,741.8,1782.9,743.2,1781.6,744.3z"/>
	<path class="st25" d="M1568.8,715.9c-4.9,4.2-10,8.3-15.5,11.7c-1.4,0.8-3,1.8-4.8,0.9c3-7.2,8.1-12.6,14.5-16.7
		c2.3-1.5,5-3.3,7.7-0.4C1571.3,713.5,1570,714.8,1568.8,715.9z"/>
	<path class="st25" d="M1457.7,701.1c-4.9,4.2-10,8.3-15.5,11.7c-1.4,0.8-3,1.8-4.8,0.9c3-7.2,8.1-12.6,14.5-16.7
		c2.3-1.5,5-3.3,7.7-0.4C1460.2,698.7,1459,700,1457.7,701.1z"/>
	<path class="st26" d="M1787.7,743.9c-4.5,4-9.6,7.2-14.2,11c-4.7,3.9-10.4,6.8-13.7,12.4c-0.1,0.4-0.2,0.8-0.2,1.2
		c-1.8-4.2,0.2-7.9,1.7-11.6c8.4-4.4,16.1-9.7,22.2-17.1C1785.8,740.2,1786.8,742,1787.7,743.9z"/>
	<path class="st27" d="M1843.8,824.4c-6,3.2-10.9,8-16.5,11.8c-3.9,2.7-7.1,6.6-11.9,8c-1-0.2-1.7-0.6-2.1-1.6
		c0.4-0.8,0.7-1.9,1.4-2.4c9.2-6.9,17.9-14.5,27.7-20.7C1843.5,821,1844,822.6,1843.8,824.4z"/>
	<path class="st26" d="M1574.9,715.6c-4.5,4-9.6,7.2-14.2,11c-4.7,3.9-10.4,6.8-13.7,12.4c-0.1,0.4-0.2,0.8-0.2,1.2
		c-1.8-4.2,0.2-7.9,1.7-11.6c8.4-4.4,16.1-9.7,22.2-17.1C1573,711.9,1574,713.7,1574.9,715.6z"/>
	<path class="st27" d="M1471.8,718.3c-6,3.2-10.9,8-16.5,11.8c-3.9,2.7-7.1,6.6-11.9,8c-1-0.2-1.7-0.6-2.1-1.6
		c0.4-0.8,0.7-1.9,1.4-2.4c9.2-6.9,17.9-14.5,27.7-20.7C1471.5,714.8,1472,716.5,1471.8,718.3z"/>
	<path class="st27" d="M1582.9,733.1c-6,3.2-10.9,8-16.5,11.8c-3.9,2.7-7.1,6.6-11.9,8c-1-0.2-1.7-0.6-2.1-1.6
		c0.4-0.8,0.7-1.9,1.4-2.4c9.2-6.9,17.9-14.5,27.7-20.7C1582.5,729.7,1583,731.3,1582.9,733.1z"/>
	<path class="st27" d="M1795.7,761.5c-6,3.2-10.9,8-16.5,11.8c-3.9,2.7-7.1,6.6-11.9,8c-1-0.2-1.7-0.6-2.1-1.6
		c0.4-0.8,0.7-1.9,1.4-2.4c9.2-6.9,17.9-14.5,27.7-20.7C1795.4,758,1795.9,759.7,1795.7,761.5z"/>
	<path class="st26" d="M1587.8,830.3c-4.5,4-9.6,7.2-14.2,11c-4.7,3.9-10.4,6.8-13.7,12.4c-0.1,0.4-0.2,0.8-0.2,1.2
		c-1.8-4.2,0.2-7.9,1.7-11.6c8.4-4.4,16.1-9.7,22.2-17.1C1585.9,826.6,1586.9,828.4,1587.8,830.3z"/>
	<path class="st26" d="M1463.8,700.8c-4.5,4-9.6,7.2-14.2,11c-4.7,3.9-10.4,6.8-13.7,12.4c-0.1,0.4-0.2,0.8-0.2,1.2
		c-1.8-4.2,0.2-7.9,1.7-11.6c8.4-4.4,16.1-9.7,22.2-17.1C1461.9,697.1,1462.9,698.8,1463.8,700.8z"/>
	<path class="st27" d="M1595.8,847.9c-6,3.2-10.9,8-16.5,11.8c-3.9,2.7-7.1,6.6-11.9,8c-1-0.2-1.7-0.6-2.1-1.6
		c0.4-0.8,0.7-1.9,1.4-2.4c9.2-6.9,17.9-14.5,27.7-20.7C1595.5,844.4,1596,846,1595.8,847.9z"/>
	<path class="st28" d="M1575.5,869.6c-0.8-1.8,1.2-3.1,2.5-4.1c3.9-3.2,7.9-6.3,12-9.2c1.4-1,3.1-2.6,4.6-1.4
		c1.5,1.2,0.5,3.2-0.3,4.7c-2.3,6.8-7.2,10.4-14.3,10.9C1578.5,871,1576.3,871.4,1575.5,869.6z"/>
	<path class="st28" d="M1823.5,846.2c-0.8-1.8,1.2-3.1,2.5-4.1c3.9-3.2,7.9-6.3,12-9.2c1.4-1,3.1-2.6,4.6-1.4
		c1.5,1.2,0.5,3.2-0.3,4.7c-2.3,6.8-7.2,10.4-14.3,10.9C1826.5,847.5,1824.3,847.9,1823.5,846.2z"/>
	<path class="st28" d="M1451.5,740.1c-0.8-1.8,1.2-3.1,2.5-4.1c3.9-3.2,7.9-6.3,12-9.2c1.4-1,3.1-2.6,4.6-1.4
		c1.5,1.2,0.5,3.2-0.3,4.7c-2.3,6.8-7.2,10.4-14.3,10.9C1454.4,741.4,1452.3,741.8,1451.5,740.1z"/>
	<path class="st28" d="M1775.4,783.3c-0.8-1.8,1.2-3.1,2.5-4.1c3.9-3.2,7.9-6.3,12-9.2c1.4-1,3.1-2.6,4.6-1.4
		c1.5,1.2,0.5,3.2-0.3,4.7c-2.3,6.8-7.2,10.4-14.3,10.9C1778.4,784.6,1776.2,785,1775.4,783.3z"/>
	<path class="st28" d="M1562.6,754.9c-0.8-1.8,1.2-3.1,2.5-4.1c3.9-3.2,7.9-6.3,12-9.2c1.4-1,3.1-2.6,4.6-1.4
		c1.5,1.2,0.5,3.2-0.3,4.7c-2.3,6.8-7.2,10.4-14.3,10.9C1565.5,756.2,1563.3,756.6,1562.6,754.9z"/>
	<path class="st29" d="M1789.7,746.5c-2.6-0.3-4.2,1.7-6,3c-8,5.9-16,11.9-23.9,17.8c-0.1-3,1.5-5,3.9-6.7c5.6-4.1,11-8.5,16.7-12.6
		c2.3-1.7,4.1-4.3,7.4-4.1C1788.4,744.8,1789,745.7,1789.7,746.5z"/>
	<path class="st29" d="M1465.8,703.4c-2.6-0.3-4.2,1.7-6,3c-8,5.9-16,11.9-23.9,17.8c-0.1-3,1.5-5,3.9-6.7c5.6-4.1,11-8.5,16.7-12.6
		c2.3-1.7,4.1-4.3,7.4-4.1C1464.5,701.6,1465.1,702.5,1465.8,703.4z"/>
	<path class="st26" d="M1809.1,821c5.5-6.5,12.8-10.8,19.4-16c1.4-1.1,3.2-2.3,5.2-0.8c0.7,0.9,1.4,1.7,2.1,2.6
		c-4.5,4-9.6,7.2-14.2,11c-4.7,3.9-10.4,6.8-13.7,12.4c-0.1,0.4-0.2,0.8-0.2,1.2C1806.2,827.7,1807.2,824.3,1809.1,821z"/>
	<path class="st29" d="M1837.8,809.5c-2.6-0.3-4.2,1.7-6,3c-8,5.9-16,11.9-23.9,17.8c-0.1-3,1.5-5,3.9-6.7c5.6-4.1,11-8.5,16.7-12.6
		c2.3-1.7,4.1-4.3,7.4-4.1C1836.5,807.7,1837.2,808.6,1837.8,809.5z"/>
	<path class="st29" d="M1576.9,718.2c-2.6-0.3-4.2,1.7-6,3c-8,5.9-16,11.9-23.9,17.8c-0.1-3,1.5-5,3.9-6.7c5.6-4.1,11-8.5,16.7-12.6
		c2.3-1.7,4.1-4.3,7.4-4.1C1575.5,716.4,1576.2,717.3,1576.9,718.2z"/>
	<path class="st29" d="M1589.8,832.9c-2.6-0.3-4.2,1.7-6,3c-8,5.9-16,11.9-23.9,17.8c-0.1-3,1.5-5,3.9-6.7c5.6-4.1,11-8.5,16.7-12.6
		c2.3-1.7,4.1-4.3,7.4-4.1C1588.5,831.2,1589.1,832.1,1589.8,832.9z"/>
	<path class="st30" d="M1770.6,782.9c2.1-4.9,20-18.6,25.1-19.1c1,3.4,0.7,6.6-1.4,9.5c-0.2-1.4,0.9-2.9,0.5-3.3
		c-6.5,4.5-12.6,8.8-19.1,13.3c1.8,0.4,3,0.6,4.3,0.9C1776.7,785.5,1773.6,785,1770.6,782.9z"/>
	<path class="st30" d="M1557.8,754.5c2.1-4.9,20-18.6,25.1-19.1c1,3.4,0.7,6.6-1.4,9.5c-0.2-1.4,0.9-2.9-1.1-4.9
		c-2.9,2.5-5.6,5-8.5,7.2c-3,2.3-6.2,4.4-10.5,7.4c3.2,0.7,4.5,0.9,5.8,1.2C1563.8,757.2,1560.7,756.6,1557.8,754.5z"/>
	<path class="st30" d="M1818.8,845.8c2.1-4.9,20-18.6,25.1-19.1c1,3.4,0.7,6.6-1.4,9.5c-0.2-1.4,0.9-2.9,0.4-3.4
		c-6.3,4.7-12.3,9.1-18.4,13.6c1.1,0.2,2.4,0.5,3.7,0.8C1824.8,848.5,1821.7,847.9,1818.8,845.8z"/>
	<path class="st30" d="M1570.7,869.3c2.1-4.9,20-18.6,25.1-19.1c1,3.4,0.7,6.6-1.4,9.5c-0.2-1.4,0.9-2.9,0.4-3.4
		c-6.3,4.7-12.3,9.1-18.4,13.6c1.1,0.2,2.4,0.5,3.7,0.8C1576.8,871.9,1573.7,871.4,1570.7,869.3z"/>
	<path class="st30" d="M1446.7,739.7c2.1-4.9,20-18.6,25.1-19.1c1,3.4,0.7,6.6-1.4,9.5c-0.2-1.4,0.9-2.9-1.1-4.9
		c-2.9,2.5-5.6,5-8.5,7.2c-3,2.3-6.2,4.4-10.5,7.4c3.2,0.7,4.5,0.9,5.8,1.2C1452.8,742.4,1449.6,741.8,1446.7,739.7z"/>
	<path class="st11" d="M1443.4,738.1c8.4-6.6,16.9-13.2,25.3-19.9c1.1-0.9,2.1-0.6,3.1,0.1c0,0.8,0,1.5,0,2.3
		c-8.8,5.8-17.1,12.2-25.1,19.1C1445.4,739.7,1444.1,739.5,1443.4,738.1z"/>
	<path class="st11" d="M1815.4,844.2c8.4-6.6,16.9-13.2,25.3-19.9c1.1-0.9,2.1-0.6,3.1,0.1c0,0.8,0,1.5,0,2.3
		c-8.8,5.8-17.1,12.2-25.1,19.1C1817.4,845.8,1816.2,845.6,1815.4,844.2z"/>
	<path class="st11" d="M1567.4,867.7c8.4-6.6,16.9-13.2,25.3-19.9c1.1-0.9,2.1-0.6,3.1,0.1c0,0.8,0,1.5,0,2.3
		c-8.8,5.8-17.1,12.2-25.1,19.1C1569.4,869.2,1568.1,869,1567.4,867.7z"/>
	<path class="st11" d="M1554.5,752.9c8.4-6.6,16.9-13.2,25.3-19.9c1.1-0.9,2.1-0.6,3.1,0.1c0,0.8,0,1.5,0,2.3
		c-8.8,5.8-17.1,12.2-25.1,19.1C1556.5,754.5,1555.2,754.3,1554.5,752.9z"/>
	<path class="st11" d="M1767.3,781.3c8.4-6.6,16.9-13.2,25.3-19.9c1.1-0.9,2.1-0.6,3.1,0.1c0,0.8,0,1.5,0,2.3
		c-8.8,5.8-17.1,12.2-25.1,19.1C1769.3,782.8,1768,782.6,1767.3,781.3z"/>
	<path class="st20" d="M1656,727.1c3.1-2.4,6.9-6.4,11.8-2.7c-4.5,3.3-9,6.7-13.6,9.8c-3.6,2.4-6.3,6.4-11,7
		C1646.3,735.5,1651,731,1656,727.1z"/>
	<path class="st31" d="M1816.5,810.2c3.1-3.1,6.6-5.8,10.5-8c2.3,0.6,5-0.4,6.8,2c-2.4-0.3-3.9,1.5-5.5,2.7
		c-6.4,4.7-12.7,9.4-19.1,14C1810.7,816.8,1812.6,812.8,1816.5,810.2z"/>
	<path class="st32" d="M1826.9,802.2c-3.1,3.1-6.6,5.8-10.5,8C1818.8,806,1822.2,803.3,1826.9,802.2z"/>
</g>
<linearGradient id="SVGID_00000105421088473119434170000004925719970308411529_" gradientUnits="userSpaceOnUse" x1="-1303.6371" y1="692.2361" x2="-937.377" y2="692.2361" gradientTransform="matrix(-0.9912 -0.1321 0.1321 -0.9912 473.3516 1112.3667)">
	<stop  offset="1.385225e-07" style="stop-color:#FFFFFF"/>
	<stop  offset="1" style="stop-color:#B4DAF9"/>
</linearGradient>
<path style="fill:#F2F6F9;stroke:url(#SVGID_00000105421088473119434170000004925719970308411529_);stroke-miterlimit:10;" d="
	M1767.2,709c-0.5,0.2-1.1,0.2-1.7,0.2c-4.7-0.6-9.4-1.2-14-1.8c-62.2-8.3-124.4-16.6-186.6-24.9c-0.6-0.1-1.1-0.3-1.6-0.6
	c-0.5-0.3-1.2-0.3-1.7-0.7c-0.3-0.3-0.7-0.4-1.1-0.5c-2.5-0.8-4.9-1.5-7.3-2.4c-5-2.1-9.9-4.4-14.6-7.2
	c-9.9-5.9-18.5-13.4-25.9-22.2c-5.5-6.7-10.1-14-13.6-22c-3.7-8.3-6.3-17-7.6-26c-0.6-3.9-0.7-7.9-1.1-11.9c0-0.3-0.1-0.6-0.2-0.9
	c-0.2-0.6,0.1-1.3,0-1.9c-0.1-0.5-0.1-0.9-0.1-1.4c1.3-8.1,1.3-16.4,3.9-24.3c0.9-2.7,1.6-5.6,2.7-8.2c4.4-10.8,10.2-20.8,18-29.6
	c8.6-9.8,18.8-17.6,30.5-23.4c11.1-5.5,22.8-8.8,35.2-9.7c3.9-0.3,7.9-0.7,11.7-0.3c8.5,0.8,17,1.4,25.1,4.4c0.7,0.3,1.1,0,1.4-0.4
	c3.2-3.9,6.8-7.4,10.6-10.7c6.5-5.7,13.6-10.6,21.2-14.7c6.9-3.7,14.2-6.5,21.8-8.6c6.9-1.9,13.8-3.1,21-3.6c2.5-0.2,5,0,7.4-0.5
	c0.9-0.2,1.8-0.5,2.8-0.3c8.1,1.1,16.2,2.2,24.3,3.3c0.5,0.1,0.9,0.2,1.3,0.4c0.7,0.3,1.5,0.2,2.1,0.5c0.3,0.2,0.6,0.3,0.9,0.5
	c0.4,0.1,0.7,0.3,1.1,0.4c5.7,1.7,11.2,3.8,16.4,6.4c10.4,5.3,20,11.9,28.4,20.2c7,6.9,13,14.5,18,22.9
	c6.6,11.2,11.3,23.2,13.5,36.1c0.2,1.2-0.3,2.9,1.3,3.7c2.9,1.5,5.5,3.4,8.2,5.4c9.4,7,16.8,15.7,22.6,25.7c4.5,7.7,7.6,16,9.4,24.8
	c1,4.6,1.5,9.3,1.7,14.1c0,0.2,0,0.4,0.1,0.5c0.2,0.9,0.3,1.7,0.4,2.6c0.1,0.4,0.1,0.9,0,1.3c-0.6,4.6-1.1,9.3-1.9,13.9
	c-0.5,2.9-0.5,5.8-1.7,8.6c-1.5,3.5-2.5,7.2-4,10.7c-3.2,7.4-7.5,14.2-12.6,20.4c-6,7.3-13.1,13.3-21,18.3
	c-4.6,2.9-9.4,5.3-14.5,7.2c-5.6,2.1-11.3,3.8-17.3,4.6c-3.4,0.5-6.7,0.8-10.1,1c-0.4,0-0.9,0.1-1.3,0.2
	C1768.3,709,1767.7,708.9,1767.2,709z"/>
<g>
	<g>
		<path class="st35" d="M388,348.4c5.2-9.3,4.6-20.2,8.2-29.9c0.7-1.9,1.6-3.7,2.4-5.5c2.8-4.9,6.1-3.3,9.4-0.8
			c3,2.3,5.6,5.2,8.2,7.9c64.4,64.4,128.8,128.7,193,193.2c4.8,4.8,11.3,8.2,14,15c1.2,12.9,0.1,25.8,2.3,38.6c0.5,3,0,6.1-2.5,8.4
			c-3.5-0.2-6.9-0.3-10.4-0.5c-4.5-3.3-8.2-7.5-12.1-11.4c-64.7-64.7-129.5-129.4-194.2-194.2c-5.9-5.9-11.8-11.7-18.5-16.7
			C388,351.2,388,349.8,388,348.4z"/>
		<path class="st36" d="M864.5,9.3c11,4.7,23.2,4.1,34.4,8.2c3.8,1.4,7.6,2.7,11.5,4.1c49.2,49.3,98.8,98.3,147.6,147.9
			c0.8,2.1,1.5,4.2,2.3,6.2c-2.6,2.8-6.2,2.6-9.6,2.9c-3.8,0-7.5-0.4-11.1,1.4c-9.2,3-18.6,4.8-28.1,6c-1.1-0.1-2.1-0.3-3-0.8
			c-10.9-14.9-24.7-27-37.6-39.9C930.8,105,890.6,65,850.6,24.7c-4.4-4.5-10.5-8.1-11-15.4C847.8,9.3,856.1,9.3,864.5,9.3z"/>
		<path class="st37" d="M839.5,9.3c53.1,53.4,106.1,106.8,159.2,160.2c4.1,4.2,8.7,8,9.4,14.4c-8.9,9-21.5,9.5-32.3,14
			c-1,0-2-0.2-3-0.5C917.1,140.8,860.6,85.2,804.8,28.9c-4.2-4.2-10.3-7.6-8.9-15.2c4.5-2.7,10.4-0.5,14.5-4.4
			C820.1,9.3,829.8,9.3,839.5,9.3z"/>
		<path class="st38" d="M388,352.6c5.3-0.8,8.1,2.9,11.3,6.1c69.3,69.3,138.5,138.5,207.8,207.8c2.4,2.4,5.5,4.4,5.6,8.4
			c-9,0-18.1,0-27.1,0c-3.9-1.5-7.9-0.2-11.9-0.9c-46.5-46.4-92.9-93-139.5-139.3c-15.2-15.1-29.5-31.2-46.2-44.6
			C388,377.6,388,365.1,388,352.6z"/>
		<path class="st39" d="M388,390.1c4.8-0.7,7.6,2.4,10.6,5.4c56.3,56.4,112.7,112.7,169,169.1c2.4,2.4,5.5,4.4,5.5,8.4
			c-2.2,1.8-4.4,1.3-6.7,0.4c-13.7-0.3-26.8-3.2-39.4-8.3c0.4-4.8-3.1-7.5-6-10.4c-37.4-37.5-74.9-75-112.4-112.4
			c-2.9-2.9-5.5-6.4-10.4-6c-6.1-10.4-4.2-23.3-10.2-33.8C388,398.4,388,394.2,388,390.1z"/>
		<path class="st40" d="M972.7,196.8c0.7,0.1,1.4,0.1,2.1,0.2c4.5,2.7,7.7,7,11.3,10.6c144.8,144.8,289.6,289.6,434.4,434.4
			c4.1,4.2,9,7.6,12.4,12.4c-3.7,9.5-9.3,17.8-16.6,25c-4.6,6.8-9.9,6.3-15.6,1.4c-2.9-2.5-5.6-5.2-8.2-7.9
			C1245.6,526,1098.8,379.2,952,232.3c-4.8-4.8-11-8.8-11.4-16.7c0.7-2.6,2.5-4.3,4.5-5.9C954,204.7,962.2,198.2,972.7,196.8z"/>
		<path class="st41" d="M941.5,215.6c1.9,4.1,4.7,7.6,7.9,10.8c149.9,149.8,299.7,299.6,449.5,449.4c5.1,5.1,10.1,9.8,17.4,3.5
			c-7.8,13.1-19.5,22.3-31.7,30.9c-4.6-1.2-7.4-4.9-10.6-8.1c-150.9-150.8-301.7-301.7-452.5-452.6c-3.4-3.4-7.6-6.2-8.3-11.6
			c1.7-6.1,5.5-10.6,10.6-14.1C930.2,222.2,933.6,214.1,941.5,215.6z"/>
		<path class="st2" d="M1232.7,741.4c-18,0-36.1,0-54.1,0c-6.1-3.6-10-9.5-14.8-14.4C1042.5,605.9,921.3,484.7,800,363.5
			c-2.7-2.7-5.5-5.3-8-8.2c-4.5-5.1-5.4-9.7,1.8-13.2c10.6-4,21.6-2.6,32.4-2.7c5,0.1,10.2-0.4,14.7,2.7
			c6.3,7.8,13.5,14.8,20.6,21.9c120.5,120.5,241,241,361.4,361.6C1227.4,729.9,1234.1,733.3,1232.7,741.4z"/>
		<path class="st7" d="M1432.9,654.4c-4.4,0-6.7-3.3-9.3-5.9c-147.7-147.7-295.5-295.4-443.2-443.2c-2.4-2.4-5.5-4.4-5.6-8.4
			c10.4-6.1,22.3-8.4,33.2-13c0.7,0.1,1.4,0.2,2.1,0.4c4.4,3.4,8.1,7.6,12,11.5c136,136,272.1,272,408,408.2
			c5.4,5.4,11.7,9.7,17,15.1C1445.1,631.9,1440,643.5,1432.9,654.4z"/>
		<path class="st42" d="M1232.7,741.4c-2-5.4-6.2-9.1-10.1-13c-124.3-124.2-248.5-248.5-372.7-372.8c-3.3-3.3-8-5.8-8.3-11.4
			c4-5.9,6.9-12.3,8.9-19.1c1.7-4.1,2.4-8.9,7-11.1c5.8-1.4,8.9,2.8,12.3,6.2c12.8,12.6,25.5,25.5,38.3,38.2
			c121.8,121.8,243.6,243.5,365.3,365.4c4.7,4.8,12.4,8.6,9.4,17.7C1266,741.4,1249.3,741.4,1232.7,741.4z"/>
		<path class="st1" d="M914.2,237.6c1.8,4.3,5.6,7,8.8,10.1c151.1,151.1,302.2,302.3,453.3,453.4c2.9,2.9,5.6,6.1,8.3,9.2
			c-7.1,4.9-13.8,10.7-22.4,12.8c-3.9,2-6.6-0.2-9.2-2.5c-2.3-2.1-4.5-4.3-6.7-6.5c-147.3-147.3-294.7-294.7-442-442
			c-4.3-4.3-10.1-7.7-10.3-15c1.1-7,6.3-11.3,10.8-16C907.6,238.9,910,235.8,914.2,237.6z"/>
		<path class="st43" d="M1282.7,741.5c-0.6-5.6-4.3-9.3-8-13c-135.8-135.8-271.6-271.6-407.4-407.4c-2.6-2.6-4.9-6.1-9.3-6
			c-1.8-10.2,5.7-17.1,9.1-25.5c1.5-1.5,3.2-2.6,5.3-3.1c6.5-0.5,9.8,4.5,13.6,8.3c44.6,44.5,89.2,89.1,133.8,133.7
			c98.2,98.2,196.5,196.4,294.6,294.8c3.7,3.7,10.7,6.3,7.8,14c-5.2,3.2-11.2,2.5-16.8,4.1c-5.4-1.2-10.9-1.3-16.3,0
			C1287,741.5,1284.8,741.5,1282.7,741.5z"/>
		<path class="st13" d="M1049.9,175.8c3.4,0,6.9-0.1,10.4-0.1c4.2,0.1,8.3,0.1,12.5,0.2c5,1.9,10.2,0.3,15.3,0.9
			c5.1,2,7.5,7,11.1,10.6c64.5,64.3,128.8,128.7,193.2,193.1c3.4,3.4,7.8,5.8,10.1,10.3c0.7,4.5-1,9.2,1,13.6
			c1.8,6.5,7.6,5.3,12.3,6.3c4.2,0.9,8.5,1.6,12.8,2.3c-0.5,2.7-3.5,4.4,0.4,8.2c36.7,36.6,73.5,73.2,110.1,109.9
			c3.2,3.2,7.3,5.2,10.4,8.6c3.4,5.1,1.8,11.4,3.9,16.8c-1.4,3.4-1.4,6.8,0,10.1c0,3.5,0,7.1,0,10.6c-2.4,2.6,1.2,7.7-3.2,9
			c-4.3,1.2-6.8-2.5-9.6-5.1c-2.6-2.3-4.9-4.9-7.4-7.3c-127.1-127.1-254.2-254.2-381.2-381.4c-4.1-4.1-10.9-7.1-8.9-15
			C1044.9,176,1047.8,177.6,1049.9,175.8z"/>
		<path class="st16" d="M791.5,344.7c-1.6,2.6-2.1,5,0.6,7.4c2.1,1.8,3.9,3.9,5.9,5.9c123.5,123.5,247,247,370.5,370.5
			c3.9,3.9,8,7.7,10.1,13c-14.5,0-29.1,0-43.6,0c-4.7-3.6-8.6-8-12.8-12.2c-119.4-119.4-238.8-238.7-358.1-358.2
			c-4.7-4.7-11.3-8.6-10.5-17c1.9-3.6,5.1-5.3,8.8-6.3c9.3-1.6,18.2-6.3,28.1-4.4C790.8,343.8,791.2,344.2,791.5,344.7z"/>
		<path class="st44" d="M1043.4,177.9c0.1,4.4,3.6,6.6,6.2,9.2c130.7,130.7,261.4,261.3,391.9,392.2c5.8,5.9,9,6.7,11.7-1.9
			c0.7,14.2-0.5,28.2-5.9,41.6c-5.6-0.5-9.4-4-13.1-7.8c-139.5-139.5-279-279-418.5-418.5c-2.4-2.4-5.5-4.4-5.5-8.4
			c9.7-2.2,19.5-4.5,29.2-6.7C1040.8,176.7,1042.2,176.6,1043.4,177.9z"/>
		<path class="st45" d="M1010,741.4c-16.6,0-33.2,0-49.9,0c-4.8-3.5-8.6-8-12.8-12.2c-94.6-94.5-189.1-189.1-283.7-283.7
			c-3.7-3.7-7.8-6.9-10.4-11.5c-0.5-1.5-0.5-3-0.1-4.4c6.2-9.5,12.4-18.9,21.4-26c1-0.1,2-0.1,3,0.2c3.8,1.9,6.4,5.2,9.3,8.1
			c104.5,104.5,209.1,209,313.5,313.6C1004.7,729.9,1011.4,733.3,1010,741.4z"/>
		<path class="st46" d="M754.2,354.7c2,5.4,6,9.2,10,13.1c121,121,242,242,363,363.1c3.1,3.1,7.4,5.4,7.8,10.6
			c-13.9,0-27.7,0-41.6,0c-4.7-3.6-8.6-8-12.8-12.2C964.8,613.5,849,497.8,733.4,382c-4.2-4.2-10.7-7.3-9.2-15.1
			c2.4-3.5,5.5-6.1,9.3-7.9C740.6,358.2,746.1,350.3,754.2,354.7z"/>
		<path class="st47" d="M1010,741.4c-2.1-5.3-6.2-9.1-10.1-13C895,623.5,790.1,518.6,685.3,413.7c-2.9-2.9-5.5-6.2-8.2-9.3
			c3.7-11.6,13.2-17.5,23-23.1c115.3,115.6,230.8,230.9,346.1,346.4c3.7,3.8,9,7,7.5,13.8C1039.2,741.4,1024.6,741.4,1010,741.4z"/>
		<path class="st10" d="M1053.7,741.4c-2.1-5.3-6.2-9.1-10.1-13c-112-112-224-223.9-335.9-335.9c-3.1-3.1-7.4-5.4-7.7-10.6
			c-0.8-1.8,0.3-2.8,1.5-3.8c8-3.1,13.3-12.2,23.5-10.5c0.4,5.1,4.7,7.5,7.8,10.6C850.4,495.7,968,613.2,1085.5,730.9
			c3.1,3.1,7.4,5.4,7.8,10.6C1080.1,741.4,1066.9,741.4,1053.7,741.4z"/>
		<path class="st30" d="M653.9,433.6c2.9,2.4,6,4.7,8.6,7.4c96.9,96.8,193.7,193.7,290.5,290.6c2.8,2.8,6.8,5.1,7.1,9.8
			c-14.6,0-29.1,0-43.7,0c-4.8-3.5-8.6-8-12.8-12.1c-85.2-85.2-170.4-170.4-255.6-255.6c-3.9-3.9-8.5-7.2-10.2-12.9
			c-0.4-2-0.3-4.1,0.3-6.1C642.8,447.2,644.1,437.3,653.9,433.6z"/>
		<path class="st12" d="M639.5,460.3c2.7,3.1,5.2,6.4,8.1,9.4c87,87.1,174,174.1,261,261.2c3.1,3.1,7.4,5.4,7.8,10.6
			c-16,0-31.9,0-47.9,0c-4.5-3.3-8.2-7.5-12.1-11.4C782.8,656.2,709,582.4,635.2,508.6c-3.9-3.9-8.5-7.2-10-13
			c-0.5-2.6-0.3-5.2,0.3-7.8c2.1-6.2,3.8-12.5,6.4-18.6C633.5,465.6,634.4,461.1,639.5,460.3z"/>
		<path class="st48" d="M895.5,256.5c0,4.4,3.3,6.7,6,9.3c150.4,150.5,300.9,300.9,451.3,451.3c2.7,2.7,5,5.9,9.3,6
			c-6.3,5-13.8,7.3-21.2,10.1c-4.9-3.9-9.1-8.5-13.5-13C1182.3,575.1,1037.2,430,892.1,284.8c-3.8-3.9-8.7-7-10.2-12.9
			c0-3.7,2.4-6.4,4.1-9.4C888.7,259.8,890.8,256.1,895.5,256.5z"/>
		<path class="st49" d="M627.2,496c2.7,3.1,5.3,6.4,8.2,9.3c75.1,75.2,150.3,150.3,225.4,225.5c3.1,3.1,7.4,5.4,7.8,10.5
			c-16.7,0-33.4,0-50.1,0c-1.7-1-3.8-0.7-5.5-1.8c-55.9-58.2-114-114.4-170.8-171.8c-1.2-1.2-2.3-2.7-3.7-3.6
			c-12.5-8.7-19.8-19.8-16.5-35.8c0.6-3.2-1.8-6-1.7-9.1C621.4,511.1,618.2,501.8,627.2,496z"/>
		<path class="st48" d="M883.2,271.5c2.8,3.1,5.3,6.3,8.3,9.2c147,147,294,294.1,441,441.2c3.3,3.3,8,5.8,8.5,11.3
			c-6.2,1.4-11.9,5.3-18.7,4.2c-0.1-4.4-3.6-6.5-6.3-9.1c-144.5-144.5-289-289.1-433.5-433.5c-2.9-2.9-5.3-6.6-10.1-6.7
			C871.9,279.8,875.6,274.3,883.2,271.5z"/>
		<path class="st50" d="M1301.4,390.1c-4.4,0-6.6-3.5-9.2-6.1c-65.7-65.6-131.3-131.2-196.9-196.9c-2.6-2.6-6.1-4.8-6.1-9.2
			c0.9-1.5,3-0.6,4.1-1.9c18.8,3.9,38.1,5.5,56.2,12.5c-0.2,4.4,3.2,6.6,5.8,9.3c41.2,41.3,82.6,82.6,123.8,123.9
			c3.4,3.4,6.8,6.9,11.7,8.2c6.3,18.2,9.8,37.2,12.5,56.2C1302.1,387.1,1302.9,389.1,1301.4,390.1z"/>
		<path class="st51" d="M623,520.9c-2.7,17.7,4.2,29.7,17.5,42.5c54.2,51.9,106.5,105.7,159.7,158.7c5.4,5.4,10.5,10.9,14.4,17.5
			c-4.6,2.5-9.8-0.3-14.4,1.8c-12-2.2-24.3-2.5-35.6-7.9c-43.5-46.7-88.7-91.7-135.2-135.4c-4.2-7-3.8-15.3-6.2-22.8
			c-1.9-16.6-2.4-33.3-2.1-50.1C619.5,522.9,619.9,521.3,623,520.9z"/>
		<path class="st52" d="M1058,169.5c-4.4,0-6.6-3.5-9.2-6.1c-44.2-44.2-88.4-88.3-132.6-132.6c-2.6-2.6-6.1-4.8-5.9-9.3
			c29.3,7.9,54.7,23.1,77.5,42.5C1021.1,92.4,1045.4,127.2,1058,169.5z"/>
		<path class="st53" d="M629.3,598.2c5.6,0.5,9.3,4,13,7.8c38.2,38.2,76.3,76.4,114.5,114.5c3.7,3.7,7.3,7.5,7.7,13.1
			c-25.2-5.3-47-18-67-33.3c-32.3-24.8-54.5-57.3-67.2-96C629.7,602.3,629.6,600.2,629.3,598.2z"/>
		<path class="st50" d="M1449.3,539.8c-5.2-0.4-8.8-3.5-12.3-7c-35.9-36-71.9-71.9-107.8-107.9c-3.6-3.6-9.1-7.4-0.8-11.9
			c11.9,6.3,25.3,8.5,37.3,15c43,23.4,69.7,59.2,83.1,105.6C1449.4,535.6,1449.1,537.8,1449.3,539.8z"/>
		<path class="st32" d="M1290.8,329.8c-4.3,3.1-6.8,0.2-9.6-2.6c-43-43.1-86.1-86.1-129.1-129.1c-2.8-2.8-5.7-5.4-2.6-9.6
			c3.9,6.8,11.6,4.4,17.3,7.2c57.1,27.2,97.8,69.8,121.6,128.5C1289.1,326,1290,327.9,1290.8,329.8z"/>
		<path class="st54" d="M398.2,436.3c0.5-1.9,0.5-4.8,3.5-3.5c2.1,0.9,3.8,2.9,5.5,4.6c39.5,39.5,79.1,79,118.5,118.7
			c1.8,1.8,10.5,4.7,1.3,8.9c-25.2-6.3-46.8-19.7-66.6-35.9c-28.3-23.2-48.4-52.5-61.1-86.8C398.5,440.4,398.5,438.3,398.2,436.3z"
			/>
		<path class="st0" d="M1247.3,997.4c-2.3,1.5-1.2,5.2-4.2,6.3c-3.1-0.8-5.4-2.9-7.6-5.1c-20.9-20.9-41.9-41.8-62.8-62.8
			c-1.9-1.9-4-3.8-4.4-6.8c1.5-2.8,2.9-5.5,4.4-8.3c4.6-3,7.1,0.9,9.6,3.4c20.7,20.4,41.2,41,61.7,61.6
			C1247.2,988.9,1250.1,992.4,1247.3,997.4z"/>
		<path class="st1" d="M1247.3,997.4c0.5-3.8-1.4-6.5-4-9c-21.5-21.4-43-42.9-64.4-64.4c-1.7-1.7-3.5-3.3-6.2-3.3c2-2.8,4-5.6,6-8.3
			c4-2.8,6.6,0.2,8.9,2.5c20.4,20,40.6,40.2,60.6,60.6c2.6,2.6,5.5,5.5,3.3,9.9C1251.4,989.8,1250.5,994,1247.3,997.4z"/>
		<path class="st21" d="M523,720.8c0.8-3.1,1.8-6.1,4.4-8.2c4.5-2.9,7.1,0.7,9.7,3.2c20.8,20.5,41.5,41.2,62.1,62
			c2.6,2.6,5.7,5.4,3.2,9.8c-1.3,2.8-3.5,4.9-6.1,6.5C570,771.6,545.5,747.2,523,720.8z"/>
		<path class="st2" d="M764.4,987.1c0.8-3.1,1.8-6.1,4.4-8.2c4.6-3,7.2,0.8,9.7,3.2c20.8,20.4,41.3,41,61.8,61.8
			c2.5,2.6,6,5.2,3.4,9.8c-2,2.3-4,4.6-6,6.8C811.4,1037.9,786.9,1013.5,764.4,987.1z"/>
		<path class="st3" d="M773.2,970.6c2-2.8,4-5.6,6-8.3c4-2.8,6.6,0.2,8.9,2.5c20.4,20,40.6,40.2,60.6,60.6c2.6,2.6,5.5,5.5,3.3,9.9
			c0,2.2,0.3,4.6-1.8,6.2c-3.9,2.7-6.7-0.1-9-2.4C818.4,1016.3,795.2,994.1,773.2,970.6z"/>
		<path class="st3" d="M610.7,768.9c0,2.3,0.2,4.6-1.9,6.2c-5.2,1.3-8.5-2.3-11.5-5.2c-22.1-21.6-44.3-43.1-65.5-65.6
			c2-2.8,4-5.6,6-8.3c4-2.8,6.6,0.2,8.9,2.5c20.4,20,40.6,40.2,60.6,60.6C609.9,761.6,612.9,764.5,610.7,768.9z"/>
		<path class="st0" d="M531.8,704.3c4.4,0.1,6.5,3.7,9.1,6.3c16.8,16.7,33.7,33.5,50.4,50.4c5.3,5.4,10.9,10.4,17.5,14.2
			c-0.2,5.2-3.2,8.9-6.5,12.5c0-3.5-2.3-5.6-4.5-7.8c-20.9-20.9-41.8-41.8-62.7-62.7c-2.2-2.2-4.2-4.7-7.7-4.6
			C528.9,709.8,530.4,707.1,531.8,704.3z"/>
		<path class="st0" d="M773.2,970.6c4.4,0.1,6.5,3.7,9.1,6.3c19.3,19.2,38.6,38.6,57.9,57.8c2.9,2.8,5.2,6.7,10,6.7
			c-0.3,5.1-2.8,9-6.5,12.2c0-3.1-2-5-4-7c-21.3-21.3-42.6-42.6-63.9-63.9c-2-2-3.9-4-7-3.9C770.3,976.2,771.7,973.4,773.2,970.6z"
			/>
		<path class="st2" d="M1168.3,929c25.8,24,50.6,49.1,74.8,74.7c-2.3,2-2.7,5.6-5.9,6.9c-26.3-22.6-50.8-47-73.3-73.4
			C1164.6,934.1,1165.7,931.1,1168.3,929z"/>
		<path class="st2" d="M968.4,903.8c-2.3,2-2.7,5.6-5.9,6.8c-26.2-22.6-50.8-46.8-73-73.2c0.5-3.2,1.5-6.2,3.9-8.5
			c4.7-1.3,6.9,2.4,9.4,4.9c20.3,20.1,40.4,40.3,60.5,60.5C965.9,897,969.4,899.3,968.4,903.8z"/>
		<path class="st1" d="M976.9,885.4c0,2.3,0.2,4.7-2,6.4c-4.2,0-7-2.7-9.7-5.4c-20.7-20.5-41.2-41-61.7-61.7
			c-1.7-1.7-3.4-3.5-3.7-6.1c1.4-2.1,2.8-4.2,4.2-6.2c3.4-2.6,6-0.3,8.2,1.8c21.6,21.5,43.7,42.5,64.4,64.9c0.4,0.5,0.6,1.2,0.9,1.9
			C977.9,882.6,978,884.1,976.9,885.4z"/>
		<path class="st4" d="M1163.9,937.2c25.4,23.5,49.9,47.9,73.3,73.4c-1.7,2.5-3.6,4.6-6.6,5.6c-2.7-0.8-4.9-2.4-6.9-4.4
			c-19.8-19.7-39.5-39.4-59.2-59.2c-2-2-3.7-4.1-4.3-6.9C1161.6,942.9,1161.3,939.5,1163.9,937.2z"/>
		<path class="st5" d="M852,1035.2c0-3-1.8-5.1-3.8-7c-20.7-20.7-41.4-41.3-62-62c-2-2-3.9-4-7-3.9c2.1-2.8,4.3-5.5,6.4-8.3
			c4.2-1.1,6.3,2.1,8.7,4.4c17.7,17.5,35.2,35.2,52.9,52.7c3.3,3.3,5.4,7.1,6.7,11.4C853.6,1026.8,855.4,1031.4,852,1035.2z"/>
		<path class="st5" d="M1251.6,985.3c0-3-1.8-5-3.8-7c-20.7-20.7-41.4-41.3-62.1-62c-2-2-3.9-4-7-3.9c2.1-2.8,4.3-5.5,6.4-8.3
			c4.2-1.1,6.3,2.1,8.7,4.4c17.7,17.5,35.2,35.2,52.9,52.7c3.3,3.3,5.4,7.1,6.7,11.4C1253.1,976.9,1254.9,981.5,1251.6,985.3z"/>
		<path class="st5" d="M610.7,768.9c0-3-1.8-5-3.8-7c-20.7-20.7-41.4-41.3-62-62c-2-2-3.9-4-7-3.9c2.1-2.8,4.3-5.5,6.4-8.3
			c4.2-1.1,6.3,2.1,8.7,4.4c17.7,17.5,35.2,35.2,52.9,52.7c3.3,3.3,5.4,7.1,6.7,11.4C612.3,760.5,614,765.1,610.7,768.9z"/>
		<path class="st6" d="M1160.3,945.7c24.1,22.8,47.7,46.2,70.3,70.5c-2.6,1.8-4.8,4.3-8.3,4.2c-5.2-2.3-8.9-6.4-12.8-10.3
			c-13.7-13.7-27.4-27.3-41-41.1c-3.7-3.8-7.7-6.9-12.6-8.9C1155.9,954.9,1157.9,950.3,1160.3,945.7z"/>
		<path class="st5" d="M976.8,881.1c-20.9-20.6-41.8-41.2-62.8-61.8c-2.9-2.8-5.1-6.8-9.9-6.9c2.1-2.8,4.2-5.5,6.4-8.3
			c4.6-1.1,6.9,2.5,9.5,5.1c17.2,17,34.2,34.3,51.5,51.3C977.5,866.5,979.7,873.1,976.8,881.1z"/>
		<path class="st7" d="M976.8,881.1c1.4-8.3-2.1-14.1-8.1-19.8c-19.7-18.8-38.9-38-58.3-57.1c1.4-3.7,5.1-4.7,8-6.6
			c5.3,1.5,8.2,6.1,11.8,9.7c14.8,14.9,30.1,29.3,44.3,44.7c2.7,11,7.5,21.9,2.3,33.5C976.9,884,976.8,882.6,976.8,881.1z"/>
		<path class="st7" d="M1253.3,972.6c-21.7-23.8-44.8-46.4-68.2-68.5c1.4-3.7,5.1-4.7,8-6.6c5.3,1.5,8.2,6.1,11.8,9.7
			c14.8,14.9,30.1,29.3,44.3,44.7C1250.9,958.7,1253.9,965.3,1253.3,972.6z"/>
		<path class="st7" d="M853.8,1022.5c-21.7-23.8-44.8-46.4-68.2-68.5c1.4-3.7,5.1-4.7,8-6.6c5.3,1.5,8.2,6.1,11.8,9.7
			c14.8,14.9,30.1,29.3,44.3,44.7C851.4,1008.6,854.4,1015.2,853.8,1022.5z"/>
		<path class="st7" d="M612.5,756.2c-21.7-23.8-44.8-46.4-68.2-68.5c1.4-3.7,5.1-4.7,8-6.6c5.3,1.5,8.2,6.1,11.8,9.7
			c14.8,14.9,30,29.3,44.3,44.7C610,742.3,613,748.9,612.5,756.2z"/>
		<path class="st8" d="M1156,960.2c3-2,5.5-1.7,8.2,1c19.3,19.8,38.8,39.5,58.2,59.2c-5.5,1.4-10.4,5.3-16.5,4
			c1.1-3.2,0.2-5.5-2.3-8c-14-13.7-27.8-27.5-41.5-41.5c-2.4-2.5-4.8-3.5-8-2.3C1153.1,968.2,1154.8,964.2,1156,960.2z"/>
		<path class="st9" d="M758.6,1001.8c0.7-2.1,1.4-4.2,2.1-6.2c4-3.1,7.3-0.8,10,1.8c20.4,19.9,40.6,40.1,60.5,60.5
			c1.7,1.7,3.2,3.7,2.1,6.4c-1.5,2.4-3.4,4.1-6.4,3.8c-2-0.6-3.9-1.4-5.4-3C800.5,1044.1,779,1023.5,758.6,1001.8z"/>
		<path class="st22" d="M517.3,735.5c0.7-2.1,1.4-4.2,2.1-6.2c4-3.1,7.3-0.8,10,1.8c20.4,19.9,40.6,40.1,60.5,60.5
			c1.7,1.7,3.2,3.7,2.1,6.4c-1.5,2.4-3.4,4-6.4,3.8c-2-0.6-3.9-1.4-5.4-3C559.2,777.7,537.7,757.2,517.3,735.5z"/>
		<path class="st10" d="M958,914.2c-2.2,1.2-2.8,4.8-6.2,4.1c-2-0.6-3.9-1.4-5.4-3c-21-21.1-42.5-41.6-62.9-63.3
			c0.7-2.1,1.4-4.2,2.1-6.2c4-3.1,7.3-0.8,10,1.9c20.3,19.8,40.3,39.8,60.1,60.1C957.4,909.4,959,911.4,958,914.2z"/>
		<path class="st11" d="M517.3,735.5c1.5,0.6,3.5,0.9,4.6,2c21.3,21.4,42.5,42.9,63.7,64.3c-2.8,1.3-5.5,2.7-8.3,4
			c-21.3-20.1-41.8-41-62.2-62C514.6,740.7,515.7,738.1,517.3,735.5z"/>
		<path class="st11" d="M758.6,1001.8c1.5,0.6,3.5,0.9,4.6,2c21.3,21.4,42.5,42.9,63.7,64.3c-2.8,1.3-5.5,2.7-8.3,4
			c-21.3-20.1-41.8-40.9-62.2-62C756,1007.1,757.1,1004.4,758.6,1001.8z"/>
		<path class="st12" d="M806.3,1074.3c-4.4,0.1-8.9,1.4-12.8-1.6c0.3-3-1.2-5.3-3.2-7.3c-8.9-9.1-17.8-18-26.9-26.9
			c-2-1.9-4.3-3.4-7.3-3.1c-3-4-1.7-8.5-1.6-12.9c2.8-9.1,7.5-4.7,11.2-1.1c13,12.4,25.5,25.3,38.2,38c2.2,2.2,4.5,4.3,6.2,6.9
			C813,1070.9,811,1073.3,806.3,1074.3z"/>
		<path class="st12" d="M1154,972.6c1.9-3,2.7-6.7,7.5-1.8c15,15.7,30.4,31.1,46.1,46.1c5,4.7,1.2,5.6-1.7,7.5
			c-4.4,0.1-8.9,1.4-12.9-1.6c0.8-2.2,0.3-4-1.3-5.6c-10.1-10.2-20.2-20.3-30.4-30.4c-1.6-1.6-3.4-2.2-5.6-1.3
			C1152.6,981.5,1153.9,977,1154,972.6z"/>
		<path class="st12" d="M514.8,769c-3-4-1.7-8.5-1.6-12.9c2.8-9,7.5-4.7,11.2-1.1c13,12.4,25.5,25.3,38.2,38
			c2.2,2.2,4.5,4.3,6.2,6.9c3,4.6,1,7-3.8,8c-4.4,0.1-8.9,1.4-12.8-1.6c0.3-3-1.2-5.3-3.2-7.3c-8.9-9-17.8-18-26.9-26.9
			C520.1,770.2,517.8,768.7,514.8,769z"/>
		<path class="st12" d="M881,885.6c-3-4-1.7-8.5-1.6-12.9c2.8-9,7.5-4.7,11.2-1.1c13,12.4,25.5,25.3,38.2,38
			c2.2,2.2,4.5,4.3,6.2,6.9c3,4.6,1,7-3.8,8c-4.4,0.1-8.9,1.4-12.9-1.6c0.3-3-1.2-5.3-3.1-7.3c-8.9-9-17.8-18-26.9-26.9
			C886.3,886.7,884,885.3,881,885.6z"/>
		<path class="st8" d="M931.1,924.5c3-2.4,4.7-4.5,1-8.1c-15-14.7-29.9-29.6-44.6-44.6c-3.6-3.7-5.7-2.1-8.1,1
			c-0.9-4.4,0.8-8.3,1.9-12.4c5.7-3.1,9.2,1.1,12.5,4.2c15.4,14.8,30.5,29.9,45.3,45.3c3.1,3.2,7.5,6.8,4.3,12.5
			C939.5,923.6,935.6,925.4,931.1,924.5z"/>
		<path class="st13" d="M974.6,852c-9.5-4.2-15.4-12.6-22.4-19.6c-11.4-11.5-23.7-22-33.8-34.8c1.3-2.5,3.4-3.9,6.3-4
			c5-1.2,7.3,2.9,10.1,5.6c10,9.8,19.9,19.7,29.5,29.8C969.2,836.1,972.1,843.9,974.6,852z"/>
		<path class="st14" d="M899.8,818.7c19.8,19.4,39.5,38.8,59.3,58.2c5.2,5.1,10.5,9.9,15.8,14.9c0,3.5-1.1,6.5-4.1,8.5
			c-25.1-25-50.4-49.8-75-75.3C897.2,822.9,898.5,820.8,899.8,818.7z"/>
		<path class="st15" d="M895.8,825c3.1,0,5,2,7,4c21.2,21.2,42.4,42.4,63.6,63.5c2.2,2.2,4.4,4.4,4.5,7.8c-0.2,1.6-0.6,3-2.4,3.5
			c-24.3-25.7-49.1-50.8-75-74.9C894.2,827.6,895,826.3,895.8,825z"/>
		<path class="st16" d="M592,798c-20.6-23.1-43.5-44-65.1-66.2c-2.1-2.2-4.6-2.8-7.5-2.6c1.3-2.8,1-6.2,3.6-8.4
			c25.4,23.5,49.9,47.9,73.3,73.4C594.9,795.4,593.4,796.7,592,798z"/>
		<path class="st4" d="M833.3,1064.4c-20.6-23.1-43.5-44-65.1-66.2c-2.1-2.2-4.6-2.8-7.5-2.6c1.3-2.8,1-6.2,3.6-8.4
			c25.4,23.5,49.9,47.9,73.3,73.4C836.2,1061.8,834.8,1063.1,833.3,1064.4z"/>
		<path class="st16" d="M958,914.2c-21.4-21.7-42.8-43.3-64.1-65c-2.3-2.4-5-3.7-8.3-3.3c1.2-2.8,1.3-6.2,3.9-8.3
			c25.2,23.6,49.8,47.8,73,73.2C961.4,912.4,960.3,914,958,914.2z"/>
		<path class="st17" d="M1155.6,985.5c0.8-2.1-1.1-8.5,4.4-3.2c12.2,11.8,24.2,23.8,36,36c5.3,5.5-0.9,3.8-3.1,4.5
			C1173.7,1019.3,1159.1,1004.7,1155.6,985.5z"/>
		<path class="st18" d="M1029.3,1014.4c1.3-2.1,2.7-4.2,4-6.3c3.5-2.6,5.9-0.1,8.1,2c13.4,12.9,26.6,26.1,39.5,39.5
			c1.6,1.7,3.2,3.7,2.1,6.4c-1.8,3-2.6,6.8-6.2,8.5c-14.2-13.6-27.8-27.7-41.7-41.6C1032.6,1020.4,1030.6,1017.6,1029.3,1014.4z"/>
		<path class="st18" d="M650.2,956.1c-1.8,3-2.6,6.8-6.2,8.5c-14.2-13.6-27.8-27.7-41.7-41.6c-2.5-2.5-4.5-5.2-5.8-8.5
			c1.3-2.1,2.7-4.2,4-6.3c3.5-2.6,6-0.1,8.1,2c13.4,12.9,26.5,26.1,39.5,39.5C649.7,951.3,651.2,953.3,650.2,956.1z"/>
		<path class="st18" d="M750,856.2c-1.8,3-2.6,6.8-6.2,8.5c-14.2-13.6-27.8-27.7-41.7-41.6c-2.5-2.5-4.5-5.2-5.8-8.5
			c1.3-2.1,2.7-4.2,4-6.3c3.5-2.6,6-0.1,8.1,2c13.4,12.9,26.5,26.1,39.5,39.5C749.5,851.4,751.1,853.5,750,856.2z"/>
		<path class="st19" d="M881,885.6c0.8-5.2,3.3-4.4,6.1-1.6c11,10.9,21.9,21.8,32.8,32.8c2.8,2.8,3.8,5.3-1.5,6.1
			C899,919.4,884.4,904.9,881,885.6z"/>
		<path class="st19" d="M756.1,1035.4c0.8-5.3,3.3-4.3,6.1-1.6c11,10.9,21.9,21.8,32.8,32.8c2.8,2.8,3.8,5.3-1.5,6.1
			C774.2,1069.3,759.6,1054.7,756.1,1035.4z"/>
		<path class="st19" d="M514.8,769c0.8-5.3,3.3-4.3,6.1-1.6c11,10.9,21.9,21.8,32.8,32.8c2.8,2.8,3.8,5.3-1.5,6.1
			C532.8,802.9,518.2,788.3,514.8,769z"/>
		<path class="st11" d="M943.5,922.4c-0.6-4.7-3.3-8.2-6.6-11.5c-14.7-14.7-29.4-29.4-44.1-44.1c-3.2-3.3-6.8-5.9-11.5-6.5
			c-0.5-3.1,0.7-5.8,2.2-8.3c1.5,0.6,3.5,0.9,4.6,2c21.3,21.4,42.5,42.9,63.7,64.3C949,919.6,946.3,921,943.5,922.4z"/>
		<path class="st23" d="M608.3,735.5c-1.3-0.4-3-0.4-3.8-1.3c-17.5-17.6-36-34.3-52.3-53.1c1.3-2.5,3.4-3.9,6.3-4
			c1.9-1,3.5-0.1,4.5,1.2c11.4,13.7,25.4,24.9,37.1,38.4C601.8,723.4,608,728.2,608.3,735.5z"/>
		<path class="st13" d="M1249.2,951.8c-9.5-4.1-15.4-12.6-22.4-19.6c-11.4-11.5-23.7-22-33.8-34.8c1.3-2.5,3.4-3.9,6.3-4
			c1.9-1,3.5-0.1,4.5,1.2c11.4,13.7,25.4,24.9,37.1,38.4C1242.6,939.9,1248.9,944.5,1249.2,951.8z"/>
		<path class="st13" d="M849.7,1001.8c-9.5-4.1-15.4-12.6-22.4-19.6c-11.4-11.5-23.7-22-33.8-34.8c1.3-2.5,3.4-3.9,6.3-4
			c1.9-1,3.5-0.1,4.5,1.2c11.4,13.7,25.4,24.9,37.1,38.4C843.1,989.8,849.4,994.5,849.7,1001.8z"/>
		<path class="st8" d="M806.3,1074.3c3-2.4,4.7-4.5,1-8.1c-15-14.7-29.9-29.6-44.6-44.6c-3.6-3.7-5.7-2.1-8.1,0.9
			c-0.9-4.4,0.8-8.3,1.9-12.4c0.7,0.1,1.6,0,2,0.4c21,18.8,40.8,38.8,59.8,59.6c0.4,0.4,0.3,1.3,0.4,2
			C814.6,1073.5,810.7,1075.2,806.3,1074.3z"/>
		<path class="st8" d="M564.9,808c3-2.4,4.7-4.5,1-8.1c-15-14.7-29.9-29.6-44.6-44.6c-3.6-3.7-5.7-2.1-8.1,0.9
			c-0.9-4.4,0.8-8.3,2-12.4c0.7,0.1,1.6,0,2,0.4c21,18.8,40.8,38.8,59.8,59.7c0.4,0.4,0.3,1.3,0.4,2
			C573.3,807.1,569.3,808.9,564.9,808z"/>
		<path class="st18" d="M1330.5,860.2c-1.3,1.5-2.7,3-4,4.5c-14.7-14.1-28.8-28.8-43.2-43.1c-2-2-3.7-4.1-4.3-6.9
			c1.3-2.1,2.7-4.2,4-6.3c3.7-1.1,5.8,1.5,7.9,3.6c12.3,12,24.4,24.2,36.5,36.4C1330.6,851.7,1333.6,855.2,1330.5,860.2z"/>
		<path class="st3" d="M1135.1,850.1c0,4-1.1,7.5-4.3,10.1c-11.8-15-26.4-27.4-39.5-41.2c-3.1-3.2-6.9-5.9-8-10.6
			c0.6-2,1.8-3.5,3.7-4.4c2.8-2.1,5.4-0.8,7.4,1.2c13.9,13.8,28.8,26.7,41,42.1C1135.8,848.3,1135.7,849.2,1135.1,850.1z"/>
		<path class="st3" d="M1330.5,860.2c0.3-3.3-0.8-6-3.2-8.3c-14.8-14.4-29.6-29-44.4-43.4c0.6-2,1.8-3.5,3.7-4.4
			c2.8-2.1,5.4-0.8,7.4,1.2c13.9,13.8,28.8,26.7,41,42.1c0.4,1,0.3,1.9-0.3,2.8C1334.8,854,1333.8,857.6,1330.5,860.2z"/>
		<path class="st18" d="M1083.3,808.4c14.8,14.5,29.5,29,44.3,43.4c2.4,2.4,3.5,5,3.2,8.3c-0.7,2.1-2.1,3.6-4,4.5
			c-14.7-14.1-28.8-28.8-43.2-43.1c-2-2-3.7-4.1-4.3-6.9C1080.6,812.6,1081.9,810.5,1083.3,808.4z"/>
		<path class="st20" d="M1241,933.1c-16.3-10.6-28.3-25.8-41.6-39.6c9-5.4,14.8,2.1,19.4,6.7C1228.1,909.6,1236.5,920.2,1241,933.1z
			"/>
		<path class="st20" d="M600.1,716.7c-16.3-10.6-28.3-25.8-41.6-39.6c9-5.4,14.8,2.1,19.4,6.7C587.2,693.2,595.6,703.8,600.1,716.7z
			"/>
		<path class="st20" d="M841.5,983.1c-16.3-10.6-28.3-25.8-41.6-39.6c9-5.4,14.8,2.1,19.4,6.7C828.6,959.6,837,970.2,841.5,983.1z"
			/>
		<path class="st24" d="M596.5,914.5c15.5,15.4,31,30.8,46.4,46.2c0.8,0.8,0.8,2.6,1.1,3.9c-1.4,1.3-2.9,2.5-4.3,3.8
			c-14.7-13.7-28.5-28.3-42.8-42.5c-1.5-1.5-2.8-3.1-3.1-5.3C594.7,918.6,595.6,916.5,596.5,914.5z"/>
		<path class="st24" d="M1029.3,1014.4c15.5,15.4,31,30.7,46.4,46.2c0.8,0.8,0.8,2.6,1.1,3.9c-1.4,1.3-2.9,2.5-4.3,3.8
			c-14.7-13.7-28.5-28.3-42.8-42.4c-1.5-1.5-2.8-3.1-3.1-5.3C1027.5,1018.4,1028.4,1016.4,1029.3,1014.4z"/>
		<path class="st24" d="M696.4,814.6c15.5,15.4,31,30.8,46.4,46.2c0.8,0.8,0.8,2.6,1.1,3.9c-1.4,1.3-2.9,2.5-4.3,3.8
			c-14.7-13.7-28.5-28.3-42.8-42.5c-1.5-1.5-2.8-3.1-3.1-5.3C694.6,818.7,695.5,816.6,696.4,814.6z"/>
		<path class="st3" d="M750,856.2c-15-15.3-30-30.7-45-45.9c-1.1-1.1-3.1-1.3-4.6-2c0.6-2,1.8-3.4,3.7-4.3c2.8-2.1,5.4-0.8,7.4,1.2
			c13.9,13.8,28.8,26.7,41,42.1c0.5,1,0.3,1.9-0.3,2.8C752.2,852.3,752.3,854.7,750,856.2z"/>
		<path class="st3" d="M650.2,956.1c-15-15.3-30-30.7-45-45.9c-1.1-1.1-3.1-1.3-4.6-2c0.6-2,1.8-3.4,3.7-4.3
			c2.9-2.1,5.4-0.8,7.4,1.2c13.9,13.8,28.8,26.7,41,42.1c0.5,1,0.3,1.9-0.3,2.8C652.3,952.2,652.4,954.6,650.2,956.1z"/>
		<path class="st3" d="M1083,1055.9c-15-15.3-30-30.7-45-45.9c-1.1-1.1-3.1-1.3-4.6-2c0.6-2,1.8-3.4,3.7-4.3
			c2.8-2.1,5.4-0.8,7.4,1.2c13.9,13.8,28.8,26.7,41,42.1c0.4,1,0.3,1.9-0.3,2.8C1085.1,1052.1,1085.2,1054.4,1083,1055.9z"/>
		<path class="st24" d="M1079.2,814.7c14.8,14.6,29.6,29.1,44.4,43.7c1.8,1.8,3.1,3.8,3.1,6.3c-1.4,1.3-2.8,2.5-4.3,3.8
			c-14.7-13.7-28.5-28.3-42.8-42.4c-1.5-1.5-2.8-3.1-3.1-5.3C1077.5,818.7,1078.3,816.7,1079.2,814.7z"/>
		<path class="st24" d="M1278.9,814.7c14.8,14.6,29.6,29.1,44.4,43.7c1.8,1.8,3.1,3.8,3.1,6.3c-1.4,1.3-2.8,2.5-4.3,3.8
			c-14.7-13.7-28.5-28.3-42.8-42.4c-1.5-1.5-2.8-3.1-3.1-5.3C1277.2,818.7,1278.1,816.7,1278.9,814.7z"/>
		<path class="st25" d="M1049.6,993.4c5.5-4.5,9.9-0.7,13.6,2.5c10.3,8.8,18.1,19.6,21.6,32.9c-3.5,1.2-6-1-8.3-2.8
			c-9.1-7.2-17-15.7-24.7-24.3C1049.9,999.5,1048,996.8,1049.6,993.4z"/>
		<path class="st25" d="M716.7,793.6c5.5-4.5,9.9-0.7,13.6,2.5c10.3,8.8,18,19.6,21.6,32.9c-3.5,1.2-6-1-8.3-2.8
			c-9.1-7.2-17-15.7-24.7-24.3C717,799.7,715.1,797,716.7,793.6z"/>
		<path class="st25" d="M1099.6,793.6c5.5-4.5,9.9-0.7,13.6,2.5c10.3,8.8,18.1,19.6,21.6,32.9c-3.5,1.2-6-1-8.3-2.8
			c-9.1-7.2-17-15.7-24.7-24.3C1099.8,799.7,1097.9,797,1099.6,793.6z"/>
		<path class="st25" d="M1299.3,793.6c5.5-4.5,9.9-0.7,13.6,2.5c10.3,8.8,18.1,19.6,21.6,32.9c-3.5,1.2-6-1-8.3-2.8
			c-9.1-7.2-17-15.7-24.7-24.3C1299.6,799.7,1297.7,797,1299.3,793.6z"/>
		<path class="st26" d="M716.7,793.6c9,14.5,21.4,25.7,35.2,35.4c1.9,7,4.4,13.9,0.3,21c0-0.7-0.1-1.5-0.1-2.2
			c-4.5-10.6-13.8-17-21.3-25.1c-7.3-7.8-15.5-14.8-22.5-22.8C710.3,796.7,712.5,793.8,716.7,793.6z"/>
		<path class="st27" d="M593.9,920.6c15.7,13.3,29.4,28.7,44,43.1c1.1,1.1,1.3,3.1,1.9,4.6c-0.9,1.6-2.3,2.2-4.1,2.3
			c-8.3-3.5-12.9-11.2-19.2-16.9c-8.9-8.1-16.5-17.7-26.3-24.8C590.2,925.7,591.5,922.9,593.9,920.6z"/>
		<path class="st26" d="M1099.6,793.6c9,14.5,21.4,25.7,35.2,35.4c1.9,7,4.4,13.9,0.3,21c0-0.7-0.1-1.5-0.1-2.2
			c-4.4-10.6-13.8-17-21.3-25.1c-7.3-7.8-15.5-14.8-22.5-22.8C1093.1,796.7,1095.3,793.8,1099.6,793.6z"/>
		<path class="st27" d="M1276.3,820.7c15.7,13.3,29.3,28.7,44,43.1c1.1,1.1,1.3,3,1.9,4.6c-0.9,1.6-2.3,2.2-4.1,2.3
			c-8.3-3.5-12.9-11.2-19.2-16.9c-8.9-8.1-16.5-17.7-26.3-24.8C1272.7,825.8,1274,823,1276.3,820.7z"/>
		<path class="st27" d="M1076.6,820.7c15.7,13.3,29.3,28.7,44,43.1c1.1,1.1,1.3,3.1,1.9,4.6c-0.9,1.6-2.3,2.2-4.1,2.3
			c-8.3-3.5-12.9-11.2-19.2-16.9c-8.9-8.1-16.5-17.7-26.3-24.8C1073,825.8,1074.2,823,1076.6,820.7z"/>
		<path class="st27" d="M693.7,820.7c15.7,13.3,29.4,28.7,44,43.1c1.1,1.1,1.3,3.1,1.9,4.6c-0.9,1.6-2.3,2.2-4.1,2.3
			c-8.3-3.5-12.9-11.2-19.2-16.9c-8.9-8.1-16.5-17.7-26.3-24.8C690.1,825.8,691.3,823,693.7,820.7z"/>
		<path class="st26" d="M1049.6,993.4c9,14.5,21.4,25.7,35.2,35.4c1.9,7,4.4,13.9,0.3,21c0-0.7-0.1-1.5-0.1-2.2
			c-4.4-10.6-13.8-17-21.3-25.1c-7.3-7.8-15.5-14.8-22.5-22.8C1043.2,996.5,1045.4,993.6,1049.6,993.4z"/>
		<path class="st26" d="M1299.3,793.6c9,14.5,21.4,25.7,35.2,35.4c1.9,7,4.4,13.9,0.3,21c0-0.7-0.1-1.5-0.1-2.2
			c-4.4-10.6-13.8-17-21.3-25.1c-7.3-7.8-15.5-14.8-22.5-22.8C1292.9,796.7,1295.1,793.8,1299.3,793.6z"/>
		<path class="st27" d="M1026.7,1020.5c15.7,13.3,29.4,28.7,44,43.1c1.1,1.1,1.3,3.1,1.9,4.6c-0.9,1.6-2.3,2.2-4.1,2.3
			c-8.3-3.5-12.9-11.2-19.2-16.9c-8.9-8.1-16.5-17.7-26.3-24.8C1023,1025.5,1024.3,1022.7,1026.7,1020.5z"/>
		<path class="st28" d="M1045.2,1072.7c-12.5-2.6-20.1-10.1-22.7-22.7c-1-3-2.3-6.7,0.6-8.5c3.1-1.9,5.7,1.4,7.9,3.5
			c6.6,6.2,12.9,12.6,19.1,19.1c2.1,2.2,5.4,4.8,3.5,7.9C1051.8,1075,1048.1,1073.7,1045.2,1072.7z"/>
		<path class="st28" d="M612.4,972.8c-12.5-2.6-20.1-10.1-22.7-22.7c-1-3-2.3-6.7,0.6-8.5c3.1-1.9,5.7,1.4,7.9,3.5
			c6.6,6.2,12.9,12.6,19.1,19.1c2.1,2.2,5.4,4.8,3.5,7.9C619,975.1,615.3,973.9,612.4,972.8z"/>
		<path class="st28" d="M1294.8,872.9c-12.5-2.6-20.1-10.1-22.7-22.7c-1-3-2.3-6.7,0.6-8.5c3.1-1.9,5.7,1.4,7.9,3.5
			c6.6,6.2,12.9,12.6,19.1,19.1c2.1,2.2,5.4,4.8,3.5,7.9C1301.5,875.2,1297.8,874,1294.8,872.9z"/>
		<path class="st28" d="M712.2,872.9c-12.5-2.6-20.1-10.1-22.7-22.7c-1-3-2.3-6.7,0.6-8.5c3.1-1.9,5.7,1.4,7.9,3.5
			c6.6,6.2,12.9,12.6,19.1,19.1c2.1,2.2,5.4,4.8,3.5,7.9C718.9,875.2,715.2,874,712.2,872.9z"/>
		<path class="st28" d="M1095.1,872.9c-12.5-2.6-20.1-10.1-22.7-22.7c-1-3-2.3-6.7,0.7-8.5c3.1-1.9,5.7,1.4,7.9,3.5
			c6.6,6.2,12.9,12.6,19.1,19.1c2.1,2.2,5.4,4.8,3.5,7.9C1101.8,875.2,1098.1,874,1095.1,872.9z"/>
		<path class="st29" d="M708.2,799.9c5.9,0.4,8.5,5.5,12.1,9c9,8.6,17.5,17.6,26.5,26.2c3.8,3.6,6.1,7.4,5.2,12.7
			c-12.7-12.4-25.4-24.8-38.1-37.1c-2.9-2.8-5.1-6.6-9.9-6.7C705.5,802.7,706.9,801.3,708.2,799.9z"/>
		<path class="st29" d="M1290.9,799.9c5.9,0.4,8.5,5.5,12.1,9c8.9,8.6,17.5,17.6,26.5,26.2c3.8,3.6,6.1,7.4,5.2,12.7
			c-12.7-12.4-25.4-24.8-38.1-37.1c-2.9-2.8-5.1-6.6-9.9-6.7C1288.1,802.7,1289.5,801.3,1290.9,799.9z"/>
		<path class="st26" d="M652.3,949.9c0-0.7-0.1-1.5-0.1-2.2c-4.5-10.6-13.8-17-21.3-25.1c-7.3-7.8-15.5-14.8-22.5-22.8
			c1.4-1.4,2.9-2.7,4.3-4.1c3.9-2.2,6.7,0.3,8.9,2.6c10.5,10.7,22.3,20.1,30.6,32.8C654.9,937.3,655.8,943.6,652.3,949.9z"/>
		<path class="st29" d="M608.4,899.8c5.9,0.4,8.5,5.5,12.1,9c9,8.6,17.5,17.6,26.5,26.2c3.8,3.6,6.1,7.4,5.2,12.7
			c-12.7-12.4-25.4-24.8-38.1-37.1c-2.9-2.8-5.1-6.6-9.9-6.7C605.6,902.5,607,901.2,608.4,899.8z"/>
		<path class="st29" d="M1091.1,799.9c5.9,0.4,8.5,5.5,12.1,9c8.9,8.6,17.5,17.6,26.5,26.2c3.8,3.6,6.1,7.4,5.2,12.7
			c-12.7-12.4-25.4-24.8-38.1-37.1c-2.9-2.8-5.1-6.6-9.9-6.7C1088.3,802.7,1089.7,801.3,1091.1,799.9z"/>
		<path class="st29" d="M1041.2,999.7c5.9,0.4,8.5,5.5,12.1,9c8.9,8.6,17.5,17.6,26.5,26.2c3.8,3.6,6.1,7.4,5.2,12.7
			c-12.7-12.4-25.4-24.8-38.1-37.1c-2.9-2.8-5.1-6.6-9.9-6.7C1038.4,1002.4,1039.8,1001,1041.2,999.7z"/>
		<path class="st30" d="M712.2,872.9c2.3-0.2,4.7-0.3,7.9-0.6c-10.5-9.6-20.3-18.6-30.7-28.1c-0.8,0.6,0.8,3.6,0.1,5.9
			c-3-5.7-2.8-11.4-0.2-17.2c8.9,2.2,37.4,30.6,39.8,39.7C723.6,875.8,717.9,876,712.2,872.9z"/>
		<path class="st30" d="M1095.1,872.9c2.3-0.2,4.7-0.3,10.5-0.7c-6.9-6.3-12.1-10.8-16.9-15.6c-4.6-4.6-8.8-9.7-13.3-14.8
			c-3.9,3.1-2.4,6-3.1,8.4c-3-5.7-2.8-11.4-0.2-17.2c8.9,2.2,37.4,30.6,39.8,39.7C1106.4,875.8,1100.8,876,1095.1,872.9z"/>
		<path class="st30" d="M612.4,972.8c2.3-0.2,4.7-0.3,6.7-0.5c-9.7-9.4-19.2-18.6-29.2-28.4c-1,0.8,0.5,3.8-0.2,6.2
			c-3-5.7-2.8-11.4-0.2-17.2c8.9,2.2,37.4,30.6,39.8,39.7C623.7,975.7,618,975.9,612.4,972.8z"/>
		<path class="st30" d="M1045.2,1072.7c2.3-0.2,4.7-0.3,6.7-0.5c-9.7-9.4-19.2-18.6-29.2-28.4c-1,0.8,0.5,3.8-0.2,6.2
			c-3-5.7-2.8-11.4-0.2-17.2c8.9,2.2,37.4,30.6,39.8,39.7C1056.5,1075.5,1050.8,1075.8,1045.2,1072.7z"/>
		<path class="st30" d="M1294.8,872.9c2.3-0.2,4.7-0.3,10.5-0.7c-6.9-6.3-12.1-10.8-16.9-15.6c-4.6-4.6-8.8-9.7-13.3-14.8
			c-3.9,3.1-2.4,6-3.1,8.4c-3-5.7-2.8-11.4-0.2-17.2c8.9,2.2,37.4,30.6,39.8,39.7C1306.2,875.8,1300.5,876,1294.8,872.9z"/>
		<path class="st11" d="M1311.8,872.8c-12.4-14.1-25.6-27.5-39.8-39.7c0.2-1.3,0.4-2.7,0.6-4c1.9-1.1,3.7-1.3,5.5,0.6
			c13.3,13.8,26.7,27.4,40,41.1C1316.5,872.9,1314.2,873,1311.8,872.8z"/>
		<path class="st11" d="M629.3,972.7c-12.4-14.1-25.6-27.5-39.8-39.7c0.2-1.3,0.4-2.7,0.6-4c2-1.1,3.7-1.3,5.5,0.6
			c13.3,13.8,26.7,27.4,40,41.1C634,972.8,631.7,972.9,629.3,972.7z"/>
		<path class="st11" d="M1062.1,1072.6c-12.4-14.1-25.6-27.5-39.8-39.7c0.2-1.3,0.4-2.7,0.6-4c1.9-1.1,3.7-1.3,5.5,0.6
			c13.3,13.8,26.7,27.4,40,41.1C1066.8,1072.7,1064.5,1072.7,1062.1,1072.6z"/>
		<path class="st11" d="M1112.1,872.8c-12.4-14.1-25.6-27.5-39.8-39.7c0.2-1.3,0.4-2.7,0.6-4c1.9-1.1,3.7-1.3,5.5,0.6
			c13.3,13.8,26.7,27.4,40,41.1C1116.7,872.9,1114.4,873,1112.1,872.8z"/>
		<path class="st11" d="M729.2,872.8c-12.4-14.1-25.6-27.5-39.8-39.7c0.2-1.3,0.4-2.7,0.6-4c2-1.1,3.7-1.3,5.5,0.6
			c13.3,13.8,26.7,27.4,40,41.1C733.9,872.9,731.6,873,729.2,872.8z"/>
		<path class="st20" d="M964.3,829.1c-8.3-2.2-12-9.8-17.9-14.9c-7.5-6.6-14.5-13.7-21.7-20.5c9.6-5.4,15.3,2.6,20.3,7.5
			C952.9,809.2,960.1,818.2,964.3,829.1z"/>
		<path class="st31" d="M652.2,931.1c-10.1-9.8-20.2-19.6-30.4-29.3c-2.7-2.6-4.8-6.1-9.2-6.1c3.7-3.8,8.3-1.4,12.5-2
			c6.4,4.7,11.8,10.3,16.6,16.5C648,915.8,650.5,923.2,652.2,931.1z"/>
		<path class="st32" d="M641.8,910.2c-6.4-4.7-11.8-10.2-16.6-16.5C633.3,896.6,638.7,902.3,641.8,910.2z"/>
		<path class="st55" d="M1093.2,175.9c-0.9,1.6-2.4,1.9-4.1,1.9c-5.5-0.9-11.4,1.9-16.5-1.9C1079.5,175.9,1086.4,175.9,1093.2,175.9
			z"/>
		<path class="st35" d="M566.4,573.4c2.2-0.1,4.5-0.2,6.7-0.4c4.1,0.9,8.7-1.3,12.4,1.9C579.1,575.1,572.6,575.9,566.4,573.4z"/>
		<path class="st56" d="M800.1,741.4c4.5-3.4,9.6-1,14.4-1.8c1.3,0.6,2.7,1.2,4,1.8C812.4,741.4,806.3,741.4,800.1,741.4z"/>
		<path class="st57" d="M1301.4,390.1c0.1-1.6,0.3-3.1,1.9-4c0,6.2,0,12.3,0,18.5C1299.6,400.1,1302.2,394.9,1301.4,390.1z"/>
		<path class="st58" d="M1289.1,741.5c5.4-2.9,10.9-2.9,16.3,0C1300,741.4,1294.5,741.4,1289.1,741.5z"/>
		<path class="st59" d="M1453.2,566.8c-2.8-3.4-2.8-6.8,0-10.1C1453.1,560,1453.1,563.4,1453.2,566.8z"/>
		<path class="st60" d="M623,520.9c-0.7,1.5-1.3,2.9-2,4.4c-5.2-0.2-7.6-4.5-10.7-7.6c-66.7-66.6-133.3-133.3-200-199.8
			c-3.1-3.1-5.5-9-11.8-4.8c3.2-12.8,8.7-24.5,15.7-35.6c6.6-3,9.5,2.6,12.9,5.9c28.5,28.3,56.9,56.7,85.3,85.1
			c36,36,72,71.9,107.9,108c3.2,3.2,8,5.8,7.1,11.7c-0.1,2.6-0.2,5.2-0.3,7.8C623.7,504,622.7,512.3,623,520.9z"/>
		<path class="st61" d="M883.2,271.5c-4.4,5-8.4,10.2-10.8,16.5c-1.1,0.8-2.2,1.6-3.3,2.4c-6.5,1.1-9-4.4-12.4-7.8
			C798.8,225,741.1,167.2,683.3,109.5c-4.9-4.9-9.6-10-15-14.3c-2.3-1.9-5.4-3.6-4-7.5c6.8-9.7,15.8-17.2,25.2-24.2
			c4.7-1.3,6.9,2.5,9.5,5c61.3,61.2,122.6,122.4,183.8,183.8c3,3,7.4,5.9,4.7,11.4C886.1,266.2,884.6,268.8,883.2,271.5z"/>
		<path class="st62" d="M702.2,379.7c-0.7,0.7-1.4,1.4-2.1,2.1c-7.3,7.9-16.7,13.6-23,22.6c-0.7,0-1.4-0.1-2.1-0.1
			c-4.4-1-7-4.3-9.9-7.2c-59.8-59.7-119.5-119.5-179.3-179.3c-2.6-2.6-6-4.9-6.8-8.9c10.8-8.2,22.7-14.6,35.8-18.5
			c3.1-1.3,4.2,1.4,5.8,3c57.6,58.3,115.9,115.9,173.6,174C697.6,370.8,703.2,373.2,702.2,379.7z"/>
		<path class="st63" d="M664.4,87.6c3.3,5.9,9.6,8.7,14.2,13.3c60.2,60.6,120.7,121,181.2,181.4c2.9,2.9,6.2,5.4,9.3,8.1
			c-3.7,8.2-7.3,16.5-11,24.7c-2,3.5-4,7.1-6,10.6c-18-17.2-35.4-35.1-53-52.7c-45.6-45.5-91.2-91.1-136.7-136.7
			c-6.6-6.6-13.2-13.2-20.7-18.8C647.7,106.3,655.2,96.3,664.4,87.6z"/>
		<path class="st64" d="M702.2,379.7c-2.7-3.1-5.3-6.3-8.2-9.2c-55.7-55.8-111.5-111.5-167.2-167.3c-4.1-4.1-7.9-8.6-11.9-12.9
			c11.7-5.9,24.1-9.3,37.1-10.5c4.1-2,6.4,0.7,8.8,3.2c54.2,56,110,110.3,164.8,165.7c3.4,3.4,9,5.9,7.9,12.3
			c-2.8,2.1-5.6,4.3-8.3,6.4C717.4,371.5,709.8,375.6,702.2,379.7z"/>
		<path class="st65" d="M627.5,488.2c-2.5-2.9-4.8-5.9-7.5-8.6c-64.7-64.8-129.4-129.5-194.1-194.1c-3.4-3.3-6-7.8-11.6-8.1
			c4.9-10,11-19.1,18.6-27.2c4.8-1.9,7,2.1,9.5,4.6c64.5,64.3,128.9,128.7,193.3,193.2c2,2,3.9,3.9,4.6,6.8
			c-0.2,1.9-0.5,3.7-0.7,5.6C633,468.5,632.5,479.4,627.5,488.2z"/>
		<path class="st66" d="M640.2,454.8c-3.1-2.7-6.4-5.2-9.3-8.1C568,383.9,505.2,321,442.3,258.2c-2.9-2.9-5.4-6.4-9.4-8
			c5.9-8.7,13.2-16.1,21.5-22.6c4.7-1.3,6.9,2.4,9.5,4.9c62,61.9,124,123.9,185.9,186c3,3,7.4,5.9,4.7,11.4
			c-0.2,1.2-0.4,2.4-0.6,3.7C647.7,439.6,645.4,448.1,640.2,454.8z"/>
		<path class="st67" d="M641.6,117.4c4.7-0.6,7.7,2.2,10.7,5.3c64.8,64.8,129.6,129.7,194.4,194.5c2.4,2.4,5.3,4.5,5.3,8.5
			c-2.3,6.9-1.2,15.6-10.5,18.5c-4.6-2.6-9.7-1.5-14.6-2.2c-7.4-6.2-13.9-13.4-20.8-20.3C748,263.6,689.9,205.3,631.5,147.2
			c-1.5-1.5-2.9-2.9-4-4.8C631.1,133.5,635.5,125,641.6,117.4z"/>
		<path class="st68" d="M654.5,430c-0.1-3.9-2.8-6.1-5.2-8.6c-63.3-63.3-126.7-126.6-190-190c-1.4-1.4-3.2-2.5-4.9-3.8
			c7.2-7.7,15.3-14,24.7-18.9c2.1,1.7,4.5,3.2,6.4,5.2c61.9,61.8,123.7,123.7,185.6,185.6c1.5,1.5,2.7,3.1,4,4.7
			C668.2,412.8,661.3,421.4,654.5,430z"/>
		<path class="st69" d="M887.5,263.5c-0.1-3.9-2.8-6.1-5.2-8.6c-62.6-62.6-125.2-125.2-187.9-187.8c-1.5-1.4-3.2-2.6-4.8-3.8
			c6.8-6.6,14.4-12.3,22.9-16.6c5.1-1.2,7.4,3,10.2,5.7c58.9,58.7,117.7,117.5,176.4,176.4c3.8,3.8,8.8,7.2,7.2,13.9
			c-3.3,4.8-8.4,8.2-10.8,13.8C892.9,258.9,890.2,261.2,887.5,263.5z"/>
		<path class="st70" d="M972.7,196.8c-9,4.9-18,9.7-27,14.6c-31.6-31-62.6-62.5-94-93.7c-28.2-28.1-56.3-56.2-84.3-84.4
			c-2.9-2.9-6.5-5.3-7.5-9.7c11.4-5.4,23.5-8.4,35.9-9.9c2,5,5.6,8.6,9.3,12.3c53.4,53.3,106.8,106.7,160.1,160.1
			C968.3,189.1,972.6,191.5,972.7,196.8z"/>
		<path class="st71" d="M733.4,361c-2.7-3.1-5.3-6.4-8.2-9.3c-53-53.1-106-106.3-159.3-159.1c-4.5-4.4-6.2-12-13.9-12.9
			c12.4-3.6,25.1-4.4,38-3.6c5.8,0.2,10.3,2.1,13.2,7.8c1.7,3.3,5,5.6,7.7,8.3c47.6,47.6,95.3,95.2,142.8,143
			c4.2,4.2,10.3,7.6,8.8,15.2c-3.5-0.1-5.5,2.9-8.3,4.3C746.5,354.2,741.1,361.3,733.4,361z"/>
		<path class="st72" d="M906.3,242.7c-1.8-3.8-3.9-7.2-6.9-10.2c-61-60.9-121.9-121.8-182.8-182.7c-1.2-1.2-2.7-2.1-4.1-3.1
			c6.8-5.5,14.3-9.8,22.5-12.7c5.1-1.2,7.5,2.8,10.3,5.6c58.1,58,116.2,116,174.1,174.2c3.1,3.1,8.6,5.7,5.5,11.9
			c-3.5,4-7.1,8-10.6,11.9C911.6,239.3,909,241,906.3,242.7z"/>
		<path class="st73" d="M627.5,142.5c4.4,0.1,6.5,3.7,9.1,6.3c61.4,61.3,122.8,122.7,184.1,184.1c2.6,2.6,6.2,4.7,6.2,9.1
			c-11.9,0.3-23.8-0.1-35.5,2.7l0.3-0.7c-3.3-4.5-7.2-8.4-11.1-12.4C727.8,278.7,675,225.8,622,172.9c-1.7-1.7-3.5-3.3-4.7-5.5
			C619.7,158.7,622.7,150.2,627.5,142.5z"/>
		<path class="st74" d="M924.8,225.7c0.1-3.6-2.5-5.6-4.7-7.8C860.1,157.8,800,97.8,739.9,37.8c-1.4-1.4-3.3-2.5-4.9-3.7
			c7.7-5,16-8.5,24.9-10.5c2.9,2.5,5.9,4.7,8.6,7.4C825.1,87.5,881.7,144,938.2,200.6c3.1,3.1,7.4,5.5,7.5,10.7
			c-1.4,1.4-2.8,2.8-4.2,4.3C935.2,217.8,931.6,224.3,924.8,225.7z"/>
		<path class="st75" d="M617.2,167.4c4.4,0.2,6.5,3.8,9.1,6.4c53.7,53.6,107.4,107.3,160.9,161c2.4,2.4,7.1,4.1,4.5,9.1
			c-9.8,2.1-19.6,4.3-29.3,6.4c-1.9-5-5.6-8.6-9.2-12.3c-49.4-49.3-98.7-98.8-148.2-148c-4.8-4.8-6.9-12.8-15.1-13.9
			c3.8,0,7.7-0.9,11.2,0.1C609.7,178.6,615.3,176.8,617.2,167.4z"/>
		<path class="st52" d="M1043.4,177.9c-1.4-0.1-2.7-0.3-4.1-0.4c3.1-3.1,7-1.4,10.5-1.7C1048.2,177.9,1045.7,177.5,1043.4,177.9z"/>
	</g>
</g>
</svg>
