<?xml version="1.0" encoding="utf-8"?>
<!-- Generator: Adobe Illustrator 25.4.1, SVG Export Plug-In . SVG Version: 6.00 Build 0)  -->
<svg version="1.1" id="Layer_1" xmlns="http://www.w3.org/2000/svg" xmlns:xlink="http://www.w3.org/1999/xlink" x="0px" y="0px"
	 viewBox="0 0 1920 1080" style="enable-background:new 0 0 1920 1080;" xml:space="preserve">
<style type="text/css">
	.st0{fill:#A1CEF0;}
	.st1{fill:#A8D1F1;}
	.st2{fill:#9ACAEF;}
	.st3{fill:#A7D1F1;}
	.st4{fill:#96C8EE;}
	.st5{fill:#AED4F2;}
	.st6{fill:#8FC4EE;}
	.st7{fill:#B3D7F3;}
	.st8{fill:#88C1ED;}
	.st9{fill:#91C6EE;}
	.st10{fill:#91C5EE;}
	.st11{fill:#8DC3ED;}
	.st12{fill:#83BEEC;}
	.st13{fill:#B9DAF4;}
	.st14{fill:#A3CFF1;}
	.st15{fill:#9FCDF0;}
	.st16{fill:#96C8EF;}
	.st17{fill:#7EBCEB;}
	.st18{fill:#A0CDF0;}
	.st19{fill:#7EBBEB;}
	.st20{fill:#BEDCF5;}
	.st21{fill:#9BCAEF;}
	.st22{fill:#92C6EE;}
	.st23{fill:#B8DAF4;}
	.st24{fill:#99C9EF;}
	.st25{fill:#BCDBF4;}
	.st26{fill:#B4D7F3;}
	.st27{fill:#93C7EE;}
	.st28{fill:#81BDEC;}
	.st29{fill:#ADD4F2;}
	.st30{fill:#87C0EC;}
	.st31{fill:#BADAF4;}
	.st32{fill:#C0DEF5;}
	.st33{fill:#F2F6F9;stroke:url(#SVGID_1_);stroke-miterlimit:10;}
</style>
<g>
	<path class="st0" d="M1395.24,945.6c-2.97,1.84-1.54,6.65-5.34,7.94c-3.97-1.04-6.86-3.68-9.66-6.48
		c-26.55-26.53-53.12-53.05-79.6-79.65c-2.45-2.46-5.1-4.84-5.6-8.6c1.86-3.51,3.72-7.01,5.58-10.52c5.85-3.73,9.05,1.16,12.21,4.27
		c26.24,25.84,52.24,51.92,78.17,78.07C1395.11,934.76,1398.77,939.22,1395.24,945.6z"/>
	<path class="st1" d="M1395.24,945.6c0.58-4.83-1.78-8.22-5.05-11.48c-27.29-27.16-54.5-54.41-81.71-81.65
		c-2.21-2.21-4.48-4.2-7.85-4.18c2.55-3.52,5.09-7.05,7.64-10.57c5.02-3.55,8.33,0.25,11.28,3.14
		c25.88,25.35,51.44,51.02,76.88,76.81c3.26,3.3,6.98,6.96,4.19,12.53C1400.39,935.88,1399.27,941.25,1395.24,945.6z"/>
	<path class="st2" d="M783,932.53c0.95-3.96,2.33-7.68,5.58-10.41c5.79-3.75,9.11,0.95,12.31,4.11
		c26.3,25.9,52.39,52.02,78.32,78.29c3.2,3.25,7.63,6.61,4.28,12.36c-2.53,2.89-5.05,5.77-7.58,8.66
		C842.59,996.88,811.5,966,783,932.53z"/>
	<path class="st3" d="M794.21,911.61c2.53-3.53,5.05-7.05,7.58-10.58c5.02-3.55,8.33,0.25,11.28,3.14
		c25.88,25.35,51.43,51.03,76.88,76.81c3.26,3.3,6.98,6.97,4.2,12.53c-0.03,2.85,0.34,5.82-2.35,7.87
		c-4.99,3.41-8.45-0.11-11.43-3.08C851.53,969.52,822.11,941.32,794.21,911.61z"/>
	<path class="st0" d="M794.21,911.61c5.56,0.14,8.2,4.66,11.52,7.96c24.51,24.38,48.9,48.89,73.41,73.27
		c3.63,3.62,6.59,8.44,12.66,8.53c-0.35,6.46-3.61,11.37-8.31,15.51c0.06-3.95-2.56-6.35-5.05-8.84
		c-27-26.98-53.99-53.97-80.97-80.97c-2.5-2.51-4.96-5.04-8.89-4.95C790.45,918.62,792.33,915.12,794.21,911.61z"/>
	<path class="st2" d="M1295.05,858.82c32.72,30.47,64.19,62.2,94.85,94.72c-2.93,2.53-3.46,7.14-7.52,8.69
		c-33.32-28.66-64.41-59.54-92.91-93.01C1290.42,865.27,1291.79,861.54,1295.05,858.82z"/>
	<path class="st2" d="M1041.7,826.94c-2.96,2.49-3.45,7.14-7.53,8.67c-33.15-28.67-64.36-59.28-92.59-92.85
		c0.56-4.09,1.83-7.85,5-10.72c5.91-1.66,8.72,3.04,11.93,6.23c25.69,25.46,51.26,51.05,76.74,76.71
		C1038.51,818.24,1042.92,821.15,1041.7,826.94z"/>
	<path class="st1" d="M1052.43,803.59c-0.03,2.94,0.24,5.97-2.49,8.07c-5.39,0.06-8.9-3.43-12.3-6.81
		c-26.19-25.94-52.22-52.03-78.21-78.16c-2.16-2.18-4.3-4.43-4.71-7.7c1.78-2.63,3.56-5.26,5.34-7.88
		c4.36-3.33,7.65-0.33,10.34,2.34c27.4,27.25,55.43,53.89,81.64,82.33c0.58,0.62,0.8,1.55,1.13,2.37
		C1053.65,800.06,1053.77,801.93,1052.43,803.59z"/>
	<path class="st4" d="M1289.47,869.22c32.18,29.79,63.22,60.71,92.91,93.01c-2.12,3.14-4.59,5.85-8.3,7.14
		c-3.48-0.96-6.21-3.07-8.71-5.57c-25.03-24.97-50.03-49.96-75-75c-2.5-2.5-4.69-5.18-5.46-8.75
		C1286.53,876.48,1286.19,872.09,1289.47,869.22z"/>
	<path class="st5" d="M894.15,993.51c-0.02-3.84-2.33-6.4-4.85-8.91c-26.24-26.2-52.45-52.43-78.67-78.66
		c-2.49-2.49-4.93-5.01-8.85-4.91c2.7-3.49,5.4-6.98,8.1-10.47c5.32-1.43,8.05,2.63,11.03,5.57c22.43,22.18,44.63,44.6,67.02,66.82
		c4.18,4.15,6.81,8.97,8.48,14.48C896.16,982.86,898.42,988.64,894.15,993.51z"/>
	<path class="st5" d="M1400.62,930.2c-0.02-3.84-2.33-6.4-4.85-8.91c-26.24-26.2-52.45-52.43-78.66-78.65
		c-2.49-2.49-4.93-5.01-8.84-4.91c2.7-3.49,5.4-6.98,8.1-10.47c5.32-1.43,8.05,2.63,11.03,5.57c22.43,22.18,44.63,44.6,67.02,66.81
		c4.18,4.15,6.82,8.97,8.47,14.48C1402.64,919.55,1404.89,925.34,1400.62,930.2z"/>
	<path class="st6" d="M1284.9,880.05c30.56,28.94,60.45,58.55,89.18,89.32c-3.26,2.28-6.06,5.44-10.52,5.36
		c-6.6-2.88-11.28-8.14-16.23-13.08c-17.33-17.35-34.75-34.61-51.97-52.08c-4.69-4.76-9.75-8.74-15.94-11.23
		C1279.4,891.68,1281.93,885.8,1284.9,880.05z"/>
	<path class="st5" d="M1052.31,798.15c-26.55-26.12-53.06-52.28-79.68-78.33c-3.65-3.57-6.44-8.61-12.56-8.72
		c2.7-3.49,5.39-6.98,8.09-10.47c5.88-1.37,8.78,3.19,12.05,6.43c21.86,21.6,43.41,43.51,65.31,65.07
		C1053.15,779.66,1055.95,787.94,1052.31,798.15z"/>
	<path class="st7" d="M1052.31,798.15c1.77-10.51-2.7-17.92-10.27-25.13c-24.97-23.77-49.31-48.21-73.88-72.39
		c1.79-4.74,6.5-5.93,10.17-8.38c6.78,1.88,10.45,7.69,14.97,12.24c18.73,18.88,38.11,37.12,56.18,56.66
		c3.45,13.97,9.46,27.76,2.97,42.43C1052.39,801.78,1052.35,799.97,1052.31,798.15z"/>
	<path class="st7" d="M1402.89,914.12c-27.56-30.23-56.73-58.86-86.53-86.86c1.78-4.74,6.48-5.95,10.16-8.38
		c6.78,1.88,10.45,7.68,14.97,12.24c18.74,18.88,38.11,37.13,56.18,56.66C1399.73,896.49,1403.6,904.85,1402.89,914.12z"/>
	<path class="st7" d="M896.42,977.43c-27.56-30.23-56.73-58.86-86.53-86.86c1.78-4.74,6.48-5.94,10.16-8.38
		c6.78,1.88,10.45,7.68,14.97,12.24c18.74,18.88,38.11,37.13,56.18,56.66C893.26,959.8,897.13,968.16,896.42,977.43z"/>
	<path class="st8" d="M1279.42,898.33c3.85-2.59,7-2.15,10.38,1.32c24.5,25.11,49.15,50.07,73.76,75.08
		c-6.94,1.8-13.14,6.72-20.92,5c1.39-4.08,0.22-7.02-2.97-10.13c-17.73-17.32-35.26-34.85-52.58-52.58
		c-3.11-3.18-6.03-4.39-10.12-2.95C1275.79,908.52,1278.02,903.49,1279.42,898.33z"/>
	<path class="st9" d="M775.74,951.16c0.89-2.64,1.77-5.28,2.66-7.93c5.09-3.96,9.2-1.05,12.68,2.34
		c25.88,25.26,51.44,50.83,76.71,76.7c2.1,2.15,4.05,4.7,2.64,8.15c-1.84,3.06-4.27,5.13-8.12,4.76c-2.57-0.72-4.94-1.83-6.85-3.75
		C828.83,1004.73,801.57,978.66,775.74,951.16z"/>
	<path class="st10" d="M1028.48,840.02c-2.81,1.48-3.52,6.15-7.92,5.22c-2.56-0.74-4.94-1.82-6.85-3.74
		c-26.62-26.71-53.87-52.78-79.71-80.27c0.88-2.64,1.77-5.28,2.65-7.92c5.13-3.98,9.24-1.01,12.73,2.39
		c25.69,25.09,51.07,50.49,76.18,76.16C1027.68,834.02,1029.71,836.52,1028.48,840.02z"/>
	<path class="st11" d="M775.74,951.16c1.96,0.8,4.44,1.09,5.82,2.48c26.99,27.11,53.85,54.34,80.74,81.54
		c-3.49,1.71-6.98,3.41-10.47,5.12c-27.05-25.43-53.06-51.92-78.85-78.61C772.39,957.79,773.79,954.41,775.74,951.16z"/>
	<path class="st12" d="M836.15,1043.04c-5.53,0.13-11.26,1.77-16.29-2.07c0.38-3.82-1.52-6.7-4-9.23
		c-11.24-11.47-22.59-22.83-34.07-34.07c-2.53-2.48-5.42-4.37-9.24-3.97c-3.83-5.04-2.19-10.77-2.05-16.32
		c3.6-11.48,9.46-5.9,14.16-1.4c16.43,15.74,32.29,32.06,48.4,48.14c2.78,2.78,5.72,5.44,7.86,8.79
		C844.67,1038.77,842.12,1041.72,836.15,1043.04z"/>
	<path class="st12" d="M1276.98,914.07c2.4-3.8,3.46-8.49,9.45-2.21c19,19.93,38.49,39.41,58.41,58.41
		c6.28,5.99,1.58,7.05-2.21,9.46c-5.54,0.14-11.28,1.76-16.32-2.07c1.04-2.74,0.32-5.01-1.7-7.05
		c-12.82-12.87-25.66-25.72-38.53-38.53c-2.04-2.03-4.32-2.73-7.05-1.68C1275.2,925.36,1276.82,919.62,1276.98,914.07z"/>
	<path class="st12" d="M930.82,803.79c-3.83-5.05-2.19-10.79-2.05-16.33c3.6-11.46,9.46-5.93,14.17-1.41
		c16.43,15.74,32.29,32.07,48.4,48.14c2.78,2.78,5.72,5.44,7.86,8.79c3.75,5.87,1.2,8.82-4.77,10.14
		c-5.54,0.14-11.26,1.76-16.3-2.06c0.39-3.82-1.51-6.71-3.98-9.24c-11.24-11.48-22.6-22.84-34.07-34.07
		C937.53,805.27,934.63,803.39,930.82,803.79z"/>
	<path class="st8" d="M994.42,853.12c3.86-3.02,5.92-5.68,1.21-10.29c-19.06-18.65-37.92-37.5-56.57-56.57
		c-4.61-4.71-7.28-2.64-10.3,1.2c-1.19-5.55,1.03-10.55,2.46-15.69c7.2-3.98,11.73,1.38,15.86,5.34
		c19.55,18.77,38.69,37.96,57.5,57.47c3.97,4.12,9.44,8.56,5.51,15.82C1004.98,851.98,1000.01,854.31,994.42,853.12z"/>
	<path class="st13" d="M1049.46,761.16c-12.07-5.26-19.53-15.92-28.36-24.82c-14.42-14.53-30.07-27.89-42.78-44.08
		c1.71-3.15,4.29-4.93,7.93-5.01c6.38-1.46,9.25,3.7,12.77,7.13c12.7,12.39,25.23,24.96,37.44,37.83
		C1042.71,741,1046.28,750.99,1049.46,761.16z"/>
	<path class="st14" d="M954.72,718.99c25.05,24.6,50.07,49.24,75.16,73.79c6.56,6.42,13.37,12.59,20.06,18.87
		c0,4.44-1.35,8.23-5.23,10.78c-31.81-31.72-63.93-63.13-95.08-95.51C951.33,724.28,953.02,721.64,954.72,718.99z"/>
	<path class="st15" d="M949.63,726.93c3.92-0.06,6.33,2.52,8.81,5.01c26.85,26.86,53.7,53.73,80.58,80.56
		c2.82,2.82,5.53,5.63,5.68,9.94c-0.28,1.98-0.76,3.83-3,4.5c-30.75-32.59-62.21-64.47-95.12-94.9
		C947.6,730.33,948.61,728.63,949.63,726.93z"/>
	<path class="st4" d="M870.42,1030.43c-26.16-29.29-55.19-55.74-82.51-83.88c-2.68-2.76-5.88-3.53-9.51-3.31
		c1.71-3.49,1.33-7.89,4.61-10.7c32.18,29.79,63.22,60.72,92.91,93C874.08,1027.17,872.25,1028.8,870.42,1030.43z"/>
	<path class="st16" d="M1028.48,840.02c-27.11-27.48-54.25-54.93-81.3-82.46c-2.98-3.03-6.28-4.67-10.52-4.25
		c1.53-3.57,1.67-7.79,4.93-10.56c31.88,29.93,63.07,60.56,92.59,92.85C1032.82,837.77,1031.34,839.78,1028.48,840.02z"/>
	<path class="st17" d="M1279.03,930.4c0.98-2.65-1.39-10.81,5.63-3.99c15.43,14.98,30.63,30.2,45.62,45.61
		c6.74,6.93-1.16,4.76-3.95,5.64C1301.91,973.34,1283.39,954.83,1279.03,930.4z"/>
	<path class="st18" d="M1118.83,967.03c1.7-2.64,3.4-5.29,5.1-7.93c4.4-3.33,7.54-0.13,10.23,2.47
		c16.97,16.38,33.66,33.05,50.02,50.02c2.06,2.14,4.04,4.7,2.7,8.15c-2.3,3.82-3.28,8.61-7.83,10.79
		c-17.94-17.27-35.28-35.13-52.85-52.76C1123.1,974.67,1120.51,971.15,1118.83,967.03z"/>
	<path class="st18" d="M638.21,893.13c-2.3,3.82-3.28,8.61-7.83,10.79c-17.94-17.27-35.28-35.13-52.85-52.76
		c-3.11-3.12-5.69-6.63-7.37-10.75c1.7-2.64,3.4-5.29,5.1-7.93c4.4-3.33,7.54-0.13,10.23,2.47c16.97,16.38,33.66,33.05,50.02,50.02
		C637.57,887.12,639.55,889.68,638.21,893.13z"/>
	<path class="st18" d="M764.83,766.51c-2.3,3.82-3.28,8.61-7.83,10.79c-17.94-17.27-35.28-35.13-52.85-52.76
		c-3.11-3.12-5.69-6.63-7.37-10.75c1.7-2.64,3.4-5.29,5.1-7.93c4.4-3.33,7.54-0.13,10.23,2.47c16.97,16.38,33.66,33.05,50.02,50.02
		C764.19,760.5,766.17,763.06,764.83,766.51z"/>
	<path class="st19" d="M930.82,803.79c1.02-6.63,4.15-5.56,7.72-2.01c13.88,13.81,27.73,27.66,41.54,41.54
		c3.5,3.52,4.76,6.68-1.95,7.73C953.68,846.69,935.21,828.23,930.82,803.79z"/>
	<path class="st19" d="M772.55,993.7c1.03-6.68,4.18-5.5,7.72-1.98c13.88,13.81,27.72,27.65,41.53,41.53
		c3.48,3.5,4.8,6.68-1.94,7.72C795.42,1036.63,776.93,1018.15,772.55,993.7z"/>
	<path class="st11" d="M1010.09,850.41c-0.81-5.98-4.21-10.41-8.34-14.53c-18.68-18.6-37.32-37.24-55.92-55.92
		c-4.12-4.14-8.61-7.47-14.6-8.19c-0.58-3.91,0.82-7.3,2.78-10.54c1.97,0.8,4.44,1.09,5.82,2.48c26.99,27.1,53.85,54.33,80.74,81.53
		C1017.07,846.96,1013.58,848.69,1010.09,850.41z"/>
	<path class="st13" d="M1397.67,887.78c-12.08-5.25-19.53-15.92-28.36-24.82c-14.42-14.53-30.07-27.89-42.78-44.08
		c1.71-3.15,4.28-4.93,7.93-5.02c2.37-1.21,4.41-0.11,5.76,1.51c14.47,17.38,32.22,31.6,47,48.68
		C1389.28,872.59,1397.22,878.53,1397.67,887.78z"/>
	<path class="st13" d="M891.2,951.09c-12.08-5.25-19.53-15.92-28.36-24.82c-14.42-14.53-30.07-27.89-42.78-44.08
		c1.71-3.15,4.28-4.94,7.93-5.02c2.37-1.21,4.41-0.11,5.76,1.51c14.47,17.38,32.22,31.6,47,48.68
		C882.8,935.9,890.75,941.84,891.2,951.09z"/>
	<path class="st8" d="M836.15,1043.04c3.87-3.02,5.91-5.68,1.2-10.29c-19.06-18.64-37.92-37.5-56.56-56.56
		c-4.6-4.7-7.27-2.68-10.29,1.19c-1.19-5.54,1.01-10.55,2.47-15.68c0.86,0.14,2-0.03,2.54,0.46c26.61,23.86,51.71,49.24,75.81,75.62
		c0.5,0.54,0.35,1.67,0.51,2.53C846.73,1041.97,841.73,1044.21,836.15,1043.04z"/>
	<path class="st18" d="M1500.72,771.6c-1.71,1.9-3.41,3.8-5.12,5.7c-18.58-17.89-36.48-36.46-54.8-54.62
		c-2.52-2.49-4.74-5.17-5.46-8.78c1.7-2.65,3.41-5.29,5.11-7.94c4.67-1.35,7.36,1.97,10.07,4.62c15.56,15.25,30.96,30.66,46.23,46.2
		C1500.78,760.89,1504.6,765.27,1500.72,771.6z"/>
	<path class="st3" d="M1252.93,758.76c0,5.04-1.34,9.52-5.44,12.82c-14.99-19.01-33.42-34.71-50.04-52.17
		c-3.89-4.09-8.76-7.47-10.17-13.45c0.72-2.54,2.22-4.43,4.65-5.53c3.62-2.64,6.88-1.03,9.4,1.47c17.62,17.5,36.46,33.82,52,53.36
		C1253.9,756.51,1253.77,757.67,1252.93,758.76z"/>
	<path class="st3" d="M1500.72,771.6c0.44-4.2-0.96-7.58-4.03-10.57c-18.8-18.3-37.5-36.7-56.23-55.07
		c0.74-2.56,2.28-4.42,4.71-5.53c3.62-2.64,6.88-1.03,9.4,1.47c17.62,17.5,36.46,33.82,52,53.36c0.58,1.25,0.44,2.41-0.4,3.5
		C1506.16,763.81,1504.83,768.29,1500.72,771.6z"/>
	<path class="st18" d="M1187.28,705.96c18.71,18.36,37.39,36.76,56.17,55.06c3.06,2.99,4.47,6.36,4.05,10.56
		c-0.9,2.63-2.61,4.53-5.13,5.72c-18.58-17.89-36.48-36.46-54.8-54.62c-2.51-2.49-4.74-5.17-5.46-8.78
		C1183.83,711.26,1185.55,708.61,1187.28,705.96z"/>
	<path class="st20" d="M1387.21,864.05c-20.69-13.47-35.87-32.73-52.76-50.19c11.43-6.87,18.81,2.61,24.6,8.48
		C1370.85,834.28,1381.49,847.7,1387.21,864.05z"/>
	<g>
		<path class="st21" d="M477,594.88c0.95-3.96,2.33-7.68,5.57-10.41c5.73-3.73,9.06,0.89,12.24,4.03
			c26.42,26.02,52.63,52.26,78.69,78.65c3.28,3.33,7.17,6.86,4.09,12.46c-1.68,3.58-4.37,6.22-7.69,8.28
			C536.6,659.24,505.51,628.35,477,594.88z"/>
		<path class="st3" d="M588.15,655.86c-0.02,2.87,0.32,5.85-2.36,7.92c-6.6,1.66-10.82-2.95-14.6-6.63
			c-28.05-27.34-56.13-54.66-82.98-83.19c2.53-3.53,5.06-7.05,7.58-10.58c5.02-3.55,8.33,0.25,11.28,3.14
			c25.88,25.35,51.43,51.02,76.88,76.81C587.21,646.63,590.94,650.3,588.15,655.86z"/>
		<path class="st0" d="M488.21,573.96c5.55,0.14,8.17,4.65,11.49,7.93c21.36,21.22,42.7,42.46,63.86,63.88
			c6.77,6.86,13.84,13.21,22.23,18c-0.21,6.58-4,11.31-8.19,15.83c0.02-4.41-2.98-7.04-5.76-9.82c-26.5-26.49-53-53-79.5-79.49
			c-2.76-2.76-5.29-5.93-9.76-5.83C484.45,580.97,486.33,577.47,488.21,573.96z"/>
		<path class="st5" d="M588.15,655.86c-0.02-3.84-2.33-6.4-4.85-8.91c-26.24-26.2-52.45-52.43-78.66-78.65
			c-2.49-2.49-4.93-5.01-8.84-4.91c2.7-3.49,5.4-6.98,8.1-10.47c5.32-1.43,8.05,2.63,11.03,5.57c22.43,22.18,44.62,44.6,67.02,66.81
			c4.18,4.15,6.82,8.97,8.47,14.48C590.17,645.21,592.42,650.99,588.15,655.86z"/>
		<path class="st7" d="M590.42,639.78c-27.56-30.23-56.73-58.86-86.52-86.86c1.78-4.74,6.48-5.95,10.16-8.38
			c6.78,1.87,10.43,7.69,14.97,12.23c18.79,18.84,38.07,37.2,56.17,56.73C587.3,622.18,591.12,630.53,590.42,639.78z"/>
		<path class="st22" d="M469.75,613.52c0.89-2.64,1.77-5.28,2.66-7.93c5.09-3.96,9.2-1.05,12.68,2.34
			c25.88,25.26,51.44,50.83,76.71,76.7c2.1,2.15,4.05,4.7,2.64,8.15c-1.85,3.06-4.27,5.13-8.12,4.76c-2.56-0.75-4.93-1.82-6.85-3.75
			C522.84,667.08,495.58,641.01,469.75,613.52z"/>
		<path class="st11" d="M469.75,613.52c1.96,0.8,4.44,1.09,5.82,2.48c26.99,27.11,53.85,54.34,80.74,81.55
			c-3.49,1.71-6.98,3.41-10.47,5.12c-27.05-25.43-53.06-51.92-78.85-78.61C466.4,620.15,467.8,616.76,469.75,613.52z"/>
		<path class="st12" d="M466.56,656.05c-3.83-5.04-2.19-10.78-2.05-16.32c3.6-11.48,9.46-5.91,14.16-1.4
			c16.43,15.74,32.29,32.06,48.4,48.14c2.78,2.78,5.72,5.44,7.86,8.79c3.75,5.87,1.2,8.82-4.77,10.14
			c-5.53,0.13-11.26,1.77-16.29-2.07c0.38-3.82-1.52-6.71-3.99-9.23c-11.24-11.48-22.59-22.83-34.07-34.07
			C473.27,657.55,470.38,655.66,466.56,656.05z"/>
		<path class="st16" d="M564.42,692.78c-26.16-29.29-55.19-55.74-82.51-83.88c-2.68-2.76-5.88-3.53-9.51-3.31
			c1.71-3.49,1.33-7.89,4.61-10.7c32.18,29.79,63.22,60.72,92.91,93C568.08,689.52,566.25,691.15,564.42,692.78z"/>
		<path class="st19" d="M466.56,656.05c1.03-6.67,4.18-5.5,7.72-1.98c13.88,13.81,27.72,27.65,41.53,41.53
			c3.48,3.5,4.79,6.68-1.94,7.72C489.43,698.98,470.94,680.5,466.56,656.05z"/>
		<path class="st23" d="M585.19,613.5c-1.65-0.52-3.79-0.54-4.87-1.63c-22.25-22.28-45.64-43.45-66.27-67.33
			c1.71-3.16,4.28-4.94,7.93-5.02c2.37-1.21,4.41-0.11,5.76,1.51c14.47,17.38,32.22,31.6,47,48.68
			C576.94,598.21,584.7,604.26,585.19,613.5z"/>
		<path class="st8" d="M530.15,705.39c3.87-3.02,5.92-5.68,1.21-10.29c-19.06-18.64-37.92-37.5-56.56-56.56
			c-4.6-4.7-7.27-2.68-10.29,1.19c-1.19-5.54,1.02-10.55,2.47-15.68c0.86,0.14,2-0.03,2.54,0.46
			c26.61,23.86,51.72,49.24,75.81,75.62c0.5,0.54,0.35,1.67,0.51,2.53C540.73,704.32,535.74,706.56,530.15,705.39z"/>
		<path class="st20" d="M574.74,589.71c-20.69-13.47-35.87-32.73-52.75-50.19c11.43-6.87,18.81,2.61,24.6,8.48
			C558.38,559.94,569.02,573.36,574.74,589.71z"/>
	</g>
	<path class="st20" d="M880.74,927.36c-20.69-13.47-35.87-32.73-52.76-50.19c11.43-6.87,18.81,2.61,24.6,8.48
		C864.37,897.59,875.01,911,880.74,927.36z"/>
	<path class="st24" d="M570.15,840.42c19.62,19.51,39.27,38.99,58.78,58.6c1.06,1.06,0.99,3.24,1.45,4.9
		c-1.81,1.6-3.62,3.2-5.43,4.8c-18.68-17.33-36.15-35.88-54.23-53.81c-1.88-1.87-3.5-3.96-3.9-6.72
		C567.93,845.59,569.04,843,570.15,840.42z"/>
	<path class="st24" d="M1118.83,967.03c19.62,19.51,39.27,38.99,58.78,58.6c1.06,1.06,0.99,3.24,1.45,4.9
		c-1.81,1.6-3.62,3.2-5.43,4.8c-18.67-17.34-36.15-35.88-54.23-53.81c-1.88-1.87-3.5-3.96-3.9-6.72
		C1116.61,972.21,1117.72,969.62,1118.83,967.03z"/>
	<path class="st24" d="M696.77,713.8c19.62,19.51,39.27,38.99,58.78,58.6c1.06,1.06,0.99,3.24,1.45,4.9c-1.81,1.6-3.62,3.2-5.43,4.8
		c-18.68-17.33-36.15-35.88-54.23-53.81c-1.88-1.87-3.5-3.96-3.9-6.72C694.55,718.98,695.66,716.39,696.77,713.8z"/>
	<path class="st3" d="M764.83,766.51c-19.01-19.41-37.98-38.86-57.1-58.16c-1.38-1.4-3.88-1.69-5.86-2.49
		c0.75-2.51,2.29-4.34,4.68-5.44c3.62-2.64,6.88-1.03,9.4,1.47c17.62,17.5,36.46,33.83,52,53.36c0.59,1.25,0.43,2.41-0.4,3.5
		C767.5,761.65,767.71,764.62,764.83,766.51z"/>
	<path class="st3" d="M638.21,893.13c-19.01-19.41-37.98-38.86-57.1-58.16c-1.38-1.4-3.88-1.69-5.86-2.49
		c0.75-2.51,2.29-4.34,4.68-5.44c3.62-2.64,6.88-1.03,9.4,1.47c17.62,17.5,36.46,33.83,52,53.36c0.6,1.25,0.43,2.41-0.4,3.5
		C640.89,888.27,641.09,891.24,638.21,893.13z"/>
	<path class="st3" d="M1186.89,1019.75c-19.01-19.41-37.98-38.86-57.1-58.16c-1.38-1.4-3.88-1.69-5.86-2.49
		c0.75-2.51,2.29-4.34,4.68-5.44c3.62-2.64,6.88-1.03,9.4,1.47c17.62,17.5,36.46,33.83,52,53.36c0.57,1.25,0.44,2.41-0.4,3.5
		C1189.57,1014.88,1189.77,1017.86,1186.89,1019.75z"/>
	<path class="st24" d="M1182.11,713.9c18.77,18.45,37.54,36.91,56.33,55.35c2.28,2.24,3.87,4.75,3.92,8.04
		c-1.81,1.6-3.62,3.2-5.43,4.8c-18.68-17.33-36.15-35.88-54.23-53.81c-1.88-1.87-3.5-3.96-3.9-6.72
		C1179.91,719.01,1181.01,716.46,1182.11,713.9z"/>
	<path class="st24" d="M1435.34,713.9c18.77,18.45,37.54,36.91,56.33,55.35c2.28,2.24,3.87,4.75,3.92,8.04
		c-1.81,1.6-3.62,3.2-5.43,4.8c-18.68-17.33-36.15-35.88-54.23-53.81c-1.88-1.87-3.5-3.96-3.9-6.72
		C1433.14,719.01,1434.24,716.46,1435.34,713.9z"/>
	<path class="st25" d="M1144.61,940.47c6.96-5.73,12.52-0.86,17.23,3.16c13.1,11.19,22.88,24.82,27.43,41.76
		c-4.39,1.47-7.6-1.24-10.52-3.56c-11.5-9.17-21.56-19.87-31.32-30.82C1144.94,948.2,1142.56,944.77,1144.61,940.47z"/>
	<path class="st25" d="M722.55,687.23c6.96-5.73,12.52-0.86,17.23,3.16c13.1,11.19,22.88,24.82,27.43,41.76
		c-4.39,1.47-7.6-1.24-10.52-3.56c-11.5-9.17-21.56-19.87-31.32-30.82C722.88,694.96,720.5,691.54,722.55,687.23z"/>
	<path class="st25" d="M1207.92,687.23c6.96-5.73,12.52-0.86,17.23,3.16c13.1,11.19,22.88,24.82,27.43,41.76
		c-4.39,1.47-7.6-1.24-10.52-3.56c-11.5-9.17-21.56-19.87-31.32-30.82C1208.25,694.96,1205.87,691.54,1207.92,687.23z"/>
	<path class="st25" d="M1461.16,687.23c6.96-5.73,12.52-0.86,17.23,3.16c13.1,11.19,22.88,24.82,27.43,41.76
		c-4.39,1.47-7.6-1.24-10.52-3.56c-11.5-9.17-21.56-19.87-31.32-30.82C1461.48,694.96,1459.1,691.54,1461.16,687.23z"/>
	<path class="st26" d="M722.55,687.23c11.4,18.44,27.14,32.57,44.66,44.92c2.37,8.84,5.61,17.67,0.35,26.61
		c-0.06-0.94-0.11-1.88-0.17-2.82c-5.64-13.46-17.54-21.61-27-31.82c-9.21-9.95-19.62-18.72-28.55-28.95
		C714.39,691.16,717.19,687.47,722.55,687.23z"/>
	<path class="st27" d="M566.82,848.18c19.94,16.85,37.22,36.42,55.77,54.69c1.37,1.35,1.6,3.87,2.36,5.85
		c-1.13,2.05-2.97,2.82-5.2,2.89c-10.48-4.45-16.32-14.19-24.34-21.44c-11.34-10.24-20.88-22.39-33.37-31.43
		C562.22,854.59,563.79,851.05,566.82,848.18z"/>
	<path class="st26" d="M1207.92,687.23c11.4,18.44,27.14,32.57,44.66,44.92c2.37,8.84,5.61,17.67,0.35,26.61
		c-0.06-0.94-0.11-1.88-0.17-2.82c-5.63-13.46-17.54-21.61-27-31.82c-9.21-9.95-19.62-18.72-28.55-28.95
		C1199.76,691.16,1202.56,687.47,1207.92,687.23z"/>
	<path class="st27" d="M1432.04,721.57c19.94,16.85,37.21,36.42,55.77,54.68c1.37,1.35,1.6,3.87,2.36,5.85
		c-1.12,2.06-2.97,2.83-5.2,2.89c-10.48-4.45-16.32-14.19-24.34-21.44c-11.34-10.24-20.88-22.39-33.37-31.42
		C1427.44,727.97,1429.01,724.43,1432.04,721.57z"/>
	<path class="st27" d="M1178.81,721.57c19.94,16.85,37.21,36.42,55.77,54.68c1.37,1.35,1.6,3.87,2.36,5.85
		c-1.12,2.06-2.97,2.83-5.2,2.89c-10.48-4.45-16.32-14.19-24.34-21.44c-11.34-10.24-20.88-22.39-33.37-31.42
		C1174.21,727.97,1175.77,724.44,1178.81,721.57z"/>
	<path class="st27" d="M693.44,721.56c19.94,16.85,37.22,36.42,55.77,54.69c1.37,1.35,1.6,3.87,2.36,5.85
		c-1.13,2.05-2.97,2.82-5.2,2.89c-10.48-4.45-16.32-14.19-24.34-21.44c-11.34-10.24-20.88-22.39-33.37-31.43
		C688.84,727.97,690.41,724.44,693.44,721.56z"/>
	<path class="st26" d="M1144.61,940.47c11.4,18.44,27.14,32.57,44.66,44.92c2.37,8.84,5.61,17.67,0.35,26.61
		c-0.06-0.94-0.11-1.88-0.17-2.82c-5.64-13.46-17.54-21.61-27-31.82c-9.21-9.95-19.62-18.72-28.55-28.95
		C1136.46,944.4,1139.25,940.7,1144.61,940.47z"/>
	<path class="st26" d="M1461.16,687.23c11.4,18.44,27.14,32.57,44.66,44.92c2.37,8.84,5.61,17.67,0.35,26.61
		c-0.06-0.94-0.11-1.88-0.17-2.82c-5.63-13.46-17.54-21.61-27-31.82c-9.21-9.95-19.62-18.72-28.55-28.95
		C1453,691.16,1455.8,687.47,1461.16,687.23z"/>
	<path class="st27" d="M1115.5,974.8c19.94,16.85,37.22,36.42,55.77,54.69c1.37,1.35,1.6,3.87,2.36,5.85
		c-1.13,2.05-2.97,2.82-5.2,2.89c-10.48-4.45-16.32-14.19-24.34-21.44c-11.34-10.24-20.88-22.39-33.37-31.42
		C1110.9,981.21,1112.47,977.67,1115.5,974.8z"/>
	<path class="st28" d="M1138.96,1041c-15.83-3.34-25.54-12.81-28.77-28.75c-1.3-3.75-2.87-8.48,0.82-10.72
		c3.89-2.36,7.21,1.83,9.98,4.44c8.32,7.83,16.41,15.92,24.24,24.24c2.61,2.77,6.8,6.08,4.45,9.98
		C1147.44,1043.88,1142.71,1042.31,1138.96,1041z"/>
	<path class="st28" d="M590.28,914.38c-15.83-3.34-25.54-12.81-28.77-28.75c-1.3-3.75-2.87-8.48,0.82-10.72
		c3.89-2.36,7.21,1.83,9.98,4.44c8.32,7.83,16.41,15.92,24.24,24.24c2.61,2.77,6.8,6.08,4.45,9.98
		C598.76,917.26,594.03,915.69,590.28,914.38z"/>
	<path class="st28" d="M1455.5,787.76c-15.83-3.34-25.54-12.81-28.77-28.75c-1.3-3.75-2.87-8.48,0.82-10.72
		c3.89-2.36,7.21,1.83,9.98,4.44c8.32,7.83,16.41,15.92,24.24,24.24c2.61,2.77,6.8,6.08,4.45,9.98
		C1463.98,790.64,1459.26,789.07,1455.5,787.76z"/>
	<path class="st28" d="M716.9,787.76c-15.83-3.34-25.54-12.81-28.77-28.75c-1.3-3.75-2.87-8.48,0.82-10.72
		c3.89-2.36,7.21,1.83,9.98,4.44c8.32,7.83,16.41,15.92,24.24,24.24c2.61,2.77,6.8,6.08,4.45,9.98
		C725.38,790.64,720.65,789.07,716.9,787.76z"/>
	<path class="st28" d="M1202.27,787.76c-15.83-3.34-25.54-12.81-28.77-28.75c-1.3-3.75-2.87-8.48,0.82-10.72
		c3.89-2.36,7.21,1.83,9.98,4.44c8.32,7.83,16.41,15.92,24.24,24.24c2.61,2.77,6.8,6.08,4.45,9.98
		C1210.75,790.64,1206.02,789.07,1202.27,787.76z"/>
	<path class="st29" d="M711.83,695.17c7.52,0.55,10.78,7.01,15.36,11.41c11.35,10.91,22.18,22.36,33.55,33.25
		c4.76,4.56,7.73,9.36,6.64,16.1c-16.1-15.68-32.17-31.4-48.33-47.02c-3.65-3.52-6.51-8.36-12.5-8.49
		C708.31,698.68,710.07,696.92,711.83,695.17z"/>
	<path class="st29" d="M1450.44,695.17c7.52,0.55,10.78,7.01,15.36,11.41c11.35,10.91,22.18,22.36,33.55,33.26
		c4.76,4.56,7.73,9.36,6.64,16.1c-16.1-15.68-32.16-31.4-48.33-47.02c-3.65-3.52-6.5-8.36-12.5-8.49
		C1446.92,698.68,1448.68,696.92,1450.44,695.17z"/>
	<path class="st26" d="M640.94,885.38c-0.06-0.94-0.11-1.88-0.17-2.83c-5.64-13.46-17.54-21.61-27-31.82
		c-9.21-9.95-19.62-18.72-28.55-28.95c1.83-1.73,3.65-3.47,5.48-5.2c4.9-2.85,8.46,0.34,11.34,3.26
		c13.29,13.52,28.28,25.47,38.78,41.58C644.18,869.4,645.33,877.38,640.94,885.38z"/>
	<path class="st29" d="M585.22,821.79c7.52,0.55,10.78,7.01,15.36,11.41c11.35,10.91,22.18,22.36,33.55,33.26
		c4.76,4.56,7.73,9.36,6.64,16.1c-16.1-15.68-32.17-31.4-48.33-47.02c-3.65-3.52-6.51-8.36-12.5-8.49
		C581.7,825.29,583.46,823.54,585.22,821.79z"/>
	<path class="st29" d="M1197.2,695.17c7.52,0.55,10.78,7.01,15.36,11.41c11.35,10.91,22.18,22.36,33.55,33.26
		c4.76,4.56,7.73,9.36,6.64,16.1c-16.1-15.68-32.16-31.4-48.33-47.02c-3.65-3.52-6.5-8.36-12.5-8.49
		C1193.69,698.68,1195.45,696.92,1197.2,695.17z"/>
	<path class="st29" d="M1133.89,948.41c7.52,0.55,10.78,7.01,15.36,11.41c11.35,10.91,22.18,22.36,33.55,33.26
		c4.76,4.56,7.73,9.36,6.64,16.1c-16.1-15.68-32.17-31.4-48.33-47.02c-3.65-3.52-6.51-8.36-12.5-8.49
		C1130.38,951.91,1132.14,950.16,1133.89,948.41z"/>
	<path class="st30" d="M716.9,787.76c2.97-0.21,5.95-0.42,9.98-0.71c-13.31-12.17-25.76-23.54-38.92-35.57
		c-0.95,0.74,0.95,4.52,0.17,7.52c-3.76-7.22-3.56-14.47-0.2-21.76c11.28,2.81,47.36,38.79,50.51,50.36
		C731.28,791.36,724.11,791.67,716.9,787.76z"/>
	<path class="st30" d="M1202.27,787.76c2.98-0.21,5.96-0.42,13.33-0.94c-8.79-8.05-15.36-13.64-21.41-19.75
		c-5.82-5.88-11.1-12.31-16.81-18.73c-4.99,3.88-3.09,7.66-3.88,10.66c-3.76-7.22-3.56-14.47-0.2-21.76
		c11.28,2.81,47.36,38.79,50.51,50.36C1216.65,791.36,1209.48,791.67,1202.27,787.76z"/>
	<path class="st30" d="M590.28,914.38c2.97-0.21,5.95-0.42,8.51-0.6c-12.24-11.87-24.34-23.6-37.08-35.96
		c-1.32,1.02,0.59,4.8-0.2,7.8c-3.76-7.22-3.56-14.47-0.2-21.76c11.28,2.81,47.36,38.79,50.51,50.36
		C604.66,917.98,597.49,918.29,590.28,914.38z"/>
	<path class="st30" d="M1138.96,1041c2.97-0.21,5.95-0.42,8.51-0.6c-12.24-11.87-24.34-23.6-37.08-35.96
		c-1.32,1.02,0.58,4.8-0.2,7.8c-3.76-7.22-3.56-14.47-0.2-21.76c11.28,2.81,47.36,38.79,50.51,50.36
		C1153.34,1044.6,1146.17,1044.91,1138.96,1041z"/>
	<path class="st30" d="M1455.5,787.76c2.98-0.21,5.96-0.42,13.33-0.94c-8.79-8.05-15.36-13.64-21.41-19.75
		c-5.82-5.88-11.1-12.31-16.81-18.73c-4.99,3.88-3.09,7.66-3.88,10.66c-3.76-7.22-3.56-14.47-0.2-21.76
		c11.28,2.81,47.36,38.79,50.51,50.36C1469.89,791.36,1462.71,791.67,1455.5,787.76z"/>
	<path class="st11" d="M1477.04,787.6c-15.77-17.85-32.42-34.83-50.51-50.36c0.24-1.71,0.48-3.41,0.72-5.11
		c2.48-1.35,4.66-1.66,6.95,0.71c16.87,17.43,33.83,34.78,50.76,52.15C1482.96,787.77,1480.04,787.81,1477.04,787.6z"/>
	<path class="st11" d="M611.82,914.22c-15.77-17.85-32.42-34.82-50.51-50.36c0.24-1.71,0.48-3.41,0.72-5.11
		c2.48-1.35,4.66-1.66,6.95,0.71c16.87,17.43,33.83,34.78,50.76,52.15C617.73,914.38,614.81,914.43,611.82,914.22z"/>
	<path class="st11" d="M1160.5,1040.84c-15.77-17.85-32.42-34.83-50.51-50.36c0.24-1.71,0.48-3.41,0.72-5.11
		c2.48-1.35,4.66-1.66,6.95,0.71c16.87,17.43,33.83,34.78,50.76,52.15C1166.41,1041,1163.49,1041.04,1160.5,1040.84z"/>
	<path class="st11" d="M1223.81,787.6c-15.77-17.85-32.42-34.83-50.51-50.36c0.24-1.71,0.48-3.41,0.72-5.11
		c2.48-1.35,4.66-1.66,6.95,0.71c16.87,17.43,33.83,34.78,50.76,52.15C1229.72,787.77,1226.8,787.81,1223.81,787.6z"/>
	<path class="st11" d="M738.44,787.6c-15.77-17.85-32.42-34.82-50.51-50.36c0.24-1.71,0.48-3.41,0.72-5.11
		c2.48-1.35,4.66-1.66,6.95,0.71c16.87,17.43,33.83,34.78,50.76,52.15C744.35,787.77,741.43,787.81,738.44,787.6z"/>
	<path class="st20" d="M1036.46,732.2c-10.53-2.72-15.28-12.45-22.67-18.94c-9.48-8.33-18.39-17.32-27.54-26.02
		c12.18-6.88,19.47,3.26,25.68,9.54C1021.97,706.93,1031.17,718.41,1036.46,732.2z"/>
	<path class="st31" d="M640.81,861.44c-12.83-12.39-25.63-24.82-38.51-37.16c-3.38-3.24-6.05-7.69-11.61-7.69
		c4.66-4.85,10.55-1.81,15.86-2.5c8.09,5.91,15,13.01,21.05,20.97C635.5,842.11,638.66,851.52,640.81,861.44z"/>
	<path class="st32" d="M627.61,835.06c-8.07-5.93-15.01-13-21.05-20.97C616.88,817.77,623.69,824.96,627.61,835.06z"/>
</g>
<linearGradient id="SVGID_1_" gradientUnits="userSpaceOnUse" x1="600.6025" y1="348.5318" x2="1427.182" y2="348.5318">
	<stop  offset="1.385225e-07" style="stop-color:#FFFFFF"/>
	<stop  offset="1" style="stop-color:#B4DAF9"/>
</linearGradient>
<path class="st33" d="M764.85,622.12c-0.85-0.48-1.8-0.74-2.76-0.93c-7.52-1.52-15.01-3.18-22.41-5.24
	c-13.11-3.64-25.4-9.22-37.35-15.55c-10.77-5.71-20.85-12.59-30.25-20.38c-16.35-13.54-30.38-29.16-41.63-47.2
	c-9.66-15.49-17.14-31.95-22.13-49.57c-2.35-8.29-3.35-16.89-5.77-25.08c-1.99-6.69-1.16-13.22-1.32-19.81
	c-0.24-10.58-0.06-21.17-0.02-31.75c0-0.96,0.14-1.92,0.45-2.84c0.63-1.88,1.12-3.78,1.73-5.67c0.13-0.39,0.23-0.78,0.3-1.18
	c1.88-10.55,4.57-20.89,8.1-31.02c6.68-19.1,16.15-36.79,28.46-52.73c16.04-20.75,35.26-38.09,58.37-50.88
	c6.47-3.59,12.93-7.2,19.92-9.66c3.99-1.4,3.23-5.25,4.07-7.92c8.96-28.19,22.9-53.67,41.13-76.86
	c13.68-17.41,29.51-32.56,47.23-45.92c21.26-16.04,44.59-28.03,69.56-36.83c12.53-4.42,25.51-7.49,38.69-9.55
	c0.88-0.14,1.76-0.34,2.63-0.55c0.74-0.18,1.43-0.49,2.13-0.78c1.53-0.66,3.37-0.03,4.93-0.59c1-0.35,2.05-0.54,3.1-0.54
	c18.5-0.01,36.98,0.02,55.48-0.08c2.3-0.01,4.19,0.91,6.24,1.55c5.35,1.64,10.96,2.13,16.43,3.23c15.82,3.18,31.04,8.07,45.87,14.3
	c16.34,6.87,31.81,15.42,46.2,25.71c15.86,11.34,30.24,24.4,43.06,39.16c7.45,8.58,14.49,17.46,20.53,27.11
	c0.66,1.06,1.46,1.71,3.05,1.34c19.05-4.41,38.45-3.28,57.66-2.46c8.63,0.37,17.41,2.41,26.07,4.23
	c27.49,5.76,52.68,16.71,75.87,32.28c24.46,16.43,44.88,36.95,61.29,61.54c14.75,22.11,24.81,46.17,31.44,71.75
	c1.64,6.31,2.44,12.83,3.64,19.25c3.43,18.44,0.96,37.05,1.52,55.57c0.03,1.05-0.21,2.07-0.53,3.06c-0.42,1.31,0.14,2.9-0.52,4.15
	c-0.31,0.59-0.63,1.18-0.79,1.84c-2.16,8.71-3.61,17.58-6.08,26.25c-5.64,19.9-14.12,38.44-24.82,56.05
	c-10.24,16.84-22.72,31.89-37.13,45.24c-19.09,17.69-40.53,31.83-64.57,42.07c-11.33,4.83-22.94,8.6-34.8,11.71
	c-5.62,1.47-11.41,2.29-17.15,3.3c-0.94,0.17-1.89,0.41-2.72,0.88c-1.21,0.68-2.8,0.42-4.06,0.97c-1.22,0.53-2.49,0.92-3.81,0.92
	c-141.85,0.01-283.69,0.03-425.55,0.03c-10.66,0-21.33-0.03-31.99-0.05c-1.29,0-2.53-0.37-3.71-0.89
	C767.09,622.66,765.83,622.68,764.85,622.12z"/>
</svg>
