<?xml version="1.0" encoding="utf-8"?>
<!-- Generator: Adobe Illustrator 25.4.1, SVG Export Plug-In . SVG Version: 6.00 Build 0)  -->
<svg version="1.1" id="Layer_1" xmlns="http://www.w3.org/2000/svg" xmlns:xlink="http://www.w3.org/1999/xlink" x="0px" y="0px"
	 viewBox="0 0 1920 1080" style="enable-background:new 0 0 1920 1080;" xml:space="preserve">
<style type="text/css">
	.st0{fill:#2276B6;}
	.st1{fill:#52A2DF;}
	.st2{fill:#4E9FDC;}
	.st3{fill:#1F74B4;}
	.st4{fill:#1D72B2;}
	.st5{fill:#AFD5F2;}
	.st6{fill:#ACD3F2;}
	.st7{fill:#9ACAEF;}
	.st8{fill:#B3D7F3;}
	.st9{fill:#9ECCF0;}
	.st10{fill:#A8D1F1;}
	.st11{fill:#A2CEF0;}
	.st12{fill:#B9DAF4;}
	.st13{fill:#96C8EF;}
	.st14{fill:#B6D8F3;}
	.st15{fill:#8AC2ED;}
	.st16{fill:#94C7EE;}
	.st17{fill:#8DC4ED;}
	.st18{fill:#91C5EE;}
	.st19{fill:#87C0EC;}
	.st20{fill:#83BEEC;}
	.st21{fill:#A5D0F1;}
	.st22{fill:#7FBCEB;}
	.st23{fill:#BDDCF4;}
	.st24{fill:#7CBAEB;}
	.st25{fill:#55A5E2;}
	.st26{fill:#79B9EA;}
	.st27{fill:#C0DEF5;}
	.st28{fill:#1B70B0;}
	.st29{fill:#A1CEF0;}
	.st30{fill:#9BCAEF;}
	.st31{fill:#A7D1F1;}
	.st32{fill:#96C8EE;}
	.st33{fill:#AED4F2;}
	.st34{fill:#8FC4EE;}
	.st35{fill:#88C1ED;}
	.st36{fill:#91C6EE;}
	.st37{fill:#92C6EE;}
	.st38{fill:#8DC3ED;}
	.st39{fill:#A3CFF1;}
	.st40{fill:#9FCDF0;}
	.st41{fill:#7EBCEB;}
	.st42{fill:#A0CDF0;}
	.st43{fill:#7EBBEB;}
	.st44{fill:#B8DAF4;}
	.st45{fill:#BEDCF5;}
	.st46{fill:#99C9EF;}
	.st47{fill:#BCDBF4;}
	.st48{fill:#B4D7F3;}
	.st49{fill:#93C7EE;}
	.st50{fill:#81BDEC;}
	.st51{fill:#ADD4F2;}
	.st52{fill:#BADAF4;}
	.st53{fill:#B1D5F2;}
	.st54{fill:#76B5E4;}
	.st55{fill:#B0D5F2;}
	.st56{fill:#99C8EC;}
	.st57{fill:#ACD3F1;}
	.st58{fill:#2679B9;}
	.st59{fill:#4394D2;}
	.st60{fill:#3083C2;}
	.st61{fill:#3F91CF;}
	.st62{fill:#3386C5;}
	.st63{fill:#287BBB;}
	.st64{fill:#2A7EBD;}
	.st65{fill:#3D8FCD;}
	.st66{fill:#2D80C0;}
	.st67{fill:#4596D4;}
	.st68{fill:#4C9CDA;}
	.st69{fill:#3688C7;}
	.st70{fill:#4798D6;}
	.st71{fill:#3A8CCB;}
	.st72{fill:#499AD8;}
	.st73{fill:#388BC9;}
</style>
<g>
	<g>
		<path class="st0" d="M447.52,343.98c5.18-9.31,4.57-20.2,8.24-29.92c0.7-1.86,1.57-3.66,2.36-5.49c2.75-4.94,6.1-3.34,9.41-0.78
			c3.02,2.34,5.56,5.19,8.25,7.88c64.38,64.37,128.79,128.7,193.04,193.19c4.81,4.83,11.3,8.18,14.03,15.01
			c1.18,12.86,0.09,25.82,2.32,38.62c0.52,3,0,6.14-2.53,8.44c-3.47-0.17-6.94-0.33-10.41-0.5c-4.52-3.28-8.17-7.48-12.09-11.4
			c-64.74-64.71-129.47-129.42-194.16-194.18c-5.88-5.89-11.81-11.7-18.47-16.72C447.52,346.76,447.52,345.37,447.52,343.98z"/>
		<path class="st1" d="M924.01,4.82c10.99,4.72,23.25,4.11,34.39,8.2c3.81,1.4,7.64,2.72,11.46,4.07
			c49.22,49.3,98.79,98.26,147.63,147.95c0.76,2.08,1.51,4.17,2.27,6.25c-2.63,2.84-6.15,2.64-9.56,2.85
			c-3.75-0.04-7.54-0.35-11.08,1.36c-9.16,2.99-18.58,4.8-28.13,5.98c-1.05-0.05-2.05-0.32-3-0.75
			c-10.87-14.87-24.69-26.99-37.59-39.95c-40.05-40.23-80.3-80.26-120.3-120.52c-4.43-4.46-10.5-8.07-11.05-15.45
			C907.37,4.82,915.69,4.82,924.01,4.82z"/>
		<path class="st2" d="M899.04,4.82c53.06,53.4,106.11,106.81,159.18,160.21c4.14,4.16,8.69,8.02,9.36,14.42
			c-8.92,8.98-21.5,9.5-32.34,14.04c-1.03,0.02-2.03-0.17-3-0.54c-55.55-56.59-112.1-112.2-167.94-168.52
			c-4.16-4.2-10.34-7.61-8.92-15.24c4.47-2.7,10.4-0.52,14.53-4.37C879.62,4.82,889.33,4.82,899.04,4.82z"/>
		<path class="st3" d="M447.52,348.14c5.3-0.79,8.15,2.94,11.31,6.11c69.27,69.27,138.54,138.54,207.79,207.83
			c2.39,2.39,5.52,4.39,5.62,8.36c-9.04-0.01-18.09-0.02-27.13-0.02c-3.86-1.52-7.93-0.19-11.86-0.87
			c-46.55-46.37-92.86-93-139.48-139.3c-15.2-15.1-29.45-31.21-46.25-44.65C447.52,373.11,447.52,360.63,447.52,348.14z"/>
		<path class="st4" d="M447.52,385.6c4.8-0.7,7.62,2.39,10.6,5.37c56.34,56.38,112.71,112.73,169.05,169.11
			c2.4,2.4,5.51,4.41,5.5,8.42c-2.15,1.85-4.43,1.35-6.73,0.38c-13.67-0.31-26.79-3.18-39.44-8.32c0.41-4.84-3.08-7.49-5.98-10.38
			c-37.44-37.49-74.91-74.96-112.4-112.4c-2.9-2.9-5.54-6.39-10.39-5.95c-6.08-10.44-4.22-23.28-10.2-33.75
			C447.52,393.92,447.52,389.76,447.52,385.6z"/>
		<path class="st5" d="M1032.28,192.3c0.69,0.05,1.37,0.11,2.05,0.19c4.54,2.73,7.66,6.98,11.32,10.64
			c144.83,144.76,289.63,289.56,434.37,434.4c4.14,4.15,9.01,7.58,12.45,12.43c-3.74,9.52-9.3,17.83-16.63,24.96
			c-4.63,6.82-9.89,6.32-15.6,1.4c-2.89-2.49-5.56-5.22-8.25-7.91c-146.83-146.83-293.67-293.65-440.45-440.53
			c-4.78-4.78-11.05-8.77-11.36-16.7c0.74-2.57,2.55-4.29,4.55-5.88C1013.55,200.22,1021.7,193.69,1032.28,192.3z"/>
		<path class="st6" d="M1001.02,211.12c1.91,4.14,4.69,7.59,7.92,10.82c149.85,149.78,299.67,299.59,449.46,449.44
			c5.14,5.14,10.1,9.83,17.44,3.55c-7.82,13.12-19.52,22.27-31.69,30.93c-4.64-1.23-7.45-4.91-10.61-8.07
			c-150.87-150.84-301.73-301.69-452.55-452.58c-3.36-3.36-7.59-6.23-8.27-11.57c1.68-6.11,5.55-10.57,10.61-14.14
			C989.72,217.75,993.12,209.68,1001.02,211.12z"/>
		<path class="st7" d="M1292.22,736.98c-18.03,0-36.07-0.01-54.1-0.01c-6.14-3.56-9.97-9.53-14.84-14.39
			C1102,601.45,980.8,480.22,859.59,359c-2.69-2.69-5.46-5.32-7.99-8.17c-4.52-5.09-5.37-9.71,1.81-13.24
			c10.56-3.98,21.56-2.63,32.43-2.73c5.04,0.09,10.19-0.39,14.67,2.71c6.28,7.84,13.53,14.79,20.62,21.88
			c120.5,120.5,241.02,240.98,361.42,361.57C1286.95,725.42,1293.63,728.88,1292.22,736.98z"/>
		<path class="st8" d="M1492.47,649.96c-4.39,0.04-6.68-3.28-9.33-5.93c-147.74-147.71-295.47-295.44-443.17-443.19
			c-2.39-2.39-5.54-4.37-5.64-8.35c10.39-6.11,22.26-8.44,33.25-13.04c0.7,0.13,1.4,0.25,2.1,0.38c4.41,3.4,8.11,7.55,12.03,11.46
			c136.04,136.02,272.08,272.03,408.02,408.15c5.4,5.4,11.66,9.71,17.04,15.08C1504.67,627.4,1499.55,639.08,1492.47,649.96z"/>
		<path class="st9" d="M1292.22,736.98c-2.04-5.36-6.15-9.11-10.07-13.03c-124.27-124.24-248.53-248.49-372.73-372.8
			c-3.31-3.31-8.04-5.8-8.3-11.42c3.95-5.9,6.91-12.26,8.86-19.1c1.73-4.08,2.37-8.86,6.97-11.15c5.8-1.36,8.94,2.82,12.32,6.16
			c12.84,12.65,25.52,25.45,38.26,38.19c121.78,121.78,243.59,243.54,365.26,365.44c4.74,4.75,12.44,8.58,9.44,17.72
			C1325.56,736.98,1308.89,736.98,1292.22,736.98z"/>
		<path class="st10" d="M973.74,233.14c1.83,4.32,5.63,6.97,8.78,10.12c151.09,151.15,302.21,302.26,453.3,453.4
			c2.92,2.92,5.55,6.13,8.32,9.2c-7.1,4.94-13.75,10.66-22.44,12.82c-3.87,2.03-6.6-0.2-9.25-2.54c-2.34-2.07-4.48-4.34-6.69-6.54
			c-147.33-147.33-294.68-294.66-441.95-442.05c-4.28-4.28-10.11-7.74-10.27-14.96c1.13-7,6.32-11.26,10.84-15.97
			C967.13,234.45,969.52,231.32,973.74,233.14z"/>
		<path class="st11" d="M1342.23,736.99c-0.64-5.57-4.26-9.26-7.98-12.97c-135.81-135.78-271.6-271.58-407.41-407.35
			c-2.64-2.64-4.86-6.06-9.28-6.02c-1.75-10.22,5.66-17.14,9.14-25.49c1.47-1.55,3.21-2.63,5.31-3.08c6.53-0.52,9.81,4.5,13.63,8.31
			c44.64,44.52,89.19,89.12,133.77,133.7c98.22,98.22,196.47,196.41,294.55,294.77c3.69,3.7,10.71,6.34,7.81,14.03
			c-5.16,3.2-11.25,2.52-16.81,4.07c-5.44-1.25-10.88-1.3-16.32,0.03C1346.5,736.99,1344.36,736.99,1342.23,736.99z"/>
		<path class="st12" d="M1109.41,171.36c3.45-0.03,6.9-0.05,10.36-0.08c4.15,0.06,8.3,0.12,12.46,0.19c5,1.93,10.22,0.34,15.29,0.93
			c5.12,2.04,7.51,7,11.12,10.6c64.47,64.3,128.85,128.69,193.17,193.14c3.39,3.4,7.85,5.77,10.08,10.3
			c0.67,4.51-0.97,9.19,0.99,13.6c1.8,6.53,7.62,5.31,12.26,6.29c4.24,0.89,8.53,1.56,12.79,2.33c-0.46,2.71-3.46,4.39,0.37,8.21
			c36.74,36.62,73.47,73.24,110.14,109.93c3.19,3.19,7.33,5.21,10.36,8.59c3.39,5.13,1.8,11.39,3.87,16.82
			c-1.37,3.39-1.42,6.77,0.03,10.14c0.01,3.53,0.01,7.07,0.02,10.6c-2.39,2.59,1.21,7.72-3.23,9c-4.26,1.23-6.83-2.55-9.59-5.08
			c-2.55-2.34-4.93-4.87-7.38-7.31c-127.09-127.09-254.2-254.16-381.17-381.36c-4.07-4.08-10.94-7.07-8.94-15.01
			C1104.48,171.58,1107.39,173.18,1109.41,171.36z"/>
		<path class="st13" d="M851.07,340.19c-1.61,2.59-2.12,5.02,0.56,7.38c2.08,1.83,3.93,3.91,5.89,5.87
			c123.51,123.51,247.01,247.02,370.53,370.51c3.92,3.92,8.03,7.67,10.07,13.03c-14.54-0.01-29.08-0.01-43.62-0.02
			c-4.73-3.56-8.63-8.01-12.79-12.17c-119.39-119.37-238.79-238.74-358.1-358.19c-4.72-4.73-11.27-8.65-10.45-16.95
			c1.86-3.59,5.09-5.26,8.78-6.31c9.34-1.6,18.2-6.33,28.09-4.38C850.38,339.37,850.73,339.78,851.07,340.19z"/>
		<path class="st14" d="M1102.96,173.48c0.06,4.42,3.59,6.55,6.22,9.18c130.65,130.7,261.36,261.34,391.89,392.16
			c5.85,5.86,9.02,6.7,11.65-1.87c0.74,14.25-0.47,28.21-5.95,41.56c-5.58-0.53-9.36-4.02-13.09-7.75
			c-139.48-139.52-278.98-279.01-418.46-418.53c-2.4-2.4-5.51-4.42-5.53-8.42c9.74-2.24,19.48-4.49,29.22-6.73
			C1100.35,172.24,1101.73,172.13,1102.96,173.48z"/>
		<path class="st15" d="M1069.58,736.95c-16.62,0-33.25-0.01-49.87-0.01c-4.75-3.54-8.63-8-12.79-12.16
			c-94.58-94.55-189.15-189.12-283.7-283.72c-3.66-3.66-7.79-6.92-10.39-11.55c-0.52-1.47-0.53-2.95-0.12-4.44
			c6.17-9.46,12.37-18.9,21.37-26.04c1-0.14,1.99-0.07,2.96,0.21c3.8,1.92,6.42,5.22,9.34,8.14
			c104.54,104.5,209.08,209,313.5,313.61C1064.28,725.4,1070.94,728.86,1069.58,736.95z"/>
		<path class="st16" d="M813.73,350.22c1.97,5.39,6.03,9.18,9.95,13.1c121.03,121,242.05,242,363.01,363.07
			c3.08,3.08,7.42,5.42,7.8,10.57c-13.87,0-27.74,0-41.62-0.01c-4.74-3.56-8.64-8.01-12.8-12.17
			c-115.75-115.72-231.5-231.44-347.14-347.27c-4.15-4.16-10.69-7.32-9.17-15.12c2.37-3.5,5.53-6.08,9.31-7.93
			C800.11,353.76,805.66,345.82,813.73,350.22z"/>
		<path class="st17" d="M1069.58,736.95c-2.06-5.35-6.17-9.1-10.09-13.02c-104.91-104.88-209.8-209.77-314.66-314.69
			c-2.91-2.91-5.45-6.2-8.16-9.32c3.72-11.63,13.2-17.52,22.99-23.11c115.27,115.56,230.83,230.85,346.14,346.37
			c3.74,3.75,8.96,7.04,7.47,13.78C1098.71,736.95,1084.15,736.95,1069.58,736.95z"/>
		<path class="st18" d="M1113.28,736.95c-2.06-5.35-6.16-9.1-10.09-13.02C991.2,611.97,879.22,500,767.3,387.98
			c-3.08-3.08-7.43-5.43-7.65-10.64c-0.75-1.75,0.28-2.8,1.47-3.79c8.02-3.07,13.35-12.19,23.49-10.53
			c0.4,5.14,4.74,7.48,7.82,10.56c117.53,117.63,235.12,235.19,352.64,352.82c3.08,3.08,7.42,5.42,7.8,10.56
			C1139.68,736.95,1126.48,736.95,1113.28,736.95z"/>
		<path class="st19" d="M713.44,429.18c2.89,2.44,5.97,4.69,8.64,7.35c96.89,96.82,193.74,193.67,290.55,290.57
			c2.85,2.85,6.82,5.06,7.08,9.84c-14.57,0-29.13,0-43.69-0.01c-4.75-3.53-8.63-7.99-12.79-12.14
			c-85.21-85.18-170.41-170.37-255.57-255.6c-3.87-3.87-8.52-7.21-10.19-12.88c-0.42-2.05-0.27-4.07,0.31-6.07
			C702.38,442.77,703.66,432.8,713.44,429.18z"/>
		<path class="st20" d="M699.04,455.85c2.7,3.13,5.21,6.44,8.12,9.36c87,87.07,174.05,174.08,261.03,261.17
			c3.08,3.09,7.43,5.42,7.83,10.57c-15.95,0-31.91,0-47.86-0.01c-4.49-3.31-8.15-7.5-12.07-11.42
			c-73.79-73.77-147.57-147.54-221.31-221.35c-3.87-3.88-8.52-7.25-9.99-13.03c-0.5-2.63-0.31-5.23,0.33-7.82
			c2.08-6.2,3.84-12.53,6.36-18.56C693.02,461.09,693.97,456.64,699.04,455.85z"/>
		<path class="st21" d="M955.09,252.04c0.02,4.37,3.32,6.67,5.98,9.32c150.42,150.45,300.86,300.89,451.31,451.31
			c2.66,2.66,4.97,5.94,9.32,6c-6.26,5.05-13.84,7.31-21.2,10.06c-4.91-3.89-9.08-8.55-13.49-12.95
			c-145.14-145.11-290.27-290.23-435.35-435.4c-3.85-3.86-8.72-7.03-10.15-12.86c0.01-3.72,2.37-6.4,4.13-9.36
			C948.26,255.3,950.33,251.59,955.09,252.04z"/>
		<path class="st22" d="M686.74,491.56c2.72,3.1,5.29,6.37,8.2,9.28c75.13,75.19,150.3,150.33,225.4,225.54
			c3.08,3.08,7.42,5.41,7.82,10.55c-16.69,0-33.37,0-50.06-0.01c-1.7-1.04-3.85-0.68-5.54-1.78
			c-55.93-58.25-113.98-114.39-170.76-171.79c-1.22-1.23-2.3-2.67-3.7-3.64c-12.53-8.74-19.78-19.81-16.51-35.85
			c0.64-3.15-1.78-5.95-1.67-9.14C680.98,506.64,677.76,497.29,686.74,491.56z"/>
		<path class="st21" d="M942.74,267c2.75,3.09,5.34,6.33,8.26,9.25c147,147.05,294.04,294.07,441.01,441.15
			c3.32,3.32,8.03,5.79,8.49,11.33c-6.24,1.39-11.93,5.3-18.73,4.15c-0.09-4.41-3.64-6.52-6.26-9.14
			c-144.49-144.54-289-289.06-433.54-433.55c-2.87-2.87-5.26-6.64-10.06-6.69C931.43,275.32,935.1,269.85,942.74,267z"/>
		<path class="st23" d="M1360.96,385.59c-4.42,0-6.57-3.51-9.2-6.13c-65.66-65.6-131.29-131.23-196.89-196.89
			c-2.62-2.63-6.13-4.78-6.13-9.2c0.95-1.49,3-0.64,4.05-1.92c18.79,3.95,38.1,5.53,56.21,12.51c-0.15,4.39,3.15,6.65,5.78,9.29
			c41.25,41.33,82.56,82.59,123.85,123.89c3.42,3.43,6.81,6.91,11.73,8.2c6.35,18.25,9.75,37.16,12.52,56.21
			C1361.6,382.59,1362.46,384.65,1360.96,385.59z"/>
		<path class="st24" d="M682.54,516.45c-2.66,17.71,4.21,29.74,17.51,42.5c54.15,51.92,106.55,105.67,159.67,158.67
			c5.4,5.39,10.52,10.92,14.36,17.55c-4.57,2.51-9.8-0.33-14.42,1.76c-11.96-2.15-24.32-2.49-35.56-7.87
			c-43.51-46.69-88.74-91.67-135.25-135.37c-4.21-7-3.79-15.26-6.2-22.75c-1.94-16.64-2.43-33.35-2.08-50.09
			C679.03,518.39,679.41,516.81,682.54,516.45z"/>
		<path class="st25" d="M1117.5,165.04c-4.41-0.01-6.55-3.51-9.17-6.12c-44.22-44.16-88.41-88.35-132.57-132.57
			c-2.61-2.62-6.12-4.78-5.89-9.26c29.27,7.89,54.66,23.13,77.46,42.51C1080.68,87.95,1104.93,122.69,1117.5,165.04z"/>
		<path class="st26" d="M688.85,593.69c5.59,0.5,9.33,4.04,13.04,7.76c38.15,38.2,76.33,76.38,114.53,114.54
			c3.72,3.71,7.27,7.45,7.67,13.07c-25.19-5.32-46.95-17.96-66.95-33.31c-32.34-24.83-54.47-57.26-67.23-96.02
			C689.28,597.8,689.19,595.7,688.85,593.69z"/>
		<path class="st23" d="M1508.8,535.38c-5.18-0.42-8.83-3.47-12.32-6.96c-35.92-35.97-71.89-71.89-107.8-107.87
			c-3.61-3.62-9.05-7.4-0.76-11.89c11.9,6.28,25.33,8.46,37.3,14.96c43,23.35,69.68,59.18,83.13,105.59
			C1508.91,531.14,1508.67,533.32,1508.8,535.38z"/>
		<path class="st27" d="M1350.36,325.33c-4.28,3.08-6.84,0.2-9.63-2.6c-43.02-43.08-86.06-86.12-129.14-129.14
			c-2.81-2.8-5.66-5.37-2.59-9.64c3.9,6.75,11.6,4.45,17.29,7.16c57.12,27.23,97.8,69.83,121.58,128.51
			C1348.65,321.55,1349.53,323.43,1350.36,325.33z"/>
		<path class="st28" d="M457.72,431.83c0.53-1.88,0.53-4.81,3.55-3.5c2.1,0.91,3.78,2.92,5.47,4.61
			c39.55,39.51,79.13,79,118.46,118.73c1.8,1.81,10.52,4.67,1.29,8.89c-25.24-6.32-46.82-19.65-66.59-35.91
			c-28.28-23.25-48.42-52.48-61.12-86.81C458.09,435.97,458.06,433.84,457.72,431.83z"/>
		<path class="st29" d="M1306.86,992.98c-2.34,1.45-1.21,5.25-4.21,6.26c-3.13-0.82-5.41-2.9-7.62-5.11
			c-20.94-20.93-41.9-41.84-62.79-62.83c-1.93-1.94-4.03-3.82-4.42-6.78c1.47-2.77,2.93-5.53,4.4-8.3c4.61-2.95,7.14,0.91,9.63,3.37
			c20.7,20.38,41.21,40.95,61.66,61.58C1306.75,984.43,1309.65,987.95,1306.86,992.98z"/>
		<path class="st10" d="M1306.86,992.98c0.46-3.81-1.4-6.48-3.98-9.05c-21.53-21.43-42.99-42.92-64.45-64.41
			c-1.74-1.74-3.54-3.31-6.2-3.29c2.01-2.78,4.02-5.56,6.02-8.34c3.96-2.8,6.57,0.2,8.9,2.48c20.41,20,40.57,40.25,60.64,60.59
			c2.57,2.6,5.51,5.49,3.31,9.88C1310.92,985.31,1310.04,989.55,1306.86,992.98z"/>
		<path class="st30" d="M582.55,716.33c0.75-3.12,1.84-6.06,4.4-8.21c4.52-2.94,7.14,0.7,9.66,3.18
			c20.84,20.53,41.52,41.22,62.07,62.04c2.59,2.62,5.66,5.41,3.23,9.83c-1.33,2.82-3.45,4.91-6.06,6.53
			C629.56,767.09,605.03,742.73,582.55,716.33z"/>
		<path class="st7" d="M823.92,982.67c0.75-3.12,1.84-6.06,4.4-8.21c4.56-2.95,7.19,0.75,9.71,3.24
			c20.75,20.43,41.32,41.03,61.78,61.76c2.53,2.56,6.01,5.21,3.38,9.75c-1.99,2.28-3.99,4.55-5.98,6.83
			C870.93,1033.43,846.4,1009.07,823.92,982.67z"/>
		<path class="st31" d="M832.76,966.17c1.99-2.78,3.99-5.56,5.98-8.35c3.96-2.8,6.57,0.2,8.9,2.48c20.41,20,40.57,40.25,60.64,60.59
			c2.57,2.6,5.5,5.49,3.31,9.88c-0.02,2.25,0.27,4.59-1.85,6.21c-3.94,2.69-6.67-0.09-9.01-2.43
			C877.98,1011.85,854.77,989.6,832.76,966.17z"/>
		<path class="st31" d="M670.22,764.43c-0.01,2.26,0.25,4.61-1.86,6.25c-5.2,1.31-8.54-2.32-11.51-5.23
			c-22.12-21.57-44.27-43.12-65.46-65.62c1.99-2.78,3.99-5.56,5.98-8.34c3.96-2.8,6.57,0.2,8.9,2.48
			c20.41,20,40.57,40.25,60.64,60.59C669.49,757.15,672.42,760.04,670.22,764.43z"/>
		<path class="st29" d="M591.39,699.83c4.38,0.11,6.45,3.66,9.06,6.26c16.85,16.74,33.68,33.49,50.37,50.39
			c5.34,5.41,10.92,10.42,17.54,14.2c-0.17,5.19-3.16,8.92-6.46,12.49c0.02-3.48-2.35-5.56-4.55-7.75
			c-20.91-20.9-41.8-41.8-62.71-62.7c-2.18-2.17-4.17-4.68-7.7-4.6C588.43,705.36,589.91,702.59,591.39,699.83z"/>
		<path class="st29" d="M832.76,966.17c4.39,0.11,6.47,3.68,9.08,6.28c19.34,19.23,38.57,38.56,57.91,57.8
			c2.87,2.85,5.2,6.66,9.99,6.73c-0.28,5.1-2.84,8.97-6.55,12.23c0.05-3.11-2.02-5.01-3.99-6.98
			c-21.29-21.29-42.59-42.57-63.87-63.87c-1.98-1.98-3.91-3.97-7.02-3.9C829.8,971.7,831.28,968.93,832.76,966.17z"/>
		<path class="st7" d="M1227.83,924.52c25.81,24.03,50.63,49.06,74.82,74.72c-2.31,2-2.73,5.63-5.93,6.86
			c-26.28-22.61-50.81-46.96-73.29-73.37C1224.18,929.61,1225.26,926.67,1227.83,924.52z"/>
		<path class="st7" d="M1027.99,899.38c-2.34,1.97-2.72,5.63-5.94,6.84c-26.15-22.62-50.76-46.76-73.04-73.24
			c0.45-3.22,1.45-6.19,3.94-8.46c4.66-1.31,6.87,2.4,9.41,4.91c20.27,20.08,40.43,40.27,60.54,60.51
			C1025.46,892.52,1028.95,894.81,1027.99,899.38z"/>
		<path class="st10" d="M1036.45,880.96c-0.02,2.32,0.19,4.71-1.96,6.36c-4.25,0.05-7.02-2.71-9.7-5.37
			c-20.66-20.46-41.19-41.04-61.69-61.65c-1.71-1.72-3.39-3.49-3.72-6.08c1.4-2.07,2.81-4.15,4.21-6.22
			c3.44-2.63,6.03-0.26,8.16,1.85c21.61,21.5,43.72,42.51,64.39,64.94c0.45,0.49,0.63,1.22,0.89,1.87
			C1037.41,878.18,1037.51,879.65,1036.45,880.96z"/>
		<path class="st32" d="M1223.43,932.73c25.38,23.5,49.87,47.89,73.29,73.36c-1.67,2.47-3.62,4.62-6.55,5.63
			c-2.74-0.76-4.9-2.42-6.87-4.39c-19.75-19.69-39.47-39.41-59.16-59.16c-1.97-1.97-3.7-4.09-4.31-6.9
			C1221.1,938.46,1220.84,934.99,1223.43,932.73z"/>
		<path class="st33" d="M911.59,1030.77c-0.01-3.03-1.84-5.05-3.82-7.03c-20.7-20.67-41.38-41.35-62.05-62.04
			c-1.96-1.97-3.89-3.95-6.98-3.87c2.13-2.75,4.26-5.5,6.39-8.26c4.2-1.13,6.35,2.07,8.7,4.39c17.69,17.5,35.2,35.18,52.87,52.7
			c3.3,3.27,5.37,7.08,6.69,11.42C913.19,1022.37,914.96,1026.93,911.59,1030.77z"/>
		<path class="st33" d="M1311.1,980.83c-0.01-3.03-1.84-5.05-3.82-7.03c-20.7-20.67-41.37-41.35-62.05-62.04
			c-1.96-1.97-3.89-3.95-6.98-3.88c2.13-2.75,4.26-5.5,6.39-8.26c4.2-1.13,6.35,2.07,8.7,4.39c17.69,17.5,35.2,35.18,52.87,52.7
			c3.3,3.27,5.38,7.08,6.68,11.42C1312.69,972.43,1314.47,976.99,1311.1,980.83z"/>
		<path class="st33" d="M670.22,764.43c-0.01-3.03-1.84-5.04-3.82-7.03c-20.7-20.67-41.37-41.35-62.05-62.04
			c-1.96-1.97-3.89-3.95-6.98-3.88c2.13-2.75,4.26-5.5,6.39-8.26c4.2-1.13,6.35,2.07,8.7,4.39c17.69,17.5,35.2,35.18,52.87,52.7
			c3.3,3.27,5.38,7.07,6.68,11.42C671.82,756.03,673.59,760.59,670.22,764.43z"/>
		<path class="st34" d="M1219.82,941.27c24.1,22.83,47.68,46.19,70.34,70.46c-2.57,1.8-4.78,4.29-8.3,4.23
			c-5.21-2.27-8.9-6.42-12.8-10.32c-13.67-13.69-27.41-27.3-40.99-41.08c-3.7-3.75-7.69-6.89-12.58-8.86
			C1215.48,950.45,1217.48,945.81,1219.82,941.27z"/>
		<path class="st33" d="M1036.35,876.67c-20.94-20.61-41.85-41.24-62.85-61.79c-2.88-2.82-5.08-6.79-9.91-6.88
			c2.13-2.75,4.25-5.51,6.38-8.26c4.64-1.08,6.92,2.52,9.51,5.07c17.24,17.04,34.25,34.32,51.52,51.33
			C1037.02,862.08,1039.22,868.61,1036.35,876.67z"/>
		<path class="st8" d="M1036.35,876.67c1.39-8.29-2.13-14.13-8.1-19.82c-19.69-18.75-38.89-38.03-58.28-57.1
			c1.41-3.74,5.13-4.68,8.02-6.61c5.35,1.48,8.24,6.06,11.81,9.66c14.78,14.89,30.06,29.28,44.31,44.7
			c2.72,11.02,7.46,21.9,2.34,33.47C1036.42,879.53,1036.38,878.1,1036.35,876.67z"/>
		<path class="st8" d="M1312.89,968.15c-21.74-23.85-44.75-46.43-68.25-68.52c1.4-3.74,5.11-4.69,8.01-6.61
			c5.35,1.48,8.24,6.06,11.81,9.66c14.78,14.89,30.06,29.29,44.31,44.7C1310.4,954.24,1313.45,960.84,1312.89,968.15z"/>
		<path class="st8" d="M913.38,1018.08c-21.74-23.85-44.75-46.43-68.25-68.52c1.4-3.74,5.11-4.69,8.01-6.61
			c5.35,1.48,8.24,6.06,11.81,9.66c14.78,14.89,30.06,29.29,44.31,44.69C910.9,1004.18,913.94,1010.77,913.38,1018.08z"/>
		<path class="st8" d="M672.01,751.74c-21.74-23.85-44.75-46.43-68.25-68.51c1.4-3.74,5.11-4.69,8.01-6.61
			c5.35,1.48,8.23,6.06,11.81,9.65c14.82,14.86,30.03,29.34,44.31,44.74C669.56,737.87,672.57,744.45,672.01,751.74z"/>
		<path class="st35" d="M1215.5,955.7c3.03-2.04,5.52-1.69,8.19,1.04c19.33,19.8,38.77,39.49,58.18,59.22
			c-5.48,1.42-10.36,5.3-16.5,3.95c1.1-3.22,0.17-5.54-2.34-7.99c-13.99-13.66-27.81-27.49-41.48-41.47
			c-2.45-2.51-4.76-3.46-7.98-2.33C1212.63,963.73,1214.39,959.76,1215.5,955.7z"/>
		<path class="st36" d="M818.19,997.37c0.7-2.08,1.4-4.17,2.09-6.25c4.02-3.12,7.26-0.83,10,1.85
			c20.41,19.92,40.58,40.09,60.51,60.5c1.66,1.7,3.2,3.7,2.08,6.43c-1.45,2.41-3.37,4.05-6.41,3.76c-2.03-0.57-3.89-1.44-5.4-2.96
			C860.07,1039.62,838.57,1019.05,818.19,997.37z"/>
		<path class="st37" d="M576.83,731.03c0.7-2.08,1.4-4.17,2.09-6.25c4.02-3.12,7.26-0.83,10,1.85
			c20.41,19.92,40.58,40.09,60.51,60.5c1.66,1.7,3.2,3.71,2.08,6.43c-1.46,2.41-3.37,4.05-6.41,3.76c-2.02-0.59-3.89-1.44-5.4-2.95
			C618.7,773.28,597.2,752.72,576.83,731.03z"/>
		<path class="st18" d="M1017.56,909.7c-2.22,1.17-2.77,4.85-6.25,4.12c-2.02-0.58-3.89-1.43-5.4-2.95
			c-21-21.07-42.5-41.64-62.87-63.32c0.7-2.08,1.39-4.17,2.09-6.25c4.05-3.14,7.29-0.8,10.04,1.89
			c20.27,19.79,40.28,39.83,60.09,60.08C1016.92,904.96,1018.52,906.94,1017.56,909.7z"/>
		<path class="st38" d="M576.83,731.03c1.55,0.63,3.5,0.86,4.59,1.96c21.29,21.38,42.48,42.86,63.69,64.32
			c-2.75,1.35-5.51,2.69-8.26,4.04c-21.34-20.06-41.85-40.95-62.2-62.01C574.18,736.26,575.29,733.59,576.83,731.03z"/>
		<path class="st38" d="M818.19,997.37c1.55,0.63,3.5,0.86,4.59,1.96c21.29,21.38,42.48,42.86,63.69,64.32
			c-2.75,1.35-5.51,2.69-8.26,4.04c-21.34-20.06-41.85-40.95-62.2-62C815.55,1002.6,816.66,999.93,818.19,997.37z"/>
		<path class="st20" d="M865.84,1069.84c-4.36,0.1-8.88,1.39-12.85-1.63c0.3-3.01-1.2-5.29-3.15-7.28
			c-8.86-9.05-17.82-18.01-26.87-26.87c-2-1.95-4.28-3.44-7.29-3.13c-3.02-3.98-1.73-8.5-1.62-12.87c2.84-9.06,7.46-4.66,11.17-1.11
			c12.96,12.42,25.47,25.29,38.18,37.97c2.2,2.19,4.51,4.29,6.2,6.93C872.56,1066.47,870.56,1068.8,865.84,1069.84z"/>
		<path class="st20" d="M1213.57,968.11c1.9-3,2.73-6.7,7.46-1.75c14.99,15.72,30.36,31.09,46.08,46.08
			c4.96,4.72,1.25,5.56-1.74,7.46c-4.37,0.11-8.89,1.39-12.87-1.64c0.82-2.16,0.26-3.95-1.34-5.56
			c-10.11-10.15-20.24-20.28-30.4-30.39c-1.61-1.6-3.41-2.15-5.56-1.32C1212.17,977.01,1213.45,972.49,1213.57,968.11z"/>
		<path class="st20" d="M574.31,764.58c-3.02-3.98-1.73-8.5-1.62-12.87c2.84-9.05,7.46-4.66,11.17-1.11
			c12.96,12.42,25.47,25.29,38.18,37.97c2.2,2.19,4.51,4.29,6.2,6.93c2.96,4.63,0.95,6.96-3.76,8c-4.36,0.1-8.88,1.39-12.85-1.63
			c0.3-3.01-1.2-5.29-3.15-7.28c-8.86-9.05-17.82-18.01-26.87-26.87C579.6,765.76,577.32,764.27,574.31,764.58z"/>
		<path class="st20" d="M940.52,881.12c-3.02-3.98-1.72-8.51-1.62-12.88c2.84-9.04,7.46-4.67,11.18-1.11
			c12.96,12.42,25.47,25.29,38.18,37.97c2.2,2.19,4.51,4.29,6.2,6.93c2.96,4.63,0.95,6.96-3.76,8c-4.37,0.11-8.88,1.39-12.86-1.63
			c0.3-3.01-1.19-5.29-3.14-7.29c-8.86-9.05-17.82-18.01-26.88-26.88C945.82,882.28,943.53,880.8,940.52,881.12z"/>
		<path class="st35" d="M990.69,920.03c3.05-2.38,4.67-4.48,0.95-8.12c-15.04-14.71-29.91-29.58-44.62-44.62
			c-3.64-3.72-5.74-2.09-8.12,0.95c-0.94-4.37,0.81-8.33,1.94-12.37c5.68-3.14,9.25,1.08,12.51,4.21
			c15.42,14.8,30.52,29.94,45.35,45.33c3.13,3.25,7.45,6.76,4.35,12.48C999.02,919.13,995.1,920.97,990.69,920.03z"/>
		<path class="st12" d="M1034.11,847.49c-9.52-4.15-15.4-12.56-22.37-19.58c-11.38-11.46-23.72-22-33.75-34.77
			c1.35-2.49,3.38-3.89,6.26-3.95c5.03-1.15,7.3,2.92,10.07,5.62c10.02,9.77,19.9,19.69,29.54,29.84
			C1028.78,831.59,1031.6,839.47,1034.11,847.49z"/>
		<path class="st39" d="M959.38,814.23c19.76,19.41,39.49,38.84,59.29,58.21c5.17,5.06,10.54,9.93,15.82,14.89
			c0,3.51-1.06,6.49-4.13,8.51c-25.09-25.02-50.43-49.8-75-75.34C956.7,818.4,958.04,816.32,959.38,814.23z"/>
		<path class="st40" d="M955.36,820.49c3.09-0.05,4.99,1.99,6.95,3.95c21.18,21.19,42.36,42.38,63.56,63.55
			c2.23,2.22,4.36,4.44,4.48,7.84c-0.22,1.56-0.6,3.02-2.37,3.55c-24.26-25.71-49.07-50.85-75.03-74.86
			C953.76,823.18,954.56,821.83,955.36,820.49z"/>
		<path class="st13" d="M651.51,793.55c-20.63-23.1-43.53-43.97-65.09-66.16c-2.11-2.18-4.64-2.78-7.5-2.61
			c1.35-2.76,1.05-6.22,3.63-8.44c25.38,23.5,49.87,47.89,73.29,73.36C654.4,790.98,652.95,792.27,651.51,793.55z"/>
		<path class="st32" d="M892.88,1059.89c-20.63-23.1-43.53-43.97-65.09-66.16c-2.11-2.18-4.64-2.78-7.5-2.61
			c1.35-2.76,1.05-6.22,3.63-8.44c25.38,23.5,49.87,47.89,73.29,73.36C895.76,1057.32,894.32,1058.61,892.88,1059.89z"/>
		<path class="st13" d="M1017.56,909.7c-21.39-21.67-42.79-43.33-64.13-65.05c-2.35-2.39-4.95-3.68-8.3-3.35
			c1.2-2.82,1.31-6.15,3.89-8.33c25.15,23.61,49.75,47.77,73.04,73.24C1020.98,907.93,1019.81,909.51,1017.56,909.7z"/>
		<path class="st41" d="M1215.19,980.99c0.77-2.09-1.1-8.52,4.44-3.15c12.17,11.81,24.16,23.82,35.98,35.98
			c5.32,5.47-0.92,3.75-3.12,4.45C1233.24,1014.86,1218.63,1000.26,1215.19,980.99z"/>
		<path class="st42" d="M1088.83,1009.89c1.34-2.09,2.68-4.17,4.03-6.26c3.47-2.63,5.95-0.1,8.07,1.95
			c13.39,12.92,26.55,26.07,39.46,39.46c1.63,1.69,3.18,3.71,2.13,6.43c-1.81,3.02-2.58,6.79-6.18,8.51
			c-14.15-13.62-27.83-27.71-41.69-41.61C1092.19,1015.91,1090.15,1013.13,1088.83,1009.89z"/>
		<path class="st42" d="M709.71,951.59c-1.81,3.02-2.58,6.79-6.18,8.51c-14.15-13.62-27.83-27.71-41.69-41.61
			c-2.45-2.46-4.49-5.23-5.82-8.48c1.34-2.09,2.68-4.17,4.03-6.26c3.47-2.63,5.95-0.1,8.07,1.95
			c13.39,12.92,26.55,26.07,39.46,39.46C709.21,946.85,710.77,948.87,709.71,951.59z"/>
		<path class="st42" d="M809.59,851.72c-1.81,3.02-2.58,6.79-6.18,8.51c-14.15-13.62-27.83-27.71-41.69-41.61
			c-2.45-2.46-4.49-5.23-5.82-8.48c1.34-2.09,2.68-4.17,4.03-6.26c3.47-2.63,5.95-0.1,8.07,1.95
			c13.39,12.92,26.55,26.07,39.46,39.46C809.09,846.97,810.64,848.99,809.59,851.72z"/>
		<path class="st43" d="M940.52,881.12c0.8-5.23,3.27-4.39,6.09-1.58c10.95,10.9,21.87,21.82,32.77,32.77
			c2.76,2.77,3.75,5.27-1.54,6.09C958.56,914.96,943.98,900.4,940.52,881.12z"/>
		<path class="st43" d="M815.68,1030.92c0.81-5.27,3.3-4.34,6.09-1.56c10.95,10.89,21.87,21.81,32.76,32.76
			c2.75,2.76,3.78,5.27-1.53,6.09C833.72,1064.79,819.14,1050.21,815.68,1030.92z"/>
		<path class="st43" d="M574.31,764.58c0.81-5.26,3.3-4.34,6.09-1.56c10.95,10.89,21.87,21.81,32.76,32.76
			c2.75,2.76,3.78,5.27-1.53,6.09C592.35,798.45,577.77,783.87,574.31,764.58z"/>
		<path class="st38" d="M1003.05,917.89c-0.64-4.71-3.32-8.21-6.58-11.46c-14.74-14.67-29.44-29.37-44.11-44.11
			c-3.25-3.27-6.79-5.89-11.52-6.46c-0.46-3.08,0.65-5.76,2.2-8.31c1.55,0.63,3.5,0.86,4.59,1.95
			c21.29,21.38,42.48,42.86,63.69,64.31C1008.56,915.18,1005.81,916.53,1003.05,917.89z"/>
		<path class="st44" d="M667.89,731.01c-1.3-0.41-2.99-0.43-3.84-1.28c-17.55-17.57-36-34.27-52.27-53.11
			c1.35-2.49,3.38-3.89,6.26-3.96c1.87-0.95,3.48-0.09,4.54,1.19c11.42,13.71,25.41,24.93,37.07,38.4
			C661.38,718.95,667.5,723.73,667.89,731.01z"/>
		<path class="st12" d="M1308.78,947.37c-9.53-4.14-15.41-12.56-22.37-19.58c-11.38-11.46-23.72-22-33.75-34.77
			c1.35-2.49,3.38-3.89,6.26-3.96c1.87-0.96,3.48-0.09,4.54,1.19c11.42,13.71,25.41,24.93,37.07,38.4
			C1302.15,935.39,1308.42,940.07,1308.78,947.37z"/>
		<path class="st12" d="M909.27,997.31c-9.53-4.14-15.41-12.56-22.37-19.58c-11.38-11.46-23.72-22-33.75-34.77
			c1.35-2.49,3.38-3.89,6.26-3.96c1.87-0.96,3.48-0.09,4.54,1.19c11.42,13.71,25.41,24.93,37.07,38.4
			C902.65,985.33,908.91,990.01,909.27,997.31z"/>
		<path class="st35" d="M865.84,1069.84c3.05-2.38,4.67-4.48,0.95-8.12c-15.03-14.71-29.91-29.58-44.61-44.61
			c-3.63-3.71-5.74-2.11-8.12,0.94c-0.94-4.37,0.8-8.33,1.94-12.37c0.68,0.11,1.57-0.02,2,0.36c20.99,18.82,40.79,38.84,59.8,59.65
			c0.39,0.43,0.28,1.32,0.4,1.99C874.19,1069,870.25,1070.76,865.84,1069.84z"/>
		<path class="st35" d="M624.47,803.5c3.05-2.38,4.67-4.48,0.95-8.12c-15.03-14.71-29.91-29.58-44.61-44.61
			c-3.63-3.71-5.74-2.11-8.12,0.94c-0.94-4.37,0.8-8.33,1.95-12.37c0.68,0.11,1.57-0.02,2,0.36c20.99,18.82,40.79,38.84,59.8,59.65
			c0.39,0.43,0.28,1.32,0.4,1.99C632.82,802.66,628.88,804.42,624.47,803.5z"/>
		<path class="st42" d="M1390.06,855.73c-1.35,1.5-2.69,2.99-4.04,4.49c-14.66-14.11-28.78-28.76-43.23-43.08
			c-1.98-1.97-3.74-4.08-4.3-6.92c1.34-2.09,2.69-4.17,4.03-6.26c3.68-1.06,5.81,1.55,7.94,3.64
			c12.27,12.03,24.42,24.18,36.46,36.44C1390.11,847.28,1393.12,850.74,1390.06,855.73z"/>
		<path class="st31" d="M1194.6,845.6c0,3.98-1.05,7.51-4.29,10.11c-11.83-14.99-26.37-27.38-39.47-41.15
			c-3.07-3.23-6.91-5.89-8.02-10.61c0.57-2.01,1.75-3.5,3.67-4.36c2.85-2.08,5.43-0.81,7.42,1.16c13.9,13.8,28.76,26.68,41.02,42.09
			C1195.37,843.82,1195.26,844.74,1194.6,845.6z"/>
		<path class="st31" d="M1390.06,855.73c0.34-3.32-0.76-5.98-3.18-8.34c-14.83-14.44-29.58-28.95-44.36-43.44
			c0.58-2.02,1.8-3.49,3.72-4.37c2.85-2.08,5.43-0.81,7.42,1.16c13.9,13.8,28.76,26.68,41.02,42.09c0.45,0.98,0.35,1.9-0.31,2.76
			C1394.36,849.58,1393.3,853.12,1390.06,855.73z"/>
		<path class="st42" d="M1142.82,803.95c14.76,14.49,29.5,29,44.3,43.43c2.42,2.36,3.53,5.02,3.19,8.33
			c-0.71,2.07-2.06,3.58-4.04,4.51c-14.66-14.11-28.78-28.76-43.23-43.08c-1.98-1.97-3.74-4.08-4.3-6.92
			C1140.1,808.13,1141.46,806.04,1142.82,803.95z"/>
		<path class="st45" d="M1300.53,928.66c-16.32-10.62-28.29-25.82-41.61-39.59c9.02-5.42,14.84,2.06,19.41,6.69
			C1287.62,905.17,1296.01,915.75,1300.53,928.66z"/>
		<path class="st45" d="M659.65,712.26c-16.32-10.62-28.29-25.81-41.61-39.59c9.02-5.42,14.84,2.06,19.41,6.69
			C646.74,688.77,655.13,699.35,659.65,712.26z"/>
		<path class="st45" d="M901.02,978.59c-16.32-10.62-28.29-25.82-41.61-39.59c9.02-5.42,14.84,2.06,19.41,6.69
			C888.11,955.11,896.5,965.69,901.02,978.59z"/>
		<path class="st46" d="M656.03,910.01c15.48,15.39,30.97,30.75,46.36,46.23c0.83,0.84,0.78,2.56,1.14,3.87
			c-1.43,1.26-2.86,2.52-4.28,3.79c-14.73-13.67-28.52-28.3-42.78-42.45c-1.49-1.47-2.76-3.12-3.07-5.3
			C654.27,914.09,655.15,912.05,656.03,910.01z"/>
		<path class="st46" d="M1088.83,1009.89c15.48,15.39,30.97,30.75,46.36,46.23c0.83,0.84,0.78,2.56,1.14,3.87
			c-1.43,1.26-2.86,2.52-4.28,3.79c-14.73-13.67-28.52-28.3-42.78-42.45c-1.49-1.47-2.76-3.12-3.07-5.3
			C1087.07,1013.97,1087.95,1011.93,1088.83,1009.89z"/>
		<path class="st46" d="M755.9,810.13c15.48,15.39,30.97,30.75,46.36,46.23c0.83,0.84,0.78,2.56,1.14,3.87
			c-1.43,1.26-2.86,2.52-4.28,3.79c-14.73-13.67-28.52-28.3-42.78-42.45c-1.49-1.47-2.76-3.12-3.07-5.3
			C754.15,814.22,755.03,812.18,755.9,810.13z"/>
		<path class="st31" d="M809.59,851.72c-14.99-15.31-29.96-30.65-45.04-45.87c-1.09-1.1-3.06-1.33-4.62-1.97
			c0.59-1.98,1.8-3.43,3.7-4.29c2.85-2.08,5.43-0.81,7.42,1.16c13.9,13.8,28.76,26.68,41.02,42.09c0.47,0.99,0.34,1.9-0.31,2.76
			C811.7,847.88,811.86,850.22,809.59,851.72z"/>
		<path class="st31" d="M709.71,951.59c-14.99-15.31-29.96-30.65-45.04-45.87c-1.09-1.1-3.06-1.33-4.62-1.97
			c0.59-1.98,1.8-3.43,3.7-4.29c2.86-2.08,5.43-0.81,7.42,1.16c13.9,13.81,28.76,26.68,41.02,42.09c0.47,0.99,0.34,1.9-0.31,2.76
			C711.82,947.76,711.98,950.1,709.71,951.59z"/>
		<path class="st31" d="M1142.51,1051.47c-14.99-15.31-29.96-30.65-45.04-45.87c-1.09-1.1-3.06-1.33-4.62-1.97
			c0.59-1.98,1.8-3.43,3.7-4.29c2.85-2.08,5.43-0.81,7.42,1.16c13.9,13.8,28.76,26.68,41.02,42.09c0.45,0.98,0.35,1.9-0.31,2.76
			C1144.62,1047.63,1144.78,1049.98,1142.51,1051.47z"/>
		<path class="st46" d="M1138.74,810.22c14.81,14.56,29.61,29.12,44.43,43.66c1.8,1.77,3.05,3.75,3.1,6.35
			c-1.43,1.26-2.85,2.53-4.28,3.79c-14.73-13.67-28.52-28.3-42.78-42.44c-1.49-1.47-2.76-3.12-3.07-5.3
			C1137,814.25,1137.87,812.23,1138.74,810.22z"/>
		<path class="st46" d="M1338.49,810.22c14.81,14.56,29.61,29.12,44.43,43.66c1.8,1.77,3.05,3.75,3.09,6.35
			c-1.43,1.26-2.85,2.53-4.28,3.79c-14.73-13.67-28.52-28.3-42.78-42.44c-1.49-1.47-2.76-3.12-3.07-5.3
			C1336.76,814.25,1337.62,812.23,1338.49,810.22z"/>
		<path class="st47" d="M1109.16,988.93c5.49-4.52,9.87-0.68,13.59,2.49c10.34,8.83,18.05,19.58,21.64,32.94
			c-3.46,1.16-6-0.97-8.29-2.81c-9.07-7.24-17-15.68-24.7-24.31C1109.42,995.03,1107.54,992.33,1109.16,988.93z"/>
		<path class="st47" d="M776.24,789.18c5.49-4.52,9.87-0.68,13.59,2.49c10.34,8.83,18.05,19.58,21.64,32.94
			c-3.46,1.16-6-0.97-8.29-2.81c-9.07-7.23-17-15.68-24.7-24.31C776.5,795.28,774.62,792.57,776.24,789.18z"/>
		<path class="st47" d="M1159.1,789.18c5.49-4.52,9.87-0.68,13.59,2.49c10.34,8.83,18.05,19.58,21.64,32.94
			c-3.46,1.16-6-0.97-8.29-2.81c-9.07-7.24-17-15.68-24.7-24.31C1159.36,795.28,1157.48,792.57,1159.1,789.18z"/>
		<path class="st47" d="M1358.85,789.18c5.49-4.52,9.87-0.68,13.59,2.49c10.34,8.83,18.05,19.58,21.64,32.94
			c-3.46,1.16-6-0.97-8.29-2.81c-9.07-7.24-17-15.68-24.7-24.31C1359.11,795.28,1357.23,792.57,1358.85,789.18z"/>
		<path class="st48" d="M776.24,789.18c8.99,14.55,21.41,25.69,35.23,35.43c1.87,6.97,4.43,13.94,0.27,20.99
			c-0.04-0.74-0.09-1.48-0.13-2.23c-4.45-10.62-13.84-17.04-21.3-25.1c-7.27-7.85-15.48-14.77-22.52-22.83
			C769.8,792.28,772.01,789.36,776.24,789.18z"/>
		<path class="st49" d="M653.4,916.14c15.73,13.29,29.36,28.73,43.99,43.14c1.08,1.07,1.26,3.06,1.86,4.61
			c-0.89,1.62-2.34,2.23-4.1,2.28c-8.26-3.51-12.87-11.2-19.2-16.91c-8.94-8.08-16.47-17.66-26.32-24.79
			C649.77,921.19,651.01,918.4,653.4,916.14z"/>
		<path class="st48" d="M1159.1,789.18c8.99,14.55,21.41,25.69,35.23,35.43c1.87,6.97,4.43,13.94,0.27,20.99
			c-0.04-0.74-0.09-1.48-0.13-2.22c-4.44-10.62-13.84-17.05-21.3-25.1c-7.27-7.85-15.48-14.77-22.52-22.83
			C1152.67,792.28,1154.87,789.36,1159.1,789.18z"/>
		<path class="st49" d="M1335.89,816.26c15.73,13.29,29.35,28.73,43.99,43.13c1.08,1.07,1.26,3.05,1.86,4.61
			c-0.89,1.62-2.34,2.23-4.1,2.28c-8.26-3.51-12.87-11.2-19.2-16.91c-8.94-8.08-16.47-17.66-26.32-24.79
			C1332.26,821.31,1333.5,818.52,1335.89,816.26z"/>
		<path class="st49" d="M1136.14,816.26c15.73,13.29,29.35,28.73,43.99,43.13c1.08,1.07,1.26,3.06,1.86,4.61
			c-0.89,1.62-2.34,2.23-4.1,2.28c-8.26-3.51-12.87-11.2-19.2-16.91c-8.94-8.08-16.47-17.66-26.32-24.79
			C1132.51,821.31,1133.74,818.52,1136.14,816.26z"/>
		<path class="st49" d="M753.27,816.26c15.73,13.29,29.36,28.73,43.99,43.14c1.08,1.07,1.26,3.06,1.86,4.61
			c-0.89,1.62-2.34,2.23-4.1,2.28c-8.26-3.51-12.87-11.2-19.2-16.91c-8.94-8.08-16.47-17.66-26.32-24.79
			C749.64,821.31,750.88,818.52,753.27,816.26z"/>
		<path class="st48" d="M1109.16,988.93c8.99,14.55,21.41,25.69,35.23,35.43c1.87,6.97,4.43,13.94,0.27,20.99
			c-0.04-0.74-0.09-1.48-0.13-2.23c-4.45-10.62-13.84-17.04-21.3-25.1c-7.27-7.85-15.48-14.77-22.52-22.83
			C1102.73,992.03,1104.93,989.12,1109.16,988.93z"/>
		<path class="st48" d="M1358.85,789.18c8.99,14.55,21.41,25.69,35.23,35.43c1.87,6.97,4.43,13.94,0.27,20.99
			c-0.04-0.74-0.09-1.48-0.13-2.22c-4.44-10.62-13.84-17.05-21.3-25.1c-7.27-7.85-15.48-14.77-22.52-22.83
			C1352.42,792.28,1354.63,789.36,1358.85,789.18z"/>
		<path class="st49" d="M1086.2,1016.01c15.73,13.29,29.36,28.73,43.99,43.14c1.08,1.07,1.26,3.06,1.86,4.61
			c-0.89,1.62-2.34,2.23-4.1,2.28c-8.26-3.51-12.87-11.2-19.2-16.91c-8.94-8.08-16.47-17.66-26.32-24.79
			C1082.57,1021.06,1083.81,1018.28,1086.2,1016.01z"/>
		<path class="st50" d="M1104.7,1068.23c-12.48-2.64-20.14-10.1-22.69-22.68c-1.03-2.96-2.27-6.69,0.64-8.46
			c3.07-1.86,5.69,1.44,7.87,3.5c6.56,6.18,12.94,12.56,19.12,19.12c2.06,2.18,5.36,4.8,3.51,7.87
			C1111.39,1070.5,1107.66,1069.26,1104.7,1068.23z"/>
		<path class="st50" d="M671.9,968.35c-12.48-2.64-20.14-10.1-22.69-22.68c-1.03-2.96-2.27-6.69,0.64-8.46
			c3.07-1.86,5.69,1.44,7.87,3.5c6.56,6.18,12.94,12.56,19.12,19.12c2.06,2.18,5.36,4.8,3.51,7.87
			C678.59,970.62,674.86,969.39,671.9,968.35z"/>
		<path class="st50" d="M1354.39,868.48c-12.48-2.64-20.14-10.1-22.69-22.68c-1.03-2.96-2.27-6.69,0.64-8.46
			c3.07-1.86,5.69,1.44,7.87,3.5c6.56,6.18,12.94,12.56,19.12,19.12c2.06,2.18,5.36,4.8,3.51,7.87
			C1361.08,870.75,1357.35,869.51,1354.39,868.48z"/>
		<path class="st50" d="M771.78,868.48c-12.48-2.64-20.14-10.1-22.69-22.68c-1.03-2.96-2.27-6.69,0.64-8.46
			c3.07-1.86,5.69,1.44,7.87,3.5c6.56,6.18,12.94,12.56,19.12,19.12c2.06,2.18,5.36,4.8,3.51,7.87
			C778.47,870.75,774.74,869.51,771.78,868.48z"/>
		<path class="st50" d="M1154.64,868.48c-12.48-2.64-20.14-10.1-22.69-22.68c-1.03-2.96-2.27-6.69,0.65-8.46
			c3.07-1.86,5.69,1.44,7.87,3.5c6.56,6.18,12.94,12.56,19.12,19.12c2.06,2.18,5.36,4.8,3.51,7.87
			C1161.33,870.75,1157.6,869.51,1154.64,868.48z"/>
		<path class="st51" d="M767.79,795.44c5.93,0.43,8.5,5.53,12.12,9c8.95,8.61,17.5,17.64,26.47,26.23c3.76,3.6,6.1,7.39,5.24,12.7
			c-12.7-12.37-25.37-24.77-38.12-37.09c-2.88-2.78-5.13-6.6-9.86-6.69C765.01,798.2,766.4,796.82,767.79,795.44z"/>
		<path class="st51" d="M1350.4,795.44c5.93,0.43,8.5,5.53,12.12,9c8.95,8.61,17.5,17.64,26.47,26.23c3.76,3.6,6.1,7.39,5.24,12.7
			c-12.7-12.37-25.37-24.77-38.12-37.09c-2.88-2.78-5.13-6.6-9.86-6.7C1347.63,798.21,1349.01,796.82,1350.4,795.44z"/>
		<path class="st48" d="M711.87,945.48c-0.05-0.74-0.09-1.49-0.14-2.23c-4.45-10.62-13.84-17.04-21.3-25.1
			c-7.27-7.85-15.48-14.77-22.52-22.83c1.44-1.37,2.88-2.73,4.32-4.1c3.86-2.25,6.67,0.27,8.94,2.58
			c10.48,10.66,22.3,20.09,30.59,32.8C714.42,932.88,715.33,939.17,711.87,945.48z"/>
		<path class="st51" d="M667.91,895.32c5.93,0.43,8.5,5.53,12.12,9c8.95,8.61,17.5,17.64,26.47,26.23c3.76,3.6,6.1,7.39,5.24,12.7
			c-12.7-12.37-25.37-24.77-38.12-37.09c-2.88-2.78-5.13-6.6-9.86-6.69C665.13,898.08,666.52,896.7,667.91,895.32z"/>
		<path class="st51" d="M1150.65,795.44c5.93,0.43,8.5,5.53,12.12,9c8.95,8.61,17.5,17.64,26.47,26.23c3.76,3.6,6.1,7.39,5.24,12.7
			c-12.7-12.37-25.37-24.77-38.12-37.09c-2.88-2.78-5.13-6.6-9.86-6.7C1147.87,798.21,1149.26,796.82,1150.65,795.44z"/>
		<path class="st51" d="M1100.71,995.2c5.93,0.43,8.5,5.53,12.12,9c8.95,8.61,17.5,17.64,26.47,26.23c3.76,3.6,6.1,7.39,5.24,12.7
			c-12.7-12.37-25.37-24.77-38.12-37.09c-2.88-2.78-5.13-6.6-9.86-6.69C1097.93,997.96,1099.32,996.58,1100.71,995.2z"/>
		<path class="st19" d="M771.78,868.48c2.34-0.17,4.69-0.33,7.87-0.56c-10.5-9.6-20.32-18.57-30.7-28.06
			c-0.75,0.58,0.75,3.56,0.13,5.93c-2.96-5.69-2.81-11.42-0.16-17.16c8.9,2.22,37.36,30.6,39.84,39.72
			C783.13,871.31,777.47,871.56,771.78,868.48z"/>
		<path class="st19" d="M1154.64,868.48c2.35-0.17,4.7-0.33,10.52-0.74c-6.93-6.35-12.12-10.76-16.89-15.58
			c-4.59-4.64-8.75-9.71-13.26-14.77c-3.94,3.06-2.44,6.04-3.06,8.41c-2.96-5.69-2.81-11.42-0.16-17.16
			c8.9,2.22,37.36,30.6,39.84,39.72C1165.99,871.31,1160.33,871.56,1154.64,868.48z"/>
		<path class="st19" d="M671.9,968.35c2.34-0.17,4.69-0.33,6.71-0.47c-9.65-9.36-19.2-18.62-29.25-28.36
			c-1.04,0.81,0.46,3.79-0.16,6.15c-2.96-5.69-2.81-11.42-0.16-17.16c8.9,2.22,37.36,30.6,39.84,39.72
			C683.25,971.19,677.59,971.44,671.9,968.35z"/>
		<path class="st19" d="M1104.7,1068.23c2.34-0.17,4.69-0.33,6.71-0.48c-9.65-9.36-19.2-18.62-29.25-28.36
			c-1.04,0.81,0.46,3.79-0.16,6.15c-2.96-5.69-2.81-11.42-0.16-17.16c8.9,2.22,37.36,30.6,39.84,39.72
			C1116.05,1071.07,1110.39,1071.31,1104.7,1068.23z"/>
		<path class="st19" d="M1354.39,868.48c2.35-0.17,4.7-0.33,10.52-0.74c-6.93-6.35-12.12-10.76-16.89-15.58
			c-4.59-4.64-8.75-9.71-13.26-14.77c-3.94,3.06-2.44,6.04-3.06,8.41c-2.96-5.69-2.81-11.42-0.16-17.16
			c8.9,2.22,37.36,30.6,39.84,39.72C1365.74,871.31,1360.08,871.56,1354.39,868.48z"/>
		<path class="st38" d="M1371.38,868.35c-12.44-14.08-25.57-27.47-39.84-39.72c0.19-1.35,0.38-2.69,0.57-4.03
			c1.95-1.07,3.68-1.31,5.48,0.56c13.31,13.75,26.69,27.43,40.04,41.14C1376.05,868.48,1373.75,868.51,1371.38,868.35z"/>
		<path class="st38" d="M688.89,968.23c-12.44-14.08-25.57-27.47-39.84-39.72c0.19-1.35,0.38-2.69,0.57-4.03
			c1.95-1.07,3.68-1.31,5.48,0.56c13.31,13.75,26.68,27.43,40.04,41.14C693.56,968.36,691.26,968.39,688.89,968.23z"/>
		<path class="st38" d="M1121.69,1068.1c-12.44-14.08-25.57-27.47-39.84-39.72c0.19-1.35,0.38-2.69,0.57-4.03
			c1.95-1.07,3.68-1.31,5.48,0.56c13.31,13.75,26.68,27.43,40.04,41.14C1126.36,1068.23,1124.06,1068.27,1121.69,1068.1z"/>
		<path class="st38" d="M1171.63,868.35c-12.44-14.08-25.57-27.47-39.84-39.72c0.19-1.35,0.38-2.69,0.57-4.03
			c1.95-1.07,3.68-1.31,5.48,0.56c13.31,13.75,26.69,27.43,40.04,41.14C1176.29,868.48,1173.99,868.51,1171.63,868.35z"/>
		<path class="st38" d="M788.77,868.35c-12.44-14.08-25.57-27.47-39.84-39.72c0.19-1.35,0.38-2.69,0.57-4.03
			c1.95-1.07,3.68-1.31,5.48,0.56c13.31,13.75,26.68,27.43,40.04,41.14C793.43,868.48,791.13,868.51,788.77,868.35z"/>
		<path class="st45" d="M1023.85,824.65c-8.31-2.15-12.05-9.82-17.88-14.94c-7.48-6.57-14.5-13.66-21.73-20.52
			c9.61-5.43,15.35,2.57,20.26,7.53C1012.43,804.71,1019.68,813.77,1023.85,824.65z"/>
		<path class="st52" d="M711.76,926.59c-10.12-9.78-20.21-19.58-30.37-29.31c-2.67-2.56-4.77-6.06-9.16-6.06
			c3.67-3.82,8.32-1.43,12.51-1.97c6.38,4.66,11.83,10.26,16.6,16.54C707.57,911.34,710.07,918.77,711.76,926.59z"/>
		<path class="st27" d="M701.35,905.78c-6.37-4.68-11.84-10.25-16.6-16.54C692.88,892.14,698.26,897.82,701.35,905.78z"/>
		<path class="st53" d="M1152.79,171.45c-0.9,1.6-2.42,1.86-4.05,1.92c-5.48-0.89-11.38,1.91-16.52-1.9
			C1139.08,171.47,1145.94,171.46,1152.79,171.45z"/>
		<path class="st0" d="M625.94,568.89c2.24-0.13,4.49-0.25,6.73-0.38c4.1,0.93,8.68-1.3,12.43,1.91
			C638.66,570.67,632.17,571.4,625.94,568.89z"/>
		<path class="st54" d="M859.65,736.92c4.46-3.44,9.63-1.04,14.42-1.76c1.34,0.59,2.68,1.17,4.03,1.76
			C871.95,736.92,865.8,736.92,859.65,736.92z"/>
		<path class="st55" d="M1360.96,385.59c0.05-1.63,0.32-3.15,1.92-4.05c0,6.17,0,12.34,0,18.5
			C1359.17,395.63,1361.75,390.39,1360.96,385.59z"/>
		<path class="st56" d="M1348.64,736.99c5.43-2.9,10.87-2.88,16.32-0.03C1359.52,736.97,1354.08,736.98,1348.64,736.99z"/>
		<path class="st57" d="M1512.7,562.34c-2.85-3.37-2.84-6.76-0.03-10.14C1512.68,555.58,1512.69,558.96,1512.7,562.34z"/>
		<path class="st58" d="M682.54,516.45c-0.66,1.46-1.32,2.93-1.98,4.39c-5.22-0.2-7.58-4.54-10.66-7.62
			c-66.69-66.59-133.3-133.26-200.02-199.82c-3.07-3.06-5.5-8.99-11.76-4.83c3.19-12.77,8.67-24.54,15.7-35.62
			c6.58-3.03,9.5,2.57,12.9,5.94c28.53,28.27,56.88,56.73,85.28,85.13c35.99,35.99,72.02,71.95,107.92,108.03
			c3.22,3.24,8.02,5.82,7.11,11.7c-0.1,2.6-0.19,5.2-0.29,7.8C683.23,499.5,682.28,507.87,682.54,516.45z"/>
		<path class="st59" d="M942.74,267c-4.4,4.98-8.37,10.25-10.83,16.51c-1.11,0.81-2.22,1.62-3.33,2.43
			c-6.47,1.14-8.98-4.4-12.4-7.81c-57.84-57.63-115.54-115.4-173.29-173.12c-4.89-4.89-9.6-9.97-14.98-14.35
			c-2.33-1.9-5.37-3.6-3.99-7.54c6.82-9.73,15.85-17.17,25.22-24.24c4.7-1.28,6.93,2.45,9.48,4.99
			c61.33,61.19,122.6,122.45,183.78,183.78c3.02,3.03,7.37,5.89,4.68,11.43C945.64,261.72,944.19,264.36,942.74,267z"/>
		<path class="st60" d="M761.72,375.2c-0.69,0.71-1.38,1.42-2.07,2.13c-7.27,7.92-16.73,13.62-22.98,22.58
			c-0.71-0.04-1.41-0.07-2.11-0.1c-4.37-0.95-6.99-4.34-9.9-7.25c-59.78-59.74-119.55-119.5-179.28-179.3
			c-2.64-2.65-5.95-4.88-6.78-8.94c10.85-8.25,22.7-14.58,35.78-18.52c3.13-1.29,4.24,1.45,5.81,3.04
			c57.58,58.29,115.87,115.88,173.59,174.03C757.19,366.3,762.71,368.78,761.72,375.2z"/>
		<path class="st61" d="M723.92,83.11c3.3,5.93,9.57,8.71,14.16,13.33c60.25,60.59,120.72,120.96,181.17,181.35
			c2.91,2.91,6.2,5.44,9.32,8.14c-3.67,8.24-7.35,16.47-11.02,24.71c-1.99,3.53-3.98,7.06-5.97,10.59
			c-18-17.24-35.36-35.14-53-52.74c-45.63-45.53-91.19-91.12-136.74-136.73c-6.6-6.6-13.16-13.22-20.69-18.79
			C707.22,101.84,714.77,91.87,723.92,83.11z"/>
		<path class="st62" d="M761.72,375.2c-2.74-3.09-5.32-6.32-8.23-9.24C697.76,310.19,642,254.46,586.28,198.67
			c-4.13-4.13-7.94-8.57-11.9-12.87c11.7-5.86,24.09-9.31,37.11-10.52c4.07-1.99,6.38,0.67,8.85,3.22
			c54.16,56,110.04,110.28,164.76,165.72c3.39,3.43,8.98,5.88,7.87,12.34c-2.78,2.15-5.56,4.29-8.35,6.44
			C776.98,367.07,769.35,371.14,761.72,375.2z"/>
		<path class="st63" d="M687.03,483.76c-2.48-2.87-4.78-5.91-7.45-8.58c-64.68-64.75-129.39-129.46-194.15-194.14
			c-3.35-3.34-6.04-7.83-11.61-8.08c4.85-9.98,10.98-19.08,18.59-27.17c4.77-1.85,6.98,2.09,9.47,4.57
			c64.5,64.31,128.88,128.73,193.26,193.15c1.96,1.96,3.93,3.93,4.61,6.78c-0.24,1.85-0.48,3.71-0.72,5.56
			C692.5,464.06,692.08,474.9,687.03,483.76z"/>
		<path class="st64" d="M699.76,450.29c-3.12-2.68-6.43-5.18-9.34-8.08c-62.87-62.8-125.7-125.65-188.56-188.47
			c-2.91-2.9-5.39-6.38-9.43-7.95c5.92-8.72,13.24-16.1,21.5-22.59c4.7-1.34,6.94,2.41,9.48,4.95
			c62.05,61.92,124.04,123.89,185.95,185.96c3.01,3.02,7.4,5.87,4.68,11.42c-0.2,1.22-0.39,2.44-0.59,3.66
			C707.26,435.17,704.95,443.67,699.76,450.29z"/>
		<path class="st65" d="M701.16,112.95c4.72-0.6,7.65,2.24,10.66,5.26c64.79,64.85,129.62,129.67,194.44,194.5
			c2.42,2.42,5.35,4.55,5.33,8.51c-2.28,6.85-1.18,15.61-10.46,18.5c-4.57-2.65-9.72-1.48-14.58-2.2
			c-7.44-6.22-13.94-13.43-20.78-20.26c-58.27-58.13-116.34-116.46-174.69-174.52c-1.48-1.47-2.93-2.94-3.99-4.75
			C690.66,129.02,695.05,120.5,701.16,112.95z"/>
		<path class="st66" d="M714.03,425.52c-0.06-3.89-2.81-6.14-5.24-8.58c-63.32-63.32-126.65-126.65-190-189.95
			c-1.44-1.44-3.24-2.53-4.87-3.79c7.16-7.68,15.34-14.04,24.67-18.88c2.14,1.72,4.46,3.25,6.39,5.18
			c61.89,61.83,123.75,123.69,185.6,185.58c1.45,1.45,2.65,3.15,3.97,4.74C727.71,408.38,720.87,416.95,714.03,425.52z"/>
		<path class="st67" d="M947.09,259.08c-0.06-3.89-2.8-6.15-5.24-8.59C879.24,187.89,816.63,125.27,754,62.69
			c-1.45-1.44-3.23-2.55-4.85-3.82c6.84-6.63,14.41-12.27,22.89-16.64c5.13-1.21,7.43,2.95,10.19,5.71
			c58.87,58.73,117.68,117.52,176.39,176.4c3.75,3.77,8.85,7.2,7.25,13.91c-3.31,4.82-8.44,8.21-10.78,13.78
			C952.42,254.39,949.75,256.73,947.09,259.08z"/>
		<path class="st68" d="M1032.28,192.3c-9.01,4.85-18.03,9.7-27.04,14.56c-31.57-30.99-62.62-62.5-93.95-93.73
			c-28.16-28.08-56.27-56.21-84.34-84.38c-2.87-2.88-6.53-5.26-7.49-9.66c11.39-5.44,23.45-8.42,35.93-9.89
			c1.97,4.96,5.62,8.61,9.31,12.3c53.39,53.33,106.75,106.69,160.06,160.1C1027.84,184.67,1032.13,187.08,1032.28,192.3z"/>
		<path class="st69" d="M792.96,356.57c-2.73-3.1-5.29-6.35-8.2-9.26c-53.04-53.1-106.03-106.26-159.35-159.07
			c-4.45-4.41-6.22-12-13.92-12.95c12.42-3.64,25.12-4.4,37.97-3.61c5.81,0.17,10.32,2.13,13.18,7.76c1.69,3.32,5.05,5.62,7.74,8.31
			c47.63,47.64,95.31,95.24,142.84,142.98c4.15,4.17,10.32,7.59,8.8,15.21c-3.54-0.07-5.49,2.92-8.28,4.3
			C806.02,349.75,800.61,356.82,792.96,356.57z"/>
		<path class="st70" d="M965.87,238.26c-1.78-3.76-3.88-7.23-6.9-10.24c-60.97-60.87-121.87-121.8-182.82-182.7
			c-1.2-1.2-2.73-2.07-4.11-3.09c6.77-5.53,14.27-9.77,22.52-12.68c5.09-1.22,7.48,2.82,10.26,5.59
			c58.11,57.98,116.16,116,174.09,174.16c3.07,3.08,8.6,5.69,5.45,11.9c-3.54,3.98-7.07,7.96-10.61,11.94
			C971.12,234.84,968.5,236.55,965.87,238.26z"/>
		<path class="st71" d="M687.08,138c4.39,0.13,6.48,3.68,9.1,6.3C757.59,205.63,818.96,267,880.29,328.4
			c2.62,2.62,6.15,4.73,6.25,9.12c-11.87,0.29-23.79-0.08-35.47,2.66c0,0,0.29-0.68,0.29-0.68c-3.32-4.46-7.16-8.44-11.09-12.36
			C787.33,274.28,734.5,221.29,681.5,168.47c-1.72-1.71-3.54-3.32-4.7-5.5C679.25,154.25,682.28,145.75,687.08,138z"/>
		<path class="st72" d="M984.36,221.2c0.07-3.56-2.46-5.57-4.65-7.76C919.64,153.38,859.59,93.32,799.49,33.29
			c-1.44-1.44-3.28-2.5-4.93-3.74c7.67-4.98,15.97-8.46,24.89-10.47c2.88,2.46,5.93,4.73,8.6,7.39
			C884.64,82.99,941.2,139.54,997.7,196.14c3.08,3.09,7.37,5.5,7.53,10.71c-1.4,1.42-2.81,2.84-4.21,4.26
			C994.75,213.3,991.14,219.87,984.36,221.2z"/>
		<path class="st73" d="M676.79,162.97c4.38,0.2,6.46,3.77,9.08,6.39c53.7,53.62,107.36,107.27,160.94,161
			c2.39,2.39,7.11,4.1,4.55,9.15c-9.78,2.14-19.57,4.28-29.35,6.42c-1.91-4.99-5.56-8.63-9.25-12.31
			c-49.4-49.34-98.7-98.79-148.24-148c-4.83-4.8-6.87-12.78-15.07-13.94c3.75-0.03,7.72-0.89,11.19,0.08
			C669.23,174.13,674.88,172.3,676.79,162.97z"/>
		<path class="st25" d="M1102.96,173.48c-1.36-0.13-2.71-0.26-4.07-0.39c3.09-3.1,6.97-1.4,10.51-1.73
			C1107.71,173.44,1105.2,173.03,1102.96,173.48z"/>
	</g>
</g>
</svg>
