<?xml version="1.0" encoding="utf-8"?>
<!-- Generator: Adobe Illustrator 25.4.1, SVG Export Plug-In . SVG Version: 6.00 Build 0)  -->
<svg version="1.1" id="Layer_1" xmlns="http://www.w3.org/2000/svg" xmlns:xlink="http://www.w3.org/1999/xlink" x="0px" y="0px"
	 viewBox="0 0 1920 1080" style="enable-background:new 0 0 1920 1080;" xml:space="preserve">
<style type="text/css">
	.st0{fill:#F1D322;}
	.st1{fill:#F6AB16;}
	.st2{fill:#F4DD56;}
	.st3{fill:#E8F6F7;}
	.st4{fill:#D0E2E2;}
	.st5{fill:#F5CA43;}
	.st6{fill:#F9AF3C;}
</style>
<g>
	<g>
		<path class="st0" d="M1537.8,996.1c-1.3-0.2-2.8-0.1-3.6-1.5c1.3-6.4,5.2-11.6,8.2-17.2c15.4-28.3,30.3-56.9,45.6-85.2
			c19.2-35.8,38.3-71.6,57.4-107.4c12.8-24,25.9-47.7,38.2-71.9c5-9.9,1.8-15.9-9.5-16.1c-18.7-0.3-37.5-0.1-56.2-0.1
			c-2.6,0-5.3,0.1-7.9-0.1c-6.7-0.4-8-2.5-4.7-8.3c6.2-10.9,12.3-21.9,18.5-32.9c25.4-45,50.8-89.9,76-135
			c5.3-9.4,2.1-14.6-8.9-14.7c-21.2-0.1-42.3,0-63.5,0c-2,0-4,0.1-5.9-0.1c-5.8-0.5-6.7-1.6-4.5-7.1c4.5-11.3,10.1-22.1,15.4-33
			c20.2-41.7,39.4-83.9,59.8-125.5c1.1-2.2,1.8-4.5,2.8-6.7c1.9-4.3,1.7-8.1-1.8-11.5c-0.9-0.9-1.9-1.9-1.4-3.4
			c50.7,0,101.5,0,152.2,0c12.3,7.8,13.7,14.9,5.3,27.1c-22.8,33-45.7,66.1-68.5,99.1c-1.2,1.8-2.4,3.6-4.2,6.5c6.7,0,12.6,0,18.4,0
			c16.3,0,32.6,0.1,48.9,0c7.3,0,13.6,1.4,17.1,8.7c3.4,7.1,0.5,12.8-3.8,18.2c-37.7,48.1-75.4,96.2-113.1,144.3
			c-1.3,1.7-2.6,3.5-3.9,5.3c1.8,1.9,3.9,1,5.7,1c24,0.1,48.1,0.1,72.1,0c7.1,0,13.3,1.4,16.7,8.2c3.6,7.2,0.8,13.1-3.8,18.8
			c-53,64.2-105.8,128.4-158.8,192.6c-38.6,46.8-77.2,93.6-115.8,140.5c-2.7,3.2-5.2,6.7-9.7,7.5
			C1543.4,996.8,1540.6,996.8,1537.8,996.1z"/>
		<path class="st1" d="M1691.6,318.3c7.5,6.1,8.2,7.7,4.2,16.8c-5.1,11.7-10.6,23.3-16.1,34.8c-19.8,41.6-39.7,83.2-59.5,124.8
			c-1.3,2.7-2.2,5.7-3.5,9.2c2.8,0,5,0,7.1,0c22.9,0,45.9,0,68.8,0c10.2,0,14.5,6.7,9.7,15.5c-5.9,10.8-12.1,21.5-18.1,32.2
			c-12.8,22.6-25.6,45.2-38.3,67.9c-12.7,22.4-25.3,44.9-38,67.3c-0.7,1.2-1.3,2.3-1.9,3.5c-2,3.3-1.1,4.9,2.8,4.6
			c1.3-0.1,2.6,0,4,0c20.3,0,40.6,0,60.9,0c13.7,0,17.7,7,11.3,19c-15.9,29.8-31.5,59.6-47.4,89.4c-25.1,47-50.4,94-75.6,141
			c-7.4,13.8-14.7,27.6-22,41.4c-1.6,3.1-3.2,6.3-5.7,8.8c-7.1-5.3-8.5-9.8-5.5-19.6c18.8-62.5,37.6-125,56.5-187.5
			c2.8-9.4,5.7-18.9,8.7-29c-3,0-5.3,0-7.7,0c-24,0-48.1,0-72.1,0c-15.9,0-22.4-10.4-15.6-24.7c25.7-53.8,51.5-107.6,77.2-161.4
			c4.1-8.7,4.2-8.6-5.1-8.6c-23.1,0-46.3,0-69.4,0c-14.3,0-20.8-9.6-15.4-23.1c28.1-70,56.2-140,84.3-210.1
			c2.1-5.4,5.7-9.2,10.5-12.1C1617.5,318.3,1654.6,318.3,1691.6,318.3z"/>
		<path class="st2" d="M1537.8,996.1c2.8,0,5.7,0,8.5-0.1c-0.1,0.4-0.2,0.8-0.2,1.2c-2.6,0-5.3,0-7.9,0
			C1538,996.9,1537.9,996.5,1537.8,996.1z"/>
	</g>
</g>
<g>
	<g>
		<path class="st0" d="M104.6,978.1c-1.3-0.2-2.8-0.1-3.6-1.5c1.3-6.4,5.2-11.6,8.2-17.2c15.4-28.3,30.3-56.9,45.6-85.2
			c19.2-35.8,38.3-71.6,57.4-107.4c12.8-24,25.9-47.7,38.2-71.9c5-9.9,1.8-15.9-9.5-16.1c-18.7-0.3-37.5-0.1-56.2-0.1
			c-2.6,0-5.3,0.1-7.9-0.1c-6.7-0.4-8-2.5-4.7-8.3c6.2-10.9,12.3-21.9,18.5-32.9c25.4-45,50.8-89.9,76-135
			c5.3-9.4,2.1-14.6-8.9-14.7c-21.2-0.1-42.3,0-63.5,0c-2,0-4,0.1-5.9-0.1c-5.8-0.5-6.7-1.6-4.5-7.1c4.5-11.3,10.1-22.1,15.4-33
			c20.2-41.7,39.4-83.9,59.8-125.5c1.1-2.2,1.8-4.5,2.8-6.7c1.9-4.3,1.7-8.1-1.8-11.5c-0.9-0.9-1.9-1.9-1.4-3.4
			c50.7,0,101.5,0,152.2,0c12.3,7.8,13.7,14.9,5.3,27.1c-22.8,33-45.7,66.1-68.5,99.1c-1.2,1.8-2.4,3.6-4.2,6.5c6.7,0,12.6,0,18.4,0
			c16.3,0,32.6,0.1,48.9,0c7.3,0,13.6,1.4,17.1,8.7c3.4,7.1,0.5,12.8-3.8,18.2C386,508,348.3,556.1,310.6,604.2
			c-1.3,1.7-2.6,3.5-3.9,5.3c1.8,1.9,3.9,1,5.7,1c24,0.1,48.1,0.1,72.1,0c7.1,0,13.3,1.4,16.7,8.2c3.6,7.2,0.8,13.1-3.8,18.8
			c-53,64.2-105.8,128.4-158.8,192.6c-38.6,46.8-77.2,93.6-115.8,140.5c-2.7,3.2-5.2,6.7-9.7,7.5
			C110.3,978.8,107.4,978.8,104.6,978.1z"/>
		<path class="st1" d="M258.4,300.3c7.5,6.1,8.2,7.7,4.2,16.8c-5.1,11.7-10.6,23.3-16.1,34.8c-19.8,41.6-39.7,83.2-59.5,124.8
			c-1.3,2.7-2.2,5.7-3.5,9.2c2.8,0,5,0,7.1,0c22.9,0,45.9,0,68.8,0c10.2,0,14.5,6.7,9.7,15.5c-5.9,10.8-12.1,21.5-18.1,32.2
			c-12.8,22.6-25.6,45.2-38.3,67.9c-12.7,22.4-25.3,44.9-38,67.3c-0.7,1.2-1.3,2.3-1.9,3.5c-2,3.3-1.1,4.9,2.8,4.6
			c1.3-0.1,2.6,0,4,0c20.3,0,40.6,0,60.9,0c13.7,0,17.7,7,11.3,19c-15.9,29.8-31.5,59.6-47.4,89.4c-25.1,47-50.4,94-75.6,141
			c-7.4,13.8-14.7,27.6-22,41.4c-1.6,3.1-3.2,6.3-5.7,8.8c-7.1-5.3-8.5-9.8-5.5-19.6c18.8-62.5,37.6-125,56.5-187.5
			c2.8-9.4,5.7-18.9,8.7-29c-3,0-5.3,0-7.7,0c-24,0-48.1,0-72.1,0c-15.9,0-22.4-10.4-15.6-24.7c25.7-53.8,51.5-107.6,77.2-161.4
			c4.1-8.7,4.2-8.6-5.1-8.6c-23.1,0-46.3,0-69.4,0c-14.3,0-20.8-9.6-15.4-23.1c28.1-70,56.2-140,84.3-210.1
			c2.1-5.4,5.7-9.2,10.5-12.1C184.3,300.3,221.4,300.3,258.4,300.3z"/>
		<path class="st2" d="M104.6,978.1c2.8,0,5.7,0,8.5-0.1c-0.1,0.4-0.2,0.8-0.2,1.2c-2.6,0-5.3,0-7.9,0
			C104.8,978.9,104.7,978.5,104.6,978.1z"/>
	</g>
</g>
<g>
	<g>
		<path class="st3" d="M592.3,253.8c1.7,0,3.5,0,5.2,0c69.8-8.9,130.1,12.1,181,59.4c19.7,18.3,35.5,40.4,46,65.6
			c4,9.5,10.2,13.4,20.3,14.4c75.4,7.9,131.5,76,130.1,144.5c-0.5,25.9-4.4,50.3-17.2,73c-2.7,4.8-5.1,9.7-10.6,12.1
			c-10.6,2.7-21.4,3.8-32.4,3.8c-125.1-0.1-250.2-0.1-375.3,0c-12.9,0-25.7-1.5-38.4-3.4c-45.9-7-83.8-53.3-82.3-99.8
			c1.5-49,39.6-92.1,86.3-97.7c20.9-2.5,23.4-5.8,26.1-27c4.7-38,19.3-72.1,43.3-102c2.7-3.3,5.3-6.8,8.3-9.8
			C592.3,277.6,597.6,267.3,592.3,253.8z"/>
		<path class="st3" d="M1200.3,639.8c-13.8,0-27.5,0-41.3,0c-6.7-12.3-17.7-14-30.6-13.7c-25.6,0.7-51.2,0.2-76.9,0.2
			c-3.9,0-7.8,0.2-11.6-0.6c-5.9-1.2-6.8-4.4-3.6-9.2c2.6-3.9,6-7.1,9.4-10.3c17.8-17,29.6-37.8,37.8-60.8
			c7.2-20.4,5.1-25.5-13.9-34.1c9.2-12.8,5.8-27,4.8-40.9c0.2-1.1,0.3-2.6,1.1-3.3c13.3-10.4,10.2-23,4.6-35.7
			c-22.5-50.9-60.7-83.1-115.2-94.7c-14.4-3.1-23.6-8.4-30.8-22.2c-25.9-49.4-66-83.9-117.6-105.2c-4.7-1.9-9.3-3.9-14.1-5.5
			c-8.1-2.7-9-7.4-4.8-14.3c8-12.9,16.5-25.5,26.5-36.9c10.7-12.2,19.8-26.3,36-32.5c85.2-9.1,160.4,15.2,225.8,69.4
			c60.9,50.4,95.5,115.9,106.6,194.1c2.4,17,2.4,17,19,19.8c84.8,14.3,139.5,87.7,137.5,162c-0.4,14.9-1.7,29.5-5.3,43.9
			c-2.6,10.3-8.2,14.8-19.1,14.7c-31.6-0.3-63.1-0.2-94.7-0.1c-5,0-10.2-0.7-15,1.2C1207.1,626.9,1205.3,634.9,1200.3,639.8z"/>
		<path class="st4" d="M1200.3,639.8c0.4-8.3,4.5-13.9,12.1-17.1c38.1-1.8,76.3,1,114.4-1.1c47.9-2.7,92.3-15.4,123.3-55.9
			c33.1-43.2,40.4-91.2,19.1-141c-21-48.9-59-78.4-113.3-84.2c-3.9-0.4-7.7-1.4-11.5-2c-11.1-1.9-17-8.4-18.3-19.6
			c-3.6-31.9-9.3-63.3-22.9-92.6c-44.9-97.1-119.8-154.6-226.2-168.4c-76.4-9.9-145,11-205.8,57.8c-3.8,2.9-8.2,4.4-12.3,6.6
			c-22.9,17.9-47.7,48.1-62.3,76.1c19.6,7.1,38.9,14.8,56.6,25.8c38.9,24.3,69,56.6,88.8,98.1c2.5,5.4,5.5,8,11.9,9
			c64.4,10.8,109.2,46.1,132.3,107.7c5.8,15.5,3.9,20.2-9.4,29.5c-11,4.3-18.8,0.9-24.3-12c-6.2-14.8-12.8-29.2-23-41.8
			c-22.7-28.2-52.3-43.7-88.4-45.7c-14.3-0.8-23-6.8-28.7-19.6c-30.3-68.5-82.7-108.9-156.6-119.8c-31.1-4.6-62.2-1.1-91.9,10.4
			c-5.5,2.1-10.9,4.7-16.8,4.5c-8.1-0.3-15.7-1.8-17.1-12c-1.8-16.6,0.4-20.1,15.9-26.4c33.5-13.7,68.3-18.1,104.1-15.4
			c7,0.5,10.8-1,14.5-7.6C817.3,91.2,896,36,1000.8,20.2c164.5-24.7,324.6,88.3,356.2,251.8c4.3,22.2,11.4,31.2,34.2,37.1
			c74.1,19,126.5,89.6,127.5,165.5c1.1,79.2-48.5,149.5-122.7,173.3c-7,2.2-12.4,5.6-17.5,10.7c-76.2,76.4-152.6,152.7-228.9,229
			c-2.2,2.2-4.3,4.6-6.9,6.3c-7.7,5-15.6,5.2-22.4-1.4c-7.1-6.9-7.7-15-1.6-23.1c2.3-3.1,5.2-5.7,8-8.5
			c64.5-64.5,128.9-129,193.5-193.4c2.7-2.7,6.2-4.6,9.9-7.3c-5.2-4.2-8.8-3.1-11.9-3.1c-31.9-0.1-63.9,0.1-95.8-0.1
			C1207.9,657,1203.7,653.4,1200.3,639.8z"/>
		<path class="st4" d="M630,232.4c7.4,9.9,16.4,11.1,27.8,6.8c104.9-39.8,213.7,6.9,257.8,110.4c4.5,10.6,11.5,15.5,23.1,16
			c53.1,2.5,96.4,34.7,114.4,85.2c4.2,11.7,10.4,18.9,23.6,17.7c2,9.3,2,18.8,2.7,28.2c0.6,8.1-2.7,11.6-9.6,13.5
			c-9,2.8-11.8,10.1-14.3,18.3c-15.7,50.6-50.1,80.7-101.6,91.7c-1.9,0.4-3.9,0.2-5.8,0.2c31-43.2,31.7-110.3,3.2-155.5
			c-22.9-36.3-54.6-60.9-96.5-66.5c-22.8-3.1-30.6-14.8-40.2-32.1c-33.1-59.9-84.1-96.3-151.9-108.2c-16.3-2.9-32.7-4.9-49.5-2.6
			c-5,0.7-10.9,2.3-15.7-1.8C607.5,245.3,618.3,238.1,630,232.4z"/>
		<path class="st4" d="M1031.6,859.6c-7.6,0.1-12.7-2.8-16.1-8.8c-3.3-5.9-3.2-12,0.4-17.7c1.6-2.6,3.9-4.8,6.1-7
			c43-43,85.9-86,128.9-129c2.2-2.2,4.3-4.6,6.9-6.2c7.5-4.6,15-4.3,21.4,1.8c6.8,6.5,7.3,14.3,2.5,22.3c-1.2,2-2.9,3.6-4.6,5.2
			c-43.8,43.8-87.6,87.6-131.4,131.5C1041.7,856.1,1037.4,860,1031.6,859.6z"/>
		<path class="st4" d="M928.4,962.5c-7.9,0.2-13.2-3.4-16.3-9.9c-3.1-6.5-2.7-13.3,2.4-18.5c15.2-15.7,30.3-31.3,46.3-46.1
			c7.1-6.5,16.1-5.8,23.1,1.3c7,7.1,7.5,16,0.9,23.1c-14.9,15.9-30.6,31-46.1,46.3C935.9,961.5,932,962.7,928.4,962.5z"/>
		<path class="st3" d="M377.2,782.3c-7.4,0.1-12.5-3.2-15.8-9c-3.3-5.9-3.8-12.7,0.8-17.5c14.4-15.2,29-30.3,44.5-44.5
			c6.9-6.3,15.6-4.5,22,2.1c6.5,6.7,7.7,15.3,1.4,22.2c-13.7,14.9-28.3,28.8-42.7,43C384.6,781.4,380.8,782.5,377.2,782.3z"/>
		<path class="st3" d="M453.7,960.3c-7,0-11.9-3.5-15-9.3c-3.1-5.9-3.3-12.7,1.3-17.5c14.2-14.9,28.5-29.7,43.6-43.7
			c6.8-6.3,15.4-5.1,22.1,1.3c6.7,6.5,8.1,15.2,2.2,22.1c-13.6,15.9-28.7,30.5-44.3,44.5C460.9,960.1,457.3,960.3,453.7,960.3z"/>
		<path class="st3" d="M1095.6,945.8c-0.3,9.9-8.2,17.1-18.3,16.7c-9.4-0.4-16.8-8-16.8-17.3c0-9.6,8.4-17.8,17.9-17.6
			C1088.1,927.7,1095.9,936,1095.6,945.8z"/>
		<path class="st3" d="M411.4,968.9c10-0.1,17.7,7.5,17.6,17.5c-0.1,9.8-8.3,17.8-17.9,17.5c-9.1-0.3-17-8.1-17.2-17.2
			C393.6,977.1,401.6,969,411.4,968.9z"/>
		<path class="st3" d="M1304.3,826c0.1,10.1-7.3,17.6-17.4,17.5c-9.8,0-17.8-8-17.7-17.6c0.2-9,8-16.9,17.1-17.2
			C1296.1,808.4,1304.2,816.2,1304.3,826z"/>
		<path class="st4" d="M858.9,122.2c34.6-31.9,75.4-52.7,120.9-62.3c106.7-22.5,198.9,5.7,274.1,84.7
			c42.6,44.7,66.7,98.9,73.3,160.5c0.5,4.6,1.5,9.2,1.9,13.9c0.8,10.1,6,15.7,16.1,16.6c27.5,2.5,53.4,9.4,76.6,25.3
			c47.3,32.4,71.2,92.3,58.8,148.4c-12.7,57.1-60.5,103-117.6,110.8c-33.6,4.6-67.6,2.5-101.5,2.6c-16.4,0.1-32.7,0-49.1,0
			c3.6-3.5,8.1-2,12.3-2c33.9-0.1,67.8-0.3,101.7,0.1c8.2,0.1,11.9-2.8,13.9-10.4c19.2-71-8.8-146.7-73.5-183.7
			c-21.2-12.1-43.6-20-68.2-21.2c-4.7-0.2-6.9-1.5-7.3-6.7c-3.2-37.5-12.7-73.4-29.1-107.1c-11.7-24.1-26.8-46.1-44.3-66.7
			c-27.5-32.3-60.7-56.6-98.5-74.9c-33.8-16.4-69.6-25-107.3-28.3C894.1,120.3,876.6,121.9,858.9,122.2z"/>
		<path class="st5" d="M522.8,1027.7c47.4-47.7,94.8-95.4,142.2-143.1c12.9-13,25.9-25.9,38.8-38.8c5.8-5.8,9.8-12.2,6.3-20.8
			c-3.6-9-10.8-11.7-19.6-11.7c-36.6,0-73.2,0.1-109.8-0.1c-3.9,0-9.5,2.5-11.5-2.6c-1.7-4.2,3.4-6.5,6-9.1
			c45.7-45.8,91.5-91.4,137-137.3c5.1-5.1,10.2-7.4,17.4-7.1c16.7,0.6,33.5,0.6,50.2,0.8c1.5,6.8-4.2,9.6-7.8,13.2
			c-26.5,26.8-53.3,53.5-80,80.2c-3.6,3.6-7.3,7.1-10.1,11.3c-8.8,13.1-3.1,26.9,12.5,30c4.2,0.8,8.5,0.7,12.8,0.7c30,0,60,0,89.9,0
			c3.5,0,7-0.2,10.5,0.3c2.7,0.3,5.8,0.4,7,3.3c1.2,2.9-1.1,5.1-2.9,7.1c-2.9,3.2-6.5,5.5-9.9,8.2c-85,68.2-170.2,136.1-255.6,203.9
			c-4.3,3.4-8.9,6.2-13.2,9.6C530.2,1027.8,527.1,1031.2,522.8,1027.7z"/>
		<path class="st6" d="M522.8,1027.7c13.9-3.3,22.2-14.8,32.7-22.9c41-31.8,81.4-64.3,121.9-96.7c40.8-32.6,81.6-65.2,122.2-98.2
			c4.6-3.7,11.2-5.7,13.8-13.8c-7.8,0-14.9,0-22.1,0c-30,0-59.9-0.1-89.9,0c-11.2,0-21-2.6-25.7-14.1c-4.4-11,0.7-19.5,8.3-27.1
			c29.2-29.2,58.3-58.3,87.5-87.6c3-3,5.5-6.4,8.3-9.7c20.8,0,41.7,0,62.9,0c-0.9,5.4-5,7.5-7.8,10.4
			c-24.7,24.9-49.5,49.6-74.3,74.3c-6.4,6.3-11.5,12.9-7.5,22.6c3.9,9.5,12,11.3,21.1,11.3c38.9,0,77.9,0,116.8,0.1
			c3.5,0,8.8-2.2,10,3c0.8,3.8-4,5.2-6.8,7.1C774.9,866.4,655.6,946.2,536.3,1026c-3.8,2.5-7.7,5.6-12,6.4
			C518.8,1033.4,521.9,1029.8,522.8,1027.7z"/>
		<path class="st3" d="M1056.7,91.9c63.5,4.1,118.4,27.3,162.9,73.5c8.7,9,9.2,19.2,1.5,26.6c-7.4,7.1-17.3,6.8-25.9-1.9
			c-16.3-16.4-34.4-30.3-55.1-40.8c-28.2-14.2-58-22.2-89.7-22.5c-3.8,0-7.9-0.3-11.4-1.6c-8.9-3.3-12.5-10.4-11.2-19.5
			c1.3-8.9,7.1-13.5,16.1-13.9C1048.1,91.8,1052.4,91.9,1056.7,91.9z"/>
		<path class="st3" d="M1254,229.8c7.3-0.1,12.8,3,15.8,9.7c5.9,13.1,10.8,26.5,13.4,40.7c1.7,9.3-2.1,16.1-10.5,19.6
			c-8.8,3.6-18.6-0.5-22.2-9.6c-5-13-9.5-26.2-13.4-39.5C1233.9,239.9,1242.6,229.7,1254,229.8z"/>
	</g>
</g>
</svg>
