<?xml version="1.0" encoding="utf-8"?>
<!-- Generator: Adobe Illustrator 25.4.1, SVG Export Plug-In . SVG Version: 6.00 Build 0)  -->
<svg version="1.1" id="Layer_1" xmlns="http://www.w3.org/2000/svg" xmlns:xlink="http://www.w3.org/1999/xlink" x="0px" y="0px"
	 viewBox="0 0 1920 1080" style="enable-background:new 0 0 1920 1080;" xml:space="preserve">
<style type="text/css">
	.st0{fill:#F1D322;}
	.st1{fill:#F6AB16;}
	.st2{fill:#F4DD56;}
</style>
<g>
	<g>
		<path class="st0" d="M474.69,1022.56c-1.19-0.41-2.57-0.52-3.13-1.95c2.2-5.7,6.59-9.92,10.23-14.58
			c18.53-23.74,36.68-47.78,55.1-71.61c23.22-30.03,46.3-60.16,69.4-90.29c15.44-20.14,31.16-40.07,46.22-60.5
			c6.17-8.37,4.07-14.36-6.26-16.27c-17.22-3.19-34.54-5.82-51.82-8.72c-2.44-0.41-4.9-0.72-7.31-1.26c-6.1-1.36-7.04-3.5-3.09-8.39
			c7.39-9.15,14.71-18.35,22.09-27.51c30.29-37.6,60.63-75.15,90.82-112.83c6.31-7.87,4.18-13.18-5.93-14.89
			c-19.51-3.3-39.03-6.5-58.54-9.75c-1.83-0.3-3.68-0.53-5.48-0.98c-5.26-1.3-5.93-2.51-3.1-7.23c5.84-9.74,12.7-18.81,19.24-28.07
			c25-35.39,49.19-71.35,74.4-106.59c1.32-1.85,2.38-3.87,3.62-5.76c2.4-3.65,2.78-7.23,0.08-10.92c-0.71-0.97-1.49-2.03-0.8-3.39
			c46.78,7.78,93.56,15.55,140.35,23.33c10.17,9.1,10.38,15.86,0.72,25.84c-26.12,26.97-52.26,53.91-78.38,80.87
			c-1.4,1.45-2.73,2.97-4.88,5.32c6.22,1.03,11.58,1.92,16.94,2.82c15.05,2.5,30.08,5.07,45.14,7.47
			c6.72,1.07,12.35,3.4,14.46,10.63c2.06,7.03-1.53,11.84-6.33,16.23c-42.17,38.56-84.32,77.14-126.46,115.72
			c-1.5,1.37-2.92,2.83-4.43,4.3c1.35,2.04,3.41,1.53,5.07,1.81c22.15,3.75,44.3,7.5,66.49,11.04c6.55,1.05,12.03,3.28,14.15,10.14
			c2.21,7.16-1.24,12.22-6.43,16.74c-58.67,51.05-117.29,102.16-175.92,153.25c-42.77,37.27-85.54,74.53-128.3,111.81
			c-2.96,2.58-5.78,5.37-10.07,5.45C479.82,1024.11,477.21,1023.6,474.69,1022.56z"/>
		<path class="st1" d="M720.45,421.07c5.99,6.76,6.35,8.31,1.29,16.14c-6.49,10.03-13.33,19.83-20.16,29.63
			c-24.65,35.33-49.37,70.62-74.03,105.95c-1.62,2.32-2.87,4.9-4.65,7.98c2.61,0.43,4.59,0.76,6.57,1.09
			c21.15,3.52,42.3,7.02,63.44,10.55c9.43,1.58,12.35,8.38,6.57,15.81c-7.07,9.1-14.43,17.98-21.67,26.95
			c-15.25,18.9-30.51,37.8-45.76,56.7c-15.13,18.74-30.25,37.48-45.38,56.22c-0.78,0.96-1.51,1.96-2.31,2.91
			c-2.32,2.78-1.78,4.34,1.91,4.68c1.23,0.11,2.44,0.39,3.66,0.6c18.71,3.11,37.42,6.18,56.12,9.34
			c12.63,2.13,15.25,9.17,7.52,19.26c-19.19,25.01-38.19,50.18-57.4,75.18c-30.38,39.53-60.87,78.97-91.3,118.46
			c-8.93,11.59-17.82,23.2-26.68,34.85c-2,2.62-3.91,5.29-6.62,7.25c-5.77-6.01-6.31-10.35-2.08-18.96
			c26.92-54.77,53.87-109.52,80.81-164.28c4.07-8.27,8.13-16.55,12.5-25.44c-2.74-0.46-4.93-0.82-7.11-1.18
			c-22.16-3.68-44.32-7.32-66.47-11.06c-14.64-2.47-19.09-12.99-10.59-25.16c31.94-45.71,63.96-91.37,95.95-137.05
			c5.14-7.34,5.15-7.34-3.35-8.75c-21.34-3.55-42.69-7.07-64.03-10.65c-13.18-2.22-17.67-12.08-10.66-23.63
			c36.62-60.28,73.31-120.52,109.91-180.82c2.8-4.61,6.63-7.65,11.5-9.6C652.11,409.71,686.28,415.39,720.45,421.07z"/>
		<path class="st2" d="M474.69,1022.56c2.62,0.42,5.24,0.83,7.85,1.25c-0.17,0.34-0.3,0.68-0.4,1.04c-2.44-0.41-4.88-0.81-7.32-1.22
			C474.76,1023.28,474.72,1022.92,474.69,1022.56z"/>
	</g>
</g>
<g>
	<g>
		<path class="st0" d="M821.69,1078.27c-2.07-0.35-4.36-0.15-5.66-2.35c2.06-9.95,8.1-18.05,12.8-26.69
			c23.91-43.97,47.1-88.32,70.81-132.4c29.87-55.55,59.51-111.23,89.15-166.91c19.82-37.22,40.16-74.16,59.28-111.76
			c7.84-15.41,2.77-24.65-14.69-24.97c-29.1-0.53-58.21-0.13-87.32-0.17c-4.11-0.01-8.22,0.15-12.33-0.08
			c-10.38-0.57-12.49-3.82-7.35-12.92c9.61-17.01,19.12-34.09,28.72-51.11c39.41-69.88,78.92-139.71,118.14-209.69
			c8.19-14.62,3.26-22.74-13.78-22.79c-32.87-0.1-65.75-0.03-98.62-0.03c-3.08,0-6.17,0.13-9.24-0.11
			c-8.97-0.7-10.41-2.49-7.05-11.01c6.93-17.55,15.69-34.3,23.89-51.26c31.33-64.83,61.19-130.36,92.92-194.99
			c1.66-3.39,2.84-6.99,4.37-10.44c2.94-6.63,2.58-12.61-2.84-17.92c-1.42-1.39-2.99-2.93-2.24-5.33c78.8,0,157.61,0,236.41,0
			c19.15,12.15,21.34,23.17,8.23,42.15c-35.46,51.32-70.98,102.61-106.46,153.91c-1.91,2.76-3.67,5.61-6.56,10.05
			c10.47,0,19.51,0,28.54,0c25.34,0,50.69,0.11,76.03-0.05c11.31-0.07,21.17,2.22,26.61,13.48c5.29,10.96,0.73,19.82-5.95,28.33
			c-58.62,74.7-117.2,149.42-175.77,224.14c-2.09,2.66-4.02,5.44-6.1,8.26c2.77,2.97,6.01,1.57,8.8,1.58
			c37.33,0.12,74.66,0.22,111.99-0.01c11.02-0.07,20.61,2.1,25.95,12.76c5.58,11.13,1.3,20.37-5.97,29.18
			c-82.26,99.67-164.43,199.41-246.62,299.13c-59.96,72.74-119.91,145.48-179.86,218.23c-4.15,5.03-8.01,10.37-15.03,11.67
			C830.5,1079.42,826.1,1079.29,821.69,1078.27z"/>
		<path class="st1" d="M1060.66,25.34c11.67,9.45,12.68,11.89,6.51,26.1c-7.9,18.21-16.45,36.14-24.98,54.06
			c-30.78,64.63-61.69,129.21-92.48,193.84c-2.02,4.25-3.37,8.82-5.46,14.34c4.4,0,7.73,0,11.06,0c35.62,0,71.24-0.02,106.86,0.01
			c15.88,0.02,22.52,10.38,15.08,24.13c-9.12,16.84-18.75,33.41-28.17,50.09c-19.85,35.14-39.71,70.28-59.57,105.41
			c-19.69,34.84-39.38,69.68-59.06,104.52c-1.01,1.79-1.95,3.62-2.99,5.39c-3.05,5.19-1.73,7.6,4.4,7.16
			c2.04-0.15,4.11-0.02,6.16-0.02c31.51,0,63.02-0.06,94.53,0.02c21.28,0.06,27.5,10.88,17.57,29.52
			c-24.64,46.23-48.93,92.66-73.61,138.87c-39.02,73.07-78.27,146.03-117.39,219.05c-11.48,21.43-22.9,42.89-34.25,64.39
			c-2.56,4.85-4.97,9.74-8.87,13.69c-11.09-8.28-13.16-15.25-8.58-30.51c29.2-97.11,58.46-194.21,87.7-291.31
			c4.42-14.67,8.81-29.34,13.55-45.1c-4.62,0-8.3,0-11.98,0c-37.32,0-74.65,0.07-111.97-0.02c-24.66-0.06-34.84-16.08-24.21-38.36
			c39.91-83.63,79.95-167.2,119.95-250.79c6.43-13.44,6.45-13.43-7.87-13.43c-35.95,0-71.91,0.05-107.86-0.02
			c-22.2-0.04-32.27-14.99-23.92-35.82c43.6-108.79,87.34-217.53,130.89-326.34c3.33-8.32,8.78-14.35,16.24-18.86
			C945.53,25.34,1003.1,25.34,1060.66,25.34z"/>
		<path class="st2" d="M821.69,1078.27c4.41-0.03,8.81-0.06,13.22-0.09c-0.18,0.59-0.31,1.2-0.38,1.82c-4.11,0-8.22,0-12.33,0
			C821.99,1079.43,821.82,1078.86,821.69,1078.27z"/>
	</g>
</g>
</svg>
