<?xml version="1.0" encoding="utf-8"?>
<!-- Generator: Adobe Illustrator 25.4.1, SVG Export Plug-In . SVG Version: 6.00 Build 0)  -->
<svg version="1.1" id="Layer_1" xmlns="http://www.w3.org/2000/svg" xmlns:xlink="http://www.w3.org/1999/xlink" x="0px" y="0px"
	 viewBox="0 0 1920 1080" style="enable-background:new 0 0 1920 1080;" xml:space="preserve">
<style type="text/css">
	.st0{fill:#E8F6F7;}
	.st1{fill:#D0E2E2;}
	.st2{fill:#F5CA43;}
	.st3{fill:#F9AF3C;}
</style>
<g>
	<g>
		<path class="st0" d="M659.67,253.76c1.72-0.01,3.45-0.02,5.17-0.04c69.78-8.94,130.08,12.08,181.05,59.41
			c19.72,18.31,35.52,40.42,46.03,65.59c3.95,9.45,10.21,13.36,20.3,14.42c75.4,7.9,131.49,75.99,130.06,144.49
			c-0.54,25.89-4.37,50.31-17.21,72.98c-2.7,4.76-5.12,9.7-10.56,12.06c-10.64,2.71-21.42,3.77-32.4,3.77
			c-125.09-0.08-250.19-0.1-375.28,0.03c-12.93,0.01-25.72-1.47-38.37-3.38c-45.91-6.96-83.79-53.29-82.32-99.8
			c1.55-49,39.56-92.06,86.26-97.7c20.86-2.52,23.43-5.79,26.07-26.96c4.73-38.01,19.26-72.05,43.28-101.97
			c2.68-3.34,5.28-6.83,8.33-9.78C659.66,277.59,664.95,267.26,659.67,253.76z"/>
		<path class="st0" d="M1267.68,639.77c-13.76,0-27.52,0-41.28,0c-6.72-12.33-17.71-14.04-30.55-13.71
			c-25.61,0.65-51.24,0.2-76.86,0.19c-3.88,0-7.78,0.17-11.61-0.62c-5.86-1.2-6.79-4.41-3.57-9.17c2.63-3.89,6.04-7.09,9.4-10.31
			c17.81-17.02,29.6-37.8,37.76-60.77c7.25-20.4,5.06-25.45-13.92-34.13c9.18-12.75,5.83-26.98,4.81-40.93
			c0.21-1.15,0.28-2.6,1.12-3.26c13.33-10.43,10.22-22.96,4.58-35.72c-22.5-50.87-60.72-83.11-115.16-94.69
			c-14.41-3.07-23.61-8.44-30.84-22.23C975.63,265,935.52,230.49,884,209.19c-4.68-1.93-9.33-3.94-14.14-5.52
			c-8.08-2.66-9.03-7.42-4.76-14.26c8.04-12.9,16.53-25.53,26.55-36.94c10.69-12.17,19.75-26.32,35.95-32.49
			c85.18-9.1,160.36,15.25,225.78,69.44c60.9,50.44,95.54,115.94,106.57,194.09c2.41,17.04,2.4,16.96,19,19.76
			c84.8,14.3,139.48,87.68,137.52,161.97c-0.39,14.91-1.65,29.47-5.28,43.94c-2.58,10.3-8.25,14.85-19.06,14.74
			c-31.57-0.31-63.14-0.16-94.71-0.07c-5.03,0.01-10.15-0.72-15.02,1.16C1274.44,626.89,1272.63,634.9,1267.68,639.77z"/>
		<path class="st1" d="M1267.68,639.77c0.42-8.26,4.52-13.91,12.12-17.07c38.13-1.82,76.35,0.99,114.4-1.12
			c47.88-2.66,92.27-15.43,123.28-55.87c33.13-43.21,40.45-91.24,19.09-141c-21.01-48.94-59-78.35-113.26-84.17
			c-3.88-0.42-7.67-1.37-11.51-2.01c-11.12-1.86-17.01-8.37-18.26-19.58c-3.55-31.88-9.3-63.31-22.86-92.65
			c-44.88-97.06-119.85-154.55-226.25-168.39c-76.37-9.94-144.96,10.99-205.84,57.75c-3.79,2.91-8.19,4.45-12.32,6.6
			c-22.94,17.94-47.73,48.07-62.34,76.13c19.6,7.15,38.91,14.76,56.61,25.81c38.93,24.3,69.03,56.56,88.76,98.15
			c2.54,5.36,5.5,7.95,11.86,9.02c64.42,10.75,109.19,46.13,132.32,107.7c5.82,15.49,3.91,20.23-9.38,29.47
			c-11.01,4.29-18.79,0.91-24.27-12.03c-6.24-14.76-12.84-29.21-22.97-41.79c-22.74-28.25-52.33-43.7-88.4-45.66
			c-14.27-0.77-22.98-6.82-28.66-19.64c-30.29-68.45-82.7-108.88-156.59-119.79c-31.06-4.59-62.16-1.15-91.88,10.35
			c-5.45,2.11-10.86,4.67-16.81,4.46c-8.14-0.29-15.73-1.84-17.12-11.99c-1.79-16.62,0.43-20.09,15.9-26.41
			c33.46-13.66,68.3-18.12,104.11-15.45c7.04,0.53,10.76-0.97,14.55-7.56C884.7,91.17,963.38,36,1068.14,20.25
			c164.46-24.73,324.64,88.27,356.23,251.81c4.28,22.17,11.39,31.23,34.21,37.08c74.05,18.98,126.49,89.63,127.53,165.54
			c1.08,79.24-48.48,149.45-122.74,173.29c-6.97,2.24-12.42,5.64-17.5,10.73c-76.23,76.41-152.57,152.71-228.89,229.03
			c-2.2,2.2-4.32,4.59-6.89,6.26c-7.72,5.05-15.64,5.15-22.38-1.44c-7.09-6.93-7.68-15.05-1.61-23.11c2.33-3.09,5.25-5.74,8-8.49
			c64.46-64.49,128.92-128.98,193.46-193.38c2.69-2.68,6.16-4.58,9.92-7.31c-5.16-4.25-8.75-3.09-11.93-3.1
			c-31.95-0.1-63.9,0.06-95.85-0.12C1275.26,656.95,1271.08,653.38,1267.68,639.77z"/>
		<path class="st1" d="M697.4,232.41c7.39,9.93,16.38,11.07,27.75,6.76c104.86-39.75,213.69,6.87,257.82,110.39
			c4.53,10.64,11.5,15.49,23.08,16.03c53.07,2.47,96.38,34.68,114.42,85.25c4.19,11.74,10.38,18.93,23.62,17.66
			c2.03,9.3,2.03,18.77,2.67,28.21c0.55,8.06-2.67,11.65-9.58,13.52c-9.01,2.77-11.77,10.14-14.29,18.26
			c-15.69,50.63-50.12,80.71-101.64,91.68c-1.86,0.4-3.86,0.17-5.79,0.23c30.96-43.24,31.67-110.31,3.15-155.49
			c-22.91-36.3-54.6-60.86-96.54-66.49c-22.81-3.06-30.61-14.75-40.22-32.12c-33.12-59.85-84.1-96.3-151.86-108.24
			c-16.32-2.87-32.72-4.92-49.46-2.58c-5.01,0.7-10.88,2.27-15.69-1.77C674.82,245.28,685.65,238.13,697.4,232.41z"/>
		<path class="st1" d="M1098.96,859.64c-7.59,0.12-12.74-2.81-16.08-8.76c-3.33-5.94-3.18-11.98,0.43-17.68
			c1.64-2.59,3.92-4.8,6.11-6.99c42.96-43.01,85.95-85.99,128.95-128.96c2.19-2.19,4.33-4.59,6.93-6.19
			c7.47-4.6,15.03-4.27,21.43,1.83c6.8,6.49,7.26,14.3,2.51,22.29c-1.17,1.96-2.94,3.6-4.58,5.25
			c-43.79,43.83-87.6,87.64-131.39,131.48C1109.05,856.11,1104.75,860,1098.96,859.64z"/>
		<path class="st1" d="M995.81,962.47c-7.92,0.18-13.23-3.42-16.33-9.86c-3.12-6.48-2.65-13.31,2.38-18.49
			c15.16-15.65,30.33-31.32,46.31-46.11c7.07-6.54,16.14-5.84,23.12,1.27c6.97,7.1,7.54,16.03,0.9,23.14
			c-14.87,15.91-30.6,31.03-46.11,46.33C1003.23,961.54,999.41,962.7,995.81,962.47z"/>
		<path class="st0" d="M444.58,782.29c-7.43,0.14-12.48-3.2-15.77-8.97c-3.34-5.86-3.81-12.71,0.76-17.55
			c14.39-15.25,29.05-30.32,44.49-44.48c6.86-6.29,15.58-4.52,22.04,2.13c6.49,6.68,7.67,15.33,1.4,22.15
			c-13.66,14.87-28.31,28.84-42.69,43.05C451.97,781.44,448.16,782.54,444.58,782.29z"/>
		<path class="st0" d="M521.1,960.29c-6.95,0.02-11.94-3.48-14.99-9.35c-3.07-5.92-3.34-12.65,1.3-17.53
			c14.17-14.91,28.54-29.68,43.63-43.65c6.78-6.27,15.42-5.12,22.13,1.3c6.74,6.46,8.08,15.17,2.18,22.1
			c-13.58,15.94-28.68,30.53-44.34,44.48C528.24,960.09,524.63,960.29,521.1,960.29z"/>
		<path class="st0" d="M1162.95,945.77c-0.29,9.89-8.25,17.14-18.34,16.71c-9.39-0.4-16.77-8.03-16.75-17.31
			c0.02-9.58,8.36-17.76,17.93-17.59C1155.48,927.74,1163.23,935.97,1162.95,945.77z"/>
		<path class="st0" d="M478.81,968.93c10-0.09,17.71,7.55,17.63,17.46c-0.08,9.76-8.27,17.77-17.89,17.5
			c-9.08-0.26-16.97-8.11-17.25-17.17C461.01,977.14,469,969.02,478.81,968.93z"/>
		<path class="st0" d="M1371.69,826.02c0.13,10.12-7.26,17.57-17.41,17.54c-9.84-0.02-17.83-8-17.65-17.59
			c0.18-9.02,8.01-16.89,17.12-17.21C1363.5,808.42,1371.57,816.19,1371.69,826.02z"/>
		<path class="st1" d="M926.26,122.25c34.57-31.9,75.39-52.71,120.92-62.34c106.65-22.54,198.89,5.74,274.13,84.7
			c42.57,44.68,66.69,98.88,73.31,160.54c0.5,4.63,1.48,9.22,1.86,13.86c0.82,10.06,6.02,15.66,16.12,16.6
			c27.47,2.55,53.37,9.41,76.56,25.33c47.27,32.44,71.22,92.28,58.78,148.38c-12.67,57.13-60.48,102.97-117.59,110.83
			c-33.61,4.62-67.63,2.45-101.49,2.57c-16.36,0.06-32.71-0.01-49.07-0.02c3.62-3.45,8.14-2.03,12.27-2.05
			c33.9-0.11,67.8-0.34,101.69,0.14c8.21,0.12,11.88-2.83,13.92-10.38c19.23-71-8.85-146.74-73.5-183.71
			c-21.24-12.15-43.64-20-68.17-21.16c-4.65-0.22-6.91-1.54-7.35-6.67c-3.2-37.45-12.66-73.39-29.08-107.13
			c-11.73-24.11-26.79-46.11-44.35-66.73c-27.51-32.31-60.71-56.59-98.46-74.85c-33.8-16.35-69.63-25.04-107.27-28.28
			C961.5,120.33,943.99,121.93,926.26,122.25z"/>
		<path class="st2" d="M590.2,1027.69c47.4-47.7,94.79-95.41,142.2-143.1c12.91-12.98,25.87-25.91,38.84-38.84
			c5.85-5.83,9.75-12.15,6.3-20.82c-3.57-8.95-10.78-11.67-19.6-11.68c-36.61-0.02-73.23,0.06-109.84-0.12
			c-3.92-0.02-9.5,2.49-11.47-2.57c-1.65-4.23,3.42-6.5,6.02-9.1c45.65-45.8,91.46-91.43,137.01-137.33
			c5.09-5.13,10.2-7.41,17.41-7.13c16.71,0.64,33.45,0.56,50.18,0.78c1.46,6.77-4.21,9.58-7.78,13.2
			c-26.55,26.85-53.33,53.48-80.03,80.2c-3.58,3.58-7.26,7.08-10.1,11.31c-8.83,13.13-3.12,26.87,12.45,29.98
			c4.23,0.84,8.53,0.7,12.81,0.7c29.98,0.01,59.95,0,89.93,0.01c3.5,0,7.02-0.15,10.5,0.27c2.68,0.33,5.83,0.42,6.98,3.35
			c1.15,2.93-1.06,5.12-2.89,7.11c-2.91,3.17-6.54,5.52-9.88,8.2c-84.98,68.24-170.23,136.14-255.62,203.87
			c-4.27,3.38-8.88,6.25-13.16,9.62C597.58,1027.83,594.46,1031.2,590.2,1027.69z"/>
		<path class="st3" d="M590.2,1027.69c13.93-3.27,22.24-14.8,32.7-22.92c40.96-31.8,81.36-64.33,121.88-96.7
			c40.83-32.61,81.63-65.25,122.21-98.18c4.61-3.74,11.2-5.7,13.84-13.79c-7.75,0-14.92,0-22.09,0c-29.97,0-59.93-0.06-89.9,0.03
			c-11.24,0.03-21.05-2.59-25.67-14.08c-4.43-11.02,0.74-19.53,8.27-27.06c29.15-29.19,58.35-58.33,87.47-87.56
			c2.99-3,5.55-6.43,8.31-9.66c20.83,0,41.66,0,62.91,0c-0.94,5.37-4.96,7.51-7.79,10.37c-24.7,24.86-49.51,49.62-74.35,74.34
			c-6.37,6.34-11.47,12.93-7.48,22.62c3.93,9.54,12.04,11.31,21.07,11.31c38.94,0.02,77.88-0.04,116.82,0.12
			c3.48,0.01,8.83-2.21,9.96,2.97c0.82,3.77-3.99,5.2-6.78,7.08c-119.28,79.85-238.58,159.67-357.92,239.44
			c-3.77,2.52-7.74,5.55-12,6.36C586.18,1033.44,589.27,1029.78,590.2,1027.69z"/>
		<path class="st0" d="M1124.05,91.91c63.51,4.1,118.37,27.34,162.91,73.47c8.68,8.98,9.19,19.25,1.5,26.63
			c-7.38,7.09-17.3,6.82-25.91-1.85c-16.34-16.43-34.43-30.33-55.14-40.75c-28.21-14.2-57.98-22.16-89.69-22.49
			c-3.83-0.04-7.9-0.28-11.42-1.58c-8.89-3.28-12.52-10.36-11.17-19.48c1.32-8.89,7.1-13.54,16.07-13.93
			C1115.47,91.76,1119.76,91.91,1124.05,91.91z"/>
		<path class="st0" d="M1321.36,229.75c7.3-0.08,12.79,2.97,15.82,9.68c5.91,13.08,10.79,26.54,13.43,40.7
			c1.73,9.26-2.05,16.11-10.52,19.6c-8.8,3.63-18.63-0.47-22.17-9.57c-5.04-12.96-9.49-26.19-13.44-39.53
			C1301.31,239.93,1310,229.69,1321.36,229.75z"/>
	</g>
</g>
</svg>
