<?xml version="1.0" encoding="utf-8"?>
<!-- Generator: Adobe Illustrator 25.4.1, SVG Export Plug-In . SVG Version: 6.00 Build 0)  -->
<svg version="1.1" id="Layer_1" xmlns="http://www.w3.org/2000/svg" xmlns:xlink="http://www.w3.org/1999/xlink" x="0px" y="0px"
	 viewBox="0 0 1920 1080" style="enable-background:new 0 0 1920 1080;" xml:space="preserve">
<style type="text/css">
	.st0{fill:#FDCB6D;}
	.st1{fill:#FEC14F;}
	.st2{fill:#FEFEFE;}
</style>
<g>
	<g>
		<path class="st0" d="M773.56,744.49c-35.84-41.86-60.13-89.57-69.81-143.87c-21.29-119.49,13.63-220.66,103.77-301.36
			c51.55-46.15,113.29-70.69,182.76-75.95c85.24-6.45,159.86,19.53,226.5,71.42c1.19,0.92,1.99,2.33,2.97,3.52
			c35.41,44.34,55.2,95.29,61.76,151.19c6.94,59.05-0.66,116.26-25.66,170.75c-15.71,34.25-35.83,65.71-62.37,92.31
			c-50.33,50.45-110.79,82.68-181.65,92.7c-76.46,10.81-148.52-2.94-214.97-43.41C788.52,756.69,781.93,749.44,773.56,744.49z"/>
		<path class="st1" d="M773.56,744.49c11.61,2.94,19.9,11.67,29.87,17.46c37.71,21.91,77.85,35.52,121.19,40.91
			c75.69,9.42,145.74-6.33,209.94-46.72c60.39-37.99,101.73-91.85,127.22-158.33c17.3-45.12,22.02-92.1,17.92-139.45
			c-4.9-56.54-24.93-108.34-58.33-154.61c-1.15-1.59-4.46-2.69-1.6-5.5c59.21,50.35,94.98,114.04,107.08,190.67
			c14.61,92.54-7.87,176.04-66.19,248.82c-50.53,63.06-116.53,101.83-196.9,113.91c-105.89,15.92-196.96-15.33-274.07-88.8
			C783.81,757.25,778.91,750.63,773.56,744.49z"/>
		<path class="st0" d="M988.78,85.97c0-13.99-0.28-27.99,0.07-41.97c0.43-16.83,10.61-27.89,25.09-28
			c14.51-0.11,25.16,10.89,25.4,27.65c0.41,27.98,0.35,55.97,0.03,83.95c-0.2,17.63-10.59,28.68-25.66,28.44
			c-14.61-0.24-24.44-11.05-24.86-28.09C988.5,113.96,988.78,99.96,988.78,85.97z"/>
		<path class="st0" d="M562.26,513.51c13.6,0,27.21-0.26,40.8,0.06c17.58,0.42,28.62,10.74,28.27,25.84
			c-0.33,14.61-11.13,24.49-28.24,24.69c-27.98,0.33-55.96,0.37-83.94-0.01c-16.78-0.23-27.82-10.74-27.83-25.23
			c-0.01-14.5,11-24.82,27.8-25.27C533.5,513.2,547.88,513.51,562.26,513.51z"/>
		<path class="st0" d="M1467.76,513.51c13.6,0,27.21-0.25,40.8,0.06c17.02,0.39,28.01,10.22,28.34,24.76
			c0.33,14.89-11.03,25.58-28.47,25.78c-27.59,0.31-55.19,0.29-82.78,0.01c-17.74-0.18-28.81-10.28-28.77-25.34
			c0.04-15.05,11.1-24.89,28.9-25.22C1439.77,513.3,1453.77,513.51,1467.76,513.51z"/>
		<path class="st0" d="M1039.46,991.89c0,13.6,0.2,27.21-0.05,40.81c-0.32,17.66-10.38,28.99-25.29,29
			c-14.89,0.01-25.11-11.35-25.28-28.99c-0.26-27.2-0.23-54.41-0.01-81.62c0.15-18.43,10.39-29.78,25.86-29.42
			c14.96,0.35,24.45,11.47,24.73,29.41C1039.63,964.68,1039.46,978.29,1039.46,991.89z"/>
		<path class="st0" d="M662.85,162.53c7.07-0.95,13.35,2.89,18.73,8.22c20.18,19.98,40.4,39.92,60.22,60.25
			c11.38,11.67,11.66,27.86,1.52,37.6c-9.91,9.51-25.47,9.13-36.74-1.87c-20.61-20.09-40.82-40.6-61.08-61.04
			c-8.24-8.31-10.09-18.45-5.78-29.03C643.58,167.2,651.32,162.37,662.85,162.53z"/>
		<path class="st0" d="M1390.34,890.54c0.37,10.17-3.82,17.42-11.99,21.74c-8.37,4.43-17.27,4.63-25.49-0.65
			c-3.88-2.49-7.31-5.78-10.61-9.05c-18.22-18.09-36.43-36.19-54.46-54.47c-12.22-12.39-13.46-28-3.44-38.43
			c10.01-10.43,26.19-9.69,38.42,2.32c19.7,19.35,39.15,38.97,58.61,58.56C1387.01,876.22,1391.36,882.6,1390.34,890.54z"/>
		<path class="st0" d="M1302.87,275.23c-18.95-0.29-30.4-18.42-23.02-34.77c1.95-4.32,4.87-7.9,8.21-11.23
			c18.73-18.67,37.35-37.46,56.14-56.07c13.07-12.95,28.54-14.44,39.17-4.11c10.9,10.6,9.45,26.55-3.9,40.03
			c-18.07,18.24-36.21,36.4-54.48,54.43C1318.59,269.81,1311.87,275.93,1302.87,275.23z"/>
		<path class="st0" d="M750.56,827.49c0.39,8.65-4.53,14.87-9.98,20.42c-19.35,19.7-38.79,39.32-58.58,58.58
			c-11.83,11.52-27.5,11.9-37.48,1.8c-10.03-10.15-9.45-25.56,2.19-37.48c19.57-20.03,39.47-39.74,59.37-59.44
			c8.4-8.32,18.25-11.69,29.77-6.86C746.01,808.77,750.26,816.91,750.56,827.49z"/>
		<path class="st2" d="M918.71,340.42c0.51,8.51-3.66,15.25-10.74,20.22c-46.91,32.95-77.83,77-93.18,132.28
			c-4.5,16.22-17.82,23.48-31.94,19.15c-14.1-4.32-20.38-17.4-15.78-33.63c18.68-65.88,55.42-119.03,111.89-158.21
			c8.68-6.02,17.75-7.57,27.31-2.28C914.86,322.69,919.14,329.99,918.71,340.42z"/>
	</g>
</g>
</svg>
