<?xml version="1.0" encoding="utf-8"?>
<!-- Generator: Adobe Illustrator 25.4.1, SVG Export Plug-In . SVG Version: 6.00 Build 0)  -->
<svg version="1.1" id="Layer_1" xmlns="http://www.w3.org/2000/svg" xmlns:xlink="http://www.w3.org/1999/xlink" x="0px" y="0px"
	 viewBox="0 0 1920 1080" style="enable-background:new 0 0 1920 1080;" xml:space="preserve">
<style type="text/css">
	.st0{fill:#F2F6F9;stroke:url(#SVGID_1_);stroke-miterlimit:10;}
	.st1{fill:#F2F6F9;stroke:url(#SVGID_00000163768469933060377990000014201940575586887858_);stroke-miterlimit:10;}
	.st2{fill:#FDCB6D;}
	.st3{fill:#FEC14F;}
	.st4{fill:#FEFEFE;}
</style>
<linearGradient id="SVGID_1_" gradientUnits="userSpaceOnUse" x1="372.4744" y1="254.0411" x2="930.9783" y2="254.0411" gradientTransform="matrix(-0.9748 0.2229 -0.2229 -0.9748 995.6462 719.8031)">
	<stop  offset="1.385225e-07" style="stop-color:#FFFFFF"/>
	<stop  offset="1" style="stop-color:#B4DAF9"/>
</linearGradient>
<path class="st0" d="M506.8,761.2c-0.7,0.5-1.5,1-2.3,1.1c-7,1.6-14,3.2-21.1,4.9c-93.4,21.4-186.8,42.7-280.1,64
	c-0.9,0.2-1.8,0.1-2.7,0c-0.9-0.2-1.9,0.2-2.8,0c-0.6-0.2-1.3-0.2-1.9-0.2c-3.9,0.2-7.9,0.5-11.8,0.4c-8.3-0.3-16.5-1-24.7-2.5
	c-17.4-3.1-33.6-9.2-48.8-18c-11.5-6.6-22-14.6-31.3-24.2c-9.7-10-18.1-20.9-24.8-33.2c-2.9-5.3-5.2-11-8-16.4
	c-0.2-0.4-0.5-0.7-0.8-1.1c-0.6-0.7-0.5-1.9-1-2.7c-0.4-0.6-0.7-1.2-0.8-1.9c-2.4-12.3-6.8-24.2-7.4-36.8c-0.2-4.4-0.6-8.8-0.5-13.2
	c0.5-17.8,3.5-35.2,9.9-52c7.1-18.7,17.5-35.2,31.1-49.7c12.9-13.7,27.9-24.7,45.1-32.7c5.4-2.5,10.9-5.2,16.5-6.7
	c12.5-3.4,25.1-7.1,38.3-7.1c1.1,0,1.5-0.5,1.8-1.3c2.5-7.3,5.8-14.2,9.4-20.9c6.2-11.7,13.7-22.4,22.4-32.3
	c7.9-8.9,16.8-16.9,26.5-23.9c8.8-6.3,18.1-11.8,28-16.3c3.4-1.5,7.1-2.7,10.3-4.6c1.3-0.7,2.4-1.6,3.9-2
	c12.2-2.7,24.4-5.5,36.5-8.3c0.7-0.2,1.4-0.2,2.1-0.1c1.1,0.1,2.2-0.6,3.3-0.4c0.5,0.1,1,0.2,1.5,0.2c0.6,0,1.2,0,1.8,0
	c9-0.6,18-0.6,26.9,0.5c17.8,2,34.9,6.4,51.3,13.8c13.7,6.1,26.4,13.7,38,23.1c15.5,12.5,28.5,27.2,38.6,44.4c1,1.6,1,4.3,3.9,4.6
	c5,0.6,9.8,2,14.6,3.4c17.1,4.9,32.4,13.5,46.1,24.7c10.5,8.6,19.4,18.9,26.7,30.4c3.9,6.1,7.2,12.5,10,19.2
	c0.1,0.3,0.2,0.5,0.4,0.7c0.7,1.1,1.3,2.3,2,3.5c0.3,0.6,0.6,1.2,0.7,1.8c1.6,7,3.3,13.9,4.8,20.9c0.9,4.4,2.4,8.5,2.1,13.2
	c-0.4,5.8,0.3,11.6,0,17.4c-0.6,12.4-3.1,24.3-7.1,36c-4.7,13.6-11.6,26-20.3,37.3c-5,6.5-10.6,12.6-16.8,18
	c-6.9,6-14.2,11.5-22.2,15.9c-4.6,2.5-9.2,4.7-14,6.8c-0.6,0.3-1.2,0.6-1.7,1C508.3,760.6,507.4,760.7,506.8,761.2z"/>
<linearGradient id="SVGID_00000008119320610952076410000013238905766177625526_" gradientUnits="userSpaceOnUse" x1="1629.4358" y1="541.4908" x2="2187.9397" y2="541.4908" gradientTransform="matrix(0.9748 0.2229 0.2229 -0.9748 -368.4274 719.8031)">
	<stop  offset="1.385225e-07" style="stop-color:#FFFFFF"/>
	<stop  offset="1" style="stop-color:#B4DAF9"/>
</linearGradient>
<path style="fill:#F2F6F9;stroke:url(#SVGID_00000008119320610952076410000013238905766177625526_);stroke-miterlimit:10;" d="
	M1407.8,760c-0.5-0.4-1.1-0.8-1.7-1c-4.7-2.1-9.4-4.4-14-6.8c-8.1-4.4-15.3-9.9-22.2-15.9c-6.2-5.4-11.8-11.4-16.8-18
	c-8.7-11.4-15.6-23.8-20.3-37.3c-4-11.7-6.5-23.6-7.1-36c-0.3-5.8,0.3-11.6,0-17.4c-0.3-4.7,1.2-8.9,2.1-13.2
	c1.4-7,3.1-13.9,4.8-20.9c0.1-0.6,0.4-1.2,0.7-1.8c0.7-1.1,1.3-2.3,2-3.5c0.1-0.2,0.3-0.5,0.4-0.7c2.8-6.7,6.1-13.1,10-19.2
	c7.3-11.6,16.2-21.8,26.7-30.4c13.7-11.2,28.9-19.8,46.1-24.7c4.8-1.4,9.6-2.8,14.6-3.4c2.8-0.3,2.9-3,3.9-4.6
	c10.1-17.2,23.2-31.9,38.6-44.4c11.6-9.4,24.3-17,38-23.1c16.4-7.4,33.6-11.7,51.3-13.8c8.9-1,17.9-1.1,26.9-0.5c0.6,0,1.2,0,1.8,0
	c0.5,0,1-0.1,1.5-0.2c1.1-0.2,2.2,0.5,3.3,0.4c0.7-0.1,1.4,0,2.1,0.1c12.2,2.8,24.3,5.6,36.5,8.3c1.5,0.3,2.6,1.2,3.9,2
	c3.3,1.9,6.9,3.1,10.3,4.6c9.9,4.5,19.2,10,28,16.3c9.7,7,18.6,14.9,26.5,23.9c8.7,9.9,16.2,20.6,22.4,32.3
	c3.6,6.8,6.9,13.7,9.4,20.9c0.3,0.8,0.7,1.3,1.8,1.3c13.2,0,25.8,3.6,38.3,7.1c5.6,1.5,11.1,4.2,16.5,6.7
	c17.2,7.9,32.2,18.9,45.1,32.7c13.6,14.5,24,31.1,31.1,49.7c6.4,16.8,9.4,34.1,9.9,52c0.1,4.4-0.3,8.8-0.5,13.2
	c-0.5,12.7-4.9,24.5-7.4,36.8c-0.1,0.7-0.4,1.3-0.8,1.9c-0.5,0.8-0.3,1.9-1,2.7c-0.3,0.3-0.6,0.7-0.8,1.1c-2.7,5.4-5,11-8,16.4
	c-6.7,12.3-15.1,23.2-24.8,33.2c-9.3,9.5-19.8,17.6-31.3,24.2c-15.2,8.8-31.5,14.9-48.8,18c-8.2,1.5-16.4,2.2-24.7,2.5
	c-3.9,0.1-7.9-0.2-11.8-0.4c-0.6,0-1.3,0-1.9,0.2c-0.9,0.3-1.9-0.1-2.8,0c-0.9,0.2-1.8,0.2-2.7,0c-93.4-21.3-186.8-42.7-280.1-64
	c-7-1.6-14-3.2-21.1-4.9c-0.8-0.2-1.6-0.6-2.3-1.1C1409.2,760.7,1408.4,760.6,1407.8,760z"/>
<g>
	<g>
		<path class="st2" d="M748.8,747.6c-36.3-42.4-60.9-90.8-70.7-145.8c-21.6-121.1,13.8-223.6,105.2-305.4
			c52.2-46.8,114.8-71.6,185.2-77c86.4-6.5,162,19.8,229.5,72.4c1.2,0.9,2,2.4,3,3.6c35.9,44.9,55.9,96.6,62.6,153.2
			c7,59.8-0.7,117.8-26,173c-15.9,34.7-36.3,66.6-63.2,93.5c-51,51.1-112.3,83.8-184.1,93.9c-77.5,11-150.5-3-217.8-44
			C764,759.9,757.3,752.6,748.8,747.6z"/>
		<path class="st3" d="M748.8,747.6c11.8,3,20.2,11.8,30.3,17.7c38.2,22.2,78.9,36,122.8,41.5c76.7,9.5,147.7-6.4,212.7-47.3
			c61.2-38.5,103.1-93.1,128.9-160.4c17.5-45.7,22.3-93.3,18.2-141.3c-5-57.3-25.3-109.8-59.1-156.7c-1.2-1.6-4.5-2.7-1.6-5.6
			c60,51,96.2,115.6,108.5,193.2c14.8,93.8-8,178.4-67.1,252.1c-51.2,63.9-118.1,103.2-199.5,115.4c-107.3,16.1-199.6-15.5-277.7-90
			C759.2,760.5,754.3,753.8,748.8,747.6z"/>
		<path class="st2" d="M966.9,80.3c0-14.2-0.3-28.4,0.1-42.5c0.4-17.1,10.8-28.3,25.4-28.4c14.7-0.1,25.5,11,25.7,28
			c0.4,28.4,0.4,56.7,0,85.1c-0.2,17.9-10.7,29.1-26,28.8c-14.8-0.2-24.8-11.2-25.2-28.5C966.6,108.6,966.9,94.4,966.9,80.3z"/>
		<path class="st2" d="M534.7,513.5c13.8,0,27.6-0.3,41.3,0.1c17.8,0.4,29,10.9,28.6,26.2c-0.3,14.8-11.3,24.8-28.6,25
			c-28.4,0.3-56.7,0.4-85.1,0c-17-0.2-28.2-10.9-28.2-25.6c0-14.7,11.1-25.2,28.2-25.6C505.6,513.2,520.1,513.5,534.7,513.5z"/>
		<path class="st2" d="M1452.3,513.5c13.8,0,27.6-0.3,41.3,0.1c17.2,0.4,28.4,10.4,28.7,25.1c0.3,15.1-11.2,25.9-28.9,26.1
			c-28,0.3-55.9,0.3-83.9,0c-18-0.2-29.2-10.4-29.2-25.7c0-15.3,11.2-25.2,29.3-25.6C1423.9,513.3,1438.1,513.5,1452.3,513.5z"/>
		<path class="st2" d="M1018.3,998.3c0,13.8,0.2,27.6-0.1,41.4c-0.3,17.9-10.5,29.4-25.6,29.4c-15.1,0-25.4-11.5-25.6-29.4
			c-0.3-27.6-0.2-55.1,0-82.7c0.2-18.7,10.5-30.2,26.2-29.8c15.2,0.4,24.8,11.6,25.1,29.8C1018.5,970.7,1018.3,984.5,1018.3,998.3z"
			/>
		<path class="st2" d="M636.6,157.8c7.2-1,13.5,2.9,19,8.3c20.4,20.2,40.9,40.5,61,61.1c11.5,11.8,11.8,28.2,1.5,38.1
			c-10,9.6-25.8,9.3-37.2-1.9c-20.9-20.4-41.4-41.1-61.9-61.9c-8.4-8.4-10.2-18.7-5.9-29.4C617.1,162.6,625,157.7,636.6,157.8z"/>
		<path class="st2" d="M1373.8,895.6c0.4,10.3-3.9,17.7-12.2,22c-8.5,4.5-17.5,4.7-25.8-0.7c-3.9-2.5-7.4-5.9-10.8-9.2
			c-18.5-18.3-36.9-36.7-55.2-55.2c-12.4-12.6-13.6-28.4-3.5-38.9c10.1-10.6,26.5-9.8,38.9,2.4c20,19.6,39.7,39.5,59.4,59.3
			C1370.5,881.1,1374.9,887.5,1373.8,895.6z"/>
		<path class="st2" d="M1285.2,272.1c-19.2-0.3-30.8-18.7-23.3-35.2c2-4.4,4.9-8,8.3-11.4c19-18.9,37.8-38,56.9-56.8
			c13.2-13.1,28.9-14.6,39.7-4.2c11,10.7,9.6,26.9-4,40.6c-18.3,18.5-36.7,36.9-55.2,55.2C1301.1,266.6,1294.3,272.8,1285.2,272.1z"
			/>
		<path class="st2" d="M725.5,831.7c0.4,8.8-4.6,15.1-10.1,20.7c-19.6,20-39.3,39.8-59.4,59.4c-12,11.7-27.9,12.1-38,1.8
			c-10.2-10.3-9.6-25.9,2.2-38c19.8-20.3,40-40.3,60.2-60.2c8.5-8.4,18.5-11.8,30.2-7C720.9,812.7,725.2,821,725.5,831.7z"/>
		<path class="st4" d="M895.9,338.1c0.5,8.6-3.7,15.5-10.9,20.5c-47.5,33.4-78.9,78-94.4,134c-4.6,16.4-18.1,23.8-32.4,19.4
			c-14.3-4.4-20.7-17.6-16-34.1c18.9-66.8,56.2-120.6,113.4-160.3c8.8-6.1,18-7.7,27.7-2.3C892,320.1,896.4,327.5,895.9,338.1z"/>
	</g>
</g>
</svg>
