<?xml version="1.0" encoding="utf-8"?>
<!-- Generator: Adobe Illustrator 25.4.1, SVG Export Plug-In . SVG Version: 6.00 Build 0)  -->
<svg version="1.1" id="Layer_1" xmlns="http://www.w3.org/2000/svg" xmlns:xlink="http://www.w3.org/1999/xlink" x="0px" y="0px"
	 viewBox="0 0 1920 1080" style="enable-background:new 0 0 1920 1080;" xml:space="preserve">
<style type="text/css">
	.st0{fill:#F2F6F9;stroke:url(#SVGID_1_);stroke-miterlimit:10;}
	.st1{fill:#FDCB6D;}
	.st2{fill:#FEC14F;}
	.st3{fill:#FEFEFE;}
</style>
<linearGradient id="SVGID_1_" gradientUnits="userSpaceOnUse" x1="136.6821" y1="543.4047" x2="1720.8218" y2="543.4047">
	<stop  offset="1.385225e-07" style="stop-color:#FFFFFF"/>
	<stop  offset="1" style="stop-color:#B4DAF9"/>
</linearGradient>
<path class="st0" d="M451.18,1068.05c-1.63-0.92-3.45-1.42-5.29-1.79c-14.42-2.92-28.78-6.11-42.97-10.05
	c-25.14-6.98-48.71-17.68-71.62-29.81c-20.66-10.94-39.99-24.14-58.02-39.08c-31.36-25.96-58.26-55.92-79.82-90.52
	c-18.53-29.71-32.87-61.27-42.45-95.06c-4.5-15.9-6.42-32.39-11.07-48.09c-3.81-12.83-2.23-25.35-2.53-37.99
	c-0.47-20.29-0.11-40.6-0.03-60.88c0-1.85,0.27-3.69,0.87-5.45c1.21-3.6,2.14-7.26,3.32-10.86c0.24-0.74,0.44-1.5,0.58-2.27
	c3.61-20.24,8.75-40.07,15.53-59.49c12.81-36.63,30.97-70.55,54.58-101.11c30.75-39.79,67.62-73.04,111.92-97.56
	c12.41-6.89,24.79-13.81,38.2-18.53c7.66-2.69,6.19-10.07,7.8-15.18c17.18-54.05,43.91-102.91,78.86-147.39
	c26.23-33.39,56.6-62.44,90.57-88.05c40.78-30.75,85.51-53.76,133.38-70.63c24.03-8.48,48.92-14.37,74.2-18.32
	c1.69-0.27,3.37-0.66,5.05-1.06c1.42-0.34,2.74-0.94,4.08-1.5c2.93-1.26,6.47-0.06,9.44-1.13c1.92-0.68,3.93-1.03,5.95-1.03
	c35.47-0.02,70.92,0.03,106.39-0.15c4.42-0.02,8.03,1.74,11.97,2.97c10.26,3.14,21.02,4.08,31.5,6.19
	c30.33,6.11,59.53,15.47,87.96,27.42c31.33,13.18,60.99,29.57,88.6,49.3c30.42,21.74,58,46.78,82.57,75.1
	c14.29,16.45,27.78,33.49,39.37,51.99c1.27,2.03,2.81,3.29,5.85,2.58c36.53-8.47,73.73-6.29,110.57-4.72
	c16.55,0.71,33.39,4.63,50,8.11c52.71,11.04,101.02,32.04,145.48,61.89c46.91,31.5,86.06,70.86,117.53,118.01
	c28.29,42.4,47.57,88.54,60.28,137.59c3.14,12.1,4.69,24.61,6.98,36.92c6.58,35.36,1.84,71.04,2.92,106.56
	c0.06,2.02-0.4,3.97-1.02,5.87c-0.81,2.52,0.26,5.56-1,7.97c-0.6,1.14-1.21,2.27-1.52,3.53c-4.14,16.71-6.93,33.71-11.65,50.34
	c-10.81,38.16-27.07,73.71-47.6,107.49c-19.63,32.29-43.57,61.14-71.21,86.76c-36.6,33.92-77.72,61.04-123.82,80.67
	c-21.73,9.25-43.99,16.5-66.73,22.45c-10.78,2.82-21.89,4.39-32.89,6.34c-1.81,0.32-3.63,0.79-5.22,1.69
	c-2.32,1.31-5.37,0.81-7.79,1.87c-2.34,1.02-4.77,1.76-7.32,1.76c-272.01,0.02-544.01,0.05-816.04,0.06
	c-20.45,0-40.9-0.05-61.35-0.1c-2.47,0-4.85-0.71-7.11-1.71C455.48,1069.07,453.06,1069.12,451.18,1068.05z"/>
<g>
	<g>
		<path class="st1" d="M338.59,675.85c-31.8-37.15-53.37-79.49-61.95-127.68c-18.89-106.04,12.1-195.82,92.09-267.44
			c45.74-40.95,100.54-62.74,162.19-67.4c75.65-5.73,141.87,17.33,201.01,63.38c1.05,0.82,1.77,2.07,2.64,3.12
			c31.43,39.35,48.98,84.56,54.81,134.17c6.16,52.4-0.59,103.18-22.77,151.53c-13.94,30.39-31.8,58.31-55.35,81.92
			c-44.66,44.77-98.32,73.38-161.2,82.27c-67.85,9.59-131.8-2.61-190.78-38.52C351.87,686.68,346.01,680.25,338.59,675.85z"/>
		<path class="st2" d="M338.59,675.85c10.3,2.61,17.66,10.36,26.5,15.5c33.46,19.44,69.09,31.52,107.55,36.31
			c67.17,8.36,129.34-5.62,186.31-41.46c53.59-33.72,90.28-81.51,112.9-140.51c15.35-40.04,19.54-81.73,15.9-123.76
			c-4.35-50.18-22.13-96.14-51.77-137.21c-1.02-1.41-3.96-2.39-1.42-4.88c52.54,44.68,84.29,101.21,95.02,169.2
			c12.97,82.12-6.98,156.23-58.74,220.81c-44.84,55.96-103.41,90.37-174.74,101.09c-93.98,14.13-174.79-13.61-243.22-78.8
			C347.68,687.18,343.34,681.31,338.59,675.85z"/>
		<path class="st1" d="M529.58,91.46c0-12.42-0.25-24.84,0.07-37.25c0.38-14.94,9.42-24.75,22.27-24.85
			c12.87-0.1,22.32,9.66,22.54,24.54c0.36,24.83,0.31,49.67,0.03,74.5c-0.18,15.64-9.4,25.45-22.78,25.24
			c-12.96-0.21-21.69-9.81-22.06-24.93C529.33,116.3,529.58,103.88,529.58,91.46z"/>
		<path class="st1" d="M151.07,470.87c12.07,0,24.15-0.23,36.21,0.06c15.6,0.37,25.4,9.53,25.09,22.93
			c-0.29,12.96-9.88,21.73-25.06,21.91c-24.83,0.29-49.67,0.32-74.49-0.01c-14.89-0.2-24.69-9.53-24.7-22.39
			c-0.01-12.86,9.77-22.02,24.67-22.43C125.54,470.6,138.31,470.88,151.07,470.87z"/>
		<path class="st1" d="M954.65,470.87c12.07,0,24.15-0.22,36.21,0.06c15.1,0.35,24.86,9.07,25.15,21.97
			c0.3,13.21-9.79,22.71-25.26,22.88c-24.48,0.28-48.98,0.26-73.46,0.01c-15.74-0.16-25.56-9.13-25.53-22.49
			c0.03-13.36,9.85-22.09,25.65-22.38C929.81,470.69,942.23,470.87,954.65,470.87z"/>
		<path class="st1" d="M574.56,895.41c0,12.07,0.18,24.15-0.04,36.22c-0.29,15.68-9.21,25.73-22.44,25.74
			c-13.21,0.01-22.29-10.07-22.43-25.73c-0.23-24.14-0.2-48.29-0.01-72.43c0.13-16.35,9.22-26.43,22.95-26.11
			c13.28,0.31,21.7,10.18,21.94,26.1C574.71,871.26,574.56,883.34,574.56,895.41z"/>
		<path class="st1" d="M240.34,159.4c6.28-0.84,11.85,2.57,16.62,7.29c17.91,17.73,35.85,35.43,53.44,53.47
			c10.1,10.36,10.34,24.73,1.35,33.36c-8.8,8.44-22.6,8.1-32.61-1.66c-18.29-17.83-36.22-36.03-54.21-54.17
			c-7.31-7.38-8.96-16.37-5.13-25.76C223.23,163.54,230.1,159.26,240.34,159.4z"/>
		<path class="st1" d="M885.94,805.47c0.33,9.03-3.39,15.46-10.64,19.3c-7.42,3.93-15.33,4.11-22.62-0.58
			c-3.44-2.21-6.49-5.13-9.41-8.03c-16.17-16.05-32.33-32.11-48.33-48.34c-10.85-11-11.94-24.85-3.05-34.11
			c8.89-9.26,23.24-8.6,34.1,2.06c17.48,17.17,34.74,34.58,52.01,51.97C882.99,792.76,886.85,798.42,885.94,805.47z"/>
		<path class="st1" d="M808.32,259.42c-16.81-0.25-26.98-16.34-20.43-30.86c1.73-3.84,4.32-7.01,7.28-9.96
			c16.62-16.57,33.14-33.25,49.82-49.76c11.6-11.49,25.33-12.82,34.76-3.64c9.67,9.41,8.39,23.56-3.46,35.52
			c-16.03,16.18-32.13,32.3-48.35,48.3C822.27,254.61,816.31,260.04,808.32,259.42z"/>
		<path class="st1" d="M318.17,749.52c0.34,7.68-4.02,13.2-8.85,18.12c-17.17,17.49-34.42,34.89-51.98,51.99
			c-10.5,10.22-24.41,10.56-33.26,1.6c-8.9-9.01-8.39-22.68,1.94-33.26c17.37-17.78,35.03-35.26,52.69-52.75
			c7.46-7.38,16.2-10.38,26.42-6.09C314.13,732.9,317.91,740.12,318.17,749.52z"/>
		<path class="st3" d="M467.4,317.27c0.45,7.55-3.25,13.53-9.53,17.94c-41.63,29.24-69.07,68.33-82.69,117.39
			c-4,14.39-15.82,20.83-28.34,16.99c-12.51-3.83-18.09-15.44-14.01-29.84c16.58-58.47,49.18-105.64,99.3-140.4
			c7.7-5.34,15.75-6.72,24.24-2.02C463.98,301.54,467.78,308.01,467.4,317.27z"/>
	</g>
</g>
</svg>
